<?xml version="1.0" encoding="utf-8"?>
<!-- Generator: Adobe Illustrator 20.0.0, SVG Export Plug-In . SVG Version: 6.00 Build 0)  -->
<svg version="1.1" id="Outline_Old_Icons" xmlns="http://www.w3.org/2000/svg" xmlns:xlink="http://www.w3.org/1999/xlink" x="0px"
	 y="0px" width="18px" height="24px" viewBox="0 0 18 24" style="enable-background:new 0 0 18 24;" xml:space="preserve">
<style type="text/css">
	.st0{fill:none;stroke:#000000;stroke-linecap:round;stroke-linejoin:round;stroke-miterlimit:10;}
</style>
<g>
	<path class="st0" d="M15.5,5.5c0,3.6-2.9,6.5-6.5,6.5c-3.6,0-6.5-2.9-6.5-6.5v-5h13V5.5z"/>
	<path class="st0" d="M15.5,18.5c0-3.6-2.9-6.5-6.5-6.5c-3.6,0-6.5,2.9-6.5,6.5v5h13V18.5z"/>
	<line class="st0" x1="0.5" y1="0.5" x2="17.5" y2="0.5"/>
	<line class="st0" x1="0.5" y1="23.5" x2="17.5" y2="23.5"/>
	<polyline class="st0" points="2.5,19.5 6,19.5 9,16.5 12,19.5 15.5,19.5 	"/>
	<line class="st0" x1="3.9" y1="9.5" x2="14.1" y2="9.5"/>
</g>
</svg>
