<?xml version="1.0" encoding="utf-8"?>
<!-- Generator: Adobe Illustrator 20.0.0, SVG Export Plug-In . SVG Version: 6.00 Build 0)  -->
<svg version="1.1" id="Outline_Old_Icons" xmlns="http://www.w3.org/2000/svg" xmlns:xlink="http://www.w3.org/1999/xlink" x="0px"
	 y="0px" width="24px" height="21.3px" viewBox="0 0 24 21.3" style="enable-background:new 0 0 24 21.3;" xml:space="preserve">
<style type="text/css">
	.st0{fill:none;stroke:#000000;stroke-linecap:round;stroke-linejoin:round;stroke-miterlimit:10;}
</style>
<g>
	<path class="st0" d="M20,14.3L20,14.3c0.8,0,1.5,0.7,1.5,1.5c0,0.8-0.7,1.5-1.5,1.5h-1c0.8,0,1.5,0.7,1.5,1.5c0,0.8-0.7,1-1.5,1
		c0,0-4,0-6.5,0c-2.9,0-3.5-0.5-7-1v-8.5C8,10.3,12,5.8,12,1.8c0-1.6,2.2-2.2,3,0.7c0.5,1.8-1,5.3-1,5.3h8c0.8,0,1.5,0.7,1.5,1.5
		c0,0.8-0.7,2-1.5,2h-1c0.8,0,1.5,0.7,1.5,1.5c0,0.8-0.7,1.5-1.5,1.5H20"/>
	<rect x="0.5" y="8.8" class="st0" width="5" height="12"/>
	<g>
		<g>
			<g>
				<path d="M3.5,18.3c-0.3,0-0.5,0.2-0.5,0.5s0.2,0.5,0.5,0.5S4,19.1,4,18.8S3.8,18.3,3.5,18.3L3.5,18.3z"/>
			</g>
		</g>
	</g>
</g>
</svg>
