<?xml version="1.0" encoding="utf-8"?>
<!-- Generator: Adobe Illustrator 20.0.0, SVG Export Plug-In . SVG Version: 6.00 Build 0)  -->
<svg version="1.1" id="Layer_1" xmlns="http://www.w3.org/2000/svg" xmlns:xlink="http://www.w3.org/1999/xlink" x="0px" y="0px"
	 width="9px" height="9px" viewBox="0 0 9 9" style="enable-background:new 0 0 9 9;" xml:space="preserve">
<path d="M9,1.7v5.6c0,0.5-0.2,0.9-0.5,1.2C8.2,8.8,7.8,9,7.3,9H1.7C1.2,9,0.8,8.8,0.5,8.5C0.2,8.2,0,7.8,0,7.3V1.7
	c0-0.5,0.2-0.9,0.5-1.2C0.8,0.2,1.2,0,1.7,0h5.6c0.5,0,0.9,0.2,1.2,0.5C8.8,0.8,9,1.2,9,1.7z M7.7,4.6l0.1-1.3H6.6V2.7
	c0-0.2,0-0.3,0.1-0.4c0.1-0.1,0.2-0.1,0.4-0.1h0.6V0.9h-1c-0.6,0-1,0.1-1.3,0.4C5.2,1.6,5.1,2,5.1,2.6v0.8H4.3v1.3h0.8v3.7h1.5V4.6
	H7.7z"/>
</svg>
