<?xml version="1.0" encoding="UTF-8" standalone="no"?>
<svg
   xmlns:dc="http://purl.org/dc/elements/1.1/"
   xmlns:cc="http://creativecommons.org/ns#"
   xmlns:rdf="http://www.w3.org/1999/02/22-rdf-syntax-ns#"
   xmlns:svg="http://www.w3.org/2000/svg"
   xmlns="http://www.w3.org/2000/svg"
   viewBox="0 0 499 395"
   height="395"
   width="499"
   version="1.1"
   id="svg3479">
  <metadata
     id="metadata3485">
    <rdf:RDF>
      <cc:Work
         rdf:about="">
        <dc:format>image/svg+xml</dc:format>
        <dc:type
           rdf:resource="http://purl.org/dc/dcmitype/StillImage" />
        <dc:title></dc:title>
      </cc:Work>
    </rdf:RDF>
  </metadata>
  <defs
     id="defs3483" />
  <g
     transform="translate(-17,-11)"
     id="g3489">
    <path
       id="path3493"
       d="m 17,259 0,-147 50.5,0 50.5,0 0,-50.5 0,-50.5 199,0 199,0 0,147 0,147 -50.5,0 -50.5,0 0,50.5 0,50.5 -199,0 -199,0 0,-147 z m 346,71.00397 0,-24.99604 L 240.75,304.75397 118.5,304.5 118.24325,234.25 117.98649,164 93.493247,164 69,164 l 0,95.5 0,95.5 147,0 147,0 0,-24.99603 z M 464,157.5 464,62 l -147,0 -147,0 0,95.5 0,95.5 147,0 147,0 0,-95.5 z"
       style="fill-opacity:1" />
    <path
       id="path3491"
       d="m 17,259.5 0,-146.5 51,0 51,0 0,-51 0,-51 198.5,0 198.5,0 0,146.5 0,146.5 -51,0 -51,0 0,51 0,51 -198.5,0 -198.5,0 0,-146.5 z m 346,70 0,-25.5 -121.99325,0 -121.99324,0 -0.25676,-70.25 -0.25675,-70.25 -25,0 -25,0 -0.255024,95.75 L 67.989953,355 215.49498,355 363,355 363,329.5 Z M 400.16531,253 465,253 465,157.5 465,62 317.5,62 170,62 l 0,96.16467 0,96.16466 82.66531,-0.66466 C 298.13123,253.2991 364.50623,253 400.16531,253 Z"
       style="fill-opacity:1" />
  </g>
</svg>
