<svg width="121.04" height="229.93" version="1.1" viewBox="0 0 121.03786 229.93463" xmlns="http://www.w3.org/2000/svg">
  <defs>
    <linearGradient id="gradient" x1="0" y1="0" x2="0" y2="100%">
      <stop offset="0%" stop-color="#374e5d"/>
      <stop offset="100%" stop-color="#161717"/>
    </linearGradient>
  </defs>
  <path fill="url(#gradient)" d="m11.038 228c-1.1-1.1-2-2.4524-2-3.0053s6.3-23.003 14-49.889 14-49.158 14-49.495-7.8646-0.61136-17.477-0.61136c-17.307 0-17.492-0.02319-19.037-2.3815-1.473-2.248-0.69588-5.6769 13.866-61.182 11.281-42.998 15.911-59.155 17.229-60.118 1.4238-1.0411 10.654-1.3178 43.956-1.3178 39.568 0 42.255 0.11218 43.809 1.8287 0.91025 1.0058 1.655 2.737 1.655 3.8471 0 1.1101-10.052 17.275-22.337 35.921l-22.337 33.903 20.532 0.27088c22.149 0.29222 24.143 0.76998 24.143 5.7853 0 2.241-99.417 144.69-102.73 147.19-2.3885 1.8066-4.9811 1.5392-7.2703-0.75zm4.5811-13.018c2.729-3.0404 83.494-118.28 84.236-120.21 0.32267-0.84088 3.6828-4.8198 4.5021-6.0124-0.55388-1.2315 10.164-2.7045-7.5372-2.7045-11.773 0-24.674-0.19548-31.785-0.64647-3.4728-0.22024-4.1986-2.713-4.1986-3.1105 0-0.77892 13.283-22.33 25.399-40.796 12.115-18.466 15.175-23.211 15.496-24.048 0.3211-0.83678 3.9609-5.4678 3.282-6.2858-1.0564-1.2729 6.2303-0.83184-29.506-0.83184-32.603 0-36.463-0.18893-37.288 0.80582-1.1586 1.396-25.382 96.945-25.382 99.889 0 3.2576-0.37654 4.451 10.167 4.451 11.525 0 26.523 3.3459 26.523 4.0733 0 0.59241-7.2363 27.094-14.936 53.743s-2.5769 19.717-2.5769 20.416c0 1.7702-15.144 19.401-13.203 19.401 0.89413 0-4.3006 3.1073-3.1898 1.8698zm14.035-20.396c0.5473-1.447 0.397-1.712-0.6159-1.086-0.92757 0.57327-1.1828 0.39296-0.82952-0.58596 0.2807-0.77772 5.1453-17.717 10.81-37.643 8.502-29.905 1.9334-30.595 0.89117-31.851-1.0418-1.2553 3.838-7.4202-10.526-7.4202-13.007 0-17.529-0.31607-17.884-1.25-0.41113-1.0814 25.826-103.45 26.709-104.21 0.18081-0.15556 15.404-0.45349 33.829-0.66207 32.979-0.37333 33.499-0.3481 33.43 1.6208-0.0387 1.1-10.087 17.169-22.331 35.708-16.265 24.63-22.096 34.226-21.65 35.631 0.91042 2.8685 5.0659 3.2849 25.274 2.5326 15.922-0.59274 20.638-0.10884 21.156 1.2409 0.3853 1.0041-14.765 19.671-38.939 54.029-20.455 29.072-37.834 53.534-38.619 54.359-1.2579 1.3213-1.3418 1.272-0.70411-0.41404zm37.228-54.604 35.976-51.482-8.6599-0.64411c-4.763-0.35426-13.915-0.69176-20.338-0.75-12.053-0.10928-14.821-0.99526-14.821-4.7431 0-2.2426 0.67999-3.3477 23.215-37.729 11.487-17.527 20.65-32.103 20.361-32.391-0.28879-0.28879-14.578-0.57392-31.755-0.63362l-31.229-0.10854-13.264 50c-7.2952 27.5-13.278 50.562-13.296 51.25-0.02419 0.95223 4.018 1.25 16.968 1.25 15.667 0 17.157 0.15686 19 2 1.1 1.1 1.9983 2.5625 1.9962 3.25-0.0021 0.6875-4.6498 17.335-10.328 36.995s-10.206 35.627-10.062 35.482c0.14439-0.14439 16.452-23.43 36.238-51.745z"/>
</svg>
