<svg xmlns="http://www.w3.org/2000/svg" xmlns:xlink="http://www.w3.org/1999/xlink" viewBox="0 0 9 9">
  <defs>
    <linearGradient id="social-link-gradient" x1="0" y1="0" x2="100%" y2="0">
      <stop offset="0%" stop-color="#76d222"/>
      <stop offset="100%" stop-color="#519623"/>
    </linearGradient>
  </defs>
  <path fill="url(#social-link-gradient)" d="M9,1.7v5.6c0,0.5-0.2,0.9-0.5,1.2C8.2,8.8,7.8,9,7.3,9H1.7C1.2,9,0.8,8.8,0.5,8.5C0.2,8.2,0,7.8,0,7.3V1.7c0-0.5,0.2-0.9,0.5-1.2C0.8,0.2,1.2,0,1.7,0h5.6c0.5,0,0.9,0.2,1.2,0.5C8.8,0.8,9,1.2,9,1.7z M6.9,3.5c0.2-0.2,0.5-0.4,0.6-0.6C7.3,2.9,7,3,6.8,3c0.3-0.2,0.4-0.4,0.5-0.7C7.1,2.5,6.8,2.6,6.6,2.6C6.3,2.4,6,2.2,5.7,2.2C5.3,2.2,5,2.4,4.8,2.6C4.5,2.9,4.4,3.1,4.4,3.5c0,0.1,0,0.2,0,0.3c-0.5,0-1-0.2-1.4-0.4S2.2,2.9,1.9,2.5C1.8,2.7,1.7,2.9,1.7,3.1c0,0.4,0.2,0.8,0.5,1C2.1,4.1,1.9,4.1,1.7,4v0c0,0.3,0.1,0.6,0.3,0.8s0.4,0.4,0.7,0.4c-0.1,0-0.2,0-0.3,0c-0.1,0-0.1,0-0.2,0c0.1,0.2,0.2,0.4,0.4,0.6C2.8,6,3.1,6.1,3.3,6.1c-0.5,0.4-1,0.5-1.5,0.5c-0.1,0-0.2,0-0.3,0c0.6,0.4,1.2,0.6,1.9,0.6c0.4,0,0.8-0.1,1.2-0.2c0.4-0.1,0.7-0.3,1-0.6c0.3-0.2,0.5-0.5,0.7-0.8c0.2-0.3,0.3-0.6,0.4-0.9c0.1-0.3,0.1-0.7,0.1-1C6.9,3.6,6.9,3.5,6.9,3.5L6.9,3.5z" />
</svg>