<?xml version="1.0" encoding="utf-8"?>
<!-- Generator: Adobe Illustrator 20.0.0, SVG Export Plug-In . SVG Version: 6.00 Build 0)  -->
<svg version="1.1" id="Layer_1" xmlns="http://www.w3.org/2000/svg" xmlns:xlink="http://www.w3.org/1999/xlink" x="0px" y="0px"
	 width="4.6px" height="7.4px" viewBox="0 0 4.6 7.4" style="enable-background:new 0 0 4.6 7.4;" xml:space="preserve">
<style type="text/css">
	.st0{fill:#333333;}
</style>
<path class="st0" d="M4.5,3.4c0.1,0.1,0.1,0.2,0.1,0.3c0,0.1,0,0.2-0.1,0.3L1.3,7.2C1.2,7.3,1.1,7.4,0.9,7.4c-0.1,0-0.2,0-0.3-0.1
	L0.1,6.7C0,6.7,0,6.5,0,6.4c0-0.1,0-0.2,0.1-0.3l2.4-2.4L0.1,1.3C0,1.2,0,1.1,0,0.9s0-0.2,0.1-0.3l0.5-0.5C0.7,0,0.8,0,0.9,0
	c0.1,0,0.2,0,0.3,0.1L4.5,3.4L4.5,3.4z"/>
</svg>
