<?xml version="1.0" encoding="utf-8"?>
<!-- Generator: Adobe Illustrator 20.0.0, SVG Export Plug-In . SVG Version: 6.00 Build 0)  -->
<svg version="1.1" id="Layer_1" xmlns="http://www.w3.org/2000/svg" xmlns:xlink="http://www.w3.org/1999/xlink" x="0px" y="0px"
	 width="9px" height="9px" viewBox="0 0 9 9" style="enable-background:new 0 0 9 9;" xml:space="preserve">
<path d="M7.3,0c0.5,0,0.9,0.2,1.2,0.5C8.8,0.8,9,1.2,9,1.7v5.6c0,0.5-0.2,0.9-0.5,1.2C8.2,8.8,7.8,9,7.3,9H3.1
	c0.3-0.5,0.5-0.9,0.6-1.2c0-0.1,0.1-0.5,0.3-1.2c0.1,0.2,0.2,0.3,0.4,0.4C4.6,7,4.9,7.1,5.1,7.1c0.7,0,1.3-0.3,1.7-0.9
	C7.3,5.7,7.5,4.9,7.5,4c0-0.3-0.1-0.6-0.2-1C7.2,2.8,7,2.5,6.7,2.3C6.5,2,6.2,1.9,5.8,1.7C5.5,1.6,5.1,1.5,4.7,1.5
	c-0.4,0-0.8,0.1-1.1,0.2C3.2,1.8,2.9,1.9,2.6,2.1C2.4,2.3,2.2,2.5,2,2.8C1.8,3,1.7,3.2,1.6,3.5C1.5,3.8,1.5,4,1.5,4.3
	c0,0.4,0.1,0.8,0.2,1.1C1.9,5.6,2.1,5.9,2.4,6c0.1,0,0.1,0,0.1,0c0,0,0.1-0.1,0.1-0.1c0-0.2,0.1-0.3,0.1-0.4c0-0.1,0-0.2-0.1-0.2
	C2.5,5,2.4,4.7,2.4,4.4c0-0.6,0.2-1.1,0.6-1.5c0.4-0.4,0.9-0.6,1.6-0.6c0.6,0,1,0.2,1.4,0.5C6.2,3.1,6.4,3.5,6.4,4
	c0,0.7-0.1,1.2-0.4,1.7C5.8,6.1,5.4,6.3,5,6.3c-0.2,0-0.4-0.1-0.6-0.3C4.3,5.9,4.2,5.7,4.3,5.5c0-0.1,0.1-0.3,0.2-0.5
	c0.1-0.2,0.1-0.4,0.2-0.6c0-0.2,0.1-0.3,0.1-0.4c0-0.2-0.1-0.4-0.2-0.5C4.4,3.3,4.3,3.2,4.1,3.2c-0.2,0-0.4,0.1-0.6,0.3
	C3.3,3.8,3.2,4.1,3.2,4.4c0,0.3,0,0.5,0.1,0.7L2.8,7.5C2.7,7.9,2.7,8.4,2.8,9H1.7C1.2,9,0.8,8.8,0.5,8.5C0.2,8.2,0,7.8,0,7.3V1.7
	c0-0.5,0.2-0.9,0.5-1.2S1.2,0,1.7,0H7.3z"/>
</svg>
