<?xml version="1.0" encoding="utf-8"?>
<!-- Generator: Adobe Illustrator 20.0.0, SVG Export Plug-In . SVG Version: 6.00 Build 0)  -->
<svg version="1.1" id="Layer_1" xmlns="http://www.w3.org/2000/svg" xmlns:xlink="http://www.w3.org/1999/xlink" x="0px" y="0px"
	 width="609.9px" height="149.5px" viewBox="0 0 609.9 149.5" style="enable-background:new 0 0 609.9 149.5;" xml:space="preserve"
	>
<style type="text/css">
	.st0{fill:#231F20;}
</style>
<path class="st0" d="M0,0h94.8v27.5H61.2v119.1H32.9V27.5H0V0z"/>
<path class="st0" d="M216.2,100.3h-87.4c1.3,7.7,4.6,13.8,10.1,18.4c5.5,4.6,12.5,6.8,21,6.8c10.2,0,18.9-3.6,26.2-10.7l22.9,10.8
	c-5.7,8.1-12.6,14.1-20.5,18c-8,3.9-17.4,5.8-28.4,5.8c-17,0-30.9-5.4-41.6-16.1c-10.7-10.7-16.1-24.2-16.1-40.3
	c0-16.5,5.3-30.3,16-41.2c10.7-10.9,24-16.4,40.1-16.4c17.1,0,31,5.5,41.7,16.4c10.7,10.9,16.1,25.4,16.1,43.3L216.2,100.3z
	 M189,78.9c-1.8-6-5.3-11-10.6-14.8c-5.3-3.8-11.4-5.7-18.4-5.7c-7.6,0-14.2,2.1-20,6.4c-3.6,2.7-6.9,7.3-10,14.1H189z"/>
<path class="st0" d="M351.3,60.1l-22.7,12.5c-4.3-4.5-8.5-7.5-12.6-9.3c-4.2-1.7-9-2.6-14.6-2.6c-10.2,0-18.4,3-24.7,9.1
	c-6.3,6.1-9.4,13.9-9.4,23.3c0,9.2,3,16.8,9.1,22.6c6.1,5.8,14,8.8,23.9,8.8c12.2,0,21.7-4.2,28.4-12.5l21.5,14.7
	c-11.6,15.1-28.1,22.7-49.3,22.7c-19.1,0-34-5.6-44.8-16.9c-10.8-11.3-16.2-24.5-16.2-39.7c0-10.5,2.6-20.2,7.9-29
	C253,55,260.3,48,269.7,43c9.4-5.1,19.9-7.6,31.6-7.6c10.8,0,20.4,2.1,29,6.4C338.9,46.1,345.9,52.2,351.3,60.1z"/>
<path class="st0" d="M480.3,60.1l-22.7,12.5c-4.3-4.5-8.5-7.5-12.6-9.3c-4.2-1.7-9-2.6-14.6-2.6c-10.2,0-18.4,3-24.7,9.1
	c-6.3,6.1-9.4,13.9-9.4,23.3c0,9.2,3,16.8,9.1,22.6c6.1,5.8,14,8.8,23.9,8.8c12.2,0,21.7-4.2,28.4-12.5l21.5,14.7
	c-11.6,15.1-28.1,22.7-49.3,22.7c-19.1,0-34-5.6-44.8-16.9c-10.8-11.3-16.2-24.5-16.2-39.7c0-10.5,2.6-20.2,7.9-29
	C382,55,389.3,48,398.7,43c9.4-5.1,19.9-7.6,31.6-7.6c10.8,0,20.4,2.1,29,6.4C467.9,46.1,474.9,52.2,480.3,60.1z"/>
<path class="st0" d="M552.3,35.4c10.2,0,19.9,2.6,28.9,7.7c9,5.1,16,12.1,21.1,20.8c5,8.8,7.6,18.2,7.6,28.4
	c0,10.2-2.5,19.8-7.6,28.7c-5.1,8.9-12,15.9-20.8,20.9c-8.8,5-18.4,7.5-29,7.5c-15.6,0-28.8-5.5-39.8-16.6
	c-11-11.1-16.5-24.5-16.5-40.3c0-17,6.2-31.1,18.6-42.4C525.7,40.3,538.2,35.4,552.3,35.4z M552.8,61c-8.5,0-15.5,2.9-21.1,8.8
	c-5.6,5.9-8.4,13.4-8.4,22.6c0,9.4,2.8,17.1,8.3,22.9c5.6,5.8,12.6,8.8,21.1,8.8c8.5,0,15.6-3,21.3-8.9c5.7-5.9,8.5-13.5,8.5-22.8
	c0-9.3-2.8-16.9-8.3-22.7C568.6,63.9,561.5,61,552.8,61z"/>
</svg>
