<?xml version="1.0" encoding="UTF-8" standalone="no"?>
<svg
   xmlns:dc="http://purl.org/dc/elements/1.1/"
   xmlns:cc="http://creativecommons.org/ns#"
   xmlns:rdf="http://www.w3.org/1999/02/22-rdf-syntax-ns#"
   xmlns:svg="http://www.w3.org/2000/svg"
   xmlns="http://www.w3.org/2000/svg"
   viewBox="0 0 441.98584 441.96735"
   height="441.96735"
   width="441.98584"
   version="1.1"
   id="svg3390">
  <metadata
     id="metadata3396">
    <rdf:RDF>
      <cc:Work
         rdf:about="">
        <dc:format>image/svg+xml</dc:format>
        <dc:type
           rdf:resource="http://purl.org/dc/dcmitype/StillImage" />
        <dc:title></dc:title>
      </cc:Work>
    </rdf:RDF>
  </metadata>
  <defs
     id="defs3394" />
  <g
     transform="translate(-7.9607192,-8)"
     id="g3400">
    <path
       id="path3404"
       d="M 200,448.37505 C 108.68582,436.03248 33.484952,367.51235 13.510593,278.45312 -3.0275387,204.71491 17.867953,129.58117 69.888083,75.737064 112.39885,31.735751 168.15327,8 229,8 c 25.67599,0 46.38771,3.363358 70.80395,11.497791 33.18913,11.057186 62.29663,29.508523 87.77367,55.640023 34.50185,35.388126 55.7942,80.261786 61.38178,129.362186 1.31621,11.56607 1.31621,37.43393 0,49 -7.45889,65.5444 -43.19526,123.55839 -98.9594,160.6495 -20.13211,13.39073 -49.14683,25.69834 -72.69605,30.83659 -23.04427,5.02807 -54.85868,6.4228 -77.30395,3.38896 z m 55.13636,-18.83008 c 44.30861,-5.89869 85.1495,-26.07221 116.74295,-57.66566 C 425.94314,317.81548 444.93156,237.88953 420.90991,165.5 396.50383,91.951992 332.08794,38.69939 255.13636,28.455034 241.22322,26.602817 216.98203,26.61987 202.80122,28.491851 119.86295,39.440367 52.669194,99.479488 32.619381,180.55312 28.087163,198.87965 27.5,204.43622 27.5,229 c 0,24.56378 0.587163,30.12035 5.119381,48.44688 C 52.573681,358.1343 119.45278,418.1681 202,429.49083 c 12.83714,1.76083 40.10765,1.78861 53.13636,0.0541 z M 153.68918,277.16553 C 128.72054,252.24965 127.8,251.19304 127.8,247.44947 127.8,242.53191 132.31423,238 137.21262,238 c 2.80525,0 5.69142,2.50047 24.43004,21.16531 l 21.24898,21.16531 4.30418,-3.87905 c 2.3673,-2.13347 31.0858,-28.87036 63.81888,-59.41531 32.73309,-30.54494 61.21125,-56.99876 63.2848,-58.78626 4.60443,-3.96924 8.41949,-4.19877 12.51463,-0.75295 3.83763,3.22915 4.68469,6.69829 2.63493,10.79136 -1.33783,2.67144 -115.52927,110.22008 -136.92698,128.96159 -10.47503,9.17471 -8.47528,10.20899 -38.8329,-20.08447 z"
       style="fill-opacity:1" />
    <path
       id="path3402"
       d="m 344,406.67155 c 0,-10.29251 0.0392,-10.46694 2.75,-12.22179 11.55063,-7.47753 31.38674,-26.5327 42.24359,-40.58049 57.17388,-73.97789 57.17388,-175.76065 0,-249.73854 C 378.13674,90.082936 358.30063,71.027766 346.75,63.550245 344.03925,61.795387 344,61.620964 344,51.328454 l 0,-10.441526 3.06843,1.806536 c 1.68764,0.993595 7.84611,5.351401 13.6855,9.684014 47.9128,35.549528 79.43309,89.738272 87.32268,150.122522 1.51375,11.58571 1.51375,41.41429 0,53 -5.52226,42.2655 -22.919,82.5346 -49.24937,114 -13.75613,16.43889 -37.36318,37.33112 -51.75881,45.80654 L 344,417.11307 l 0,-10.44152 z"
       style="fill-opacity:1" />
  </g>
</svg>
