<?xml version="1.0" standalone="no"?>
<!DOCTYPE svg PUBLIC "-//W3C//DTD SVG 1.1//EN" "http://www.w3.org/Graphics/SVG/1.1/DTD/svg11.dtd" >
<svg xmlns="http://www.w3.org/2000/svg" xmlns:xlink="http://www.w3.org/1999/xlink" version="1.1">
<metadata>
Created by FontForge 20161003 at Mon Feb  6 10:28:23 2017
 By www-data
Copyright (c) 2013 by S-Core Co., Ltd.. All rights reserved.
</metadata>
<defs>
<font id="SCoreCoreSansM55Medium" horiz-adv-x="1000" >
  <font-face 
    font-family="SCoreCoreSansM55Medium"
    font-weight="400"
    font-stretch="normal"
    units-per-em="1000"
    panose-1="2 15 6 3 3 3 2 2 2 4"
    ascent="800"
    descent="-200"
    x-height="518"
    cap-height="700"
    bbox="-428 -310 1037 976"
    underline-thickness="24"
    underline-position="-231"
    unicode-range="U+0008-FB04"
  />
<missing-glyph horiz-adv-x="300" 
 />
    <glyph glyph-name="f_f" unicode="ff" horiz-adv-x="730" 
d="M220 518h221v43q0 88 36 132.5t126 44.5q52 0 94 -15q16 -5 16 -22v-48q0 -14 -17 -13q-34 4 -71 4q-38 0 -53 -17.5t-15 -57.5v-51h139q16 0 16 -16v-62q0 -16 -16 -16h-139v-409q0 -15 -16 -15h-85q-15 0 -15 15v409h-221v-409q0 -15 -16 -15h-85q-15 0 -15 15v409h-80
q-16 0 -16 16v62q0 16 16 16h80v43q0 88 36 132.5t126 44.5q69 0 112 -15q16 -5 16 -23v-47q0 -14 -17 -13q-36 4 -89 4q-38 0 -53 -17.5t-15 -57.5v-51z" />
    <glyph glyph-name="f_i" unicode="fi" horiz-adv-x="651" 
d="M220 518h330q16 0 16 -16v-487q0 -15 -16 -15h-85q-15 0 -15 15v409h-230v-409q0 -15 -16 -15h-85q-15 0 -15 15v409h-80q-16 0 -16 16v62q0 16 16 16h80v43q0 88 36 132.5t126 44.5q52 0 94 -15q16 -5 16 -22v-48q0 -14 -17 -13q-34 4 -71 4q-38 0 -53 -17.5t-15 -57.5
v-51zM571 699v-7q0 -31 -9 -64.5t-32 -33.5h-65q-15 0 -15 16v89q0 16 15 16h91q15 0 15 -16z" />
    <glyph glyph-name="f_l" unicode="fl" horiz-adv-x="700" 
d="M288 644q-38 0 -53 -17.5t-15 -57.5v-51h139q16 0 16 -16v-62q0 -16 -16 -16h-139v-409q0 -15 -16 -15h-85q-15 0 -15 15v409h-80q-16 0 -16 16v62q0 16 16 16h80v43q0 88 36 132.5t126 44.5q105 0 199 -8h85q16 0 16 -16v-558q0 -38 14 -54t51 -16q23 0 45 4
q16 3 16 -13v-53q0 -14 -16 -18q-46 -14 -88 -14q-138 0 -138 152v497q-75 3 -162 3z" />
    <glyph glyph-name="f_f_i" unicode="ffi" horiz-adv-x="988" 
d="M557 518h330q16 0 16 -16v-487q0 -15 -16 -15h-85q-15 0 -15 15v409h-230v-409q0 -15 -16 -15h-85q-15 0 -15 15v409h-221v-409q0 -15 -16 -15h-85q-15 0 -15 15v409h-80q-16 0 -16 16v62q0 16 16 16h80v43q0 88 36 132.5t126 44.5q69 0 112 -15q16 -5 16 -23v-47
q0 -14 -17 -13q-36 4 -89 4q-38 0 -53 -17.5t-15 -57.5v-51h221v43q0 88 36 132.5t126 44.5q52 0 94 -15q16 -5 16 -22v-48q0 -14 -17 -13q-34 4 -71 4q-38 0 -53 -17.5t-15 -57.5v-51zM908 699v-7q0 -31 -9 -64.5t-32 -33.5h-65q-15 0 -15 16v89q0 16 15 16h91q15 0 15 -16
z" />
    <glyph glyph-name="f_f_l" unicode="ffl" horiz-adv-x="1037" 
d="M220 518h221v43q0 88 36 132.5t126 44.5q105 0 199 -8h85q16 0 16 -16v-558q0 -38 14 -54t51 -16q23 0 45 4q16 3 16 -13v-53q0 -14 -16 -18q-45 -14 -88 -14q-138 0 -138 152v497q-75 3 -162 3q-38 0 -53 -17.5t-15 -57.5v-51h139q16 0 16 -16v-62q0 -16 -16 -16h-139
v-409q0 -15 -16 -15h-85q-15 0 -15 15v409h-221v-409q0 -15 -16 -15h-85q-15 0 -15 15v409h-80q-16 0 -16 16v62q0 16 16 16h80v43q0 88 36 132.5t126 44.5q69 0 112 -15q16 -5 16 -23v-47q0 -14 -17 -13q-36 4 -89 4q-38 0 -53 -17.5t-15 -57.5v-51z" />
    <glyph glyph-name=".notdef" horiz-adv-x="300" 
 />
    <glyph glyph-name=".null" horiz-adv-x="0" 
 />
    <glyph glyph-name=".null" horiz-adv-x="0" 
 />
    <glyph glyph-name=".null" horiz-adv-x="0" 
 />
    <glyph glyph-name="nonmarkingreturn" horiz-adv-x="333" 
 />
    <glyph glyph-name="CR" unicode="&#x9;" horiz-adv-x="237" 
 />
    <glyph glyph-name="CR" unicode="&#xd;" horiz-adv-x="237" 
 />
    <glyph glyph-name="space" unicode=" " horiz-adv-x="300" 
 />
    <glyph glyph-name="exclam" unicode="!" horiz-adv-x="272" 
d="M166 185h-59q-15 0 -17 18l-16 318v163q0 16 15 16h95q15 0 15 -16v-163l-16 -318q-1 -18 -17 -18zM73 102v12q0 15 15 15h96q15 0 15 -15v-100q0 -14 -14 -14h-77q-18 0 -23 17q-12 40 -12 85z" />
    <glyph glyph-name="quotedbl" unicode="&#x22;" horiz-adv-x="530" 
d="M110 420l-14 265q-2 15 14 15h104q14 0 14 -15v-19q0 -109 -29 -246q-3 -11 -14 -11h-63q-12 0 -12 11zM317 420l-14 265q-1 15 14 15h104q14 0 14 -15v-19q0 -109 -29 -246q-3 -11 -14 -11h-63q-12 0 -12 11z" />
    <glyph glyph-name="numbersign" unicode="#" horiz-adv-x="688" 
d="M48 261h98l31 180h-89q-15 0 -15 16v62q0 15 15 15h105l26 151q3 15 18 15h76q16 0 13 -16l-26 -150h150l26 151q3 15 18 15h76q16 0 13 -16l-26 -150h82q16 0 16 -15v-62q0 -16 -16 -16h-98l-31 -180h89q16 0 16 -15v-62q0 -16 -16 -16h-105l-26 -153q-3 -15 -18 -15
h-76q-16 0 -13 16l26 152h-150l-26 -153q-3 -15 -18 -15h-76q-16 0 -13 16l26 152h-82q-15 0 -15 16v62q0 15 15 15zM284 441l-31 -180h150l31 180h-150z" />
    <glyph glyph-name="dollar" unicode="$" horiz-adv-x="550" 
d="M246 -81v69q-98 3 -177 22q-14 3 -14 15v59q0 15 17 14q93 -10 174 -10v224l-77 35q-116 54 -116 185q0 85 47 129.5t146 49.5v72q0 17 16 17h34q16 0 16 -17v-72q77 -5 143 -22q14 -3 14 -15v-58q0 -15 -17 -14q-76 9 -140 10v-209l72 -32q117 -53 117 -191
q0 -86 -44.5 -134t-144.5 -56v-71q0 -17 -16 -17h-34q-16 0 -16 17zM380 179q0 68 -68 102v-188q68 16 68 86zM175 529q0 -63 71 -96v176q-71 -12 -71 -80z" />
    <glyph glyph-name="percent" unicode="%" horiz-adv-x="901" 
d="M707 681l-400 -668q-8 -13 -24 -13h-80q-19 0 -9 19l400 668q8 13 24 13h80q19 0 9 -19zM298 517v18q0 44 -16 65.5t-52 21.5t-52 -21.5t-16 -65.5v-18q0 -44 16 -65.5t52 -21.5t52 21.5t16 65.5zM395 539v-26q0 -82 -43.5 -125.5t-121.5 -43.5t-121.5 43.5t-43.5 125.5
v26q0 82 43.5 125.5t121.5 43.5t121.5 -43.5t43.5 -125.5zM739 165v18q0 44 -16 65.5t-52 21.5t-52 -21.5t-16 -65.5v-18q0 -44 16 -65.5t52 -21.5t52 21.5t16 65.5zM836 187v-26q0 -82 -43.5 -125.5t-121.5 -43.5t-121.5 43.5t-43.5 125.5v26q0 82 43.5 125.5t121.5 43.5
t121.5 -43.5t43.5 -125.5z" />
    <glyph glyph-name="ampersand" unicode="&#x26;" horiz-adv-x="728" 
d="M630 336q0 -120 -53 -206l96 -112q6 -8 3.5 -13t-10.5 -5h-99q-21 0 -35 17l-28 32q-81 -61 -201 -61q-114 0 -176 51t-62 137q0 131 149 213q-53 56 -75.5 96t-22.5 82q0 72 46 108.5t153 36.5q87 0 163 -23q13 -4 13 -15v-60q0 -16 -15 -13q-73 11 -151 11
q-48 0 -67.5 -11t-19.5 -36q0 -36 38 -81l226 -265q29 60 38 139q2 13 16 10l60 -13q14 -3 14 -19zM309 88q72 0 126 43l-162 190q-86 -62 -86 -142q0 -43 31.5 -67t90.5 -24z" />
    <glyph glyph-name="quotesingle" unicode="'" horiz-adv-x="317" 
d="M107 420l-14 265q-1 15 14 15h104q14 0 14 -15v-19q0 -109 -29 -246q-3 -11 -14 -11h-63q-12 0 -12 11z" />
    <glyph glyph-name="parenleft" unicode="(" horiz-adv-x="406" 
d="M95 302q0 94 13.5 171t43.5 141t83.5 102.5t127.5 45.5q16 1 16 -14v-57q0 -12 -15 -17q-49 -16 -79.5 -51.5t-49 -115t-18.5 -205.5t18.5 -205.5t49 -115t79.5 -51.5q15 -4 15 -17v-57q0 -15 -16 -14q-74 7 -127.5 45.5t-83.5 102.5t-43.5 141t-13.5 171z" />
    <glyph glyph-name="parenright" unicode=")" horiz-adv-x="406" 
d="M311 302q0 -94 -13.5 -171t-43.5 -141t-83.5 -102.5t-127.5 -45.5q-16 -1 -16 14v57q0 13 15 17q49 16 79.5 51.5t49 115t18.5 205.5t-18.5 205.5t-49 115t-79.5 51.5q-15 5 -15 17v57q0 15 16 14q74 -7 127.5 -45.5t83.5 -102.5t43.5 -141t13.5 -171z" />
    <glyph glyph-name="asterisk" unicode="*" horiz-adv-x="608" 
d="M345 306q95 -74 159 -163q12 -17 -1 -27l-67 -49q-14 -10 -27 7q-63 89 -105 203q-42 -114 -105 -203q-13 -17 -27 -7l-67 49q-13 10 -1 27q64 89 159 163q-124 4 -225 38q-19 6 -15 22l26 79q5 16 25 10q110 -37 205 -101q-33 113 -33 226q0 21 17 21h83q17 0 17 -21
q0 -110 -34 -226q95 64 205 101q20 6 25 -10l26 -79q4 -16 -15 -22q-101 -34 -225 -38z" />
    <glyph glyph-name="plus" unicode="+" horiz-adv-x="624" 
d="M373 381h173q16 0 16 -16v-69q0 -15 -16 -15h-173v-192q0 -15 -15 -15h-92q-15 0 -15 15v192h-173q-16 0 -16 15v69q0 16 16 16h173v192q0 16 15 16h92q15 0 15 -16v-192z" />
    <glyph glyph-name="comma" unicode="," horiz-adv-x="278" 
d="M96 -125l-41 23q-9 5 -4 16q30 54 30 108q0 17 -4 37q-6 30 -6 46v19q0 15 15 15h101q15 0 15 -15v-25q0 -122 -87 -223q-8 -8 -19 -1z" />
    <glyph glyph-name="hyphen" unicode="-" horiz-adv-x="430" 
d="M78 385h274q16 0 16 -16v-77q0 -15 -16 -15h-274q-16 0 -16 15v77q0 16 16 16z" />
    <glyph glyph-name="period" unicode="." horiz-adv-x="278" 
d="M187 0h-79q-16 0 -23 20q-14 44 -14 93v11q0 15 15 15h101q15 0 15 -15v-109q0 -15 -15 -15z" />
    <glyph glyph-name="slash" unicode="/" horiz-adv-x="516" 
d="M-7 -86l412 822q6 13 21 13h86q10 0 13 -7.5t-2 -16.5l-412 -822q-6 -13 -21 -13h-86q-10 0 -13 7.5t2 16.5z" />
    <glyph glyph-name="zero" unicode="0" horiz-adv-x="556" 
d="M520 350q0 -187 -51.5 -274.5t-190.5 -87.5t-190.5 87.5t-51.5 274.5t51.5 274.5t190.5 87.5t190.5 -87.5t51.5 -274.5zM158 350q0 -148 25 -205t95 -57t95 57t25 205t-25 205t-95 57t-95 -57t-25 -205z" />
    <glyph glyph-name="one" unicode="1" horiz-adv-x="556" 
d="M373 684v-669q0 -15 -15 -15h-92q-15 0 -15 15v588h-22q-46 0 -104 -8q-14 -2 -14 13v55q0 14 13 17q90 20 193 20h41q15 0 15 -16z" />
    <glyph glyph-name="two" unicode="2" horiz-adv-x="556" 
d="M178 100h295q16 0 16 -16v-69q0 -15 -16 -15h-402q-17 0 -17 17v61q0 80 40.5 139t127.5 115q83 54 114.5 91t31.5 97q0 50 -29 71t-100 21q-51 0 -143 -11q-14 -2 -14 12v61q0 13 13 17q77 21 159 21q129 0 182.5 -46.5t53.5 -150.5q0 -75 -37.5 -131.5t-116.5 -103.5
q-158 -92 -158 -170v-10z" />
    <glyph glyph-name="three" unicode="3" horiz-adv-x="556" 
d="M232 310h-126q-16 0 -16 16v69q0 15 16 15h116q136 0 136 100q0 102 -132 102q-75 0 -141 -10q-17 -3 -17 14v58q0 12 12 15q74 23 164 23q110 0 173 -53.5t63 -144.5q0 -101 -86 -151q96 -49 96 -165q0 -96 -68.5 -153t-193.5 -57q-96 0 -164 21q-14 4 -14 17v57
q0 18 17 15q67 -10 142 -10q158 0 158 110q0 112 -135 112z" />
    <glyph glyph-name="four" unicode="4" horiz-adv-x="556" 
d="M452 138v-123q0 -15 -15 -15h-92q-15 0 -15 15v123h-285q-17 0 -17 17v55q0 20 6 47q64 215 162 428q8 15 26 15h81q9 0 12.5 -6.5t-0.5 -16.5q-106 -234 -160 -439h175v203q0 16 15 16h92q15 0 15 -16v-203h67q15 0 15 -16v-69q0 -15 -15 -15h-67z" />
    <glyph glyph-name="five" unicode="5" horiz-adv-x="556" 
d="M84 9q-14 5 -14 17v57q0 18 17 15q60 -10 131 -10q154 0 154 112v17q0 105 -124 105h-128q-38 0 -35 40l23 311q2 27 30 27h330q16 0 16 -16v-69q0 -15 -16 -15h-254l-14 -179h67q109 0 166.5 -50.5t57.5 -145.5v-29q0 -96 -66 -152t-193 -56q-82 0 -148 21z" />
    <glyph glyph-name="six" unicode="6" horiz-adv-x="556" 
d="M276 334q-54 0 -102 -5v-115q0 -126 106 -126q112 0 112 121v20q0 52 -27 78.5t-89 26.5zM447 688q13 -4 13 -16v-56q0 -18 -17 -15q-64 11 -131 11q-76 0 -107 -43.5t-31 -125.5v-32q58 23 132 23q208 0 208 -194v-31q0 -105 -61.5 -163t-167.5 -58q-118 0 -175.5 60
t-57.5 170v216q0 126 59 202t181 76q88 0 155 -24z" />
    <glyph glyph-name="seven" unicode="7" horiz-adv-x="556" 
d="M61 700h413q17 0 17 -17v-59q0 -35 -18 -65q-132 -224 -221 -539q-6 -20 -24 -20h-84q-21 0 -14 23q89 322 235 577h-304q-16 0 -16 15v69q0 16 16 16z" />
    <glyph glyph-name="eight" unicode="8" horiz-adv-x="556" 
d="M500 517q0 -109 -89 -158q114 -62 114 -173q0 -102 -59.5 -150t-187.5 -48q-248 0 -248 198q0 125 107 179q-82 56 -82 157q0 93 57.5 141.5t165.5 48.5q222 0 222 -195zM152 189q0 -52 30.5 -76.5t95.5 -24.5q66 0 95.5 23t29.5 77q0 44 -36.5 72.5t-137.5 63.5
q-77 -48 -77 -135zM379 513q0 51 -23.5 75t-77.5 24q-102 0 -102 -94q0 -43 27 -67t113 -55q63 40 63 117z" />
    <glyph glyph-name="nine" unicode="9" horiz-adv-x="556" 
d="M276 366q54 0 102 5v115q0 126 -106 126q-112 0 -112 -121v-20q0 -52 27 -78.5t89 -26.5zM105 12q-13 4 -13 16v56q0 18 17 15q64 -11 131 -11q76 0 107 43.5t31 125.5v32q-58 -23 -132 -23q-208 0 -208 194v31q0 105 61.5 163t167.5 58q118 0 175.5 -60t57.5 -170v-216
q0 -126 -59 -202t-181 -76q-88 0 -155 24z" />
    <glyph glyph-name="colon" unicode=":" horiz-adv-x="278" 
d="M187 0h-79q-16 0 -23 20q-14 44 -14 93v11q0 15 15 15h101q15 0 15 -15v-109q0 -15 -15 -15zM86 527h79q16 0 23 -20q14 -44 14 -93v-11q0 -15 -15 -15h-101q-15 0 -15 15v109q0 15 15 15z" />
    <glyph glyph-name="semicolon" unicode=";" horiz-adv-x="278" 
d="M86 527h79q16 0 23 -20q14 -44 14 -93v-11q0 -15 -15 -15h-101q-15 0 -15 15v109q0 15 15 15zM96 -125l-41 23q-9 5 -4 16q30 54 30 108q0 17 -4 37q-6 30 -6 46v19q0 15 15 15h101q15 0 15 -15v-25q0 -122 -87 -223q-8 -8 -19 -1z" />
    <glyph glyph-name="less" unicode="&#x3c;" horiz-adv-x="624" 
d="M62 307v50q0 19 20 31q187 116 430 201q18 6 25 -8l22 -41q7 -15 -6 -21l-377 -187l377 -187q13 -6 6 -21l-22 -41q-7 -14 -25 -8q-243 85 -430 201q-20 12 -20 31z" />
    <glyph glyph-name="equal" unicode="=" horiz-adv-x="624" 
d="M78 501h468q16 0 16 -16v-69q0 -15 -16 -15h-468q-16 0 -16 15v69q0 16 16 16zM78 263h468q16 0 16 -16v-69q0 -15 -16 -15h-468q-16 0 -16 15v69q0 16 16 16z" />
    <glyph glyph-name="greater" unicode="&#x3e;" horiz-adv-x="624" 
d="M563 357v-50q0 -19 -20 -31q-187 -116 -430 -201q-18 -6 -25 8l-22 41q-8 15 6 21l377 187l-377 187q-14 6 -6 21l22 41q7 14 25 8q243 -85 430 -201q20 -12 20 -31z" />
    <glyph glyph-name="question" unicode="?" horiz-adv-x="493" 
d="M206 712q221 0 221 -190q0 -96 -116 -196q-44 -39 -44 -110v-15q0 -16 -15 -16h-85q-16 0 -16 16v16q0 117 90 189q70 56 70 118q0 93 -118 93q-74 0 -136 -9q-5 -1 -8.5 2t-3.5 10v54q0 11 13 15q67 23 148 23zM147 102v12q0 15 15 15h96q15 0 15 -15v-100
q0 -14 -14 -14h-77q-18 0 -23 17q-12 40 -12 85z" />
    <glyph glyph-name="at" unicode="@" horiz-adv-x="871" 
d="M733 158v255q0 122 -75 187.5t-195 65.5h-32q-142 0 -219.5 -86.5t-77.5 -257.5v-27q0 -171 90.5 -264t268.5 -93h33q108 0 213 31q15 5 15 -9v-36q0 -12 -10 -16q-41 -18 -101.5 -29t-111.5 -11h-40q-217 0 -325.5 116.5t-108.5 302.5v43q0 189 98.5 297.5t269.5 108.5
h38q161 0 253.5 -90t92.5 -239v-259q0 -37 -34 -52q-99 -44 -229 -44h-18q-150 0 -218.5 59.5t-68.5 180.5v34q0 97 56 157.5t155 60.5q85 0 133 -43t48 -117v-248q51 6 100 22zM528 131v243q0 79 -72 79q-110 0 -110 -136v-25q0 -81 43 -121t139 -40z" />
    <glyph glyph-name="A" unicode="A" horiz-adv-x="636" 
d="M252 700h132q21 0 27 -21l196 -661q5 -18 -12 -18h-94q-16 0 -19 12l-39 140h-250l-39 -140q-3 -12 -19 -12h-94q-17 0 -12 18l196 661q6 21 27 21zM318 600l-97 -348h194z" />
    <glyph glyph-name="B" unicode="B" horiz-adv-x="640" 
d="M117 9q-32 8 -32 51v578q0 44 32 52q86 22 196 22q246 0 246 -197q0 -96 -77 -146q51 -21 78.5 -66t27.5 -105q0 -107 -59 -158.5t-195 -51.5t-217 21zM324 88q78 0 109.5 26.5t31.5 86.5q0 109 -112 109h-146v-213q50 -9 117 -9zM298 612q-50 0 -91 -11v-191h114
q63 0 90.5 24.5t27.5 74.5q0 56 -33 79.5t-108 23.5z" />
    <glyph glyph-name="C" unicode="C" horiz-adv-x="567" 
d="M370 88q74 0 142 9q15 1 15 -13v-61q0 -11 -13 -15q-78 -20 -166 -20q-291 0 -291 342v39q0 166 68.5 254.5t221.5 88.5q87 0 157 -22q13 -4 13 -15v-59q0 -16 -15 -13q-59 9 -133 9q-104 0 -147 -59.5t-43 -189.5v-27q0 -128 44 -188t147 -60z" />
    <glyph glyph-name="D" unicode="D" horiz-adv-x="665" 
d="M85 62v576q0 43 32 52q80 22 186 22q86 0 146.5 -24t94.5 -71t49 -108t15 -143v-32q0 -82 -15 -143t-49 -108t-94.5 -71t-146.5 -24q-106 0 -186 22q-32 9 -32 52zM207 602v-504q42 -10 92 -10q110 0 148.5 58.5t38.5 189.5v27q0 132 -38.5 190.5t-148.5 58.5
q-50 0 -92 -10z" />
    <glyph glyph-name="E" unicode="E" horiz-adv-x="577" 
d="M85 133v434q0 82 35.5 113.5t131.5 31.5q132 0 242 -12q15 -2 15 -17v-56q0 -15 -15 -15h-233q-29 0 -41.5 -14.5t-12.5 -44.5v-144h266q16 0 16 -16v-69q0 -15 -16 -15h-266v-162q0 -30 12.5 -44.5t41.5 -14.5h243q15 0 15 -15v-56q0 -15 -15 -17q-101 -12 -252 -12
q-96 0 -131.5 31.5t-35.5 113.5z" />
    <glyph glyph-name="F" unicode="F" horiz-adv-x="562" 
d="M252 712q115 0 252 -12q15 -2 15 -17v-56q0 -15 -15 -15h-243q-29 0 -41.5 -14.5t-12.5 -44.5v-152h266q16 0 16 -16v-69q0 -15 -16 -15h-266v-287q0 -14 -15 -14h-93q-14 0 -14 14v553q0 82 35.5 113.5t131.5 31.5z" />
    <glyph glyph-name="G" unicode="G" horiz-adv-x="665" 
d="M386 612q-122 0 -164.5 -59t-42.5 -191v-25q0 -129 42 -189t154 -60q60 0 93 9v199h-121q-15 0 -15 15v69q0 16 15 16h228q15 0 15 -16v-320q0 -43 -32 -50q-97 -22 -208 -22q-293 0 -293 345v34q0 169 71.5 257t236.5 88q99 0 189 -22q13 -3 13 -15v-59q0 -14 -16 -13
q-92 9 -165 9z" />
    <glyph glyph-name="H" unicode="H" horiz-adv-x="678" 
d="M207 410h264v275q0 15 15 15h93q14 0 14 -15v-671q0 -14 -14 -14h-93q-15 0 -15 14v296h-264v-296q0 -14 -15 -14h-93q-14 0 -14 14v671q0 15 14 15h93q15 0 15 -15v-275z" />
    <glyph glyph-name="I" unicode="I" horiz-adv-x="312" 
d="M95 15v669q0 16 15 16h92q15 0 15 -16v-669q0 -15 -15 -15h-92q-15 0 -15 15z" />
    <glyph glyph-name="J" unicode="J" horiz-adv-x="448" 
d="M198 -12q-107 0 -180 23q-13 4 -13 19v55q0 13 15 12q67 -9 139 -9q50 0 66 30.5t16 98.5v468q0 15 14 15h93q15 0 15 -15v-478q0 -109 -37 -164t-128 -55z" />
    <glyph glyph-name="K" unicode="K" horiz-adv-x="615" 
d="M461 700h106q7 0 10 -5.5t-2 -11.5l-245 -320l273 -346q5 -5 2.5 -11t-9.5 -6h-115q-13 0 -21 9l-253 332v-326q0 -15 -15 -15h-92q-15 0 -15 15v669q0 16 15 16h92q15 0 15 -16v-299l235 306q8 9 19 9z" />
    <glyph glyph-name="L" unicode="L" horiz-adv-x="537" 
d="M85 133v552q0 15 14 15h93q15 0 15 -15v-538q0 -31 12 -45t42 -14h253q15 0 15 -15v-56q0 -16 -17 -18q-115 -11 -260 -11q-96 0 -131.5 31.5t-35.5 113.5z" />
    <glyph glyph-name="M" unicode="M" horiz-adv-x="830" 
d="M447 189h-64q-22 0 -31 19l-145 310v-504q0 -14 -14 -14h-94q-14 0 -14 14v671q0 15 14 15h117q22 0 32 -19l167 -357l167 357q10 19 32 19h117q14 0 14 -15v-671q0 -14 -14 -14h-94q-14 0 -14 14v504l-145 -310q-9 -19 -31 -19z" />
    <glyph glyph-name="N" unicode="N" horiz-adv-x="701" 
d="M494 179v507q0 14 14 14h94q14 0 14 -14v-671q0 -15 -14 -15h-122q-22 0 -31 18l-242 503v-507q0 -14 -14 -14h-94q-14 0 -14 14v671q0 15 14 15h122q22 0 31 -18z" />
    <glyph glyph-name="O" unicode="O" horiz-adv-x="692" 
d="M635 367v-34q0 -345 -289 -345t-289 345v34q0 345 289 345t289 -345zM513 337v26q0 131 -40 190t-127 59t-127 -59t-40 -190v-26q0 -131 40 -190t127 -59t127 59t40 190z" />
    <glyph glyph-name="P" unicode="P" horiz-adv-x="612" 
d="M117 690q83 22 196 22q252 0 252 -211v-43q0 -102 -61.5 -156.5t-182.5 -54.5q-57 0 -114 6v-238q0 -15 -16 -15h-91q-15 0 -15 15v624q0 43 32 51zM207 602v-250q47 -5 90 -5q83 0 114.5 28.5t31.5 92.5v23q0 65 -32 93t-114 28q-50 0 -90 -10z" />
    <glyph glyph-name="Q" unicode="Q" horiz-adv-x="692" 
d="M635 367v-34q0 -217 -112 -297l90 -128q11 -18 -12 -18h-88q-19 0 -28 13l-65 92q-32 -7 -74 -7q-289 0 -289 345v34q0 345 289 345t289 -345zM513 337v26q0 131 -40 190t-127 59t-127 -59t-40 -190v-26q0 -131 40 -190t127 -59t127 59t40 190z" />
    <glyph glyph-name="R" unicode="R" horiz-adv-x="640" 
d="M563 502v-27q0 -144 -114 -189l144 -269q4 -7 0.5 -12t-10.5 -5h-92q-22 0 -30 16l-128 249h-17q-61 0 -109 4v-254q0 -15 -15 -15h-92q-15 0 -15 15v624q0 43 32 51q88 22 199 22q130 0 188.5 -53.5t58.5 -156.5zM300 365q80 0 110.5 28t30.5 87v17q0 60 -30.5 87.5
t-110.5 27.5q-51 0 -93 -10v-233q41 -4 93 -4z" />
    <glyph glyph-name="S" unicode="S" horiz-adv-x="550" 
d="M269 -12q-108 0 -200 21q-14 3 -14 15v60q0 15 17 14q100 -10 184 -10q65 0 94.5 22.5t29.5 68.5q0 38 -17.5 62.5t-57.5 43.5l-136 62q-116 54 -116 185q0 90 53.5 135t166.5 45q91 0 182 -22q14 -3 14 -15v-59q0 -15 -17 -14q-85 10 -161 10q-61 0 -88.5 -19t-27.5 -64
q0 -63 75 -98l134 -60q117 -53 117 -191q0 -94 -54 -143t-178 -49z" />
    <glyph glyph-name="T" unicode="T" horiz-adv-x="534" 
d="M206 15v585h-176q-16 0 -16 15v69q0 16 16 16h474q16 0 16 -16v-69q0 -15 -16 -15h-176v-585q0 -15 -16 -15h-90q-16 0 -16 15z" />
    <glyph glyph-name="U" unicode="U" horiz-adv-x="694" 
d="M347 -12q-147 0 -204.5 82t-57.5 256v359q0 15 14 15h93q15 0 15 -15v-355q0 -124 31 -183t109 -59t109 59t31 183v355q0 15 15 15h93q14 0 14 -15v-359q0 -174 -57.5 -256t-204.5 -82z" />
    <glyph glyph-name="V" unicode="V" horiz-adv-x="636" 
d="M318 100l164 588q3 12 19 12h94q17 0 12 -18l-196 -661q-6 -21 -27 -21h-132q-21 0 -27 21l-196 661q-5 18 12 18h94q16 0 19 -12z" />
    <glyph glyph-name="W" unicode="W" horiz-adv-x="918" 
d="M898 680l-153 -659q-4 -21 -27 -21h-131q-22 0 -26 20l-102 527l-102 -527q-4 -20 -26 -20h-131q-23 0 -27 21l-153 659q-5 20 12 20h85q17 0 20 -16l126 -584l114 582q3 18 23 18h118q20 0 23 -18l114 -582l126 584q3 16 20 16h85q17 0 12 -20z" />
    <glyph glyph-name="X" unicode="X" horiz-adv-x="600" 
d="M300 467l136 219q8 14 23 14h96q10 0 13 -6t-2 -14l-199 -321l210 -338q6 -8 3 -14.5t-14 -6.5h-95q-16 0 -23 13l-148 238l-148 -238q-7 -13 -23 -13h-95q-11 0 -14 6.5t3 14.5l210 338l-199 321q-5 8 -2 14t13 6h96q15 0 23 -14z" />
    <glyph glyph-name="Y" unicode="Y" horiz-adv-x="606" 
d="M583 676l-219 -434v-227q0 -15 -15 -15h-91q-16 0 -16 15v227l-219 434q-5 10 -3 17t12 7h90q15 0 22 -15l159 -323l159 323q7 15 22 15h90q10 0 12 -7t-3 -17z" />
    <glyph glyph-name="Z" unicode="Z" horiz-adv-x="581" 
d="M518 561l-350 -461h356q16 0 16 -16v-69q0 -15 -16 -15h-458q-25 0 -25 25v68q0 28 13 46l349 461h-326q-16 0 -16 15v69q0 16 16 16h429q12 0 18.5 -11.5t6.5 -26.5v-55q0 -28 -13 -46z" />
    <glyph glyph-name="bracketleft" unicode="[" horiz-adv-x="411" 
d="M237 664v-724h142q14 0 14 -14v-56q0 -14 -16 -17q-67 -11 -176 -11h-72q-14 0 -14 15v890q0 15 14 15h72q109 0 176 -11q16 -3 16 -17v-56q0 -14 -14 -14h-142z" />
    <glyph glyph-name="backslash" unicode="\" horiz-adv-x="516" 
d="M111 736l412 -822q5 -9 2 -16.5t-13 -7.5h-86q-15 0 -21 13l-412 822q-5 9 -2 16.5t13 7.5h86q15 0 21 -13z" />
    <glyph glyph-name="bracketright" unicode="]" horiz-adv-x="411" 
d="M174 -60v724h-142q-14 0 -14 14v56q0 14 16 17q67 11 176 11h72q14 0 14 -15v-890q0 -15 -14 -15h-72q-109 0 -176 11q-16 3 -16 17v56q0 14 14 14h142z" />
    <glyph glyph-name="asciicircum" unicode="^" horiz-adv-x="580" 
d="M255 700h70q20 0 31 -15q102 -134 171 -277q8 -17 -6 -23l-38 -18q-19 -10 -29 6l-164 239l-164 -239q-10 -16 -29 -6l-38 18q-14 6 -6 23q74 153 171 277q11 15 31 15z" />
    <glyph glyph-name="underscore" unicode="_" horiz-adv-x="500" 
d="M14 -102h472q14 0 14 -14v-40q0 -14 -14 -14h-472q-14 0 -14 14v40q0 14 14 14z" />
    <glyph glyph-name="grave" unicode="`" horiz-adv-x="420" 
d="M251 560q-69 46 -139 122q-11 11 0 19l55 36q14 9 24 -3l117 -134q10 -10 -1 -17l-36 -23q-10 -7 -20 0z" />
    <glyph glyph-name="a" unicode="a" horiz-adv-x="578" 
d="M293 86q58 0 99 9v121q-48 9 -116 9q-65 0 -89.5 -16t-24.5 -54t27.5 -53.5t103.5 -15.5zM260 526q137 0 192.5 -46t55.5 -155v-263q0 -41 -29 -48q-83 -22 -203 -22q-126 0 -178 38.5t-52 124.5q0 80 48.5 121.5t138.5 41.5q89 0 159 -30v21q0 72 -30.5 97.5
t-125.5 25.5q-76 0 -123 -9q-17 -3 -17 12v50q0 16 16 21q56 20 148 20z" />
    <glyph glyph-name="b" unicode="b" horiz-adv-x="592" 
d="M327 526q102 0 161 -65.5t59 -172.5v-39q0 -118 -68 -187.5t-207 -69.5q-96 0 -168 23q-29 9 -29 47v653q0 15 14 15h87q15 0 15 -15v-214q55 25 136 25zM191 427v-332q35 -9 80 -9q78 0 119 44t41 126v25q0 80 -37 115.5t-114 35.5q-49 0 -89 -5z" />
    <glyph glyph-name="c" unicode="c" horiz-adv-x="506" 
d="M305 -8q-133 0 -196.5 65t-63.5 182v39q0 116 63.5 182t191.5 66q87 0 143 -20q16 -5 16 -21v-50q0 -15 -17 -12q-46 9 -121 9q-84 0 -122 -39.5t-38 -120.5v-27q0 -81 38.5 -120t124.5 -39q70 0 124 9q17 3 17 -12v-50q0 -16 -16 -21q-56 -20 -144 -20z" />
    <glyph glyph-name="d" unicode="d" horiz-adv-x="592" 
d="M265 526q81 0 136 -25v214q0 15 15 15h87q14 0 14 -15v-653q0 -38 -29 -47q-72 -23 -168 -23q-139 0 -207 69.5t-68 187.5v39q0 107 59 172.5t161 65.5zM401 95v332q-40 5 -89 5q-77 0 -114 -35.5t-37 -115.5v-25q0 -82 41 -126t119 -44q45 0 80 9z" />
    <glyph glyph-name="e" unicode="e" horiz-adv-x="562" 
d="M331 86q72 0 133 9q17 3 17 -12v-50q0 -16 -16 -21q-63 -20 -152 -20q-140 0 -204 65t-64 194v26q0 120 62.5 184.5t182.5 64.5q111 0 169 -56.5t58 -153.5q0 -116 -142 -116h-211q8 -62 49.5 -88t117.5 -26zM161 294h206q34 0 34 30q0 108 -113 108q-123 0 -127 -138z
" />
    <glyph glyph-name="f" unicode="f" horiz-adv-x="393" 
d="M360 723q16 -5 16 -22v-48q0 -14 -17 -13q-34 4 -71 4q-38 0 -53 -17.5t-15 -57.5v-51h139q16 0 16 -16v-62q0 -16 -16 -16h-139v-409q0 -15 -16 -15h-85q-15 0 -15 15v409h-80q-16 0 -16 16v62q0 16 16 16h80v43q0 88 36 132.5t126 44.5q52 0 94 -15z" />
    <glyph glyph-name="g" unicode="g" horiz-adv-x="592" 
d="M517 456v-458q0 -104 -52.5 -151t-176.5 -47q-97 0 -167 20q-16 5 -16 21v51q0 15 17 12q67 -10 145 -10q77 0 105.5 25.5t28.5 83.5v22q-55 -25 -136 -25q-102 0 -161 65.5t-59 172.5v31q0 118 68 187.5t207 69.5q96 0 168 -23q29 -9 29 -47zM401 99v324q-35 9 -80 9
q-78 0 -119 -44t-41 -126v-17q0 -80 37 -115.5t114 -35.5q49 0 89 5z" />
    <glyph glyph-name="h" unicode="h" horiz-adv-x="600" 
d="M191 427v-412q0 -15 -16 -15h-85q-15 0 -15 15v699q0 16 15 16h85q16 0 16 -16v-213q63 25 144 25q95 0 145 -47t50 -156v-308q0 -15 -15 -15h-85q-16 0 -16 15v300q0 63 -27.5 90t-94.5 27q-64 0 -101 -5z" />
    <glyph glyph-name="i" unicode="i" horiz-adv-x="286" 
d="M85 15v487q0 16 15 16h85q16 0 16 -16v-487q0 -15 -16 -15h-85q-15 0 -15 15zM206 699v-5q0 -43 -15 -81q-7 -19 -27 -19h-64q-15 0 -15 16v89q0 16 15 16h91q15 0 15 -16z" />
    <glyph glyph-name="j" unicode="j" horiz-adv-x="299" 
d="M214 502v-527q0 -40 -5 -68t-19.5 -54t-44 -39.5t-74.5 -13.5q-51 0 -92 14q-16 5 -16 22v49q0 15 14 13q38 -4 58 -4q36 0 49.5 16.5t13.5 54.5v537q0 16 16 16h85q15 0 15 -16zM219 699v-5q0 -43 -15 -81q-7 -19 -27 -19h-64q-15 0 -15 16v89q0 16 15 16h91
q15 0 15 -16z" />
    <glyph glyph-name="k" unicode="k" horiz-adv-x="552" 
d="M510 497l-200 -224l228 -251q7 -8 5 -15t-12 -7h-111q-12 0 -21 10l-208 242v-237q0 -15 -16 -15h-85q-15 0 -15 15v699q0 16 15 16h85q16 0 16 -16v-422l193 216q8 10 21 10h97q11 0 13 -7t-5 -14z" />
    <glyph glyph-name="l" unicode="l" horiz-adv-x="335" 
d="M85 144v570q0 16 15 16h85q16 0 16 -16v-558q0 -38 14 -54t51 -16q23 0 45 4q16 3 16 -13v-53q0 -14 -16 -18q-45 -14 -88 -14q-138 0 -138 152z" />
    <glyph glyph-name="m" unicode="m" horiz-adv-x="838" 
d="M280 526q88 0 139 -37q72 37 163 37q186 0 186 -171v-340q0 -15 -16 -15h-85q-15 0 -15 15v325q0 50 -20 71t-66 21q-52 0 -96 -16q9 -30 9 -63v-338q0 -15 -15 -15h-85q-16 0 -16 15v326q0 50 -21 70.5t-68 20.5q-48 0 -83 -9v-408q0 -15 -16 -15h-85q-15 0 -15 15v440
q0 39 29 48q78 23 176 23z" />
    <glyph glyph-name="n" unicode="n" horiz-adv-x="600" 
d="M191 423v-408q0 -15 -16 -15h-85q-15 0 -15 15v440q0 39 29 48q79 23 198 23q121 0 174.5 -48t53.5 -155v-308q0 -15 -15 -15h-85q-16 0 -16 15v301q0 64 -27 90t-95 26q-59 0 -101 -9z" />
    <glyph glyph-name="o" unicode="o" horiz-adv-x="576" 
d="M45 242v34q0 123 63 186.5t180 63.5t180 -63.5t63 -186.5v-34q0 -123 -63 -186.5t-180 -63.5t-180 63.5t-63 186.5zM161 272v-26q0 -80 29.5 -120t97.5 -40t97.5 40t29.5 120v26q0 80 -29.5 120t-97.5 40t-97.5 -40t-29.5 -120z" />
    <glyph glyph-name="p" unicode="p" horiz-adv-x="592" 
d="M327 -8q-81 0 -136 25v-195q0 -15 -15 -15h-87q-14 0 -14 15v634q0 38 29 47q72 23 168 23q139 0 207 -69.5t68 -187.5v-39q0 -107 -59 -172.5t-161 -65.5zM191 423v-332q40 -5 89 -5q77 0 114 35.5t37 115.5v25q0 82 -41 126t-119 44q-45 0 -80 -9z" />
    <glyph glyph-name="q" unicode="q" horiz-adv-x="592" 
d="M265 -8q-102 0 -161 65.5t-59 172.5v39q0 118 68 187.5t207 69.5q96 0 168 -23q29 -9 29 -47v-634q0 -15 -14 -15h-87q-15 0 -15 15v195q-55 -25 -136 -25zM401 91v332q-35 9 -80 9q-78 0 -119 -44t-41 -126v-25q0 -80 37 -115.5t114 -35.5q49 0 89 5z" />
    <glyph glyph-name="r" unicode="r" horiz-adv-x="412" 
d="M191 423v-408q0 -15 -16 -15h-85q-15 0 -15 15v440q0 39 29 48q82 23 179 23q47 0 97 -6q15 -1 15 -17v-66q0 -17 -19 -14q-46 9 -87 9q-50 0 -98 -9z" />
    <glyph glyph-name="s" unicode="s" horiz-adv-x="481" 
d="M224 325l95 -38q117 -46 117 -148q0 -70 -51.5 -108.5t-138.5 -38.5q-101 0 -183 20q-13 3 -13 16v55q0 13 16 12q80 -10 167 -10t87 57q0 39 -58 63l-93 37q-119 47 -119 142q0 72 49 107t137 35q94 0 158 -21q13 -4 13 -16v-54q0 -16 -17 -13q-56 10 -142 10
q-43 0 -62.5 -10.5t-19.5 -39.5q0 -20 13.5 -32.5t44.5 -24.5z" />
    <glyph glyph-name="t" unicode="t" horiz-adv-x="431" 
d="M122 424h-84q-16 0 -16 16v62q0 16 16 16h84v122q0 16 15 16h85q16 0 16 -16v-122h134q16 0 16 -16v-62q0 -16 -16 -16h-134v-259q0 -43 15 -61t58 -18q33 0 71 4q14 2 14 -12v-55q0 -13 -13 -17q-39 -14 -100 -14q-161 0 -161 166v266z" />
    <glyph glyph-name="u" unicode="u" horiz-adv-x="605" 
d="M414 95v408q0 15 16 15h85q15 0 15 -15v-440q0 -39 -29 -48q-79 -23 -198 -23q-121 0 -174.5 48t-53.5 155v308q0 15 15 15h85q16 0 16 -15v-301q0 -64 27 -90t95 -26q59 0 101 9z" />
    <glyph glyph-name="v" unicode="v" horiz-adv-x="544" 
d="M332 0h-120q-23 0 -31 22l-158 476q-7 20 12 20h85q16 0 20 -13l132 -395l132 395q4 13 20 13h85q19 0 12 -20l-158 -476q-8 -22 -31 -22z" />
    <glyph glyph-name="w" unicode="w" horiz-adv-x="782" 
d="M345 518h92q19 0 24 -19l99 -392l87 398q3 13 18 13h83q16 0 12 -18l-119 -478q-5 -22 -29 -22h-105q-23 0 -29 22l-87 362l-87 -362q-6 -22 -29 -22h-105q-24 0 -29 22l-119 478q-4 18 12 18h83q15 0 18 -13l87 -398l99 392q5 19 24 19z" />
    <glyph glyph-name="x" unicode="x" horiz-adv-x="543" 
d="M271 361l106 144q10 13 25 13h93q9 0 11.5 -7t-2.5 -13l-167 -227l186 -252q5 -6 2.5 -12.5t-11.5 -6.5h-93q-16 0 -25 12l-125 169l-124 -169q-9 -12 -25 -12h-93q-9 0 -11.5 6.5t2.5 12.5l185 252l-166 227q-5 6 -2.5 13t11.5 7h93q15 0 25 -13z" />
    <glyph glyph-name="y" unicode="y" horiz-adv-x="605" 
d="M299 -200q-93 0 -166 21q-14 5 -14 16v55q0 15 16 12q68 -10 146 -10q76 0 104.5 25.5t28.5 82.5v22q-61 -24 -144 -24q-95 0 -145 47t-50 155v300q0 16 15 16h85q16 0 16 -16v-291q0 -62 27.5 -89.5t94.5 -27.5q61 0 101 5v403q0 16 16 16h85q15 0 15 -16v-504
q0 -105 -52.5 -151.5t-178.5 -46.5z" />
    <glyph glyph-name="z" unicode="z" horiz-adv-x="506" 
d="M445 0h-374q-26 0 -26 26v51q0 44 27 72l263 275h-261q-16 0 -16 16v62q0 16 16 16h350q26 0 26 -26v-50q0 -44 -27 -72l-264 -276h286q16 0 16 -15v-64q0 -15 -16 -15z" />
    <glyph glyph-name="braceleft" unicode="{" horiz-adv-x="487" 
d="M77 283v38q0 16 18 18q45 5 62.5 31t17.5 73v106q0 106 55 159.5t144 53.5q54 0 88 -15q8 -4 8 -15v-44q0 -14 -15 -14h-43q-114 0 -114 -109v-98q0 -138 -105 -165q105 -27 105 -165v-98q0 -109 114 -109h43q15 0 15 -14v-44q0 -11 -8 -15q-34 -15 -88 -15
q-89 0 -144 53.5t-55 159.5v106q0 47 -17.5 73t-62.5 31q-18 2 -18 18z" />
    <glyph glyph-name="bar" unicode="|" horiz-adv-x="300" 
d="M100 -184v937q0 16 15 16h70q15 0 15 -16v-937q0 -16 -15 -16h-70q-15 0 -15 16z" />
    <glyph glyph-name="braceright" unicode="}" horiz-adv-x="487" 
d="M410 321v-38q0 -16 -18 -18q-45 -5 -62.5 -31t-17.5 -73v-106q0 -106 -55 -159.5t-144 -53.5q-53 0 -88 15q-8 4 -8 15v44q0 14 15 14h43q114 0 114 109v98q0 138 105 165q-105 27 -105 165v98q0 109 -114 109h-43q-15 0 -15 14v44q0 11 8 15q34 15 88 15q89 0 144 -53.5
t55 -159.5v-106q0 -47 17.5 -73t62.5 -31q18 -2 18 -18z" />
    <glyph glyph-name="asciitilde" unicode="~" horiz-adv-x="624" 
d="M427 324q24 0 34.5 17t10.5 58v18q0 14 14 14h62q12 0 16 -12q8 -22 8 -51q0 -71 -36.5 -107t-99.5 -36q-74 0 -146 61q-61 52 -93 52q-24 0 -34.5 -17t-10.5 -58v-18q0 -14 -14 -14h-62q-12 0 -16 12q-8 22 -8 51q0 71 36.5 107t99.5 36q74 0 146 -61q61 -52 93 -52z
" />
    <glyph glyph-name="uni00A0" unicode="&#xa0;" horiz-adv-x="300" 
 />
    <glyph glyph-name="exclamdown" unicode="&#xa1;" horiz-adv-x="272" 
d="M106 333h59q15 0 17 -18l16 -318v-163q0 -16 -15 -16h-95q-15 0 -15 16v163l16 318q1 18 17 18zM199 416v-12q0 -15 -15 -15h-96q-15 0 -15 15v100q0 14 14 14h77q18 0 23 -17q12 -40 12 -85z" />
    <glyph glyph-name="cent" unicode="&#xa2;" horiz-adv-x="506" 
d="M265 524v75q0 17 16 17h34q16 0 16 -17v-74q73 -5 112 -19q16 -5 16 -21v-50q0 -15 -17 -12q-43 7 -111 9v-346q65 0 117 9q17 3 17 -12v-50q0 -16 -16 -21q-41 -16 -118 -19v-74q0 -17 -16 -17h-34q-16 0 -16 17v75q-112 9 -166 73t-54 172v39q0 107 54.5 172t165.5 74z
M161 272v-27q0 -130 104 -153v334q-104 -23 -104 -154z" />
    <glyph glyph-name="sterling" unicode="&#xa3;" horiz-adv-x="590" 
d="M501 690q13 -4 13 -15v-59q0 -14 -15 -13q-72 9 -132 9h-9q-65 0 -93 -31t-28 -95v-85h178q16 0 16 -16v-44q0 -15 -16 -15h-178v-71q0 -95 -52 -155h362q16 0 16 -16v-69q0 -15 -16 -15h-489q-16 0 -16 15v51q0 18 9 28q33 37 48.5 70t15.5 76v86h-64q-16 0 -16 15v44
q0 16 16 16h64v33q0 148 47.5 213t177.5 65h4q89 0 157 -22z" />
    <glyph glyph-name="currency" unicode="&#xa4;" horiz-adv-x="714" 
d="M131 330q0 65 30 117l-77 78q-9 10 1 22l52 53q11 11 22 0l76 -78q53 33 122 33t122 -33l76 78q11 11 22 0l52 -53q10 -12 1 -22l-77 -78q30 -52 30 -117t-30 -117l77 -78q9 -10 -1 -22l-52 -53q-11 -11 -22 0l-76 78q-53 -33 -122 -33t-122 33l-76 -78q-11 -11 -22 0
l-52 53q-10 12 -1 22l77 78q-30 52 -30 117zM238 330q0 -60 33 -95t86 -35t86 35t33 95t-33 95t-86 35t-86 -35t-33 -95z" />
    <glyph glyph-name="yen" unicode="&#xa5;" horiz-adv-x="576" 
d="M334 0h-92q-16 0 -16 15v112h-157q-15 0 -15 16v28q0 16 15 16h157v54h-157q-15 0 -15 15v30q0 15 15 15h129l-178 380q-3 7 0.5 13t12.5 6h89q14 0 22 -14l144 -325l144 325q8 14 22 14h89q9 0 12.5 -6t0.5 -13l-178 -380h129q15 0 15 -15v-30q0 -15 -15 -15h-157v-54
h157q15 0 15 -16v-28q0 -16 -15 -16h-157v-112q0 -15 -16 -15z" />
    <glyph glyph-name="brokenbar" unicode="&#xa6;" horiz-adv-x="300" 
d="M100 -84v288q0 16 15 16h70q15 0 15 -16v-288q0 -16 -15 -16h-70q-15 0 -15 16zM100 384v288q0 16 15 16h70q15 0 15 -16v-288q0 -16 -15 -16h-70q-15 0 -15 16z" />
    <glyph glyph-name="section" unicode="&#xa7;" horiz-adv-x="511" 
d="M172 309q0 -27 24 -45.5t75 -39.5q72 33 72 94q0 48 -95 85q-76 -34 -76 -94zM237 -110q-104 0 -168 21q-13 4 -13 16v54q0 16 17 13q56 -10 152 -10q62 0 88 13t26 44q0 43 -54 68l-112 53q-57 27 -87 60.5t-30 84.5q0 91 106 136q-104 51 -104 134q0 76 54 111t146 35
q94 0 158 -21q13 -4 13 -16v-54q0 -16 -17 -13q-56 10 -142 10q-50 0 -73 -11.5t-23 -39.5q0 -20 13 -32t43 -27l109 -53q60 -29 90 -62t30 -84q0 -87 -103 -135q101 -54 101 -142q0 -76 -59.5 -114.5t-160.5 -38.5z" />
    <glyph glyph-name="dieresis" unicode="&#xa8;" horiz-adv-x="420" 
d="M374 691v-6q0 -43 -15 -81q-7 -17 -24 -17h-67q-15 0 -15 16v88q0 16 15 16h91q15 0 15 -16zM46 603v6q0 43 15 81q7 17 24 17h67q15 0 15 -16v-88q0 -16 -15 -16h-91q-15 0 -15 16z" />
    <glyph glyph-name="copyright" unicode="&#xa9;" horiz-adv-x="830" 
d="M53 350q0 150 106 256t256 106t256 -106t106 -256t-106 -256t-256 -106t-256 106t-106 256zM109 350q0 -129 89.5 -219.5t216.5 -90.5t216.5 90.5t89.5 219.5t-89.5 219.5t-216.5 90.5t-216.5 -90.5t-89.5 -219.5zM313 361v-22q0 -65 31.5 -97t99.5 -32q51 0 101 7
q13 1 13 -11v-39q0 -9 -13 -14q-52 -19 -116 -19q-106 0 -158 53t-52 147v31q0 94 51 147t157 53q59 0 113 -19q13 -5 13 -14v-39q0 -13 -12 -11q-49 7 -99 7q-67 0 -98 -31.5t-31 -96.5z" />
    <glyph glyph-name="ordfeminine" unicode="&#xaa;" horiz-adv-x="440" 
d="M207 330q-89 0 -125.5 27.5t-36.5 89.5q0 57 34.5 86.5t97.5 29.5q62 0 107 -17v9q0 49 -21 65.5t-82 16.5q-48 0 -91 -8q-12 -1 -12 12v35q0 11 11 15q53 17 115 17q91 0 130 -34t39 -109v-181q0 -31 -24 -37q-60 -17 -142 -17zM209 401q41 0 75 6v78q-32 6 -74 6
q-41 0 -58.5 -9.5t-17.5 -35.5q0 -25 17.5 -35t57.5 -10z" />
    <glyph glyph-name="guillemotleft" unicode="&#xab;" horiz-adv-x="549" 
d="M285 438l-148 -128l148 -128q8 -8 2 -18l-16 -25q-7 -12 -21 -3q-109 72 -173 136q-10 10 -10 20v36q0 10 10 20q64 64 173 136q14 9 21 -3l16 -25q6 -10 -2 -18zM488 438l-148 -128l148 -128q8 -8 2 -18l-16 -25q-7 -12 -21 -3q-109 72 -173 136q-10 10 -10 20v36
q0 10 10 20q64 64 173 136q14 9 21 -3l16 -25q6 -10 -2 -18z" />
    <glyph glyph-name="logicalnot" unicode="&#xac;" horiz-adv-x="624" 
d="M72 447h470q15 0 15 -16v-256q0 -15 -15 -15h-92q-15 0 -15 15v172h-363q-16 0 -16 16v68q0 16 16 16z" />
    <glyph glyph-name="uni00AD" unicode="&#xad;" horiz-adv-x="430" 
d="M78 385h274q16 0 16 -16v-77q0 -15 -16 -15h-274q-16 0 -16 15v77q0 16 16 16z" />
    <glyph glyph-name="registered" unicode="&#xae;" horiz-adv-x="830" 
d="M53 350q0 150 106 256t256 106t256 -106t106 -256t-106 -256t-256 -106t-256 106t-106 256zM109 350q0 -129 89.5 -219.5t216.5 -90.5t216.5 90.5t89.5 219.5t-89.5 219.5t-216.5 90.5t-216.5 -90.5t-89.5 -219.5zM413 566q160 0 160 -126v-19q0 -83 -69 -113l86 -151
q10 -17 -11 -17h-56q-17 0 -24 15l-77 139q-37 0 -69 4v-144q0 -14 -14 -14h-60q-14 0 -14 14v364q0 28 24 35q47 13 124 13zM353 494v-130q27 -3 50 -3q46 0 64.5 16t18.5 50v7q0 35 -18 50t-65 15q-30 0 -50 -5z" />
    <glyph glyph-name="macron" unicode="&#xaf;" horiz-adv-x="420" 
d="M71 690h278q15 0 15 -15v-54q0 -15 -15 -15h-278q-15 0 -15 15v54q0 15 15 15z" />
    <glyph glyph-name="degree" unicode="&#xb0;" horiz-adv-x="420" 
d="M72 570q0 71 38 106.5t100 35.5t100 -35.5t38 -106.5t-38 -106.5t-100 -35.5t-100 35.5t-38 106.5zM148 570q0 -73 62 -73t62 73t-62 73t-62 -73z" />
    <glyph glyph-name="plusminus" unicode="&#xb1;" horiz-adv-x="624" 
d="M373 451h173q16 0 16 -16v-69q0 -15 -16 -15h-173v-177q0 -15 -15 -15h-92q-15 0 -15 15v177h-173q-16 0 -16 15v69q0 16 16 16h173v177q0 16 15 16h92q15 0 15 -16v-177zM78 118h468q16 0 16 -16v-69q0 -15 -16 -15h-468q-16 0 -16 15v69q0 16 16 16z" />
    <glyph glyph-name="twosuperior" unicode="&#xb2;" horiz-adv-x="404" 
d="M336 237h-284q-14 0 -14 12v48q0 50 23 85t78 68q66 40 91 63.5t25 60.5q0 30 -19 43t-65 13q-53 0 -99 -8q-6 -1 -9.5 3t-3.5 11v41q0 13 14 17q51 14 109 14q91 0 129 -33t38 -104q0 -92 -91 -145q-76 -44 -100.5 -65.5t-24.5 -45.5h203q13 0 13 -12v-54q0 -12 -13 -12
z" />
    <glyph glyph-name="threesuperior" unicode="&#xb3;" horiz-adv-x="404" 
d="M50 312q45 -7 101 -7q102 0 102 67q0 36 -20.5 50.5t-65.5 14.5h-91q-13 0 -13 12v54q0 12 13 12h84q45 0 66 13t21 44t-20.5 44.5t-63.5 13.5q-51 0 -100 -7q-15 -1 -15 13v41q0 13 14 17q45 14 112 14q75 0 121 -33t46 -100q0 -63 -55 -97q61 -34 61 -107
q0 -67 -47 -104.5t-136 -37.5h-14q-56 0 -101 12q-14 4 -14 17v41q0 15 15 13z" />
    <glyph glyph-name="acute" unicode="&#xb4;" horiz-adv-x="420" 
d="M169 560q-10 -7 -20 0l-36 23q-11 7 -1 17l117 134q10 12 24 3l55 -36q11 -8 0 -19q-70 -76 -139 -122z" />
    <glyph glyph-name="mu" unicode="&#xb5;" horiz-adv-x="605" 
d="M191 502v-302q1 -61 33 -87.5t98 -26.5q52 0 92 10v406q0 16 16 16h85q15 0 15 -16v-440q0 -37 -29 -47q-63 -23 -159 -23q-106 0 -151 33v-202q0 -16 -16 -16h-85q-15 0 -15 16v680q0 15 14 15h87q15 0 15 -16z" />
    <glyph glyph-name="paragraph" unicode="&#xb6;" horiz-adv-x="592" 
d="M500 -131h-60q-16 0 -16 16v729h-43v-729q0 -16 -15 -16h-62q-15 0 -15 16v381q-100 0 -170.5 58.5t-70.5 159.5t62.5 158.5t161.5 57.5h228q16 0 16 -16v-799q0 -16 -16 -16z" />
    <glyph glyph-name="periodcentered" unicode="&#xb7;" horiz-adv-x="278" 
d="M187 285h-79q-16 0 -23 20q-14 44 -14 93v11q0 15 15 15h101q15 0 15 -15v-109q0 -15 -15 -15z" />
    <glyph glyph-name="cedilla" unicode="&#xb8;" horiz-adv-x="420" 
d="M108 -215v29q0 13 14 10q17 -5 40 -5q53 0 53 37q0 21 -18 34t-53 13q-9 0 -12.5 5.5t1.5 14.5l52 89h81l-38 -68q80 -15 80 -88q0 -48 -32.5 -75t-81.5 -27q-44 0 -74 14q-12 5 -12 17z" />
    <glyph glyph-name="onesuperior" unicode="&#xb9;" horiz-adv-x="404" 
d="M247 237h-66q-14 0 -14 14v375h-11q-32 0 -72 -5q-14 -2 -14 13v38q0 13 12 16q67 14 136 14h28q15 0 15 -14v-437q0 -14 -14 -14z" />
    <glyph glyph-name="ordmasculine" unicode="&#xba;" horiz-adv-x="440" 
d="M42 508v22q0 88 46.5 133t131.5 45t131.5 -45t46.5 -133v-22q0 -88 -46.5 -133t-131.5 -45t-131.5 45t-46.5 133zM131 527v-16q0 -104 89 -104t89 104v16q0 104 -89 104t-89 -104z" />
    <glyph glyph-name="guillemotright" unicode="&#xbb;" horiz-adv-x="549" 
d="M412 310l-148 128q-8 8 -2 18l16 25q7 12 21 3q109 -72 173 -136q10 -10 10 -20v-36q0 -10 -10 -20q-64 -64 -173 -136q-14 -9 -21 3l-16 25q-6 10 2 18zM209 310l-148 128q-8 8 -2 18l16 25q7 12 21 3q109 -72 173 -136q10 -10 10 -20v-36q0 -10 -10 -20
q-64 -64 -173 -136q-14 -9 -21 3l-16 25q-6 10 2 18z" />
    <glyph glyph-name="onequarter" unicode="&#xbc;" horiz-adv-x="973" 
d="M247 237h-66q-14 0 -14 14v375h-11q-32 0 -72 -5q-14 -2 -14 13v38q0 13 12 16q67 14 136 14h28q15 0 15 -14v-437q0 -14 -14 -14zM255 -1l379 705q6 11 18 11h56q17 0 10 -14l-379 -705q-6 -11 -18 -11h-56q-17 0 -10 14zM793 15v69h-193q-14 0 -14 14v53q0 8 3 17
q47 150 113 283q6 13 22 13h63q9 0 11.5 -6t-1.5 -14q-78 -161 -110 -282h106v127q0 14 14 14h67q13 0 13 -14v-127h40q15 0 15 -14v-51q0 -13 -15 -13h-40v-69q0 -14 -13 -14h-67q-14 0 -14 14z" />
    <glyph glyph-name="onehalf" unicode="&#xbd;" horiz-adv-x="973" 
d="M255 -1l379 705q6 11 18 11h56q17 0 10 -14l-379 -705q-6 -11 -18 -11h-56q-17 0 -10 14zM905 1h-284q-14 0 -14 12v48q0 50 23 85t78 68q66 40 91 63.5t25 60.5q0 30 -19 43t-65 13q-53 0 -99 -8q-6 -1 -9.5 3t-3.5 11v41q0 13 14 17q51 14 109 14q91 0 129 -33t38 -104
q0 -92 -91 -145q-76 -44 -100.5 -65.5t-24.5 -45.5h203q13 0 13 -12v-54q0 -12 -13 -12zM247 237h-66q-14 0 -14 14v375h-11q-32 0 -72 -5q-14 -2 -14 13v38q0 13 12 16q67 14 136 14h28q15 0 15 -14v-437q0 -14 -14 -14z" />
    <glyph glyph-name="threequarters" unicode="&#xbe;" horiz-adv-x="973" 
d="M255 -1l379 705q6 11 18 11h56q17 0 10 -14l-379 -705q-6 -11 -18 -11h-56q-17 0 -10 14zM793 15v69h-193q-14 0 -14 14v53q0 8 3 17q47 150 113 283q6 13 22 13h63q9 0 11.5 -6t-1.5 -14q-78 -161 -110 -282h106v127q0 14 14 14h67q13 0 13 -14v-127h40q15 0 15 -14v-51
q0 -13 -15 -13h-40v-69q0 -14 -13 -14h-67q-14 0 -14 14zM50 312q45 -7 101 -7q102 0 102 67q0 36 -20.5 50.5t-65.5 14.5h-91q-13 0 -13 12v54q0 12 13 12h84q45 0 66 13t21 44t-20.5 44.5t-63.5 13.5q-51 0 -100 -7q-15 -1 -15 13v41q0 13 14 17q45 14 112 14
q75 0 121 -33t46 -100q0 -63 -55 -97q61 -34 61 -107q0 -67 -47 -104.5t-136 -37.5h-14q-56 0 -101 12q-14 4 -14 17v41q0 15 15 13z" />
    <glyph glyph-name="questiondown" unicode="&#xbf;" horiz-adv-x="493" 
d="M287 -194q-221 0 -221 190q0 96 116 196q44 39 44 110v15q0 16 15 16h85q16 0 16 -16v-16q0 -117 -90 -189q-70 -56 -70 -118q0 -93 118 -93q74 0 136 9q5 1 8.5 -2t3.5 -10v-54q0 -11 -13 -15q-67 -23 -148 -23zM346 416v-12q0 -15 -15 -15h-96q-15 0 -15 15v100
q0 14 14 14h77q18 0 23 -17q12 -40 12 -85z" />
    <glyph glyph-name="Agrave" unicode="&#xc0;" horiz-adv-x="636" 
d="M252 700h132q21 0 27 -21l196 -661q5 -18 -12 -18h-94q-16 0 -19 12l-39 140h-250l-39 -140q-3 -12 -19 -12h-94q-17 0 -12 18l196 661q6 21 27 21zM318 600l-97 -348h194zM325 754q-69 46 -139 122q-11 11 0 19l55 36q14 9 24 -3l117 -134q10 -10 -1 -17l-36 -23
q-10 -7 -20 0z" />
    <glyph glyph-name="Aacute" unicode="&#xc1;" horiz-adv-x="636" 
d="M252 700h132q21 0 27 -21l196 -661q5 -18 -12 -18h-94q-16 0 -19 12l-39 140h-250l-39 -140q-3 -12 -19 -12h-94q-17 0 -12 18l196 661q6 21 27 21zM318 600l-97 -348h194zM311 754q-10 -7 -20 0l-36 23q-11 7 -1 17l117 134q10 12 24 3l55 -36q11 -8 0 -19
q-70 -76 -139 -122z" />
    <glyph glyph-name="Acircumflex" unicode="&#xc2;" horiz-adv-x="636" 
d="M252 700h132q21 0 27 -21l196 -661q5 -18 -12 -18h-94q-16 0 -19 12l-39 140h-250l-39 -140q-3 -12 -19 -12h-94q-17 0 -12 18l196 661q6 21 27 21zM318 600l-97 -348h194zM293 924h50q14 0 27 -10q52 -36 113 -119q10 -13 -1 -20l-33 -21q-14 -8 -22 0l-109 100
l-109 -100q-8 -8 -22 0l-33 21q-11 7 -1 20q61 83 113 119q13 10 27 10z" />
    <glyph glyph-name="Atilde" unicode="&#xc3;" horiz-adv-x="636" 
d="M252 700h132q21 0 27 -21l196 -661q5 -18 -12 -18h-94q-16 0 -19 12l-39 140h-250l-39 -140q-3 -12 -19 -12h-94q-17 0 -12 18l196 661q6 21 27 21zM318 600l-97 -348h194zM413 889v11q0 13 14 13h38q15 0 20 -13q8 -18 8 -43q0 -42 -25 -65t-69 -23q-52 0 -96 37
q-38 33 -55 33q-25 0 -25 -44v-11q0 -13 -14 -13h-38q-15 0 -20 13q-8 18 -8 43q0 42 25 65t69 23q51 0 95 -37q38 -33 56 -33q25 0 25 44z" />
    <glyph glyph-name="Adieresis" unicode="&#xc4;" horiz-adv-x="636" 
d="M252 700h132q21 0 27 -21l196 -661q5 -18 -12 -18h-94q-16 0 -19 12l-39 140h-250l-39 -140q-3 -12 -19 -12h-94q-17 0 -12 18l196 661q6 21 27 21zM318 600l-97 -348h194zM482 885v-6q0 -43 -15 -81q-7 -17 -24 -17h-67q-15 0 -15 16v88q0 16 15 16h91q15 0 15 -16z
M154 797v6q0 43 15 81q7 17 24 17h67q15 0 15 -16v-88q0 -16 -15 -16h-91q-15 0 -15 16z" />
    <glyph glyph-name="Aring" unicode="&#xc5;" horiz-adv-x="636" 
d="M252 700h132q21 0 27 -21l196 -661q5 -18 -12 -18h-94q-16 0 -19 12l-39 140h-250l-39 -140q-3 -12 -19 -12h-94q-17 0 -12 18l196 661q6 21 27 21zM318 600l-97 -348h194zM430 842q0 -108 -112 -108t-112 108t112 108t112 -108zM279 842q0 -47 39 -47t39 47t-39 47
t-39 -47z" />
    <glyph glyph-name="AE" unicode="&#xc6;" horiz-adv-x="882" 
d="M588 -12q-96 0 -131.5 31.5t-35.5 113.5v22h-203l-64 -143q-6 -12 -20 -12h-92q-21 0 -12 19l302 660q9 21 32 21h435q16 0 16 -16v-69q0 -15 -16 -15h-256v-196h235q16 0 16 -15v-69q0 -16 -16 -16h-235v-157q0 -30 12.5 -44.5t41.5 -14.5h212q15 0 15 -15v-58
q0 -15 -16 -16q-114 -11 -220 -11zM421 606l-158 -351h158v351z" />
    <glyph glyph-name="Ccedilla" unicode="&#xc7;" horiz-adv-x="567" 
d="M257 -215v29q0 13 14 10q17 -5 40 -5q53 0 53 37q0 21 -18 34t-53 13q-9 0 -12.5 5.5t1.5 14.5l38 66q-263 15 -263 341v39q0 166 68.5 254.5t221.5 88.5q87 0 157 -22q13 -4 13 -15v-59q0 -16 -15 -13q-59 9 -133 9q-104 0 -147 -59.5t-43 -189.5v-27q0 -128 44 -188
t147 -60q74 0 142 9q15 1 15 -13v-61q0 -11 -13 -15q-58 -14 -112 -18l-25 -46q80 -15 80 -88q0 -48 -32.5 -75t-81.5 -27q-44 0 -74 14q-12 5 -12 17z" />
    <glyph glyph-name="Egrave" unicode="&#xc8;" horiz-adv-x="577" 
d="M85 133v434q0 82 35.5 113.5t131.5 31.5q132 0 242 -12q15 -2 15 -17v-56q0 -15 -15 -15h-233q-29 0 -41.5 -14.5t-12.5 -44.5v-144h266q16 0 16 -16v-69q0 -15 -16 -15h-266v-162q0 -30 12.5 -44.5t41.5 -14.5h243q15 0 15 -15v-56q0 -15 -15 -17q-101 -12 -252 -12
q-96 0 -131.5 31.5t-35.5 113.5zM335 754q-69 46 -139 122q-11 11 0 19l55 36q14 9 24 -3l117 -134q10 -10 -1 -17l-36 -23q-10 -7 -20 0z" />
    <glyph glyph-name="Eacute" unicode="&#xc9;" horiz-adv-x="577" 
d="M85 133v434q0 82 35.5 113.5t131.5 31.5q132 0 242 -12q15 -2 15 -17v-56q0 -15 -15 -15h-233q-29 0 -41.5 -14.5t-12.5 -44.5v-144h266q16 0 16 -16v-69q0 -15 -16 -15h-266v-162q0 -30 12.5 -44.5t41.5 -14.5h243q15 0 15 -15v-56q0 -15 -15 -17q-101 -12 -252 -12
q-96 0 -131.5 31.5t-35.5 113.5zM292 754q-10 -7 -20 0l-36 23q-11 7 -1 17l117 134q10 12 24 3l55 -36q11 -8 0 -19q-70 -76 -139 -122z" />
    <glyph glyph-name="Ecircumflex" unicode="&#xca;" horiz-adv-x="577" 
d="M85 133v434q0 82 35.5 113.5t131.5 31.5q132 0 242 -12q15 -2 15 -17v-56q0 -15 -15 -15h-233q-29 0 -41.5 -14.5t-12.5 -44.5v-144h266q16 0 16 -16v-69q0 -15 -16 -15h-266v-162q0 -30 12.5 -44.5t41.5 -14.5h243q15 0 15 -15v-56q0 -15 -15 -17q-101 -12 -252 -12
q-96 0 -131.5 31.5t-35.5 113.5zM275 924h50q14 0 27 -10q52 -36 113 -119q10 -13 -1 -20l-33 -21q-14 -8 -22 0l-109 100l-109 -100q-8 -8 -22 0l-33 21q-11 7 -1 20q61 83 113 119q13 10 27 10z" />
    <glyph glyph-name="Edieresis" unicode="&#xcb;" horiz-adv-x="577" 
d="M85 133v434q0 82 35.5 113.5t131.5 31.5q132 0 242 -12q15 -2 15 -17v-56q0 -15 -15 -15h-233q-29 0 -41.5 -14.5t-12.5 -44.5v-144h266q16 0 16 -16v-69q0 -15 -16 -15h-266v-162q0 -30 12.5 -44.5t41.5 -14.5h243q15 0 15 -15v-56q0 -15 -15 -17q-101 -12 -252 -12
q-96 0 -131.5 31.5t-35.5 113.5zM475 885v-6q0 -43 -15 -81q-7 -17 -24 -17h-67q-15 0 -15 16v88q0 16 15 16h91q15 0 15 -16zM147 797v6q0 43 15 81q7 17 24 17h67q15 0 15 -16v-88q0 -16 -15 -16h-91q-15 0 -15 16z" />
    <glyph glyph-name="Igrave" unicode="&#xcc;" horiz-adv-x="312" 
d="M95 15v669q0 16 15 16h92q15 0 15 -16v-669q0 -15 -15 -15h-92q-15 0 -15 15zM144 754q-69 46 -139 122q-11 11 0 19l55 36q14 9 24 -3l117 -134q10 -10 -1 -17l-36 -23q-10 -7 -20 0z" />
    <glyph glyph-name="Iacute" unicode="&#xcd;" horiz-adv-x="312" 
d="M95 15v669q0 16 15 16h92q15 0 15 -16v-669q0 -15 -15 -15h-92q-15 0 -15 15zM168 754q-10 -7 -20 0l-36 23q-11 7 -1 17l117 134q10 12 24 3l55 -36q11 -8 0 -19q-70 -76 -139 -122z" />
    <glyph glyph-name="Icircumflex" unicode="&#xce;" horiz-adv-x="312" 
d="M95 15v669q0 16 15 16h92q15 0 15 -16v-669q0 -15 -15 -15h-92q-15 0 -15 15zM131 924h50q14 0 27 -10q52 -36 113 -119q10 -13 -1 -20l-33 -21q-14 -8 -22 0l-109 100l-109 -100q-8 -8 -22 0l-33 21q-11 7 -1 20q61 83 113 119q13 10 27 10z" />
    <glyph glyph-name="Idieresis" unicode="&#xcf;" horiz-adv-x="312" 
d="M95 15v669q0 16 15 16h92q15 0 15 -16v-669q0 -15 -15 -15h-92q-15 0 -15 15zM320 885v-6q0 -43 -15 -81q-7 -17 -24 -17h-67q-15 0 -15 16v88q0 16 15 16h91q15 0 15 -16zM-8 797v6q0 43 15 81q7 17 24 17h67q15 0 15 -16v-88q0 -16 -15 -16h-91q-15 0 -15 16z" />
    <glyph glyph-name="Eth" unicode="&#xd0;" horiz-adv-x="665" 
d="M22 388h63v250q0 43 32 52q80 22 186 22q86 0 146.5 -24t94.5 -71t49 -108t15 -143v-32q0 -82 -15 -143t-49 -108t-94.5 -71t-146.5 -24q-106 0 -186 22q-32 9 -32 52v250h-63q-16 0 -16 16v45q0 15 16 15zM207 602v-214h122q16 0 16 -15v-45q0 -16 -16 -16h-122v-214
q42 -10 92 -10q110 0 148.5 58.5t38.5 189.5v27q0 132 -38.5 190.5t-148.5 58.5q-50 0 -92 -10z" />
    <glyph glyph-name="Ntilde" unicode="&#xd1;" horiz-adv-x="701" 
d="M494 179v507q0 14 14 14h94q14 0 14 -14v-671q0 -15 -14 -15h-122q-22 0 -31 18l-242 503v-507q0 -14 -14 -14h-94q-14 0 -14 14v671q0 15 14 15h122q22 0 31 -18zM445 889v11q0 13 14 13h38q15 0 20 -13q8 -18 8 -43q0 -42 -25 -65t-69 -23q-52 0 -96 37q-39 33 -55 33
q-25 0 -25 -44v-11q0 -13 -14 -13h-38q-15 0 -20 13q-8 18 -8 43q0 42 25 65t69 23q51 0 95 -37q38 -33 56 -33q25 0 25 44z" />
    <glyph glyph-name="Ograve" unicode="&#xd2;" horiz-adv-x="692" 
d="M635 367v-34q0 -345 -289 -345t-289 345v34q0 345 289 345t289 -345zM513 337v26q0 131 -40 190t-127 59t-127 -59t-40 -190v-26q0 -131 40 -190t127 -59t127 59t40 190zM371 754q-69 46 -139 122q-11 11 0 19l55 36q14 9 24 -3l117 -134q10 -10 -1 -17l-36 -23
q-10 -7 -20 0z" />
    <glyph glyph-name="Oacute" unicode="&#xd3;" horiz-adv-x="692" 
d="M635 367v-34q0 -345 -289 -345t-289 345v34q0 345 289 345t289 -345zM513 337v26q0 131 -40 190t-127 59t-127 -59t-40 -190v-26q0 -131 40 -190t127 -59t127 59t40 190zM321 754q-10 -7 -20 0l-36 23q-11 7 -1 17l117 134q10 12 24 3l55 -36q11 -8 0 -19
q-70 -76 -139 -122z" />
    <glyph glyph-name="Ocircumflex" unicode="&#xd4;" horiz-adv-x="692" 
d="M635 367v-34q0 -345 -289 -345t-289 345v34q0 345 289 345t289 -345zM513 337v26q0 131 -40 190t-127 59t-127 -59t-40 -190v-26q0 -131 40 -190t127 -59t127 59t40 190zM321 924h50q14 0 27 -10q52 -36 113 -119q10 -13 -1 -20l-33 -21q-14 -8 -22 0l-109 100l-109 -100
q-8 -8 -22 0l-33 21q-11 7 -1 20q61 83 113 119q13 10 27 10z" />
    <glyph glyph-name="Otilde" unicode="&#xd5;" horiz-adv-x="692" 
d="M635 367v-34q0 -345 -289 -345t-289 345v34q0 345 289 345t289 -345zM513 337v26q0 131 -40 190t-127 59t-127 -59t-40 -190v-26q0 -131 40 -190t127 -59t127 59t40 190zM441 889v11q0 13 14 13h38q15 0 20 -13q8 -18 8 -43q0 -42 -25 -65t-69 -23q-52 0 -96 37
q-38 33 -55 33q-25 0 -25 -44v-11q0 -13 -14 -13h-38q-15 0 -20 13q-8 18 -8 43q0 42 25 65t69 23q51 0 95 -37q38 -33 56 -33q25 0 25 44z" />
    <glyph glyph-name="Odieresis" unicode="&#xd6;" horiz-adv-x="692" 
d="M635 367v-34q0 -345 -289 -345t-289 345v34q0 345 289 345t289 -345zM513 337v26q0 131 -40 190t-127 59t-127 -59t-40 -190v-26q0 -131 40 -190t127 -59t127 59t40 190zM510 885v-6q0 -43 -15 -81q-7 -17 -24 -17h-67q-15 0 -15 16v88q0 16 15 16h91q15 0 15 -16z
M182 797v6q0 43 15 81q7 17 24 17h67q15 0 15 -16v-88q0 -16 -15 -16h-91q-15 0 -15 16z" />
    <glyph glyph-name="multiply" unicode="&#xd7;" horiz-adv-x="624" 
d="M225 333l-137 138q-11 11 -1 23l63 63q10 11 23 0l138 -138l138 138q12 12 22 0l63 -63q10 -12 0 -23l-138 -138l138 -138q10 -10 0 -22l-63 -63q-10 -12 -22 0l-138 138l-139 -138q-12 -12 -22 0l-63 63q-10 12 0 22z" />
    <glyph glyph-name="Oslash" unicode="&#xd8;" horiz-adv-x="692" 
d="M493 681l61 107q6 12 20 12h54q17 0 8 -15l-84 -147q83 -86 83 -271v-34q0 -345 -289 -345q-85 0 -148 30l-60 -106q-6 -12 -20 -12h-54q-17 0 -8 15l83 146q-82 85 -82 272v34q0 345 289 345q85 0 147 -31zM513 337v26q0 105 -25 162l-236 -412q37 -25 94 -25
q87 0 127 59t40 190zM346 612q-87 0 -127 -59t-40 -190v-26q0 -105 25 -162l235 412q-35 25 -93 25z" />
    <glyph glyph-name="Ugrave" unicode="&#xd9;" horiz-adv-x="694" 
d="M347 -12q-147 0 -204.5 82t-57.5 256v359q0 15 14 15h93q15 0 15 -15v-355q0 -124 31 -183t109 -59t109 59t31 183v355q0 15 15 15h93q14 0 14 -15v-359q0 -174 -57.5 -256t-204.5 -82zM357 754q-69 46 -139 122q-11 11 0 19l55 36q14 9 24 -3l117 -134q10 -10 -1 -17
l-36 -23q-10 -7 -20 0z" />
    <glyph glyph-name="Uacute" unicode="&#xda;" horiz-adv-x="694" 
d="M347 -12q-147 0 -204.5 82t-57.5 256v359q0 15 14 15h93q15 0 15 -15v-355q0 -124 31 -183t109 -59t109 59t31 183v355q0 15 15 15h93q14 0 14 -15v-359q0 -174 -57.5 -256t-204.5 -82zM337 754q-10 -7 -20 0l-36 23q-11 7 -1 17l117 134q10 12 24 3l55 -36q11 -8 0 -19
q-70 -76 -139 -122z" />
    <glyph glyph-name="Ucircumflex" unicode="&#xdb;" horiz-adv-x="694" 
d="M347 -12q-147 0 -204.5 82t-57.5 256v359q0 15 14 15h93q15 0 15 -15v-355q0 -124 31 -183t109 -59t109 59t31 183v355q0 15 15 15h93q14 0 14 -15v-359q0 -174 -57.5 -256t-204.5 -82zM322 924h50q14 0 27 -10q52 -36 113 -119q10 -13 -1 -20l-33 -21q-14 -8 -22 0
l-109 100l-109 -100q-8 -8 -22 0l-33 21q-11 7 -1 20q61 83 113 119q13 10 27 10z" />
    <glyph glyph-name="Udieresis" unicode="&#xdc;" horiz-adv-x="694" 
d="M347 -12q-147 0 -204.5 82t-57.5 256v359q0 15 14 15h93q15 0 15 -15v-355q0 -124 31 -183t109 -59t109 59t31 183v355q0 15 15 15h93q14 0 14 -15v-359q0 -174 -57.5 -256t-204.5 -82zM511 885v-6q0 -43 -15 -81q-7 -17 -24 -17h-67q-15 0 -15 16v88q0 16 15 16h91
q15 0 15 -16zM183 797v6q0 43 15 81q7 17 24 17h67q15 0 15 -16v-88q0 -16 -15 -16h-91q-15 0 -15 16z" />
    <glyph glyph-name="Yacute" unicode="&#xdd;" horiz-adv-x="606" 
d="M583 676l-219 -434v-227q0 -15 -15 -15h-91q-16 0 -16 15v227l-219 434q-5 10 -3 17t12 7h90q15 0 22 -15l159 -323l159 323q7 15 22 15h90q10 0 12 -7t-3 -17zM296 754q-10 -7 -20 0l-36 23q-11 7 -1 17l117 134q10 12 24 3l55 -36q11 -8 0 -19q-70 -76 -139 -122z" />
    <glyph glyph-name="Thorn" unicode="&#xde;" horiz-adv-x="612" 
d="M565 366v-30q0 -211 -250 -211q-55 0 -108 6v-116q0 -15 -16 -15h-91q-15 0 -15 15v669q0 16 15 16h91q16 0 16 -16v-113q52 6 108 6q250 0 250 -211zM443 347v8q0 63 -32.5 92.5t-111.5 29.5q-57 0 -92 -5v-242q35 -5 92 -5q79 0 111.5 29.5t32.5 92.5z" />
    <glyph glyph-name="germandbls" unicode="&#xdf;" horiz-adv-x="601" 
d="M347 88q92 0 92 115q0 56 -33.5 82t-104.5 30q-15 1 -15 15v69q0 16 15 16q113 0 113 102q0 49 -26 72t-80 23q-104 0 -104 -113v-484q0 -15 -16 -15h-91q-15 0 -15 15v472q0 114 56.5 169.5t172.5 55.5q101 0 163 -47t62 -131q0 -69 -26.5 -110.5t-88.5 -56.5
q72 -13 106 -59t34 -129q0 -94 -51.5 -142.5t-139.5 -48.5q-66 0 -117 17q-15 5 -15 23v61q0 15 14 11q58 -12 95 -12z" />
    <glyph glyph-name="agrave" unicode="&#xe0;" horiz-adv-x="578" 
d="M293 86q58 0 99 9v121q-48 9 -116 9q-65 0 -89.5 -16t-24.5 -54t27.5 -53.5t103.5 -15.5zM260 526q137 0 192.5 -46t55.5 -155v-263q0 -41 -29 -48q-83 -22 -203 -22q-126 0 -178 38.5t-52 124.5q0 80 48.5 121.5t138.5 41.5q89 0 159 -30v21q0 72 -30.5 97.5
t-125.5 25.5q-76 0 -123 -9q-17 -3 -17 12v50q0 16 16 21q56 20 148 20zM304 580q-69 46 -139 122q-11 11 0 19l55 36q14 9 24 -3l117 -134q10 -10 -1 -17l-36 -23q-10 -7 -20 0z" />
    <glyph glyph-name="aacute" unicode="&#xe1;" horiz-adv-x="578" 
d="M293 86q58 0 99 9v121q-48 9 -116 9q-65 0 -89.5 -16t-24.5 -54t27.5 -53.5t103.5 -15.5zM260 526q137 0 192.5 -46t55.5 -155v-263q0 -41 -29 -48q-83 -22 -203 -22q-126 0 -178 38.5t-52 124.5q0 80 48.5 121.5t138.5 41.5q89 0 159 -30v21q0 72 -30.5 97.5
t-125.5 25.5q-76 0 -123 -9q-17 -3 -17 12v50q0 16 16 21q56 20 148 20zM275 580q-10 -7 -20 0l-36 23q-11 7 -1 17l117 134q10 12 24 3l55 -36q11 -8 0 -19q-70 -76 -139 -122z" />
    <glyph glyph-name="acircumflex" unicode="&#xe2;" horiz-adv-x="578" 
d="M293 86q58 0 99 9v121q-48 9 -116 9q-65 0 -89.5 -16t-24.5 -54t27.5 -53.5t103.5 -15.5zM260 526q137 0 192.5 -46t55.5 -155v-263q0 -41 -29 -48q-83 -22 -203 -22q-126 0 -178 38.5t-52 124.5q0 80 48.5 121.5t138.5 41.5q89 0 159 -30v21q0 72 -30.5 97.5
t-125.5 25.5q-76 0 -123 -9q-17 -3 -17 12v50q0 16 16 21q56 20 148 20zM268 750h50q14 0 27 -10q52 -36 113 -119q10 -13 -1 -20l-33 -21q-14 -8 -22 0l-109 100l-109 -100q-8 -8 -22 0l-33 21q-11 7 -1 20q61 83 113 119q13 10 27 10z" />
    <glyph glyph-name="atilde" unicode="&#xe3;" horiz-adv-x="578" 
d="M293 86q58 0 99 9v121q-48 9 -116 9q-65 0 -89.5 -16t-24.5 -54t27.5 -53.5t103.5 -15.5zM260 526q137 0 192.5 -46t55.5 -155v-263q0 -41 -29 -48q-83 -22 -203 -22q-126 0 -178 38.5t-52 124.5q0 80 48.5 121.5t138.5 41.5q89 0 159 -30v21q0 72 -30.5 97.5
t-125.5 25.5q-76 0 -123 -9q-17 -3 -17 12v50q0 16 16 21q56 20 148 20zM383 715v11q0 13 14 13h38q15 0 20 -13q8 -18 8 -43q0 -42 -25 -65t-69 -23q-52 0 -96 37q-39 33 -55 33q-25 0 -25 -44v-11q0 -13 -14 -13h-38q-15 0 -20 13q-8 18 -8 43q0 42 25 65t69 23
q51 0 95 -37q39 -33 56 -33q25 0 25 44z" />
    <glyph glyph-name="adieresis" unicode="&#xe4;" horiz-adv-x="578" 
d="M293 86q58 0 99 9v121q-48 9 -116 9q-65 0 -89.5 -16t-24.5 -54t27.5 -53.5t103.5 -15.5zM260 526q137 0 192.5 -46t55.5 -155v-263q0 -41 -29 -48q-83 -22 -203 -22q-126 0 -178 38.5t-52 124.5q0 80 48.5 121.5t138.5 41.5q89 0 159 -30v21q0 72 -30.5 97.5
t-125.5 25.5q-76 0 -123 -9q-17 -3 -17 12v50q0 16 16 21q56 20 148 20zM447 711v-6q0 -43 -15 -81q-7 -17 -24 -17h-67q-15 0 -15 16v88q0 16 15 16h91q15 0 15 -16zM119 623v6q0 43 15 81q7 17 24 17h67q15 0 15 -16v-88q0 -16 -15 -16h-91q-15 0 -15 16z" />
    <glyph glyph-name="aring" unicode="&#xe5;" horiz-adv-x="578" 
d="M293 86q58 0 99 9v121q-48 9 -116 9q-65 0 -89.5 -16t-24.5 -54t27.5 -53.5t103.5 -15.5zM260 526q137 0 192.5 -46t55.5 -155v-263q0 -41 -29 -48q-83 -22 -203 -22q-126 0 -178 38.5t-52 124.5q0 80 48.5 121.5t138.5 41.5q89 0 159 -30v21q0 72 -30.5 97.5
t-125.5 25.5q-76 0 -123 -9q-17 -3 -17 12v50q0 16 16 21q56 20 148 20zM405 668q0 -108 -112 -108t-112 108t112 108t112 -108zM254 668q0 -47 39 -47t39 47t-39 47t-39 -47z" />
    <glyph glyph-name="ae" unicode="&#xe6;" horiz-adv-x="853" 
d="M258 87q57 0 104 11v117q-48 10 -103 10q-50 0 -73.5 -17t-23.5 -55q0 -66 96 -66zM475 293h182q19 0 27 7t8 27q0 49 -27 77t-77 28q-51 0 -81.5 -34.5t-31.5 -104.5zM758 96q17 3 17 -12v-50q0 -16 -16 -21q-55 -21 -141 -21q-116 0 -172 52q-37 -52 -189 -52
q-110 0 -160.5 39t-50.5 122q0 80 47 122.5t130 42.5q77 0 139 -27v20q0 72 -28 96.5t-114 24.5q-47 0 -113 -14q-17 -3 -17 12v50q0 14 16 21q60 24 138 24q128 0 183 -74q62 75 168 75q101 0 157 -57.5t56 -153.5q0 -61 -30 -88.5t-93 -27.5h-207q7 -64 41.5 -88.5
t110.5 -24.5q58 0 128 10z" />
    <glyph glyph-name="ccedilla" unicode="&#xe7;" horiz-adv-x="506" 
d="M215 -215v29q0 13 14 10q17 -5 40 -5q53 0 53 37q0 21 -18 34t-53 13q-9 0 -12.5 5.5t1.5 14.5l40 70q-120 6 -177.5 70.5t-57.5 175.5v39q0 116 63.5 182t191.5 66q87 0 143 -20q16 -5 16 -21v-50q0 -15 -17 -12q-46 9 -121 9q-84 0 -122 -39.5t-38 -120.5v-27
q0 -81 38.5 -120t124.5 -39q70 0 124 9q17 3 17 -12v-50q0 -16 -16 -21q-30 -11 -86 -17l-28 -51q80 -15 80 -88q0 -48 -32.5 -75t-81.5 -27q-44 0 -74 14q-12 5 -12 17z" />
    <glyph glyph-name="egrave" unicode="&#xe8;" horiz-adv-x="562" 
d="M331 86q72 0 133 9q17 3 17 -12v-50q0 -16 -16 -21q-63 -20 -152 -20q-140 0 -204 65t-64 194v26q0 120 62.5 184.5t182.5 64.5q111 0 169 -56.5t58 -153.5q0 -116 -142 -116h-211q8 -62 49.5 -88t117.5 -26zM161 294h206q34 0 34 30q0 108 -113 108q-123 0 -127 -138z
M294 580q-69 46 -139 122q-11 11 0 19l55 36q14 9 24 -3l117 -134q10 -10 -1 -17l-36 -23q-10 -7 -20 0z" />
    <glyph glyph-name="eacute" unicode="&#xe9;" horiz-adv-x="562" 
d="M331 86q72 0 133 9q17 3 17 -12v-50q0 -16 -16 -21q-63 -20 -152 -20q-140 0 -204 65t-64 194v26q0 120 62.5 184.5t182.5 64.5q111 0 169 -56.5t58 -153.5q0 -116 -142 -116h-211q8 -62 49.5 -88t117.5 -26zM161 294h206q34 0 34 30q0 108 -113 108q-123 0 -127 -138z
M259 580q-10 -7 -20 0l-36 23q-11 7 -1 17l117 134q10 12 24 3l55 -36q11 -8 0 -19q-70 -76 -139 -122z" />
    <glyph glyph-name="ecircumflex" unicode="&#xea;" horiz-adv-x="562" 
d="M331 86q72 0 133 9q17 3 17 -12v-50q0 -16 -16 -21q-63 -20 -152 -20q-140 0 -204 65t-64 194v26q0 120 62.5 184.5t182.5 64.5q111 0 169 -56.5t58 -153.5q0 -116 -142 -116h-211q8 -62 49.5 -88t117.5 -26zM161 294h206q34 0 34 30q0 108 -113 108q-123 0 -127 -138z
M257 750h50q14 0 27 -10q52 -36 113 -119q10 -13 -1 -20l-33 -21q-14 -8 -22 0l-109 100l-109 -100q-8 -8 -22 0l-33 21q-11 7 -1 20q61 83 113 119q13 10 27 10z" />
    <glyph glyph-name="edieresis" unicode="&#xeb;" horiz-adv-x="562" 
d="M331 86q72 0 133 9q17 3 17 -12v-50q0 -16 -16 -21q-63 -20 -152 -20q-140 0 -204 65t-64 194v26q0 120 62.5 184.5t182.5 64.5q111 0 169 -56.5t58 -153.5q0 -116 -142 -116h-211q8 -62 49.5 -88t117.5 -26zM161 294h206q34 0 34 30q0 108 -113 108q-123 0 -127 -138z
M449 711v-6q0 -43 -15 -81q-7 -17 -24 -17h-67q-15 0 -15 16v88q0 16 15 16h91q15 0 15 -16zM121 623v6q0 43 15 81q7 17 24 17h67q15 0 15 -16v-88q0 -16 -15 -16h-91q-15 0 -15 16z" />
    <glyph glyph-name="igrave" unicode="&#xec;" horiz-adv-x="286" 
d="M85 15v487q0 16 15 16h85q16 0 16 -16v-487q0 -15 -16 -15h-85q-15 0 -15 15zM130 580q-69 46 -139 122q-11 11 0 19l55 36q14 9 24 -3l117 -134q10 -10 -1 -17l-36 -23q-10 -7 -20 0z" />
    <glyph glyph-name="iacute" unicode="&#xed;" horiz-adv-x="286" 
d="M85 15v487q0 16 15 16h85q16 0 16 -16v-487q0 -15 -16 -15h-85q-15 0 -15 15zM156 580q-10 -7 -20 0l-36 23q-11 7 -1 17l117 134q10 12 24 3l55 -36q11 -8 0 -19q-70 -76 -139 -122z" />
    <glyph glyph-name="icircumflex" unicode="&#xee;" horiz-adv-x="286" 
d="M85 15v487q0 16 15 16h85q16 0 16 -16v-487q0 -15 -16 -15h-85q-15 0 -15 15zM118 750h50q14 0 27 -10q52 -36 113 -119q10 -13 -1 -20l-33 -21q-14 -8 -22 0l-109 100l-109 -100q-8 -8 -22 0l-33 21q-11 7 -1 20q61 83 113 119q13 10 27 10z" />
    <glyph glyph-name="idieresis" unicode="&#xef;" horiz-adv-x="286" 
d="M85 15v487q0 16 15 16h85q16 0 16 -16v-487q0 -15 -16 -15h-85q-15 0 -15 15zM307 711v-6q0 -43 -15 -81q-7 -17 -24 -17h-67q-15 0 -15 16v88q0 16 15 16h91q15 0 15 -16zM-21 623v6q0 43 15 81q7 17 24 17h67q15 0 15 -16v-88q0 -16 -15 -16h-91q-15 0 -15 16z" />
    <glyph glyph-name="eth" unicode="&#xf0;" horiz-adv-x="626" 
d="M255 589l87 43q-22 14 -63 14q-63 0 -114 -9q-17 -3 -17 12v49q0 16 16 21q59 19 125 19q98 0 156 -55l85 43q15 7 21 -7l18 -38q6 -14 -7 -21l-72 -35q54 -99 54 -282q0 -173 -60 -262t-202 -89q-237 0 -237 250v16q0 109 63.5 173t174.5 64q82 0 139 -21q-6 66 -25 104
l-110 -54q-14 -7 -21 7l-18 38q-6 13 7 20zM322 401q-161 0 -161 -147v-12q0 -80 28.5 -118t92.5 -38q78 0 112 57.5t34 203.5q0 35 -1 48q-56 6 -105 6z" />
    <glyph glyph-name="ntilde" unicode="&#xf1;" horiz-adv-x="600" 
d="M191 423v-408q0 -15 -16 -15h-85q-15 0 -15 15v440q0 39 29 48q79 23 198 23q121 0 174.5 -48t53.5 -155v-308q0 -15 -15 -15h-85q-16 0 -16 15v301q0 64 -27 90t-95 26q-59 0 -101 -9zM387 715v11q0 13 14 13h38q15 0 20 -13q8 -18 8 -43q0 -42 -25 -65t-69 -23
q-52 0 -96 37q-38 33 -55 33q-25 0 -25 -44v-11q0 -13 -14 -13h-38q-15 0 -20 13q-8 18 -8 43q0 42 25 65t69 23q51 0 95 -37q38 -33 56 -33q25 0 25 44z" />
    <glyph glyph-name="ograve" unicode="&#xf2;" horiz-adv-x="576" 
d="M45 242v34q0 123 63 186.5t180 63.5t180 -63.5t63 -186.5v-34q0 -123 -63 -186.5t-180 -63.5t-180 63.5t-63 186.5zM161 272v-26q0 -80 29.5 -120t97.5 -40t97.5 40t29.5 120v26q0 80 -29.5 120t-97.5 40t-97.5 -40t-29.5 -120zM305 580q-69 46 -139 122q-11 11 0 19
l55 36q14 9 24 -3l117 -134q10 -10 -1 -17l-36 -23q-10 -7 -20 0z" />
    <glyph glyph-name="oacute" unicode="&#xf3;" horiz-adv-x="576" 
d="M45 242v34q0 123 63 186.5t180 63.5t180 -63.5t63 -186.5v-34q0 -123 -63 -186.5t-180 -63.5t-180 63.5t-63 186.5zM161 272v-26q0 -80 29.5 -120t97.5 -40t97.5 40t29.5 120v26q0 80 -29.5 120t-97.5 40t-97.5 -40t-29.5 -120zM271 580q-10 -7 -20 0l-36 23q-11 7 -1 17
l117 134q10 12 24 3l55 -36q11 -8 0 -19q-70 -76 -139 -122z" />
    <glyph glyph-name="ocircumflex" unicode="&#xf4;" horiz-adv-x="576" 
d="M45 242v34q0 123 63 186.5t180 63.5t180 -63.5t63 -186.5v-34q0 -123 -63 -186.5t-180 -63.5t-180 63.5t-63 186.5zM161 272v-26q0 -80 29.5 -120t97.5 -40t97.5 40t29.5 120v26q0 80 -29.5 120t-97.5 40t-97.5 -40t-29.5 -120zM263 750h50q14 0 27 -10q52 -36 113 -119
q10 -13 -1 -20l-33 -21q-14 -8 -22 0l-109 100l-109 -100q-8 -8 -22 0l-33 21q-11 7 -1 20q61 83 113 119q13 10 27 10z" />
    <glyph glyph-name="otilde" unicode="&#xf5;" horiz-adv-x="576" 
d="M45 242v34q0 123 63 186.5t180 63.5t180 -63.5t63 -186.5v-34q0 -123 -63 -186.5t-180 -63.5t-180 63.5t-63 186.5zM161 272v-26q0 -80 29.5 -120t97.5 -40t97.5 40t29.5 120v26q0 80 -29.5 120t-97.5 40t-97.5 -40t-29.5 -120zM383 715v11q0 13 14 13h38q15 0 20 -13
q8 -18 8 -43q0 -42 -25 -65t-69 -23q-52 0 -96 37q-39 33 -55 33q-25 0 -25 -44v-11q0 -13 -14 -13h-38q-15 0 -20 13q-8 18 -8 43q0 42 25 65t69 23q51 0 95 -37q39 -33 56 -33q25 0 25 44z" />
    <glyph glyph-name="odieresis" unicode="&#xf6;" horiz-adv-x="576" 
d="M45 242v34q0 123 63 186.5t180 63.5t180 -63.5t63 -186.5v-34q0 -123 -63 -186.5t-180 -63.5t-180 63.5t-63 186.5zM161 272v-26q0 -80 29.5 -120t97.5 -40t97.5 40t29.5 120v26q0 80 -29.5 120t-97.5 40t-97.5 -40t-29.5 -120zM452 711v-6q0 -43 -15 -81q-7 -17 -24 -17
h-67q-15 0 -15 16v88q0 16 15 16h91q15 0 15 -16zM124 623v6q0 43 15 81q7 17 24 17h67q15 0 15 -16v-88q0 -16 -15 -16h-91q-15 0 -15 16z" />
    <glyph glyph-name="divide" unicode="&#xf7;" horiz-adv-x="624" 
d="M374 495v-11q0 -15 -15 -15h-93q-15 0 -15 15v104q0 15 15 15h71q20 0 28.5 -36t8.5 -72zM251 169v11q0 15 15 15h93q15 0 15 -15v-104q0 -15 -15 -15h-71q-20 0 -28.5 36t-8.5 72zM78 381h468q16 0 16 -16v-66q0 -16 -16 -16h-468q-16 0 -16 16v66q0 16 16 16z" />
    <glyph glyph-name="oslash" unicode="&#xf8;" horiz-adv-x="576" 
d="M186 7l-60 -105q-7 -12 -21 -12h-51q-15 0 -7 15l77 136q-79 62 -79 201v34q0 123 63 186.5t180 63.5q58 0 102 -16l60 106q7 12 21 12h51q15 0 7 -15l-77 -136q79 -65 79 -201v-34q0 -123 -63 -186.5t-180 -63.5q-57 0 -102 15zM288 86q68 0 97.5 40t29.5 120v26
q0 67 -20 104l-160 -282q20 -8 53 -8zM161 272v-26q0 -68 20 -105l160 283q-24 8 -53 8q-68 0 -97.5 -40t-29.5 -120z" />
    <glyph glyph-name="ugrave" unicode="&#xf9;" horiz-adv-x="605" 
d="M414 95v408q0 15 16 15h85q15 0 15 -15v-440q0 -39 -29 -48q-79 -23 -198 -23q-121 0 -174.5 48t-53.5 155v308q0 15 15 15h85q16 0 16 -15v-301q0 -64 27 -90t95 -26q59 0 101 9zM315 580q-69 46 -139 122q-11 11 0 19l55 36q14 9 24 -3l117 -134q10 -10 -1 -17l-36 -23
q-10 -7 -20 0z" />
    <glyph glyph-name="uacute" unicode="&#xfa;" horiz-adv-x="605" 
d="M414 95v408q0 15 16 15h85q15 0 15 -15v-440q0 -39 -29 -48q-79 -23 -198 -23q-121 0 -174.5 48t-53.5 155v308q0 15 15 15h85q16 0 16 -15v-301q0 -64 27 -90t95 -26q59 0 101 9zM290 580q-10 -7 -20 0l-36 23q-11 7 -1 17l117 134q10 12 24 3l55 -36q11 -8 0 -19
q-70 -76 -139 -122z" />
    <glyph glyph-name="ucircumflex" unicode="&#xfb;" horiz-adv-x="605" 
d="M414 95v408q0 15 16 15h85q15 0 15 -15v-440q0 -39 -29 -48q-79 -23 -198 -23q-121 0 -174.5 48t-53.5 155v308q0 15 15 15h85q16 0 16 -15v-301q0 -64 27 -90t95 -26q59 0 101 9zM277 750h50q14 0 27 -10q52 -36 113 -119q10 -13 -1 -20l-33 -21q-14 -8 -22 0l-109 100
l-109 -100q-8 -8 -22 0l-33 21q-11 7 -1 20q61 83 113 119q13 10 27 10z" />
    <glyph glyph-name="udieresis" unicode="&#xfc;" horiz-adv-x="605" 
d="M414 95v408q0 15 16 15h85q15 0 15 -15v-440q0 -39 -29 -48q-79 -23 -198 -23q-121 0 -174.5 48t-53.5 155v308q0 15 15 15h85q16 0 16 -15v-301q0 -64 27 -90t95 -26q59 0 101 9zM466 711v-6q0 -43 -15 -81q-7 -17 -24 -17h-67q-15 0 -15 16v88q0 16 15 16h91
q15 0 15 -16zM138 623v6q0 43 15 81q7 17 24 17h67q15 0 15 -16v-88q0 -16 -15 -16h-91q-15 0 -15 16z" />
    <glyph glyph-name="yacute" unicode="&#xfd;" horiz-adv-x="605" 
d="M299 -200q-93 0 -166 21q-14 5 -14 16v55q0 15 16 12q68 -10 146 -10q76 0 104.5 25.5t28.5 82.5v22q-61 -24 -144 -24q-95 0 -145 47t-50 155v300q0 16 15 16h85q16 0 16 -16v-291q0 -62 27.5 -89.5t94.5 -27.5q61 0 101 5v403q0 16 16 16h85q15 0 15 -16v-504
q0 -105 -52.5 -151.5t-178.5 -46.5zM302 580q-10 -7 -20 0l-36 23q-11 7 -1 17l117 134q10 12 24 3l55 -36q11 -8 0 -19q-70 -76 -139 -122z" />
    <glyph glyph-name="thorn" unicode="&#xfe;" horiz-adv-x="592" 
d="M327 526q102 0 161 -65.5t59 -172.5v-39q0 -118 -68 -187.5t-207 -69.5q-42 0 -81 9v-179q0 -15 -15 -15h-87q-14 0 -14 15v893q0 15 14 15h87q15 0 15 -15v-214q55 25 136 25zM191 427v-332q35 -9 80 -9q78 0 119 44t41 126v25q0 80 -37 115.5t-114 35.5q-49 0 -89 -5z
" />
    <glyph glyph-name="ydieresis" unicode="&#xff;" horiz-adv-x="605" 
d="M299 -200q-93 0 -166 21q-14 5 -14 16v55q0 15 16 12q68 -10 146 -10q76 0 104.5 25.5t28.5 82.5v22q-61 -24 -144 -24q-95 0 -145 47t-50 155v300q0 16 15 16h85q16 0 16 -16v-291q0 -62 27.5 -89.5t94.5 -27.5q61 0 101 5v403q0 16 16 16h85q15 0 15 -16v-504
q0 -105 -52.5 -151.5t-178.5 -46.5zM467 711v-6q0 -43 -15 -81q-7 -17 -24 -17h-67q-15 0 -15 16v88q0 16 15 16h91q15 0 15 -16zM139 623v6q0 43 15 81q7 17 24 17h67q15 0 15 -16v-88q0 -16 -15 -16h-91q-15 0 -15 16z" />
    <glyph glyph-name="Amacron" unicode="&#x100;" horiz-adv-x="636" 
d="M252 700h132q21 0 27 -21l196 -661q5 -18 -12 -18h-94q-16 0 -19 12l-39 140h-250l-39 -140q-3 -12 -19 -12h-94q-17 0 -12 18l196 661q6 21 27 21zM318 600l-97 -348h194zM179 884h278q15 0 15 -15v-54q0 -15 -15 -15h-278q-15 0 -15 15v54q0 15 15 15z" />
    <glyph glyph-name="amacron" unicode="&#x101;" horiz-adv-x="578" 
d="M293 86q58 0 99 9v121q-48 9 -116 9q-65 0 -89.5 -16t-24.5 -54t27.5 -53.5t103.5 -15.5zM260 526q137 0 192.5 -46t55.5 -155v-263q0 -41 -29 -48q-83 -22 -203 -22q-126 0 -178 38.5t-52 124.5q0 80 48.5 121.5t138.5 41.5q89 0 159 -30v21q0 72 -30.5 97.5
t-125.5 25.5q-76 0 -123 -9q-17 -3 -17 12v50q0 16 16 21q56 20 148 20zM143 710h278q15 0 15 -15v-54q0 -15 -15 -15h-278q-15 0 -15 15v54q0 15 15 15z" />
    <glyph glyph-name="Abreve" unicode="&#x102;" horiz-adv-x="636" 
d="M252 700h132q21 0 27 -21l196 -661q5 -18 -12 -18h-94q-16 0 -19 12l-39 140h-250l-39 -140q-3 -12 -19 -12h-94q-17 0 -12 18l196 661q6 21 27 21zM318 600l-97 -348h194zM318 759q-75 0 -122.5 41t-47.5 108q0 13 14 13h46q14 0 15 -14q11 -69 95 -69t95 69q1 14 15 14
h46q14 0 14 -13q0 -67 -47.5 -108t-122.5 -41z" />
    <glyph glyph-name="abreve" unicode="&#x103;" horiz-adv-x="578" 
d="M293 86q58 0 99 9v121q-48 9 -116 9q-65 0 -89.5 -16t-24.5 -54t27.5 -53.5t103.5 -15.5zM260 526q137 0 192.5 -46t55.5 -155v-263q0 -41 -29 -48q-83 -22 -203 -22q-126 0 -178 38.5t-52 124.5q0 80 48.5 121.5t138.5 41.5q89 0 159 -30v21q0 72 -30.5 97.5
t-125.5 25.5q-76 0 -123 -9q-17 -3 -17 12v50q0 16 16 21q56 20 148 20zM290 587q-75 0 -122.5 41t-47.5 108q0 13 14 13h46q14 0 15 -14q11 -69 95 -69t95 69q1 14 15 14h46q14 0 14 -13q0 -67 -47.5 -108t-122.5 -41z" />
    <glyph glyph-name="Aogonek" unicode="&#x104;" horiz-adv-x="627" 
d="M252 700h132q21 0 27 -21l196 -661q5 -18 -12 -18h-6q-53 -49 -53 -105q0 -22 9.5 -31.5t30.5 -9.5q15 0 33 5q12 3 12 -9v-40q0 -10 -9 -15q-22 -14 -65 -14q-51 0 -77.5 25.5t-26.5 72.5q0 70 66 121h-8q-16 0 -19 12l-39 140h-250l-39 -140q-3 -12 -19 -12h-94
q-17 0 -12 18l196 661q6 21 27 21zM318 600l-97 -348h194z" />
    <glyph glyph-name="aogonek" unicode="&#x105;" horiz-adv-x="578" 
d="M260 526q137 0 192.5 -46t55.5 -155v-263q0 -41 -29 -48q-7 -2 -23 -6q-62 -53 -62 -113q0 -22 9.5 -31.5t30.5 -9.5q15 0 33 5q12 3 12 -9v-40q0 -10 -9 -15q-22 -14 -65 -14q-51 0 -77.5 25.5t-26.5 72.5q0 66 60 117q-37 -4 -85 -4q-126 0 -178 38.5t-52 124.5
q0 80 48.5 121.5t138.5 41.5q89 0 159 -30v21q0 72 -30.5 97.5t-125.5 25.5q-76 0 -123 -9q-17 -3 -17 12v50q0 16 16 21q56 20 148 20zM293 86q58 0 99 9v121q-48 9 -116 9q-65 0 -89.5 -16t-24.5 -54t27.5 -53.5t103.5 -15.5z" />
    <glyph glyph-name="Cacute" unicode="&#x106;" horiz-adv-x="567" 
d="M370 88q74 0 142 9q15 1 15 -13v-61q0 -11 -13 -15q-78 -20 -166 -20q-291 0 -291 342v39q0 166 68.5 254.5t221.5 88.5q87 0 157 -22q13 -4 13 -15v-59q0 -16 -15 -13q-59 9 -133 9q-104 0 -147 -59.5t-43 -189.5v-27q0 -128 44 -188t147 -60zM311 754q-10 -7 -20 0
l-36 23q-11 7 -1 17l117 134q10 12 24 3l55 -36q11 -8 0 -19q-70 -76 -139 -122z" />
    <glyph glyph-name="cacute" unicode="&#x107;" horiz-adv-x="506" 
d="M305 -8q-133 0 -196.5 65t-63.5 182v39q0 116 63.5 182t191.5 66q87 0 143 -20q16 -5 16 -21v-50q0 -15 -17 -12q-46 9 -121 9q-84 0 -122 -39.5t-38 -120.5v-27q0 -81 38.5 -120t124.5 -39q70 0 124 9q17 3 17 -12v-50q0 -16 -16 -21q-56 -20 -144 -20zM264 580
q-10 -7 -20 0l-36 23q-11 7 -1 17l117 134q10 12 24 3l55 -36q11 -8 0 -19q-70 -76 -139 -122z" />
    <glyph glyph-name="Ccircumflex" unicode="&#x108;" horiz-adv-x="567" 
d="M370 88q74 0 142 9q15 1 15 -13v-61q0 -11 -13 -15q-78 -20 -166 -20q-291 0 -291 342v39q0 166 68.5 254.5t221.5 88.5q87 0 157 -22q13 -4 13 -15v-59q0 -16 -15 -13q-59 9 -133 9q-104 0 -147 -59.5t-43 -189.5v-27q0 -128 44 -188t147 -60zM291 924h50q14 0 27 -10
q52 -36 113 -119q10 -13 -1 -20l-33 -21q-14 -8 -22 0l-109 100l-109 -100q-8 -8 -22 0l-33 21q-11 7 -1 20q61 83 113 119q13 10 27 10z" />
    <glyph glyph-name="ccircumflex" unicode="&#x109;" horiz-adv-x="506" 
d="M305 -8q-133 0 -196.5 65t-63.5 182v39q0 116 63.5 182t191.5 66q87 0 143 -20q16 -5 16 -21v-50q0 -15 -17 -12q-46 9 -121 9q-84 0 -122 -39.5t-38 -120.5v-27q0 -81 38.5 -120t124.5 -39q70 0 124 9q17 3 17 -12v-50q0 -16 -16 -21q-56 -20 -144 -20zM253 750h50
q14 0 27 -10q52 -36 113 -119q10 -13 -1 -20l-33 -21q-14 -8 -22 0l-109 100l-109 -100q-8 -8 -22 0l-33 21q-11 7 -1 20q61 83 113 119q13 10 27 10z" />
    <glyph glyph-name="Cdotaccent" unicode="&#x10a;" horiz-adv-x="567" 
d="M370 88q74 0 142 9q15 1 15 -13v-61q0 -11 -13 -15q-78 -20 -166 -20q-291 0 -291 342v39q0 166 68.5 254.5t221.5 88.5q87 0 157 -22q13 -4 13 -15v-59q0 -16 -15 -13q-59 9 -133 9q-104 0 -147 -59.5t-43 -189.5v-27q0 -128 44 -188t147 -60zM389 885v-6q0 -43 -15 -81
q-7 -17 -24 -17h-67q-15 0 -15 16v88q0 16 15 16h91q15 0 15 -16z" />
    <glyph glyph-name="cdotaccent" unicode="&#x10b;" horiz-adv-x="506" 
d="M305 -8q-133 0 -196.5 65t-63.5 182v39q0 116 63.5 182t191.5 66q87 0 143 -20q16 -5 16 -21v-50q0 -15 -17 -12q-46 9 -121 9q-84 0 -122 -39.5t-38 -120.5v-27q0 -81 38.5 -120t124.5 -39q70 0 124 9q17 3 17 -12v-50q0 -16 -16 -21q-56 -20 -144 -20zM365 711v-6
q0 -43 -15 -81q-7 -17 -24 -17h-67q-15 0 -15 16v88q0 16 15 16h91q15 0 15 -16z" />
    <glyph glyph-name="Ccaron" unicode="&#x10c;" horiz-adv-x="567" 
d="M370 88q74 0 142 9q15 1 15 -13v-61q0 -11 -13 -15q-78 -20 -166 -20q-291 0 -291 342v39q0 166 68.5 254.5t221.5 88.5q87 0 157 -22q13 -4 13 -15v-59q0 -16 -15 -13q-59 9 -133 9q-104 0 -147 -59.5t-43 -189.5v-27q0 -128 44 -188t147 -60zM354 761h-50q-14 0 -27 10
q-52 36 -113 119q-10 13 1 20l33 21q14 8 22 0l109 -100l109 100q8 8 22 0l33 -21q11 -7 1 -20q-61 -83 -113 -119q-13 -10 -27 -10z" />
    <glyph glyph-name="ccaron" unicode="&#x10d;" horiz-adv-x="506" 
d="M305 -8q-133 0 -196.5 65t-63.5 182v39q0 116 63.5 182t191.5 66q87 0 143 -20q16 -5 16 -21v-50q0 -15 -17 -12q-46 9 -121 9q-84 0 -122 -39.5t-38 -120.5v-27q0 -81 38.5 -120t124.5 -39q70 0 124 9q17 3 17 -12v-50q0 -16 -16 -21q-56 -20 -144 -20zM303 587h-50
q-14 0 -27 10q-52 36 -113 119q-10 13 1 20l33 21q14 8 22 0l109 -100l109 100q8 8 22 0l33 -21q11 -7 1 -20q-61 -83 -113 -119q-13 -10 -27 -10z" />
    <glyph glyph-name="Dcaron" unicode="&#x10e;" horiz-adv-x="665" 
d="M85 62v576q0 43 32 52q80 22 186 22q86 0 146.5 -24t94.5 -71t49 -108t15 -143v-32q0 -82 -15 -143t-49 -108t-94.5 -71t-146.5 -24q-106 0 -186 22q-32 9 -32 52zM207 602v-504q42 -10 92 -10q110 0 148.5 58.5t38.5 189.5v27q0 132 -38.5 190.5t-148.5 58.5
q-50 0 -92 -10zM347 761h-50q-14 0 -27 10q-52 36 -113 119q-10 13 1 20l33 21q14 8 22 0l109 -100l109 100q8 8 22 0l33 -21q11 -7 1 -20q-61 -83 -113 -119q-13 -10 -27 -10z" />
    <glyph glyph-name="dcaron" unicode="&#x10f;" horiz-adv-x="724" 
d="M265 526q81 0 136 -25v214q0 15 15 15h87q14 0 14 -15v-653q0 -38 -29 -47q-72 -23 -168 -23q-139 0 -207 69.5t-68 187.5v39q0 107 59 172.5t161 65.5zM401 95v332q-40 5 -89 5q-77 0 -114 -35.5t-37 -115.5v-25q0 -82 41 -126t119 -44q45 0 80 9zM608 492l-37 21
q-7 4 -3 13q29 50 29 104q0 19 -5 44q-5 23 -5 45v8q0 15 15 15h87q15 0 15 -15v-24q0 -120 -80 -209q-7 -7 -16 -2z" />
    <glyph glyph-name="Dcroat" unicode="&#x110;" horiz-adv-x="665" 
d="M22 388h63v250q0 43 32 52q80 22 186 22q86 0 146.5 -24t94.5 -71t49 -108t15 -143v-32q0 -82 -15 -143t-49 -108t-94.5 -71t-146.5 -24q-106 0 -186 22q-32 9 -32 52v250h-63q-16 0 -16 16v45q0 15 16 15zM207 602v-214h122q16 0 16 -15v-45q0 -16 -16 -16h-122v-214
q42 -10 92 -10q110 0 148.5 58.5t38.5 189.5v27q0 132 -38.5 190.5t-148.5 58.5q-50 0 -92 -10z" />
    <glyph glyph-name="dcroat" unicode="&#x111;" horiz-adv-x="601" 
d="M517 662h58q16 0 16 -15v-41q0 -16 -16 -16h-58v-528q0 -38 -29 -47q-72 -23 -168 -23q-139 0 -207 69.5t-68 187.5v39q0 107 59 172.5t161 65.5q81 0 136 -25v89h-167q-15 0 -15 16v41q0 15 15 15h167v53q0 15 15 15h87q14 0 14 -15v-53zM401 95v332q-40 5 -89 5
q-77 0 -114 -35.5t-37 -115.5v-25q0 -82 41 -126t119 -44q45 0 80 9z" />
    <glyph glyph-name="Emacron" unicode="&#x112;" horiz-adv-x="577" 
d="M85 133v434q0 82 35.5 113.5t131.5 31.5q132 0 242 -12q15 -2 15 -17v-56q0 -15 -15 -15h-233q-29 0 -41.5 -14.5t-12.5 -44.5v-144h266q16 0 16 -16v-69q0 -15 -16 -15h-266v-162q0 -30 12.5 -44.5t41.5 -14.5h243q15 0 15 -15v-56q0 -15 -15 -17q-101 -12 -252 -12
q-96 0 -131.5 31.5t-35.5 113.5zM172 884h278q15 0 15 -15v-54q0 -15 -15 -15h-278q-15 0 -15 15v54q0 15 15 15z" />
    <glyph glyph-name="emacron" unicode="&#x113;" horiz-adv-x="562" 
d="M331 86q72 0 133 9q17 3 17 -12v-50q0 -16 -16 -21q-63 -20 -152 -20q-140 0 -204 65t-64 194v26q0 120 62.5 184.5t182.5 64.5q111 0 169 -56.5t58 -153.5q0 -116 -142 -116h-211q8 -62 49.5 -88t117.5 -26zM161 294h206q34 0 34 30q0 108 -113 108q-123 0 -127 -138z
M146 710h278q15 0 15 -15v-54q0 -15 -15 -15h-278q-15 0 -15 15v54q0 15 15 15z" />
    <glyph glyph-name="Ebreve" unicode="&#x114;" horiz-adv-x="577" 
d="M85 133v434q0 82 35.5 113.5t131.5 31.5q132 0 242 -12q15 -2 15 -17v-56q0 -15 -15 -15h-233q-29 0 -41.5 -14.5t-12.5 -44.5v-144h266q16 0 16 -16v-69q0 -15 -16 -15h-266v-162q0 -30 12.5 -44.5t41.5 -14.5h243q15 0 15 -15v-56q0 -15 -15 -17q-101 -12 -252 -12
q-96 0 -131.5 31.5t-35.5 113.5zM306 759q-75 0 -122.5 41t-47.5 108q0 13 14 13h46q14 0 15 -14q11 -69 95 -69t95 69q1 14 15 14h46q14 0 14 -13q0 -67 -47.5 -108t-122.5 -41z" />
    <glyph glyph-name="ebreve" unicode="&#x115;" horiz-adv-x="562" 
d="M331 86q72 0 133 9q17 3 17 -12v-50q0 -16 -16 -21q-63 -20 -152 -20q-140 0 -204 65t-64 194v26q0 120 62.5 184.5t182.5 64.5q111 0 169 -56.5t58 -153.5q0 -116 -142 -116h-211q8 -62 49.5 -88t117.5 -26zM161 294h206q34 0 34 30q0 108 -113 108q-123 0 -127 -138z
M289 587q-75 0 -122.5 41t-47.5 108q0 13 14 13h46q14 0 15 -14q11 -69 95 -69t95 69q1 14 15 14h46q14 0 14 -13q0 -67 -47.5 -108t-122.5 -41z" />
    <glyph glyph-name="Edotaccent" unicode="&#x116;" horiz-adv-x="577" 
d="M85 133v434q0 82 35.5 113.5t131.5 31.5q132 0 242 -12q15 -2 15 -17v-56q0 -15 -15 -15h-233q-29 0 -41.5 -14.5t-12.5 -44.5v-144h266q16 0 16 -16v-69q0 -15 -16 -15h-266v-162q0 -30 12.5 -44.5t41.5 -14.5h243q15 0 15 -15v-56q0 -15 -15 -17q-101 -12 -252 -12
q-96 0 -131.5 31.5t-35.5 113.5zM374 885v-6q0 -43 -15 -81q-7 -17 -24 -17h-67q-15 0 -15 16v88q0 16 15 16h91q15 0 15 -16z" />
    <glyph glyph-name="edotaccent" unicode="&#x117;" horiz-adv-x="562" 
d="M331 86q72 0 133 9q17 3 17 -12v-50q0 -16 -16 -21q-63 -20 -152 -20q-140 0 -204 65t-64 194v26q0 120 62.5 184.5t182.5 64.5q111 0 169 -56.5t58 -153.5q0 -116 -142 -116h-211q8 -62 49.5 -88t117.5 -26zM161 294h206q34 0 34 30q0 108 -113 108q-123 0 -127 -138z
M351 711v-6q0 -43 -15 -81q-7 -17 -24 -17h-67q-15 0 -15 16v88q0 16 15 16h91q15 0 15 -16z" />
    <glyph glyph-name="Eogonek" unicode="&#x118;" horiz-adv-x="577" 
d="M85 133v434q0 82 35.5 113.5t131.5 31.5q132 0 242 -12q15 -2 15 -17v-56q0 -15 -15 -15h-233q-29 0 -41.5 -14.5t-12.5 -44.5v-144h266q16 0 16 -16v-69q0 -15 -16 -15h-266v-162q0 -30 12.5 -44.5t41.5 -14.5h243q15 0 15 -15v-56q0 -15 -15 -17q-4 0 -11.5 -1
t-11.5 -1q-50 -47 -50 -103q0 -22 9.5 -31.5t30.5 -9.5q15 0 33 5q12 3 12 -9v-40q0 -10 -9 -15q-22 -14 -65 -14q-51 0 -77.5 25.5t-26.5 72.5q0 65 55 112q-71 -3 -141 -3q-96 0 -131.5 31.5t-35.5 113.5z" />
    <glyph glyph-name="eogonek" unicode="&#x119;" horiz-adv-x="562" 
d="M331 86q72 0 133 9q17 3 17 -12v-50q0 -16 -16 -21q-38 -11 -71 -15q-50 -47 -50 -102q0 -22 9.5 -31.5t30.5 -9.5q15 0 33 5q12 3 12 -9v-40q0 -10 -9 -15q-22 -14 -65 -14q-51 0 -77.5 25.5t-26.5 72.5q0 65 56 113q-138 1 -200 66t-62 193v26q0 120 62.5 184.5
t182.5 64.5q111 0 169 -56.5t58 -153.5q0 -116 -142 -116h-211q8 -62 49.5 -88t117.5 -26zM161 294h206q34 0 34 30q0 108 -113 108q-123 0 -127 -138z" />
    <glyph glyph-name="Ecaron" unicode="&#x11a;" horiz-adv-x="577" 
d="M85 133v434q0 82 35.5 113.5t131.5 31.5q132 0 242 -12q15 -2 15 -17v-56q0 -15 -15 -15h-233q-29 0 -41.5 -14.5t-12.5 -44.5v-144h266q16 0 16 -16v-69q0 -15 -16 -15h-266v-162q0 -30 12.5 -44.5t41.5 -14.5h243q15 0 15 -15v-56q0 -15 -15 -17q-101 -12 -252 -12
q-96 0 -131.5 31.5t-35.5 113.5zM334 761h-50q-14 0 -27 10q-52 36 -113 119q-10 13 1 20l33 21q14 8 22 0l109 -100l109 100q8 8 22 0l33 -21q11 -7 1 -20q-61 -83 -113 -119q-13 -10 -27 -10z" />
    <glyph glyph-name="ecaron" unicode="&#x11b;" horiz-adv-x="562" 
d="M331 86q72 0 133 9q17 3 17 -12v-50q0 -16 -16 -21q-63 -20 -152 -20q-140 0 -204 65t-64 194v26q0 120 62.5 184.5t182.5 64.5q111 0 169 -56.5t58 -153.5q0 -116 -142 -116h-211q8 -62 49.5 -88t117.5 -26zM161 294h206q34 0 34 30q0 108 -113 108q-123 0 -127 -138z
M314 587h-50q-14 0 -27 10q-52 36 -113 119q-10 13 1 20l33 21q14 8 22 0l109 -100l109 100q8 8 22 0l33 -21q11 -7 1 -20q-61 -83 -113 -119q-13 -10 -27 -10z" />
    <glyph glyph-name="Gcircumflex" unicode="&#x11c;" horiz-adv-x="665" 
d="M386 612q-122 0 -164.5 -59t-42.5 -191v-25q0 -129 42 -189t154 -60q60 0 93 9v199h-121q-15 0 -15 15v69q0 16 15 16h228q15 0 15 -16v-320q0 -43 -32 -50q-97 -22 -208 -22q-293 0 -293 345v34q0 169 71.5 257t236.5 88q99 0 189 -22q13 -3 13 -15v-59q0 -14 -16 -13
q-92 9 -165 9zM323 924h50q14 0 27 -10q52 -36 113 -119q10 -13 -1 -20l-33 -21q-14 -8 -22 0l-109 100l-109 -100q-8 -8 -22 0l-33 21q-11 7 -1 20q61 83 113 119q13 10 27 10z" />
    <glyph glyph-name="gcircumflex" unicode="&#x11d;" horiz-adv-x="592" 
d="M517 456v-458q0 -104 -52.5 -151t-176.5 -47q-97 0 -167 20q-16 5 -16 21v51q0 15 17 12q67 -10 145 -10q77 0 105.5 25.5t28.5 83.5v22q-55 -25 -136 -25q-102 0 -161 65.5t-59 172.5v31q0 118 68 187.5t207 69.5q96 0 168 -23q29 -9 29 -47zM401 99v324q-35 9 -80 9
q-78 0 -119 -44t-41 -126v-17q0 -80 37 -115.5t114 -35.5q49 0 89 5zM277 750h50q14 0 27 -10q52 -36 113 -119q10 -13 -1 -20l-33 -21q-14 -8 -22 0l-109 100l-109 -100q-8 -8 -22 0l-33 21q-11 7 -1 20q61 83 113 119q13 10 27 10z" />
    <glyph glyph-name="Gbreve" unicode="&#x11e;" horiz-adv-x="665" 
d="M386 612q-122 0 -164.5 -59t-42.5 -191v-25q0 -129 42 -189t154 -60q60 0 93 9v199h-121q-15 0 -15 15v69q0 16 15 16h228q15 0 15 -16v-320q0 -43 -32 -50q-97 -22 -208 -22q-293 0 -293 345v34q0 169 71.5 257t236.5 88q99 0 189 -22q13 -3 13 -15v-59q0 -14 -16 -13
q-92 9 -165 9zM353 759q-75 0 -122.5 41t-47.5 108q0 13 14 13h46q14 0 15 -14q11 -69 95 -69t95 69q1 14 15 14h46q14 0 14 -13q0 -67 -47.5 -108t-122.5 -41z" />
    <glyph glyph-name="gbreve" unicode="&#x11f;" horiz-adv-x="592" 
d="M517 456v-458q0 -104 -52.5 -151t-176.5 -47q-97 0 -167 20q-16 5 -16 21v51q0 15 17 12q67 -10 145 -10q77 0 105.5 25.5t28.5 83.5v22q-55 -25 -136 -25q-102 0 -161 65.5t-59 172.5v31q0 118 68 187.5t207 69.5q96 0 168 -23q29 -9 29 -47zM401 99v324q-35 9 -80 9
q-78 0 -119 -44t-41 -126v-17q0 -80 37 -115.5t114 -35.5q49 0 89 5zM302 587q-75 0 -122.5 41t-47.5 108q0 13 14 13h46q14 0 15 -14q11 -69 95 -69t95 69q1 14 15 14h46q14 0 14 -13q0 -67 -47.5 -108t-122.5 -41z" />
    <glyph glyph-name="Gdotaccent" unicode="&#x120;" horiz-adv-x="665" 
d="M386 612q-122 0 -164.5 -59t-42.5 -191v-25q0 -129 42 -189t154 -60q60 0 93 9v199h-121q-15 0 -15 15v69q0 16 15 16h228q15 0 15 -16v-320q0 -43 -32 -50q-97 -22 -208 -22q-293 0 -293 345v34q0 169 71.5 257t236.5 88q99 0 189 -22q13 -3 13 -15v-59q0 -14 -16 -13
q-92 9 -165 9zM414 885v-6q0 -43 -15 -81q-7 -17 -24 -17h-67q-15 0 -15 16v88q0 16 15 16h91q15 0 15 -16z" />
    <glyph glyph-name="gdotaccent" unicode="&#x121;" horiz-adv-x="592" 
d="M517 456v-458q0 -104 -52.5 -151t-176.5 -47q-97 0 -167 20q-16 5 -16 21v51q0 15 17 12q67 -10 145 -10q77 0 105.5 25.5t28.5 83.5v22q-55 -25 -136 -25q-102 0 -161 65.5t-59 172.5v31q0 118 68 187.5t207 69.5q96 0 168 -23q29 -9 29 -47zM401 99v324q-35 9 -80 9
q-78 0 -119 -44t-41 -126v-17q0 -80 37 -115.5t114 -35.5q49 0 89 5zM368 711v-6q0 -43 -15 -81q-7 -17 -24 -17h-67q-15 0 -15 16v88q0 16 15 16h91q15 0 15 -16z" />
    <glyph glyph-name="Gcommaaccent" unicode="&#x122;" horiz-adv-x="665" 
d="M386 612q-122 0 -164.5 -59t-42.5 -191v-25q0 -129 42 -189t154 -60q60 0 93 9v199h-121q-15 0 -15 15v69q0 16 15 16h228q15 0 15 -16v-320q0 -43 -32 -50q-97 -22 -208 -22q-293 0 -293 345v34q0 169 71.5 257t236.5 88q99 0 189 -22q13 -3 13 -15v-59q0 -14 -16 -13
q-92 9 -165 9zM329 -264l-44 25q-8 4 -4 11q30 51 30 85q0 12 -3 27q-8 40 -8 60q0 14 15 14h90q14 0 14 -14v-21q0 -113 -76 -186q-6 -5 -14 -1z" />
    <glyph glyph-name="gcommaaccent" unicode="&#x123;" horiz-adv-x="592" 
d="M517 456v-458q0 -104 -52.5 -151t-176.5 -47q-97 0 -167 20q-16 5 -16 21v51q0 15 17 12q67 -10 145 -10q77 0 105.5 25.5t28.5 83.5v22q-55 -25 -136 -25q-102 0 -161 65.5t-59 172.5v31q0 118 68 187.5t207 69.5q96 0 168 -23q29 -9 29 -47zM401 99v324q-35 9 -80 9
q-78 0 -119 -44t-41 -126v-17q0 -80 37 -115.5t114 -35.5q49 0 89 5zM339 801l44 -25q8 -4 4 -11q-30 -51 -30 -85q0 -12 3 -27q8 -40 8 -60q0 -14 -15 -14h-90q-14 0 -14 14v21q0 113 76 186q6 5 14 1z" />
    <glyph glyph-name="Hcircumflex" unicode="&#x124;" horiz-adv-x="678" 
d="M207 410h264v275q0 15 15 15h93q14 0 14 -15v-671q0 -14 -14 -14h-93q-15 0 -15 14v296h-264v-296q0 -14 -15 -14h-93q-14 0 -14 14v671q0 15 14 15h93q15 0 15 -15v-275zM314 924h50q14 0 27 -10q52 -36 113 -119q10 -13 -1 -20l-33 -21q-14 -8 -22 0l-109 100
l-109 -100q-8 -8 -22 0l-33 21q-11 7 -1 20q61 83 113 119q13 10 27 10z" />
    <glyph glyph-name="hcircumflex" unicode="&#x125;" horiz-adv-x="600" 
d="M191 427v-412q0 -15 -16 -15h-85q-15 0 -15 15v699q0 16 15 16h85q16 0 16 -16v-213q63 25 144 25q95 0 145 -47t50 -156v-308q0 -15 -15 -15h-85q-16 0 -16 15v300q0 63 -27.5 90t-94.5 27q-64 0 -101 -5zM213 924h50q14 0 27 -10q52 -36 113 -119q10 -13 -1 -20
l-33 -21q-14 -8 -22 0l-109 100l-109 -100q-8 -8 -22 0l-33 21q-11 7 -1 20q61 83 113 119q13 10 27 10z" />
    <glyph glyph-name="Hbar" unicode="&#x126;" horiz-adv-x="688" 
d="M90 531h-54q-16 0 -16 16v44q0 15 16 15h54v79q0 15 14 15h93q15 0 15 -15v-79h264v79q0 15 15 15h93q14 0 14 -15v-79h54q16 0 16 -15v-44q0 -16 -16 -16h-54v-517q0 -14 -14 -14h-93q-15 0 -15 14v296h-264v-296q0 -14 -15 -14h-93q-14 0 -14 14v517zM212 410h264v121
h-264v-121z" />
    <glyph glyph-name="hbar" unicode="&#x127;" horiz-adv-x="609" 
d="M200 662h167q15 0 15 -15v-41q0 -16 -15 -16h-167v-89q63 25 144 25q95 0 145 -47t50 -156v-308q0 -15 -15 -15h-85q-16 0 -16 15v300q0 63 -27.5 90t-94.5 27q-63 0 -101 -5v-412q0 -15 -16 -15h-85q-15 0 -15 15v575h-58q-16 0 -16 16v41q0 15 16 15h58v52q0 16 15 16
h85q16 0 16 -16v-52z" />
    <glyph glyph-name="Itilde" unicode="&#x128;" horiz-adv-x="312" 
d="M95 15v669q0 16 15 16h92q15 0 15 -16v-669q0 -15 -15 -15h-92q-15 0 -15 15zM251 889v11q0 13 14 13h38q15 0 20 -13q8 -18 8 -43q0 -42 -25 -65t-69 -23q-52 0 -96 37q-38 33 -55 33q-25 0 -25 -44v-11q0 -13 -14 -13h-38q-15 0 -20 13q-8 18 -8 43q0 42 25 65t69 23
q51 0 95 -37q38 -33 56 -33q25 0 25 44z" />
    <glyph glyph-name="itilde" unicode="&#x129;" horiz-adv-x="286" 
d="M85 15v487q0 16 15 16h85q16 0 16 -16v-487q0 -15 -16 -15h-85q-15 0 -15 15zM238 715v11q0 13 14 13h38q15 0 20 -13q8 -18 8 -43q0 -42 -25 -65t-69 -23q-52 0 -96 37q-39 33 -55 33q-25 0 -25 -44v-11q0 -13 -14 -13h-38q-15 0 -20 13q-8 18 -8 43q0 42 25 65t69 23
q51 0 95 -37q39 -33 56 -33q25 0 25 44z" />
    <glyph glyph-name="Imacron" unicode="&#x12a;" horiz-adv-x="312" 
d="M95 15v669q0 16 15 16h92q15 0 15 -16v-669q0 -15 -15 -15h-92q-15 0 -15 15zM17 884h278q15 0 15 -15v-54q0 -15 -15 -15h-278q-15 0 -15 15v54q0 15 15 15z" />
    <glyph glyph-name="imacron" unicode="&#x12b;" horiz-adv-x="286" 
d="M85 15v487q0 16 15 16h85q16 0 16 -16v-487q0 -15 -16 -15h-85q-15 0 -15 15zM4 710h278q15 0 15 -15v-54q0 -15 -15 -15h-278q-15 0 -15 15v54q0 15 15 15z" />
    <glyph glyph-name="Ibreve" unicode="&#x12c;" horiz-adv-x="312" 
d="M95 15v669q0 16 15 16h92q15 0 15 -16v-669q0 -15 -15 -15h-92q-15 0 -15 15zM156 759q-75 0 -122.5 41t-47.5 108q0 13 14 13h46q14 0 15 -14q11 -69 95 -69t95 69q1 14 15 14h46q14 0 14 -13q0 -67 -47.5 -108t-122.5 -41z" />
    <glyph glyph-name="ibreve" unicode="&#x12d;" horiz-adv-x="286" 
d="M85 15v487q0 16 15 16h85q16 0 16 -16v-487q0 -15 -16 -15h-85q-15 0 -15 15zM143 587q-75 0 -122.5 41t-47.5 108q0 13 14 13h46q14 0 15 -14q11 -69 95 -69t95 69q1 14 15 14h46q14 0 14 -13q0 -67 -47.5 -108t-122.5 -41z" />
    <glyph glyph-name="Iogonek" unicode="&#x12e;" horiz-adv-x="312" 
d="M95 15v669q0 16 15 16h92q15 0 15 -16v-669q0 -15 -15 -15h-7q-53 -49 -53 -105q0 -22 9.5 -31.5t30.5 -9.5q15 0 33 5q12 3 12 -9v-40q0 -10 -9 -15q-22 -14 -65 -14q-51 0 -77.5 25.5t-26.5 72.5q0 70 66 121h-5q-15 0 -15 15z" />
    <glyph glyph-name="iogonek" unicode="&#x12f;" horiz-adv-x="286" 
d="M85 15v487q0 16 15 16h85q16 0 16 -16v-487q0 -15 -16 -15h-4q-53 -49 -53 -105q0 -22 9.5 -31.5t30.5 -9.5q15 0 33 5q12 3 12 -9v-40q0 -10 -9 -15q-22 -14 -65 -14q-51 0 -77.5 25.5t-26.5 72.5q0 70 66 121h-1q-15 0 -15 15zM206 699v-5q0 -43 -15 -81
q-7 -19 -27 -19h-64q-15 0 -15 16v89q0 16 15 16h91q15 0 15 -16z" />
    <glyph glyph-name="Idotaccent" unicode="&#x130;" horiz-adv-x="312" 
d="M95 15v669q0 16 15 16h92q15 0 15 -16v-669q0 -15 -15 -15h-92q-15 0 -15 15zM216 885v-6q0 -43 -15 -81q-7 -17 -24 -17h-67q-15 0 -15 16v88q0 16 15 16h91q15 0 15 -16z" />
    <glyph glyph-name="dotlessi" unicode="&#x131;" horiz-adv-x="286" 
d="M85 15v487q0 16 15 16h85q16 0 16 -16v-487q0 -15 -16 -15h-85q-15 0 -15 15z" />
    <glyph glyph-name="IJ" unicode="&#x132;" horiz-adv-x="733" 
d="M95 15v669q0 16 15 16h92q15 0 15 -16v-669q0 -15 -15 -15h-92q-15 0 -15 15zM483 -12q-107 0 -180 23q-13 4 -13 19v55q0 13 15 12q67 -9 139 -9q50 0 66 30.5t16 98.5v468q0 15 14 15h93q15 0 15 -15v-478q0 -109 -37 -164t-128 -55z" />
    <glyph glyph-name="ij" unicode="&#x133;" horiz-adv-x="562" 
d="M85 15v487q0 16 15 16h85q16 0 16 -16v-487q0 -15 -16 -15h-85q-15 0 -15 15zM206 699v-5q0 -43 -15 -81q-7 -19 -27 -19h-64q-15 0 -15 16v89q0 16 15 16h91q15 0 15 -16zM477 502v-527q0 -40 -5 -68t-19.5 -54t-44 -39.5t-74.5 -13.5q-51 0 -92 14q-16 5 -16 22v49
q0 15 14 13q38 -4 58 -4q36 0 49.5 16.5t13.5 54.5v537q0 16 16 16h85q15 0 15 -16zM482 699v-5q0 -43 -15 -81q-7 -19 -27 -19h-64q-15 0 -15 16v89q0 16 15 16h91q15 0 15 -16z" />
    <glyph glyph-name="Jcircumflex" unicode="&#x134;" horiz-adv-x="448" 
d="M198 -12q-107 0 -180 23q-13 4 -13 19v55q0 13 15 12q67 -9 139 -9q50 0 66 30.5t16 98.5v468q0 15 14 15h93q15 0 15 -15v-478q0 -109 -37 -164t-128 -55zM277 924h50q14 0 27 -10q52 -36 113 -119q10 -13 -1 -20l-33 -21q-14 -8 -22 0l-109 100l-109 -100q-8 -8 -22 0
l-33 21q-11 7 -1 20q61 83 113 119q13 10 27 10z" />
    <glyph glyph-name="jcircumflex" unicode="&#x135;" horiz-adv-x="299" 
d="M214 502v-527q0 -40 -5 -68t-19.5 -54t-44 -39.5t-74.5 -13.5q-51 0 -92 14q-16 5 -16 22v49q0 15 14 13q38 -4 58 -4q36 0 49.5 16.5t13.5 54.5v537q0 16 16 16h85q15 0 15 -16zM131 750h50q14 0 27 -10q52 -36 113 -119q10 -13 -1 -20l-33 -21q-14 -8 -22 0l-109 100
l-109 -100q-8 -8 -22 0l-33 21q-11 7 -1 20q61 83 113 119q13 10 27 10z" />
    <glyph glyph-name="Kcommaaccent" unicode="&#x136;" horiz-adv-x="615" 
d="M461 700h106q7 0 10 -5.5t-2 -11.5l-245 -320l273 -346q5 -5 2.5 -11t-9.5 -6h-115q-13 0 -21 9l-253 332v-326q0 -15 -15 -15h-92q-15 0 -15 15v669q0 16 15 16h92q15 0 15 -16v-299l235 306q8 9 19 9zM291 -264l-44 25q-8 4 -4 11q30 51 30 85q0 12 -3 27q-8 40 -8 60
q0 14 15 14h90q14 0 14 -14v-21q0 -113 -76 -186q-6 -5 -14 -1z" />
    <glyph glyph-name="kcommaaccent" unicode="&#x137;" horiz-adv-x="552" 
d="M510 497l-200 -224l228 -251q7 -8 5 -15t-12 -7h-111q-12 0 -21 10l-208 242v-237q0 -15 -16 -15h-85q-15 0 -15 15v699q0 16 15 16h85q16 0 16 -16v-422l193 216q8 10 21 10h97q11 0 13 -7t-5 -14zM258 -264l-44 25q-8 4 -4 11q30 51 30 85q0 12 -3 27q-8 40 -8 60
q0 14 15 14h90q14 0 14 -14v-21q0 -113 -76 -186q-6 -5 -14 -1z" />
    <glyph glyph-name="kgreenlandic" unicode="&#x138;" horiz-adv-x="552" 
d="M510 497l-200 -224l228 -251q7 -8 5 -15t-12 -7h-111q-12 0 -21 10l-208 242v-237q0 -15 -16 -15h-85q-15 0 -15 15v487q0 16 15 16h85q16 0 16 -16v-210l193 216q8 10 21 10h97q11 0 13 -7t-5 -14z" />
    <glyph glyph-name="Lacute" unicode="&#x139;" horiz-adv-x="537" 
d="M85 133v552q0 15 14 15h93q15 0 15 -15v-538q0 -31 12 -45t42 -14h253q15 0 15 -15v-56q0 -16 -17 -18q-115 -11 -260 -11q-96 0 -131.5 31.5t-35.5 113.5zM158 754q-10 -7 -20 0l-36 23q-11 7 -1 17l117 134q10 12 24 3l55 -36q11 -8 0 -19q-70 -76 -139 -122z" />
    <glyph glyph-name="lacute" unicode="&#x13a;" horiz-adv-x="335" 
d="M85 144v570q0 16 15 16h85q16 0 16 -16v-558q0 -38 14 -54t51 -16q23 0 45 4q16 3 16 -13v-53q0 -14 -16 -18q-45 -14 -88 -14q-138 0 -138 152zM155 754q-10 -7 -20 0l-36 23q-11 7 -1 17l117 134q10 12 24 3l55 -36q11 -8 0 -19q-70 -76 -139 -122z" />
    <glyph glyph-name="Lcommaaccent" unicode="&#x13b;" horiz-adv-x="537" 
d="M85 133v552q0 15 14 15h93q15 0 15 -15v-538q0 -31 12 -45t42 -14h253q15 0 15 -15v-56q0 -16 -17 -18q-115 -11 -260 -11q-96 0 -131.5 31.5t-35.5 113.5zM295 -264l-44 25q-8 4 -4 11q30 51 30 85q0 12 -3 27q-8 40 -8 60q0 14 15 14h90q14 0 14 -14v-21
q0 -113 -76 -186q-6 -5 -14 -1z" />
    <glyph glyph-name="lcommaaccent" unicode="&#x13c;" horiz-adv-x="335" 
d="M85 144v570q0 16 15 16h85q16 0 16 -16v-558q0 -38 14 -54t51 -16q23 0 45 4q16 3 16 -13v-53q0 -14 -16 -18q-45 -14 -88 -14q-138 0 -138 152zM172 -264l-44 25q-8 4 -4 11q30 51 30 85q0 12 -3 27q-8 40 -8 60q0 14 15 14h90q14 0 14 -14v-21q0 -113 -76 -186
q-6 -5 -14 -1z" />
    <glyph glyph-name="Lcaron" unicode="&#x13d;" horiz-adv-x="537" 
d="M85 133v552q0 15 14 15h93q15 0 15 -15v-538q0 -31 12 -45t42 -14h253q15 0 15 -15v-56q0 -16 -17 -18q-115 -11 -260 -11q-96 0 -131.5 31.5t-35.5 113.5zM393 487l-37 21q-7 4 -3 13q29 50 29 104q0 19 -5 44q-5 23 -5 45v8q0 15 15 15h87q15 0 15 -15v-24
q0 -120 -80 -209q-7 -7 -16 -2z" />
    <glyph glyph-name="lcaron" unicode="&#x13e;" horiz-adv-x="435" 
d="M85 144v570q0 16 15 16h85q16 0 16 -16v-558q0 -38 14 -54t51 -16q23 0 45 4q16 3 16 -13v-53q0 -14 -16 -18q-45 -14 -88 -14q-138 0 -138 152zM319 487l-37 21q-7 4 -3 13q29 50 29 104q0 19 -5 44q-5 23 -5 45v8q0 15 15 15h87q15 0 15 -15v-24q0 -120 -80 -209
q-7 -7 -16 -2z" />
    <glyph glyph-name="Ldot" unicode="&#x13f;" horiz-adv-x="537" 
d="M85 133v552q0 15 14 15h93q15 0 15 -15v-538q0 -31 12 -45t42 -14h253q15 0 15 -15v-56q0 -16 -17 -18q-115 -11 -260 -11q-96 0 -131.5 31.5t-35.5 113.5zM465 421v-6q0 -44 -15 -81q-7 -17 -24 -17h-67q-15 0 -15 16v88q0 16 15 16h91q15 0 15 -16z" />
    <glyph glyph-name="ldot" unicode="&#x140;" horiz-adv-x="435" 
d="M85 144v570q0 16 15 16h85q16 0 16 -16v-558q0 -38 14 -54t51 -16q23 0 45 4q16 3 16 -13v-53q0 -14 -16 -18q-45 -14 -88 -14q-138 0 -138 152zM425 421v-6q0 -44 -15 -81q-7 -17 -24 -17h-67q-15 0 -15 16v88q0 16 15 16h91q15 0 15 -16z" />
    <glyph glyph-name="Lslash" unicode="&#x141;" horiz-adv-x="537" 
d="M207 417l216 141q13 9 22 -4l25 -37q9 -13 -5 -22l-258 -168v-180q0 -31 12 -45t42 -14h253q15 0 15 -15v-56q0 -16 -17 -18q-115 -11 -260 -11q-96 0 -131.5 31.5t-35.5 113.5v114l-59 -38q-13 -8 -22 5l-26 37q-8 12 6 21l101 66v347q0 15 14 15h93q15 0 15 -15v-268z
" />
    <glyph glyph-name="lslash" unicode="&#x142;" horiz-adv-x="395" 
d="M244 462l107 72q13 9 22 -4l25 -37q9 -13 -5 -22l-149 -101v-214q0 -38 14 -54t51 -16q23 0 45 4q16 3 16 -13v-53q0 -14 -16 -18q-46 -14 -88 -14q-138 0 -138 152v148l-84 -56q-12 -9 -22 5l-26 37q-8 12 6 21l126 85v330q0 16 15 16h85q16 0 16 -16v-252z" />
    <glyph glyph-name="Nacute" unicode="&#x143;" horiz-adv-x="701" 
d="M494 179v507q0 14 14 14h94q14 0 14 -14v-671q0 -15 -14 -15h-122q-22 0 -31 18l-242 503v-507q0 -14 -14 -14h-94q-14 0 -14 14v671q0 15 14 15h122q22 0 31 -18zM349 754q-10 -7 -20 0l-36 23q-11 7 -1 17l117 134q10 12 24 3l55 -36q11 -8 0 -19q-70 -76 -139 -122z
" />
    <glyph glyph-name="nacute" unicode="&#x144;" horiz-adv-x="600" 
d="M191 423v-408q0 -15 -16 -15h-85q-15 0 -15 15v440q0 39 29 48q79 23 198 23q121 0 174.5 -48t53.5 -155v-308q0 -15 -15 -15h-85q-16 0 -16 15v301q0 64 -27 90t-95 26q-59 0 -101 -9zM274 580q-10 -7 -20 0l-36 23q-11 7 -1 17l117 134q10 12 24 3l55 -36q11 -8 0 -19
q-70 -76 -139 -122z" />
    <glyph glyph-name="Ncommaaccent" unicode="&#x145;" horiz-adv-x="701" 
d="M494 179v507q0 14 14 14h94q14 0 14 -14v-671q0 -15 -14 -15h-122q-22 0 -31 18l-242 503v-507q0 -14 -14 -14h-94q-14 0 -14 14v671q0 15 14 15h122q22 0 31 -18zM337 -264l-44 25q-8 4 -4 11q30 51 30 85q0 12 -3 27q-8 40 -8 60q0 14 15 14h90q14 0 14 -14v-21
q0 -113 -76 -186q-6 -5 -14 -1z" />
    <glyph glyph-name="ncommaaccent" unicode="&#x146;" horiz-adv-x="600" 
d="M191 423v-408q0 -15 -16 -15h-85q-15 0 -15 15v440q0 39 29 48q79 23 198 23q121 0 174.5 -48t53.5 -155v-308q0 -15 -15 -15h-85q-16 0 -16 15v301q0 64 -27 90t-95 26q-59 0 -101 -9zM271 -264l-44 25q-8 4 -4 11q30 51 30 85q0 12 -3 27q-8 40 -8 60q0 14 15 14h90
q14 0 14 -14v-21q0 -113 -76 -186q-6 -5 -14 -1z" />
    <glyph glyph-name="Ncaron" unicode="&#x147;" horiz-adv-x="701" 
d="M494 179v507q0 14 14 14h94q14 0 14 -14v-671q0 -15 -14 -15h-122q-22 0 -31 18l-242 503v-507q0 -14 -14 -14h-94q-14 0 -14 14v671q0 15 14 15h122q22 0 31 -18zM382 761h-50q-14 0 -27 10q-52 36 -113 119q-10 13 1 20l33 21q14 8 22 0l109 -100l109 100q8 8 22 0
l33 -21q11 -7 1 -20q-61 -83 -113 -119q-13 -10 -27 -10z" />
    <glyph glyph-name="ncaron" unicode="&#x148;" horiz-adv-x="600" 
d="M191 423v-408q0 -15 -16 -15h-85q-15 0 -15 15v440q0 39 29 48q79 23 198 23q121 0 174.5 -48t53.5 -155v-308q0 -15 -15 -15h-85q-16 0 -16 15v301q0 64 -27 90t-95 26q-59 0 -101 -9zM320 587h-50q-14 0 -27 10q-52 36 -113 119q-10 13 1 20l33 21q14 8 22 0l109 -100
l109 100q8 8 22 0l33 -21q11 -7 1 -20q-61 -83 -113 -119q-13 -10 -27 -10z" />
    <glyph glyph-name="napostrophe" unicode="&#x149;" horiz-adv-x="678" 
d="M269 423v-408q0 -15 -16 -15h-85q-15 0 -15 15v440q0 39 29 48q79 23 198 23q121 0 174.5 -48t53.5 -155v-308q0 -15 -15 -15h-85q-16 0 -16 15v301q0 64 -27 90t-95 26q-59 0 -101 -9zM62 487l-37 21q-7 4 -3 13q29 50 29 104q0 19 -5 44q-5 23 -5 45v8q0 15 15 15h87
q15 0 15 -15v-24q0 -120 -80 -209q-7 -7 -16 -2z" />
    <glyph glyph-name="Eng" unicode="&#x14a;" horiz-adv-x="701" 
d="M616 685v-732q0 -152 -148 -152q-54 0 -99 16q-14 6 -14 19v53q0 7 3 10.5t9 2.5q32 -4 61 -4q37 0 51.5 15.5t14.5 52.5v25l-287 530v-507q0 -14 -14 -14h-94q-14 0 -14 14v671q0 15 14 15h112q22 0 31 -18l252 -472v475q0 15 15 15h92q15 0 15 -15z" />
    <glyph glyph-name="eng" unicode="&#x14b;" horiz-adv-x="600" 
d="M414 -41v357q0 64 -27 90t-95 26q-59 0 -101 -9v-408q0 -15 -16 -15h-85q-15 0 -15 15v440q0 39 29 48q79 23 198 23q121 0 174.5 -48t53.5 -155v-343q0 -91 -29.5 -135t-112.5 -44q-52 0 -81 13q-14 6 -14 19v52q0 7 3 10.5t9 2.5q28 -4 46 -4q33 0 48 15t15 50z" />
    <glyph glyph-name="Omacron" unicode="&#x14c;" horiz-adv-x="692" 
d="M635 367v-34q0 -345 -289 -345t-289 345v34q0 345 289 345t289 -345zM513 337v26q0 131 -40 190t-127 59t-127 -59t-40 -190v-26q0 -131 40 -190t127 -59t127 59t40 190zM207 884h278q15 0 15 -15v-54q0 -15 -15 -15h-278q-15 0 -15 15v54q0 15 15 15z" />
    <glyph glyph-name="omacron" unicode="&#x14d;" horiz-adv-x="576" 
d="M45 242v34q0 123 63 186.5t180 63.5t180 -63.5t63 -186.5v-34q0 -123 -63 -186.5t-180 -63.5t-180 63.5t-63 186.5zM161 272v-26q0 -80 29.5 -120t97.5 -40t97.5 40t29.5 120v26q0 80 -29.5 120t-97.5 40t-97.5 -40t-29.5 -120zM149 710h278q15 0 15 -15v-54
q0 -15 -15 -15h-278q-15 0 -15 15v54q0 15 15 15z" />
    <glyph glyph-name="Obreve" unicode="&#x14e;" horiz-adv-x="692" 
d="M635 367v-34q0 -345 -289 -345t-289 345v34q0 345 289 345t289 -345zM513 337v26q0 131 -40 190t-127 59t-127 -59t-40 -190v-26q0 -131 40 -190t127 -59t127 59t40 190zM346 759q-75 0 -122.5 41t-47.5 108q0 13 14 13h46q14 0 15 -14q11 -69 95 -69t95 69q1 14 15 14
h46q14 0 14 -13q0 -67 -47.5 -108t-122.5 -41z" />
    <glyph glyph-name="obreve" unicode="&#x14f;" horiz-adv-x="576" 
d="M45 242v34q0 123 63 186.5t180 63.5t180 -63.5t63 -186.5v-34q0 -123 -63 -186.5t-180 -63.5t-180 63.5t-63 186.5zM161 272v-26q0 -80 29.5 -120t97.5 -40t97.5 40t29.5 120v26q0 80 -29.5 120t-97.5 40t-97.5 -40t-29.5 -120zM288 587q-75 0 -122.5 41t-47.5 108
q0 13 14 13h46q14 0 15 -14q11 -69 95 -69t95 69q1 14 15 14h46q14 0 14 -13q0 -67 -47.5 -108t-122.5 -41z" />
    <glyph glyph-name="Ohungarumlaut" unicode="&#x150;" horiz-adv-x="692" 
d="M635 367v-34q0 -345 -289 -345t-289 345v34q0 345 289 345t289 -345zM513 337v26q0 131 -40 190t-127 59t-127 -59t-40 -190v-26q0 -131 40 -190t127 -59t127 59t40 190zM427 753q-10 -7 -20 0l-36 23q-11 7 -1 17l117 134q10 12 24 3l55 -36q11 -8 0 -19
q-70 -76 -139 -122zM364 874l-109 -120q-9 -9 -20 -1l-36 24q-9 6 -3 18q37 70 88 133q10 12 24 2l55 -37q11 -8 1 -19z" />
    <glyph glyph-name="ohungarumlaut" unicode="&#x151;" horiz-adv-x="576" 
d="M45 242v34q0 123 63 186.5t180 63.5t180 -63.5t63 -186.5v-34q0 -123 -63 -186.5t-180 -63.5t-180 63.5t-63 186.5zM161 272v-26q0 -80 29.5 -120t97.5 -40t97.5 40t29.5 120v26q0 80 -29.5 120t-97.5 40t-97.5 -40t-29.5 -120zM366 580q-10 -7 -20 0l-36 23q-11 7 -1 17
l117 134q10 12 24 3l55 -36q11 -8 0 -19q-70 -76 -139 -122zM303 701l-109 -120q-9 -9 -20 -1l-36 24q-9 6 -3 18q37 70 88 133q10 12 24 2l55 -37q11 -8 1 -19z" />
    <glyph glyph-name="OE" unicode="&#x152;" horiz-adv-x="879" 
d="M57 330v39q0 164 68 247.5t222 83.5h449q16 0 16 -16v-69q0 -15 -16 -15h-256v-196h236q15 0 15 -15v-69q0 -16 -15 -16h-236v-157q0 -31 12 -45t42 -14h212q15 0 15 -15v-57q0 -16 -15 -16q-120 -12 -220 -12q-74 0 -109 21q-60 -21 -129 -21q-291 0 -291 342zM418 126
v474h-59q-98 0 -139 -56t-41 -181v-27q0 -128 44 -188t147 -60q34 0 51 6q-3 14 -3 32z" />
    <glyph glyph-name="oe" unicode="&#x153;" horiz-adv-x="899" 
d="M280 86q67 0 93.5 39t26.5 120v27q0 82 -26.5 121t-93.5 39t-93 -39t-26 -121v-26q0 -82 26 -121t93 -39zM516 293h187q19 0 27 7t8 27q0 49 -28.5 77t-77.5 28q-58 0 -87 -32.5t-29 -106.5zM278 -8q-114 0 -173.5 63.5t-59.5 186.5v34q0 123 59.5 186.5t173.5 63.5
q125 0 183 -82q57 82 180 82q95 0 154 -58.5t59 -152.5q0 -61 -30 -88.5t-93 -27.5h-213q8 -65 44.5 -89t113.5 -24q58 0 128 10q17 3 17 -12v-50q0 -16 -16 -21q-55 -21 -145 -21q-134 0 -198 79q-57 -79 -184 -79z" />
    <glyph glyph-name="Racute" unicode="&#x154;" horiz-adv-x="640" 
d="M563 502v-27q0 -144 -114 -189l144 -269q4 -7 0.5 -12t-10.5 -5h-92q-22 0 -30 16l-128 249h-17q-61 0 -109 4v-254q0 -15 -15 -15h-92q-15 0 -15 15v624q0 43 32 51q88 22 199 22q130 0 188.5 -53.5t58.5 -156.5zM300 365q80 0 110.5 28t30.5 87v17q0 60 -30.5 87.5
t-110.5 27.5q-51 0 -93 -10v-233q41 -4 93 -4zM294 754q-10 -7 -20 0l-36 23q-11 7 -1 17l117 134q10 12 24 3l55 -36q11 -8 0 -19q-70 -76 -139 -122z" />
    <glyph glyph-name="racute" unicode="&#x155;" horiz-adv-x="412" 
d="M191 423v-408q0 -15 -16 -15h-85q-15 0 -15 15v440q0 39 29 48q82 23 179 23q47 0 97 -6q15 -1 15 -17v-66q0 -17 -19 -14q-46 9 -87 9q-50 0 -98 -9zM198 580q-10 -7 -20 0l-36 23q-11 7 -1 17l117 134q10 12 24 3l55 -36q11 -8 0 -19q-70 -76 -139 -122z" />
    <glyph glyph-name="Rcommaaccent" unicode="&#x156;" horiz-adv-x="640" 
d="M563 502v-27q0 -144 -114 -189l144 -269q4 -7 0.5 -12t-10.5 -5h-92q-22 0 -30 16l-128 249h-17q-61 0 -109 4v-254q0 -15 -15 -15h-92q-15 0 -15 15v624q0 43 32 51q88 22 199 22q130 0 188.5 -53.5t58.5 -156.5zM300 365q80 0 110.5 28t30.5 87v17q0 60 -30.5 87.5
t-110.5 27.5q-51 0 -93 -10v-233q41 -4 93 -4zM304 -264l-44 25q-8 4 -4 11q30 51 30 85q0 12 -3 27q-8 40 -8 60q0 14 15 14h90q14 0 14 -14v-21q0 -113 -76 -186q-6 -5 -14 -1z" />
    <glyph glyph-name="rcommaaccent" unicode="&#x157;" horiz-adv-x="412" 
d="M191 423v-408q0 -15 -16 -15h-85q-15 0 -15 15v440q0 39 29 48q82 23 179 23q47 0 97 -6q15 -1 15 -17v-66q0 -17 -19 -14q-46 9 -87 9q-50 0 -98 -9zM103 -264l-44 25q-8 4 -4 11q30 51 30 85q0 12 -3 27q-8 40 -8 60q0 14 15 14h90q14 0 14 -14v-21q0 -113 -76 -186
q-6 -5 -14 -1z" />
    <glyph glyph-name="Rcaron" unicode="&#x158;" horiz-adv-x="640" 
d="M563 502v-27q0 -144 -114 -189l144 -269q4 -7 0.5 -12t-10.5 -5h-92q-22 0 -30 16l-128 249h-17q-61 0 -109 4v-254q0 -15 -15 -15h-92q-15 0 -15 15v624q0 43 32 51q88 22 199 22q130 0 188.5 -53.5t58.5 -156.5zM300 365q80 0 110.5 28t30.5 87v17q0 60 -30.5 87.5
t-110.5 27.5q-51 0 -93 -10v-233q41 -4 93 -4zM317 761h-50q-14 0 -27 10q-52 36 -113 119q-10 13 1 20l33 21q14 8 22 0l109 -100l109 100q8 8 22 0l33 -21q11 -7 1 -20q-61 -83 -113 -119q-13 -10 -27 -10z" />
    <glyph glyph-name="rcaron" unicode="&#x159;" horiz-adv-x="412" 
d="M191 423v-408q0 -15 -16 -15h-85q-15 0 -15 15v440q0 39 29 48q82 23 179 23q47 0 97 -6q15 -1 15 -17v-66q0 -17 -19 -14q-46 9 -87 9q-50 0 -98 -9zM255 587h-50q-14 0 -27 10q-52 36 -113 119q-10 13 1 20l33 21q14 8 22 0l109 -100l109 100q8 8 22 0l33 -21
q11 -7 1 -20q-61 -83 -113 -119q-13 -10 -27 -10z" />
    <glyph glyph-name="Sacute" unicode="&#x15a;" horiz-adv-x="550" 
d="M269 -12q-108 0 -200 21q-14 3 -14 15v60q0 15 17 14q100 -10 184 -10q65 0 94.5 22.5t29.5 68.5q0 38 -17.5 62.5t-57.5 43.5l-136 62q-116 54 -116 185q0 90 53.5 135t166.5 45q91 0 182 -22q14 -3 14 -15v-59q0 -15 -17 -14q-85 10 -161 10q-61 0 -88.5 -19t-27.5 -64
q0 -63 75 -98l134 -60q117 -53 117 -191q0 -94 -54 -143t-178 -49zM266 754q-10 -7 -20 0l-36 23q-11 7 -1 17l117 134q10 12 24 3l55 -36q11 -8 0 -19q-70 -76 -139 -122z" />
    <glyph glyph-name="sacute" unicode="&#x15b;" horiz-adv-x="481" 
d="M224 325l95 -38q117 -46 117 -148q0 -70 -51.5 -108.5t-138.5 -38.5q-101 0 -183 20q-13 3 -13 16v55q0 13 16 12q80 -10 167 -10t87 57q0 39 -58 63l-93 37q-119 47 -119 142q0 72 49 107t137 35q94 0 158 -21q13 -4 13 -16v-54q0 -16 -17 -13q-56 10 -142 10
q-43 0 -62.5 -10.5t-19.5 -39.5q0 -20 13.5 -32.5t44.5 -24.5zM239 580q-10 -7 -20 0l-36 23q-11 7 -1 17l117 134q10 12 24 3l55 -36q11 -8 0 -19q-70 -76 -139 -122z" />
    <glyph glyph-name="Scircumflex" unicode="&#x15c;" horiz-adv-x="550" 
d="M269 -12q-108 0 -200 21q-14 3 -14 15v60q0 15 17 14q100 -10 184 -10q65 0 94.5 22.5t29.5 68.5q0 38 -17.5 62.5t-57.5 43.5l-136 62q-116 54 -116 185q0 90 53.5 135t166.5 45q91 0 182 -22q14 -3 14 -15v-59q0 -15 -17 -14q-85 10 -161 10q-61 0 -88.5 -19t-27.5 -64
q0 -63 75 -98l134 -60q117 -53 117 -191q0 -94 -54 -143t-178 -49zM252 924h50q14 0 27 -10q52 -36 113 -119q10 -13 -1 -20l-33 -21q-14 -8 -22 0l-109 100l-109 -100q-8 -8 -22 0l-33 21q-11 7 -1 20q61 83 113 119q13 10 27 10z" />
    <glyph glyph-name="scircumflex" unicode="&#x15d;" horiz-adv-x="481" 
d="M224 325l95 -38q117 -46 117 -148q0 -70 -51.5 -108.5t-138.5 -38.5q-101 0 -183 20q-13 3 -13 16v55q0 13 16 12q80 -10 167 -10t87 57q0 39 -58 63l-93 37q-119 47 -119 142q0 72 49 107t137 35q94 0 158 -21q13 -4 13 -16v-54q0 -16 -17 -13q-56 10 -142 10
q-43 0 -62.5 -10.5t-19.5 -39.5q0 -20 13.5 -32.5t44.5 -24.5zM216 750h50q14 0 27 -10q52 -36 113 -119q10 -13 -1 -20l-33 -21q-14 -8 -22 0l-109 100l-109 -100q-8 -8 -22 0l-33 21q-11 7 -1 20q61 83 113 119q13 10 27 10z" />
    <glyph glyph-name="Scedilla" unicode="&#x15e;" horiz-adv-x="550" 
d="M182 -215v29q0 13 14 10q17 -5 40 -5q53 0 53 37q0 21 -18 34t-53 13q-9 0 -12.5 5.5t1.5 14.5l38 65q-94 3 -176 21q-14 3 -14 15v60q0 15 17 14q100 -10 184 -10q65 0 94.5 22.5t29.5 68.5q0 38 -17.5 62.5t-57.5 43.5l-136 62q-116 54 -116 185q0 90 53.5 135
t166.5 45q91 0 182 -22q14 -3 14 -15v-59q0 -15 -17 -14q-85 10 -161 10q-61 0 -88.5 -19t-27.5 -64q0 -63 75 -98l134 -60q117 -53 117 -191q0 -168 -173 -188l-26 -48q80 -15 80 -88q0 -48 -32.5 -75t-81.5 -27q-44 0 -74 14q-12 5 -12 17z" />
    <glyph glyph-name="scedilla" unicode="&#x15f;" horiz-adv-x="481" 
d="M146 -215v29q0 13 14 10q17 -5 40 -5q53 0 53 37q0 21 -18 34t-53 13q-9 0 -12.5 5.5t1.5 14.5l40 70q-87 3 -148 19q-13 3 -13 16v55q0 13 16 12q80 -10 167 -10t87 57q0 39 -58 63l-93 37q-119 47 -119 142q0 72 49 107t137 35q94 0 158 -21q13 -4 13 -16v-54
q0 -16 -17 -13q-56 10 -142 10q-43 0 -62.5 -10.5t-19.5 -39.5q0 -20 13.5 -32.5t44.5 -24.5l95 -38q117 -46 117 -148q0 -60 -37.5 -97t-103.5 -46l-29 -52q80 -15 80 -88q0 -48 -32.5 -75t-81.5 -27q-44 0 -74 14q-12 5 -12 17z" />
    <glyph glyph-name="Scaron" unicode="&#x160;" horiz-adv-x="550" 
d="M269 -12q-108 0 -200 21q-14 3 -14 15v60q0 15 17 14q100 -10 184 -10q65 0 94.5 22.5t29.5 68.5q0 38 -17.5 62.5t-57.5 43.5l-136 62q-116 54 -116 185q0 90 53.5 135t166.5 45q91 0 182 -22q14 -3 14 -15v-59q0 -15 -17 -14q-85 10 -161 10q-61 0 -88.5 -19t-27.5 -64
q0 -63 75 -98l134 -60q117 -53 117 -191q0 -94 -54 -143t-178 -49zM302 761h-50q-14 0 -27 10q-52 36 -113 119q-10 13 1 20l33 21q14 8 22 0l109 -100l109 100q8 8 22 0l33 -21q11 -7 1 -20q-61 -83 -113 -119q-13 -10 -27 -10z" />
    <glyph glyph-name="scaron" unicode="&#x161;" horiz-adv-x="481" 
d="M224 325l95 -38q117 -46 117 -148q0 -70 -51.5 -108.5t-138.5 -38.5q-101 0 -183 20q-13 3 -13 16v55q0 13 16 12q80 -10 167 -10t87 57q0 39 -58 63l-93 37q-119 47 -119 142q0 72 49 107t137 35q94 0 158 -21q13 -4 13 -16v-54q0 -16 -17 -13q-56 10 -142 10
q-43 0 -62.5 -10.5t-19.5 -39.5q0 -20 13.5 -32.5t44.5 -24.5zM271 587h-50q-14 0 -27 10q-52 36 -113 119q-10 13 1 20l33 21q14 8 22 0l109 -100l109 100q8 8 22 0l33 -21q11 -7 1 -20q-61 -83 -113 -119q-13 -10 -27 -10z" />
    <glyph glyph-name="Tcommaaccent" unicode="&#x162;" horiz-adv-x="534" 
d="M158 -215v29q0 13 14 10q17 -5 40 -5q53 0 53 37q0 21 -18 34t-53 13q-9 0 -12.5 5.5t1.5 14.5l45 77h-6q-16 0 -16 15v585h-176q-16 0 -16 15v69q0 16 16 16h474q16 0 16 -16v-69q0 -15 -16 -15h-176v-585q0 -15 -16 -15h-3l-31 -56q80 -15 80 -88q0 -48 -32.5 -75
t-81.5 -27q-44 0 -74 14q-12 5 -12 17z" />
    <glyph glyph-name="tcommaaccent" unicode="&#x163;" horiz-adv-x="431" 
d="M152 -215v29q0 13 14 10q17 -5 40 -5q53 0 53 37q0 21 -18 34t-53 13q-9 0 -12.5 5.5t1.5 14.5l44 77q-99 27 -99 158v266h-84q-16 0 -16 16v62q0 16 16 16h84v122q0 16 15 16h85q16 0 16 -16v-122h134q16 0 16 -16v-62q0 -16 -16 -16h-134v-259q0 -43 15 -61t58 -18
q33 0 71 4q14 2 14 -12v-55q0 -13 -13 -17q-39 -13 -84 -14l-27 -48q80 -15 80 -88q0 -48 -32.5 -75t-81.5 -27q-44 0 -74 14q-12 5 -12 17z" />
    <glyph glyph-name="Tcaron" unicode="&#x164;" horiz-adv-x="534" 
d="M206 15v585h-176q-16 0 -16 15v69q0 16 16 16h474q16 0 16 -16v-69q0 -15 -16 -15h-176v-585q0 -15 -16 -15h-90q-16 0 -16 15zM292 761h-50q-14 0 -27 10q-52 36 -113 119q-10 13 1 20l33 21q14 8 22 0l109 -100l109 100q8 8 22 0l33 -21q11 -7 1 -20q-61 -83 -113 -119
q-13 -10 -27 -10z" />
    <glyph glyph-name="tcaron" unicode="&#x165;" horiz-adv-x="575" 
d="M122 424h-84q-16 0 -16 16v62q0 16 16 16h84v122q0 16 15 16h85q16 0 16 -16v-122h134q16 0 16 -16v-62q0 -16 -16 -16h-134v-259q0 -43 15 -61t58 -18q33 0 71 4q14 2 14 -12v-55q0 -13 -13 -17q-39 -14 -100 -14q-161 0 -161 166v266zM459 487l-37 21q-7 4 -3 13
q29 50 29 104q0 19 -5 44q-5 23 -5 45v8q0 15 15 15h87q15 0 15 -15v-24q0 -120 -80 -209q-7 -7 -16 -2z" />
    <glyph glyph-name="Tbar" unicode="&#x166;" horiz-adv-x="534" 
d="M328 386h122q16 0 16 -15v-45q0 -16 -16 -16h-122v-295q0 -15 -16 -15h-90q-16 0 -16 15v295h-122q-16 0 -16 16v45q0 15 16 15h122v214h-176q-16 0 -16 15v69q0 16 16 16h474q16 0 16 -16v-69q0 -15 -16 -15h-176v-214z" />
    <glyph glyph-name="tbar" unicode="&#x167;" horiz-adv-x="431" 
d="M238 318h100q16 0 16 -15v-41q0 -16 -16 -16h-100v-81q0 -43 15 -61t58 -18q33 0 71 4q14 2 14 -12v-55q0 -13 -13 -17q-39 -14 -100 -14q-161 0 -161 166v88h-62q-15 0 -15 16v41q0 15 15 15h62v106h-84q-16 0 -16 16v62q0 16 16 16h84v122q0 16 15 16h85q16 0 16 -16
v-122h134q16 0 16 -16v-62q0 -16 -16 -16h-134v-106z" />
    <glyph glyph-name="Utilde" unicode="&#x168;" horiz-adv-x="694" 
d="M347 -12q-147 0 -204.5 82t-57.5 256v359q0 15 14 15h93q15 0 15 -15v-355q0 -124 31 -183t109 -59t109 59t31 183v355q0 15 15 15h93q14 0 14 -15v-359q0 -174 -57.5 -256t-204.5 -82zM442 889v11q0 13 14 13h38q15 0 20 -13q8 -18 8 -43q0 -42 -25 -65t-69 -23
q-52 0 -96 37q-39 33 -55 33q-25 0 -25 -44v-11q0 -13 -14 -13h-38q-15 0 -20 13q-8 18 -8 43q0 42 25 65t69 23q51 0 95 -37q38 -33 56 -33q25 0 25 44z" />
    <glyph glyph-name="utilde" unicode="&#x169;" horiz-adv-x="605" 
d="M414 95v408q0 15 16 15h85q15 0 15 -15v-440q0 -39 -29 -48q-79 -23 -198 -23q-121 0 -174.5 48t-53.5 155v308q0 15 15 15h85q16 0 16 -15v-301q0 -64 27 -90t95 -26q59 0 101 9zM397 715v11q0 13 14 13h38q15 0 20 -13q8 -18 8 -43q0 -42 -25 -65t-69 -23q-52 0 -96 37
q-39 33 -55 33q-25 0 -25 -44v-11q0 -13 -14 -13h-38q-15 0 -20 13q-8 18 -8 43q0 42 25 65t69 23q51 0 95 -37q39 -33 56 -33q25 0 25 44z" />
    <glyph glyph-name="Umacron" unicode="&#x16a;" horiz-adv-x="694" 
d="M347 -12q-147 0 -204.5 82t-57.5 256v359q0 15 14 15h93q15 0 15 -15v-355q0 -124 31 -183t109 -59t109 59t31 183v355q0 15 15 15h93q14 0 14 -15v-359q0 -174 -57.5 -256t-204.5 -82zM208 884h278q15 0 15 -15v-54q0 -15 -15 -15h-278q-15 0 -15 15v54q0 15 15 15z" />
    <glyph glyph-name="umacron" unicode="&#x16b;" horiz-adv-x="605" 
d="M414 95v408q0 15 16 15h85q15 0 15 -15v-440q0 -39 -29 -48q-79 -23 -198 -23q-121 0 -174.5 48t-53.5 155v308q0 15 15 15h85q16 0 16 -15v-301q0 -64 27 -90t95 -26q59 0 101 9zM163 710h278q15 0 15 -15v-54q0 -15 -15 -15h-278q-15 0 -15 15v54q0 15 15 15z" />
    <glyph glyph-name="Ubreve" unicode="&#x16c;" horiz-adv-x="694" 
d="M347 -12q-147 0 -204.5 82t-57.5 256v359q0 15 14 15h93q15 0 15 -15v-355q0 -124 31 -183t109 -59t109 59t31 183v355q0 15 15 15h93q14 0 14 -15v-359q0 -174 -57.5 -256t-204.5 -82zM347 759q-75 0 -122.5 41t-47.5 108q0 13 14 13h46q14 0 15 -14q11 -69 95 -69
t95 69q1 14 15 14h46q14 0 14 -13q0 -67 -47.5 -108t-122.5 -41z" />
    <glyph glyph-name="ubreve" unicode="&#x16d;" horiz-adv-x="605" 
d="M414 95v408q0 15 16 15h85q15 0 15 -15v-440q0 -39 -29 -48q-79 -23 -198 -23q-121 0 -174.5 48t-53.5 155v308q0 15 15 15h85q16 0 16 -15v-301q0 -64 27 -90t95 -26q59 0 101 9zM302 587q-75 0 -122.5 41t-47.5 108q0 13 14 13h46q14 0 15 -14q11 -69 95 -69t95 69
q1 14 15 14h46q14 0 14 -13q0 -67 -47.5 -108t-122.5 -41z" />
    <glyph glyph-name="Uring" unicode="&#x16e;" horiz-adv-x="694" 
d="M347 -12q-147 0 -204.5 82t-57.5 256v359q0 15 14 15h93q15 0 15 -15v-355q0 -124 31 -183t109 -59t109 59t31 183v355q0 15 15 15h93q14 0 14 -15v-359q0 -174 -57.5 -256t-204.5 -82zM459 842q0 -108 -112 -108t-112 108t112 108t112 -108zM308 842q0 -47 39 -47t39 47
t-39 47t-39 -47z" />
    <glyph glyph-name="uring" unicode="&#x16f;" horiz-adv-x="605" 
d="M414 95v408q0 15 16 15h85q15 0 15 -15v-440q0 -39 -29 -48q-79 -23 -198 -23q-121 0 -174.5 48t-53.5 155v308q0 15 15 15h85q16 0 16 -15v-301q0 -64 27 -90t95 -26q59 0 101 9zM414 668q0 -108 -112 -108t-112 108t112 108t112 -108zM263 668q0 -47 39 -47t39 47
t-39 47t-39 -47z" />
    <glyph glyph-name="Uhungarumlaut" unicode="&#x170;" horiz-adv-x="694" 
d="M347 -12q-147 0 -204.5 82t-57.5 256v359q0 15 14 15h93q15 0 15 -15v-355q0 -124 31 -183t109 -59t109 59t31 183v355q0 15 15 15h93q14 0 14 -15v-359q0 -174 -57.5 -256t-204.5 -82zM445 753q-10 -7 -20 0l-36 23q-11 7 -1 17l117 134q10 12 24 3l55 -36q11 -8 0 -19
q-70 -76 -139 -122zM382 874l-109 -120q-9 -9 -20 -1l-36 24q-9 6 -3 18q37 70 88 133q10 12 24 2l55 -37q11 -8 1 -19z" />
    <glyph glyph-name="uhungarumlaut" unicode="&#x171;" horiz-adv-x="605" 
d="M414 95v408q0 15 16 15h85q15 0 15 -15v-440q0 -39 -29 -48q-79 -23 -198 -23q-121 0 -174.5 48t-53.5 155v308q0 15 15 15h85q16 0 16 -15v-301q0 -64 27 -90t95 -26q59 0 101 9zM390 580q-10 -7 -20 0l-36 23q-11 7 -1 17l117 134q10 12 24 3l55 -36q11 -8 0 -19
q-70 -76 -139 -122zM327 701l-109 -120q-9 -9 -20 -1l-36 24q-9 6 -3 18q37 70 88 133q10 12 24 2l55 -37q11 -8 1 -19z" />
    <glyph glyph-name="Uogonek" unicode="&#x172;" horiz-adv-x="694" 
d="M349 -12h-2q-147 0 -204.5 82t-57.5 256v359q0 15 14 15h93q15 0 15 -15v-355q0 -124 31 -183t109 -59t109 59t31 183v355q0 15 15 15h93q14 0 14 -15v-359q0 -143 -37 -222.5t-129 -104.5q-52 -48 -52 -104q0 -22 9.5 -31.5t30.5 -9.5q15 0 33 5q12 3 12 -9v-40
q0 -10 -9 -15q-22 -14 -65 -14q-51 0 -77.5 25.5t-26.5 72.5q0 61 51 109z" />
    <glyph glyph-name="uogonek" unicode="&#x173;" horiz-adv-x="605" 
d="M414 95v408q0 15 16 15h85q15 0 15 -15v-440q0 -39 -29 -48l-24 -6q-63 -54 -63 -114q0 -22 9.5 -31.5t30.5 -9.5q15 0 33 5q12 3 12 -9v-40q0 -10 -9 -15q-22 -14 -65 -14q-51 0 -77.5 25.5t-26.5 72.5q0 68 59 116q-37 -3 -77 -3q-121 0 -174.5 48t-53.5 155v308
q0 15 15 15h85q16 0 16 -15v-301q0 -64 27 -90t95 -26q59 0 101 9z" />
    <glyph glyph-name="Wcircumflex" unicode="&#x174;" horiz-adv-x="918" 
d="M898 680l-153 -659q-4 -21 -27 -21h-131q-22 0 -26 20l-102 527l-102 -527q-4 -20 -26 -20h-131q-23 0 -27 21l-153 659q-5 20 12 20h85q17 0 20 -16l126 -584l114 582q3 18 23 18h118q20 0 23 -18l114 -582l126 584q3 16 20 16h85q17 0 12 -20zM434 924h50q14 0 27 -10
q52 -36 113 -119q10 -13 -1 -20l-33 -21q-14 -8 -22 0l-109 100l-109 -100q-8 -8 -22 0l-33 21q-11 7 -1 20q61 83 113 119q13 10 27 10z" />
    <glyph glyph-name="wcircumflex" unicode="&#x175;" horiz-adv-x="782" 
d="M345 518h92q19 0 24 -19l99 -392l87 398q3 13 18 13h83q16 0 12 -18l-119 -478q-5 -22 -29 -22h-105q-23 0 -29 22l-87 362l-87 -362q-6 -22 -29 -22h-105q-24 0 -29 22l-119 478q-4 18 12 18h83q15 0 18 -13l87 -398l99 392q5 19 24 19zM366 750h50q14 0 27 -10
q52 -36 113 -119q10 -13 -1 -20l-33 -21q-14 -8 -22 0l-109 100l-109 -100q-8 -8 -22 0l-33 21q-11 7 -1 20q61 83 113 119q13 10 27 10z" />
    <glyph glyph-name="Ycircumflex" unicode="&#x176;" horiz-adv-x="606" 
d="M583 676l-219 -434v-227q0 -15 -15 -15h-91q-16 0 -16 15v227l-219 434q-5 10 -3 17t12 7h90q15 0 22 -15l159 -323l159 323q7 15 22 15h90q10 0 12 -7t-3 -17zM278 924h50q14 0 27 -10q52 -36 113 -119q10 -13 -1 -20l-33 -21q-14 -8 -22 0l-109 100l-109 -100
q-8 -8 -22 0l-33 21q-11 7 -1 20q61 83 113 119q13 10 27 10z" />
    <glyph glyph-name="ycircumflex" unicode="&#x177;" horiz-adv-x="605" 
d="M299 -200q-93 0 -166 21q-14 5 -14 16v55q0 15 16 12q68 -10 146 -10q76 0 104.5 25.5t28.5 82.5v22q-61 -24 -144 -24q-95 0 -145 47t-50 155v300q0 16 15 16h85q16 0 16 -16v-291q0 -62 27.5 -89.5t94.5 -27.5q61 0 101 5v403q0 16 16 16h85q15 0 15 -16v-504
q0 -105 -52.5 -151.5t-178.5 -46.5zM277 750h50q14 0 27 -10q52 -36 113 -119q10 -13 -1 -20l-33 -21q-14 -8 -22 0l-109 100l-109 -100q-8 -8 -22 0l-33 21q-11 7 -1 20q61 83 113 119q13 10 27 10z" />
    <glyph glyph-name="Ydieresis" unicode="&#x178;" horiz-adv-x="606" 
d="M583 676l-219 -434v-227q0 -15 -15 -15h-91q-16 0 -16 15v227l-219 434q-5 10 -3 17t12 7h90q15 0 22 -15l159 -323l159 323q7 15 22 15h90q10 0 12 -7t-3 -17zM467 885v-6q0 -43 -15 -81q-7 -17 -24 -17h-67q-15 0 -15 16v88q0 16 15 16h91q15 0 15 -16zM139 797v6
q0 43 15 81q7 17 24 17h67q15 0 15 -16v-88q0 -16 -15 -16h-91q-15 0 -15 16z" />
    <glyph glyph-name="Zacute" unicode="&#x179;" horiz-adv-x="581" 
d="M518 561l-350 -461h356q16 0 16 -16v-69q0 -15 -16 -15h-458q-25 0 -25 25v68q0 28 13 46l349 461h-326q-16 0 -16 15v69q0 16 16 16h429q12 0 18.5 -11.5t6.5 -26.5v-55q0 -28 -13 -46zM276 754q-10 -7 -20 0l-36 23q-11 7 -1 17l117 134q10 12 24 3l55 -36q11 -8 0 -19
q-70 -76 -139 -122z" />
    <glyph glyph-name="zacute" unicode="&#x17a;" horiz-adv-x="506" 
d="M445 0h-374q-26 0 -26 26v51q0 44 27 72l263 275h-261q-16 0 -16 16v62q0 16 16 16h350q26 0 26 -26v-50q0 -44 -27 -72l-264 -276h286q16 0 16 -15v-64q0 -15 -16 -15zM249 580q-10 -7 -20 0l-36 23q-11 7 -1 17l117 134q10 12 24 3l55 -36q11 -8 0 -19
q-70 -76 -139 -122z" />
    <glyph glyph-name="Zdotaccent" unicode="&#x17b;" horiz-adv-x="581" 
d="M518 561l-350 -461h356q16 0 16 -16v-69q0 -15 -16 -15h-458q-25 0 -25 25v68q0 28 13 46l349 461h-326q-16 0 -16 15v69q0 16 16 16h429q12 0 18.5 -11.5t6.5 -26.5v-55q0 -28 -13 -46zM363 885v-6q0 -43 -15 -81q-7 -17 -24 -17h-67q-15 0 -15 16v88q0 16 15 16h91
q15 0 15 -16z" />
    <glyph glyph-name="zdotaccent" unicode="&#x17c;" horiz-adv-x="506" 
d="M445 0h-374q-26 0 -26 26v51q0 44 27 72l263 275h-261q-16 0 -16 16v62q0 16 16 16h350q26 0 26 -26v-50q0 -44 -27 -72l-264 -276h286q16 0 16 -15v-64q0 -15 -16 -15zM318 711v-6q0 -43 -15 -81q-7 -17 -24 -17h-67q-15 0 -15 16v88q0 16 15 16h91q15 0 15 -16z" />
    <glyph glyph-name="Zcaron" unicode="&#x17d;" horiz-adv-x="581" 
d="M518 561l-350 -461h356q16 0 16 -16v-69q0 -15 -16 -15h-458q-25 0 -25 25v68q0 28 13 46l349 461h-326q-16 0 -16 15v69q0 16 16 16h429q12 0 18.5 -11.5t6.5 -26.5v-55q0 -28 -13 -46zM319 761h-50q-14 0 -27 10q-52 36 -113 119q-10 13 1 20l33 21q14 8 22 0l109 -100
l109 100q8 8 22 0l33 -21q11 -7 1 -20q-61 -83 -113 -119q-13 -10 -27 -10z" />
    <glyph glyph-name="zcaron" unicode="&#x17e;" horiz-adv-x="506" 
d="M445 0h-374q-26 0 -26 26v51q0 44 27 72l263 275h-261q-16 0 -16 16v62q0 16 16 16h350q26 0 26 -26v-50q0 -44 -27 -72l-264 -276h286q16 0 16 -15v-64q0 -15 -16 -15zM282 587h-50q-14 0 -27 10q-52 36 -113 119q-10 13 1 20l33 21q14 8 22 0l109 -100l109 100
q8 8 22 0l33 -21q11 -7 1 -20q-61 -83 -113 -119q-13 -10 -27 -10z" />
    <glyph glyph-name="longs" unicode="&#x17f;" horiz-adv-x="393" 
d="M359 640q-34 4 -71 4q-38 0 -53 -17.5t-15 -57.5v-554q0 -15 -16 -15h-85q-15 0 -15 15v409h-80q-16 0 -16 16v62q0 16 16 16h80v43q0 88 36 132.5t126 44.5q56 0 93 -16q17 -7 17 -21v-48q0 -14 -17 -13z" />
    <glyph glyph-name="uni0191" unicode="&#x191;" horiz-adv-x="562" 
d="M85 -24v591q0 82 35.5 113.5t131.5 31.5q115 0 252 -12q15 -2 15 -17v-56q0 -15 -15 -15h-243q-29 0 -41.5 -14.5t-12.5 -44.5v-152h266q16 0 16 -16v-69q0 -15 -16 -15h-266v-340q0 -161 -158 -161q-60 0 -104 16q-13 5 -13 19v56q0 14 14 13q28 -4 71 -4
q39 0 53.5 17.5t14.5 58.5z" />
    <glyph glyph-name="florin" unicode="&#x192;" horiz-adv-x="393" 
d="M-35 -102q34 -4 71 -4q38 0 53 17.5t15 57.5v455h-80q-16 0 -16 16v62q0 16 16 16h80v43q0 88 36 132.5t126 44.5q56 0 94 -15q16 -7 16 -22v-48q0 -14 -17 -13q-34 4 -71 4q-38 0 -53 -17.5t-15 -57.5v-51h139q16 0 16 -16v-62q0 -16 -16 -16h-139v-447
q0 -88 -36 -132.5t-126 -44.5q-56 0 -94 15q-16 7 -16 22v48q0 14 17 13z" />
    <glyph glyph-name="Aringacute" unicode="&#x1fa;" horiz-adv-x="636" 
d="M193 152l-39 -140q-3 -12 -19 -12h-94q-17 0 -12 18l196 630q3 8 7 14q-26 26 -26 78q0 108 112 108t112 -108q0 -50 -26 -78q4 -6 7 -14l196 -630q5 -18 -12 -18h-94q-16 0 -19 12l-40 140h-249zM318 590l-96 -338h192zM279 864q-14 -3 -22 4l-30 24q-11 10 2 17l114 64
q11 6 19 0l53 -44q12 -11 -2 -19q-54 -28 -134 -46zM279 740q0 -47 39 -47t39 47t-39 47t-39 -47z" />
    <glyph glyph-name="aringacute" unicode="&#x1fb;" horiz-adv-x="578" 
d="M293 86q58 0 99 9v121q-48 9 -116 9q-65 0 -89.5 -16t-24.5 -54t27.5 -53.5t103.5 -15.5zM260 526q137 0 192.5 -46t55.5 -155v-263q0 -41 -29 -48q-83 -22 -203 -22q-126 0 -178 38.5t-52 124.5q0 80 48.5 121.5t138.5 41.5q89 0 159 -30v21q0 72 -30.5 97.5
t-125.5 25.5q-76 0 -123 -9q-17 -3 -17 12v50q0 16 16 21q56 20 148 20zM403 668q0 -108 -112 -108t-112 108t112 108t112 -108zM252 668q0 -47 39 -47t39 47t-39 47t-39 -47zM252 792q-14 -3 -22 4l-30 24q-11 10 2 17l114 64q11 6 19 0l53 -44q12 -11 -2 -19
q-54 -28 -134 -46z" />
    <glyph glyph-name="AEacute" unicode="&#x1fc;" horiz-adv-x="882" 
d="M588 -12q-96 0 -131.5 31.5t-35.5 113.5v22h-203l-64 -143q-6 -12 -20 -12h-92q-21 0 -12 19l302 660q9 21 32 21h435q16 0 16 -16v-69q0 -15 -16 -15h-256v-196h235q16 0 16 -15v-69q0 -16 -16 -16h-235v-157q0 -30 12.5 -44.5t41.5 -14.5h212q15 0 15 -15v-58
q0 -15 -16 -16q-114 -11 -220 -11zM421 606l-158 -351h158v351zM572 754q-10 -7 -20 0l-36 23q-11 7 -1 17l117 134q10 12 24 3l55 -36q11 -8 0 -19q-70 -76 -139 -122z" />
    <glyph glyph-name="aeacute" unicode="&#x1fd;" horiz-adv-x="853" 
d="M258 87q57 0 104 11v117q-48 10 -103 10q-50 0 -73.5 -17t-23.5 -55q0 -66 96 -66zM475 293h182q19 0 27 7t8 27q0 49 -27 77t-77 28q-51 0 -81.5 -34.5t-31.5 -104.5zM758 96q17 3 17 -12v-50q0 -16 -16 -21q-55 -21 -141 -21q-116 0 -172 52q-37 -52 -189 -52
q-110 0 -160.5 39t-50.5 122q0 80 47 122.5t130 42.5q77 0 139 -27v20q0 72 -28 96.5t-114 24.5q-47 0 -113 -14q-17 -3 -17 12v50q0 14 16 21q60 24 138 24q128 0 183 -74q62 75 168 75q101 0 157 -57.5t56 -153.5q0 -61 -30 -88.5t-93 -27.5h-207q7 -64 41.5 -88.5
t110.5 -24.5q58 0 128 10zM421 580q-10 -7 -20 0l-36 23q-11 7 -1 17l117 134q10 12 24 3l55 -36q11 -8 0 -19q-70 -76 -139 -122z" />
    <glyph glyph-name="Oslashacute" unicode="&#x1fe;" horiz-adv-x="692" 
d="M493 681l61 107q6 12 20 12h54q17 0 8 -15l-84 -147q83 -86 83 -271v-34q0 -345 -289 -345q-85 0 -148 30l-60 -106q-6 -12 -20 -12h-54q-17 0 -8 15l83 146q-82 85 -82 272v34q0 345 289 345q85 0 147 -31zM513 337v26q0 105 -25 162l-236 -412q37 -25 94 -25
q87 0 127 59t40 190zM346 612q-87 0 -127 -59t-40 -190v-26q0 -105 25 -162l235 412q-35 25 -93 25zM321 754q-10 -7 -20 0l-36 23q-11 7 -1 17l117 134q10 12 24 3l55 -36q11 -8 0 -19q-70 -76 -139 -122z" />
    <glyph glyph-name="oslashacute" unicode="&#x1ff;" horiz-adv-x="576" 
d="M186 7l-60 -105q-7 -12 -21 -12h-51q-15 0 -7 15l77 136q-79 62 -79 201v34q0 123 63 186.5t180 63.5q58 0 102 -16l60 106q7 12 21 12h51q15 0 7 -15l-77 -136q79 -65 79 -201v-34q0 -123 -63 -186.5t-180 -63.5q-57 0 -102 15zM288 86q68 0 97.5 40t29.5 120v26
q0 67 -20 104l-160 -282q20 -8 53 -8zM161 272v-26q0 -68 20 -105l160 283q-24 8 -53 8q-68 0 -97.5 -40t-29.5 -120zM271 580q-10 -7 -20 0l-36 23q-11 7 -1 17l117 134q10 12 24 3l55 -36q11 -8 0 -19q-70 -76 -139 -122z" />
    <glyph glyph-name="Scommaaccent" unicode="&#x218;" horiz-adv-x="550" 
d="M269 -12q-108 0 -200 21q-14 3 -14 15v60q0 15 17 14q100 -10 184 -10q65 0 94.5 22.5t29.5 68.5q0 38 -17.5 62.5t-57.5 43.5l-136 62q-116 54 -116 185q0 90 53.5 135t166.5 45q91 0 182 -22q14 -3 14 -15v-59q0 -15 -17 -14q-85 10 -161 10q-61 0 -88.5 -19t-27.5 -64
q0 -63 75 -98l134 -60q117 -53 117 -191q0 -94 -54 -143t-178 -49zM254 -264l-44 25q-8 4 -4 11q30 51 30 85q0 12 -3 27q-8 40 -8 60q0 14 15 14h90q14 0 14 -14v-21q0 -113 -76 -186q-6 -5 -14 -1z" />
    <glyph glyph-name="scommaaccent" unicode="&#x219;" horiz-adv-x="481" 
d="M224 325l95 -38q117 -46 117 -148q0 -70 -51.5 -108.5t-138.5 -38.5q-101 0 -183 20q-13 3 -13 16v55q0 13 16 12q80 -10 167 -10t87 57q0 39 -58 63l-93 37q-119 47 -119 142q0 72 49 107t137 35q94 0 158 -21q13 -4 13 -16v-54q0 -16 -17 -13q-56 10 -142 10
q-43 0 -62.5 -10.5t-19.5 -39.5q0 -20 13.5 -32.5t44.5 -24.5zM223 -264l-44 25q-8 4 -4 11q30 51 30 85q0 12 -3 27q-8 40 -8 60q0 14 15 14h90q14 0 14 -14v-21q0 -113 -76 -186q-6 -5 -14 -1z" />
    <glyph glyph-name="uni021A" unicode="&#x21a;" horiz-adv-x="534" 
d="M206 15v585h-176q-16 0 -16 15v69q0 16 16 16h474q16 0 16 -16v-69q0 -15 -16 -15h-176v-585q0 -15 -16 -15h-90q-16 0 -16 15zM235 -264l-44 25q-8 4 -4 11q30 51 30 85q0 12 -3 27q-8 40 -8 60q0 14 15 14h90q14 0 14 -14v-21q0 -113 -76 -186q-6 -5 -14 -1z" />
    <glyph glyph-name="uni021B" unicode="&#x21b;" horiz-adv-x="431" 
d="M122 424h-84q-16 0 -16 16v62q0 16 16 16h84v122q0 16 15 16h85q16 0 16 -16v-122h134q16 0 16 -16v-62q0 -16 -16 -16h-134v-259q0 -43 15 -61t58 -18q33 0 71 4q14 2 14 -12v-55q0 -13 -13 -17q-39 -14 -100 -14q-161 0 -161 166v266zM228 -264l-44 25q-8 4 -4 11
q30 51 30 85q0 12 -3 27q-8 40 -8 60q0 14 15 14h90q14 0 14 -14v-21q0 -113 -76 -186q-6 -5 -14 -1z" />
    <glyph glyph-name="dotlessj" unicode="&#x237;" horiz-adv-x="299" 
d="M214 502v-527q0 -40 -5 -68t-19.5 -54t-44 -39.5t-74.5 -13.5q-51 0 -92 14q-16 5 -16 22v49q0 15 14 13q38 -4 58 -4q36 0 49.5 16.5t13.5 54.5v537q0 16 16 16h85q15 0 15 -16z" />
    <glyph glyph-name="apostrophe" unicode="&#x2bc;" horiz-adv-x="420" 
d="M188 495l-37 21q-7 4 -3 13q29 50 29 104q0 19 -5 44q-5 23 -5 45v8q0 15 15 15h87q15 0 15 -15v-24q0 -120 -80 -209q-7 -7 -16 -2z" />
    <glyph glyph-name="circumflex" unicode="&#x2c6;" horiz-adv-x="420" 
d="M185 730h50q14 0 27 -10q52 -36 113 -119q10 -13 -1 -20l-33 -21q-14 -8 -22 0l-109 100l-109 -100q-8 -8 -22 0l-33 21q-11 7 -1 20q61 83 113 119q13 10 27 10z" />
    <glyph glyph-name="caron" unicode="&#x2c7;" horiz-adv-x="420" 
d="M235 567h-50q-14 0 -27 10q-52 36 -113 119q-10 13 1 20l33 21q14 8 22 0l109 -100l109 100q8 8 22 0l33 -21q11 -7 1 -20q-61 -83 -113 -119q-13 -10 -27 -10z" />
    <glyph glyph-name="uni02C9" unicode="&#x2c9;" horiz-adv-x="420" 
d="M71 690h278q15 0 15 -15v-54q0 -15 -15 -15h-278q-15 0 -15 15v54q0 15 15 15z" />
    <glyph glyph-name="breve" unicode="&#x2d8;" horiz-adv-x="420" 
d="M210 567q-75 0 -122.5 41t-47.5 108q0 13 14 13h46q14 0 15 -14q11 -69 95 -69t95 69q1 14 15 14h46q14 0 14 -13q0 -67 -47.5 -108t-122.5 -41z" />
    <glyph glyph-name="dotaccent" unicode="&#x2d9;" horiz-adv-x="420" 
d="M265 691v-6q0 -43 -15 -81q-7 -17 -24 -17h-67q-15 0 -15 16v88q0 16 15 16h91q15 0 15 -16z" />
    <glyph glyph-name="ring" unicode="&#x2da;" horiz-adv-x="420" 
d="M322 648q0 -108 -112 -108t-112 108t112 108t112 -108zM171 648q0 -47 39 -47t39 47t-39 47t-39 -47z" />
    <glyph glyph-name="ogonek" unicode="&#x2db;" horiz-adv-x="420" 
d="M214 15h68v-6q-63 -54 -63 -114q0 -22 9.5 -31.5t30.5 -9.5q15 0 33 5q12 3 12 -9v-40q0 -10 -9 -15q-22 -14 -65 -14q-51 0 -77.5 25.5t-26.5 72.5q0 82 88 136z" />
    <glyph glyph-name="tilde" unicode="&#x2dc;" horiz-adv-x="420" 
d="M305 696v11q0 13 14 13h38q15 0 20 -13q8 -18 8 -43q0 -42 -25 -65t-69 -23q-52 0 -96 37q-39 33 -55 33q-25 0 -25 -44v-11q0 -13 -14 -13h-38q-15 0 -20 13q-8 18 -8 43q0 42 25 65t69 23q51 0 95 -37q38 -33 56 -33q25 0 25 44z" />
    <glyph glyph-name="hungarumlaut" unicode="&#x2dd;" horiz-adv-x="420" 
d="M255 560q-10 -7 -20 0l-36 23q-11 7 -1 17l117 134q10 12 24 3l55 -36q11 -8 0 -19q-70 -76 -139 -122zM192 681l-109 -120q-9 -9 -20 -1l-36 24q-9 6 -3 18q37 70 88 133q10 12 24 2l55 -37q11 -8 1 -19z" />
    <glyph glyph-name="gravecomb" unicode="&#x300;" horiz-adv-x="0" 
d="M-239 560q-69 46 -139 122q-11 11 0 19l55 36q14 9 24 -3l117 -134q10 -10 -1 -17l-36 -23q-10 -7 -20 0z" />
    <glyph glyph-name="acutecomb" unicode="&#x301;" horiz-adv-x="0" 
d="M-266 560q-10 -7 -20 0l-36 23q-11 7 -1 17l117 134q10 12 24 3l55 -36q11 -8 0 -19q-70 -76 -139 -122z" />
    <glyph glyph-name="uni0302" unicode="&#x302;" horiz-adv-x="0" 
d="M-278 730h50q14 0 27 -10q52 -36 113 -119q10 -13 -1 -20l-33 -21q-14 -8 -22 0l-109 100l-109 -100q-8 -8 -22 0l-33 21q-11 7 -1 20q61 83 113 119q13 10 27 10z" />
    <glyph glyph-name="tildecomb" unicode="&#x303;" horiz-adv-x="0" 
d="M-158 696v11q0 13 14 13h38q15 0 20 -13q8 -18 8 -43q0 -42 -25 -65t-69 -23q-52 0 -96 37q-38 33 -55 33q-25 0 -25 -44v-11q0 -13 -14 -13h-38q-15 0 -20 13q-8 18 -8 43q0 42 25 65t69 23q51 0 95 -37q39 -33 56 -33q25 0 25 44z" />
    <glyph glyph-name="uni0304" unicode="&#x304;" horiz-adv-x="0" 
d="M-392 690h278q15 0 15 -15v-54q0 -15 -15 -15h-278q-15 0 -15 15v54q0 15 15 15z" />
    <glyph glyph-name="uni0306" unicode="&#x306;" horiz-adv-x="0" 
d="M-253 567q-75 0 -122.5 41t-47.5 108q0 13 14 13h46q14 0 15 -14q11 -69 95 -69t95 69q1 14 15 14h46q14 0 14 -13q0 -67 -47.5 -108t-122.5 -41z" />
    <glyph glyph-name="uni0307" unicode="&#x307;" horiz-adv-x="0" 
d="M-193 691v-6q0 -43 -15 -81q-7 -17 -24 -17h-67q-15 0 -15 16v88q0 16 15 16h91q15 0 15 -16z" />
    <glyph glyph-name="uni0308" unicode="&#x308;" horiz-adv-x="0" 
d="M-89 691v-6q0 -43 -15 -81q-7 -17 -24 -17h-67q-15 0 -15 16v88q0 16 15 16h91q15 0 15 -16zM-417 603v6q0 43 15 81q7 17 24 17h67q15 0 15 -16v-88q0 -16 -15 -16h-91q-15 0 -15 16z" />
    <glyph glyph-name="uni030A" unicode="&#x30a;" horiz-adv-x="0" 
d="M-141 648q0 -108 -112 -108t-112 108t112 108t112 -108zM-292 648q0 -47 39 -47t39 47t-39 47t-39 -47z" />
    <glyph glyph-name="uni030C" unicode="&#x30c;" horiz-adv-x="0" 
d="M-228 567h-50q-14 0 -27 10q-52 36 -113 119q-10 13 1 20l33 21q14 8 22 0l109 -100l109 100q8 8 22 0l33 -21q11 -7 1 -20q-61 -83 -113 -119q-13 -10 -27 -10z" />
    <glyph glyph-name="uni0327" unicode="&#x327;" horiz-adv-x="0" 
d="M-352 -215v29q0 13 14 10q17 -5 40 -5q53 0 53 37q0 21 -18 34t-53 13q-9 0 -12.5 5.5t1.5 14.5l52 89h81l-38 -68q80 -15 80 -88q0 -48 -32.5 -75t-81.5 -27q-44 0 -74 14q-12 5 -12 17z" />
    <glyph glyph-name="tonos" unicode="&#x384;" horiz-adv-x="420" 
d="M209 537q-8 -9 -20 -5l-40 15q-11 5 -5 18l78 178q5 14 19 9l67 -25q12 -5 6 -18q-45 -93 -105 -172z" />
    <glyph glyph-name="dieresistonos" unicode="&#x385;" horiz-adv-x="420" 
d="M225 616q-11 -9 -26 -2l-37 17q-16 8 -6 19l95 119q9 10 21 4l67 -31q14 -7 3 -20q-52 -63 -117 -106zM374 592v-6q0 -44 -15 -81q-7 -17 -24 -17h-67q-15 0 -15 16v88q0 16 15 16h91q15 0 15 -16zM46 504v6q0 44 15 81q7 17 24 17h67q15 0 15 -16v-88q0 -16 -15 -16h-91
q-15 0 -15 16z" />
    <glyph glyph-name="Alphatonos" unicode="&#x386;" horiz-adv-x="642" 
d="M258 700h132q21 0 27 -21l196 -661q5 -18 -12 -18h-94q-16 0 -19 12l-39 140h-250l-39 -140q-3 -12 -19 -12h-94q-17 0 -12 18l196 661q6 21 27 21zM324 600l-97 -348h194zM68 507q-8 -9 -20 -5l-40 15q-11 5 -5 18l78 178q5 14 19 9l67 -25q12 -5 6 -18
q-45 -93 -105 -172z" />
    <glyph glyph-name="anoteleia" unicode="&#x387;" horiz-adv-x="278" 
d="M187 285h-79q-16 0 -23 20q-14 44 -14 93v11q0 15 15 15h101q15 0 15 -15v-109q0 -15 -15 -15z" />
    <glyph glyph-name="Epsilontonos" unicode="&#x388;" horiz-adv-x="676" 
d="M184 133v434q0 82 35.5 113.5t131.5 31.5q133 0 242 -12q15 -2 15 -17v-56q0 -15 -15 -15h-233q-29 0 -41.5 -14.5t-12.5 -44.5v-144h266q16 0 16 -16v-69q0 -15 -16 -15h-266v-162q0 -30 12.5 -44.5t41.5 -14.5h243q15 0 15 -15v-56q0 -15 -15 -17q-101 -12 -252 -12
q-96 0 -131.5 31.5t-35.5 113.5zM46 507q-8 -9 -20 -5l-40 15q-11 5 -5 18l78 178q5 14 19 9l67 -25q12 -5 6 -18q-45 -93 -105 -172z" />
    <glyph glyph-name="Etatonos" unicode="&#x389;" horiz-adv-x="792" 
d="M321 410h264v275q0 15 15 15h93q14 0 14 -15v-671q0 -14 -14 -14h-93q-15 0 -15 14v296h-264v-296q0 -14 -15 -14h-93q-14 0 -14 14v671q0 15 14 15h93q15 0 15 -15v-275zM46 507q-8 -9 -20 -5l-40 15q-11 5 -5 18l78 178q5 14 19 9l67 -25q12 -5 6 -18
q-45 -93 -105 -172z" />
    <glyph glyph-name="Iotatonos" unicode="&#x38a;" horiz-adv-x="416" 
d="M199 15v669q0 16 15 16h92q15 0 15 -16v-669q0 -15 -15 -15h-92q-15 0 -15 15zM46 507q-8 -9 -20 -5l-40 15q-11 5 -5 18l78 178q5 14 19 9l67 -25q12 -5 6 -18q-45 -93 -105 -172z" />
    <glyph glyph-name="Omicrontonos" unicode="&#x38c;" horiz-adv-x="756" 
d="M699 367v-34q0 -345 -289 -345t-289 345v34q0 345 289 345t289 -345zM577 337v26q0 131 -40 190t-127 59t-127 -59t-40 -190v-26q0 -131 40 -190t127 -59t127 59t40 190zM46 507q-8 -9 -20 -5l-40 15q-11 5 -5 18l78 178q5 14 19 9l67 -25q12 -5 6 -18q-45 -93 -105 -172
z" />
    <glyph glyph-name="Upsilontonos" unicode="&#x38e;" horiz-adv-x="766" 
d="M743 676l-219 -434v-227q0 -15 -15 -15h-91q-16 0 -16 15v227l-219 434q-5 10 -3 17t12 7h90q15 0 22 -15l159 -323l159 323q7 15 22 15h90q10 0 12 -7t-3 -17zM46 507q-8 -9 -20 -5l-40 15q-11 5 -5 18l78 178q5 14 19 9l67 -25q12 -5 6 -18q-45 -93 -105 -172z" />
    <glyph glyph-name="Omegatonos" unicode="&#x38f;" horiz-adv-x="758" 
d="M46 507q-8 -9 -20 -5l-40 15q-11 5 -5 18l78 178q5 14 19 9l67 -25q12 -5 6 -18q-45 -93 -105 -172zM412 612q-166 0 -166 -218v-11q0 -170 111 -271q15 -15 15 -32v-65q0 -15 -16 -15h-205q-16 0 -16 15v69q0 16 16 16h97q-124 111 -124 284v13q0 147 74 231t214 84
q141 0 215 -83.5t74 -231.5v-16q0 -77 -30.5 -152t-93.5 -129h97q15 0 15 -16v-69q0 -15 -15 -15h-206q-15 0 -15 15v65q0 18 15 32q110 101 110 271v11q0 218 -166 218z" />
    <glyph glyph-name="iotadieresistonos" unicode="&#x390;" horiz-adv-x="357" 
d="M82 144v358q0 16 16 16h85q15 0 15 -16v-347q0 -40 17 -55t62 -15q20 0 48 4q16 3 16 -13v-53q0 -14 -16 -18q-46 -13 -99 -13q-144 0 -144 152zM157 688q-11 -9 -26 -2l-37 17q-16 8 -6 19l95 119q9 10 21 4l67 -31q14 -7 3 -20q-52 -63 -117 -106zM306 664v-6
q0 -44 -15 -81q-7 -17 -24 -17h-67q-15 0 -15 16v88q0 16 15 16h91q15 0 15 -16zM-22 576v6q0 43 15 81q7 17 24 17h67q15 0 15 -16v-88q0 -16 -15 -16h-91q-15 0 -15 16z" />
    <glyph glyph-name="Alpha" unicode="&#x391;" horiz-adv-x="636" 
d="M252 700h132q21 0 27 -21l196 -661q5 -18 -12 -18h-94q-16 0 -19 12l-39 140h-250l-39 -140q-3 -12 -19 -12h-94q-17 0 -12 18l196 661q6 21 27 21zM318 600l-97 -348h194z" />
    <glyph glyph-name="Beta" unicode="&#x392;" horiz-adv-x="640" 
d="M117 9q-32 8 -32 51v578q0 44 32 52q86 22 196 22q246 0 246 -197q0 -96 -77 -146q51 -21 78.5 -66t27.5 -105q0 -107 -59 -158.5t-195 -51.5t-217 21zM324 88q78 0 109.5 26.5t31.5 86.5q0 109 -112 109h-146v-213q50 -9 117 -9zM298 612q-50 0 -91 -11v-191h114
q63 0 90.5 24.5t27.5 74.5q0 56 -33 79.5t-108 23.5z" />
    <glyph glyph-name="Gamma" unicode="&#x393;" horiz-adv-x="545" 
d="M85 15v669q0 16 15 16h419q16 0 16 -16v-69q0 -15 -16 -15h-312v-585q0 -15 -15 -15h-92q-15 0 -15 15z" />
    <glyph glyph-name="uni0394" unicode="&#x394;" horiz-adv-x="572" 
d="M144 100h284l-142 486zM232 700h108q18 0 23 -15l177 -559q14 -40 14 -56v-54q0 -16 -16 -16h-504q-16 0 -16 16v54q0 16 14 56l177 559q5 15 23 15z" />
    <glyph glyph-name="Epsilon" unicode="&#x395;" horiz-adv-x="577" 
d="M85 133v434q0 82 35.5 113.5t131.5 31.5q132 0 242 -12q15 -2 15 -17v-56q0 -15 -15 -15h-233q-29 0 -41.5 -14.5t-12.5 -44.5v-144h266q16 0 16 -16v-69q0 -15 -16 -15h-266v-162q0 -30 12.5 -44.5t41.5 -14.5h243q15 0 15 -15v-56q0 -15 -15 -17q-101 -12 -252 -12
q-96 0 -131.5 31.5t-35.5 113.5z" />
    <glyph glyph-name="Zeta" unicode="&#x396;" horiz-adv-x="581" 
d="M518 561l-350 -461h356q16 0 16 -16v-69q0 -15 -16 -15h-458q-25 0 -25 25v68q0 28 13 46l349 461h-326q-16 0 -16 15v69q0 16 16 16h429q12 0 18.5 -11.5t6.5 -26.5v-55q0 -28 -13 -46z" />
    <glyph glyph-name="Eta" unicode="&#x397;" horiz-adv-x="678" 
d="M207 410h264v275q0 15 15 15h93q14 0 14 -15v-671q0 -14 -14 -14h-93q-15 0 -15 14v296h-264v-296q0 -14 -15 -14h-93q-14 0 -14 14v671q0 15 14 15h93q15 0 15 -15v-275z" />
    <glyph glyph-name="Theta" unicode="&#x398;" horiz-adv-x="692" 
d="M254 393h184q16 0 16 -16v-54q0 -16 -16 -16h-184q-16 0 -16 16v54q0 16 16 16zM635 367v-34q0 -345 -289 -345t-289 345v34q0 345 289 345t289 -345zM513 337v26q0 131 -40 190t-127 59t-127 -59t-40 -190v-26q0 -131 40 -190t127 -59t127 59t40 190z" />
    <glyph glyph-name="Iota" unicode="&#x399;" horiz-adv-x="312" 
d="M95 15v669q0 16 15 16h92q15 0 15 -16v-669q0 -15 -15 -15h-92q-15 0 -15 15z" />
    <glyph glyph-name="Kappa" unicode="&#x39a;" horiz-adv-x="615" 
d="M461 700h106q7 0 10 -5.5t-2 -11.5l-245 -320l273 -346q5 -5 2.5 -11t-9.5 -6h-115q-13 0 -21 9l-253 332v-326q0 -15 -15 -15h-92q-15 0 -15 15v669q0 16 15 16h92q15 0 15 -16v-299l235 306q8 9 19 9z" />
    <glyph glyph-name="Lambda" unicode="&#x39b;" horiz-adv-x="636" 
d="M318 600l-164 -588q-3 -12 -19 -12h-94q-17 0 -12 18l196 661q6 21 27 21h132q21 0 27 -21l196 -661q5 -18 -12 -18h-94q-16 0 -19 12z" />
    <glyph glyph-name="Mu" unicode="&#x39c;" horiz-adv-x="830" 
d="M447 189h-64q-22 0 -31 19l-145 310v-504q0 -14 -14 -14h-94q-14 0 -14 14v671q0 15 14 15h117q22 0 32 -19l167 -357l167 357q10 19 32 19h117q14 0 14 -15v-671q0 -14 -14 -14h-94q-14 0 -14 14v504l-145 -310q-9 -19 -31 -19z" />
    <glyph glyph-name="Nu" unicode="&#x39d;" horiz-adv-x="701" 
d="M494 179v507q0 14 14 14h94q14 0 14 -14v-671q0 -15 -14 -15h-122q-22 0 -31 18l-242 503v-507q0 -14 -14 -14h-94q-14 0 -14 14v671q0 15 14 15h122q22 0 31 -18z" />
    <glyph glyph-name="Xi" unicode="&#x39e;" horiz-adv-x="607" 
d="M69 700h469q16 0 16 -16v-69q0 -15 -16 -15h-469q-16 0 -16 15v69q0 16 16 16zM119 403h369q16 0 16 -16v-69q0 -15 -16 -15h-369q-16 0 -16 15v69q0 16 16 16zM69 100h469q16 0 16 -16v-69q0 -15 -16 -15h-469q-16 0 -16 15v69q0 16 16 16z" />
    <glyph glyph-name="Omicron" unicode="&#x39f;" horiz-adv-x="692" 
d="M635 367v-34q0 -345 -289 -345t-289 345v34q0 345 289 345t289 -345zM513 337v26q0 131 -40 190t-127 59t-127 -59t-40 -190v-26q0 -131 40 -190t127 -59t127 59t40 190z" />
    <glyph glyph-name="Pi" unicode="&#x3a0;" horiz-adv-x="720" 
d="M635 684v-669q0 -15 -16 -15h-90q-16 0 -16 15v585h-306v-585q0 -15 -15 -15h-92q-15 0 -15 15v669q0 16 15 16h519q16 0 16 -16z" />
    <glyph glyph-name="Rho" unicode="&#x3a1;" horiz-adv-x="612" 
d="M117 690q83 22 196 22q252 0 252 -211v-43q0 -102 -61.5 -156.5t-182.5 -54.5q-57 0 -114 6v-238q0 -15 -16 -15h-91q-15 0 -15 15v624q0 43 32 51zM207 602v-250q47 -5 90 -5q83 0 114.5 28.5t31.5 92.5v23q0 65 -32 93t-114 28q-50 0 -90 -10z" />
    <glyph glyph-name="Sigma" unicode="&#x3a3;" horiz-adv-x="543" 
d="M27 15v54q0 8 2 16.5t4 14.5t7 14l7.5 12t9 12.5t8.5 10.5l164 221l-178 202q-24 27 -24 56v56q0 16 16 16h467q16 0 16 -16v-69q0 -15 -16 -15h-334l166 -192q14 -16 14 -28v-21q0 -14 -13 -31l-167 -228h334q16 0 16 -16v-69q0 -15 -16 -15h-467q-16 0 -16 15z" />
    <glyph glyph-name="Tau" unicode="&#x3a4;" horiz-adv-x="534" 
d="M206 15v585h-176q-16 0 -16 15v69q0 16 16 16h474q16 0 16 -16v-69q0 -15 -16 -15h-176v-585q0 -15 -16 -15h-90q-16 0 -16 15z" />
    <glyph glyph-name="Upsilon" unicode="&#x3a5;" horiz-adv-x="606" 
d="M583 676l-219 -434v-227q0 -15 -15 -15h-91q-16 0 -16 15v227l-219 434q-5 10 -3 17t12 7h90q15 0 22 -15l159 -323l159 323q7 15 22 15h90q10 0 12 -7t-3 -17z" />
    <glyph glyph-name="Phi" unicode="&#x3a6;" horiz-adv-x="734" 
d="M412 0h-90q-16 0 -16 15v86q-123 6 -197 67t-74 182t74 182t197 67v85q0 16 16 16h90q16 0 16 -16v-85q123 -6 197 -67t74 -182t-74 -182t-197 -67v-86q0 -15 -16 -15zM306 201v298q-149 -6 -149 -149t149 -149zM428 499v-298q149 6 149 149t-149 149z" />
    <glyph glyph-name="Chi" unicode="&#x3a7;" horiz-adv-x="600" 
d="M300 467l136 219q8 14 23 14h96q10 0 13 -6t-2 -14l-199 -321l210 -338q6 -8 3 -14.5t-14 -6.5h-95q-16 0 -23 13l-148 238l-148 -238q-7 -13 -23 -13h-95q-11 0 -14 6.5t3 14.5l210 338l-199 321q-5 8 -2 14t13 6h96q15 0 23 -14z" />
    <glyph glyph-name="Psi" unicode="&#x3a8;" horiz-adv-x="732" 
d="M321 700h90q16 0 16 -16v-432q63 13 88 59.5t25 128.5v244q0 16 15 16h92q15 0 15 -16v-249q0 -123 -61.5 -197t-173.5 -88v-135q0 -15 -16 -15h-90q-16 0 -16 15v135q-112 14 -173.5 88t-61.5 197v249q0 16 15 16h92q15 0 15 -16v-244q0 -82 25 -128.5t88 -59.5v432
q0 16 16 16z" />
    <glyph glyph-name="uni03A9" unicode="&#x3a9;" horiz-adv-x="691" 
d="M345 612q-166 0 -166 -218v-11q0 -170 111 -271q15 -15 15 -32v-65q0 -15 -16 -15h-205q-16 0 -16 15v69q0 16 16 16h97q-124 111 -124 284v13q0 147 74 231t214 84q141 0 215 -83.5t74 -231.5v-16q0 -77 -30.5 -152t-93.5 -129h97q15 0 15 -16v-69q0 -15 -15 -15h-206
q-15 0 -15 15v65q0 18 15 32q110 101 110 271v11q0 218 -166 218z" />
    <glyph glyph-name="Iotadieresis" unicode="&#x3aa;" horiz-adv-x="312" 
d="M95 15v669q0 16 15 16h92q15 0 15 -16v-669q0 -15 -15 -15h-92q-15 0 -15 15zM320 885v-6q0 -43 -15 -81q-7 -17 -24 -17h-67q-15 0 -15 16v88q0 16 15 16h91q15 0 15 -16zM-8 797v6q0 43 15 81q7 17 24 17h67q15 0 15 -16v-88q0 -16 -15 -16h-91q-15 0 -15 16z" />
    <glyph glyph-name="Upsilondieresis" unicode="&#x3ab;" horiz-adv-x="606" 
d="M583 676l-219 -434v-227q0 -15 -15 -15h-91q-16 0 -16 15v227l-219 434q-5 10 -3 17t12 7h90q15 0 22 -15l159 -323l159 323q7 15 22 15h90q10 0 12 -7t-3 -17zM467 885v-6q0 -43 -15 -81q-7 -17 -24 -17h-67q-15 0 -15 16v88q0 16 15 16h91q15 0 15 -16zM139 797v6
q0 43 15 81q7 17 24 17h67q15 0 15 -16v-88q0 -16 -15 -16h-91q-15 0 -15 16z" />
    <glyph glyph-name="alphatonos" unicode="&#x3ac;" horiz-adv-x="635" 
d="M452 386l41 120q5 12 18 12h67q10 0 14.5 -6.5t1.5 -14.5l-101 -279q8 -46 27 -91q10 -23 21 -32.5t29 -9.5q16 0 34 4q13 3 13 -11v-50q0 -16 -16 -23q-28 -13 -62 -13q-53 0 -78 42q-17 29 -26 63q-62 -105 -178 -105q-212 0 -212 267q0 127 53.5 197t159.5 70
q79 0 125.5 -34.5t68.5 -105.5zM267 432q-57 0 -81.5 -42t-24.5 -131q0 -95 23.5 -134t76.5 -39q46 0 79.5 35t59.5 116q-9 40 -15 64.5t-17 52.5t-23.5 43t-32.5 25t-45 10zM291 580q-10 -7 -20 0l-36 23q-11 7 -1 17l117 134q10 12 24 3l55 -36q11 -8 0 -19
q-70 -76 -139 -122z" />
    <glyph glyph-name="epsilontonos" unicode="&#x3ad;" horiz-adv-x="516" 
d="M303 86h36q67 0 126 9q17 3 17 -12v-50q0 -16 -16 -21q-62 -20 -154 -20h-24q-107 0 -164 33t-57 113q0 100 98 127q-93 26 -93 118q0 73 53.5 108t164.5 35h15q82 0 147 -20q16 -5 16 -21v-50q0 -15 -17 -12q-63 9 -126 9h-22q-63 0 -89 -12.5t-26 -41.5q0 -62 103 -62
h87q16 0 16 -16v-63q0 -15 -16 -15h-92q-48 0 -75.5 -19.5t-27.5 -51.5q0 -34 27 -49.5t93 -15.5zM257 580q-10 -7 -20 0l-36 23q-11 7 -1 17l117 134q10 12 24 3l55 -36q11 -8 0 -19q-70 -76 -139 -122z" />
    <glyph glyph-name="etatonos" unicode="&#x3ae;" horiz-adv-x="600" 
d="M191 423v-408q0 -15 -16 -15h-85q-15 0 -15 15v440q0 39 29 48q79 23 198 23q121 0 174.5 -48t53.5 -155v-501q0 -15 -15 -15h-85q-16 0 -16 15v494q0 64 -27 90t-95 26q-59 0 -101 -9zM274 580q-10 -7 -20 0l-36 23q-11 7 -1 17l117 134q10 12 24 3l55 -36q11 -8 0 -19
q-70 -76 -139 -122z" />
    <glyph glyph-name="iotatonos" unicode="&#x3af;" horiz-adv-x="357" 
d="M82 144v358q0 16 16 16h85q15 0 15 -16v-347q0 -40 17 -55t62 -15q20 0 48 4q16 3 16 -13v-53q0 -14 -16 -18q-46 -13 -99 -13q-144 0 -144 152zM153 580q-10 -7 -20 0l-36 23q-11 7 -1 17l117 134q10 12 24 3l55 -36q11 -8 0 -19q-70 -76 -139 -122z" />
    <glyph glyph-name="upsilondieresistonos" unicode="&#x3b0;" horiz-adv-x="576" 
d="M355 496q-4 9 -0.5 15.5t13.5 6.5h69q15 0 23 -15q69 -129 69 -263q0 -248 -226 -248q-106 0 -162 57.5t-56 166.5v143q0 45 -7 60t-29 15h-19q-16 0 -16 14v48q0 15 15 20q26 10 62 10q110 0 110 -141v-152q0 -78 23.5 -112.5t79.5 -34.5q57 0 83 37t26 118
q0 125 -58 255zM274 688q-11 -9 -26 -2l-37 17q-16 8 -6 19l95 119q9 10 21 4l67 -31q14 -7 3 -20q-52 -63 -117 -106zM423 664v-6q0 -44 -15 -81q-7 -17 -24 -17h-67q-15 0 -15 16v88q0 16 15 16h91q15 0 15 -16zM95 576v6q0 43 15 81q7 17 24 17h67q15 0 15 -16v-88
q0 -16 -15 -16h-91q-15 0 -15 16z" />
    <glyph glyph-name="alpha" unicode="&#x3b1;" horiz-adv-x="635" 
d="M452 386l41 120q5 12 18 12h67q10 0 14.5 -6.5t1.5 -14.5l-101 -279q8 -46 27 -91q10 -23 21 -32.5t29 -9.5q16 0 34 4q13 3 13 -11v-50q0 -16 -16 -23q-28 -13 -62 -13q-53 0 -78 42q-17 29 -26 63q-62 -105 -178 -105q-212 0 -212 267q0 127 53.5 197t159.5 70
q79 0 125.5 -34.5t68.5 -105.5zM267 432q-57 0 -81.5 -42t-24.5 -131q0 -95 23.5 -134t76.5 -39q46 0 79.5 35t59.5 116q-9 40 -15 64.5t-17 52.5t-23.5 43t-32.5 25t-45 10z" />
    <glyph glyph-name="beta" unicode="&#x3b2;" horiz-adv-x="591" 
d="M361 -8q-63 0 -108 15q-15 5 -15 23v52q0 16 14 13q38 -9 66 -9q60 0 88.5 27t28.5 84q0 67 -34 97.5t-102 35.5q-15 0 -15 15v66q0 14 14 16q58 5 85 31t27 83q0 51 -23.5 77t-80.5 26q-61 0 -84.5 -33t-23.5 -100v-689q0 -15 -15 -15h-86q-15 0 -15 15v675
q0 120 54.5 180.5t172.5 60.5q108 0 162.5 -51t54.5 -138q0 -122 -106 -168q131 -42 131 -189q0 -37 -9 -70t-29 -63.5t-59 -48.5t-93 -18z" />
    <glyph glyph-name="gamma" unicode="&#x3b3;" horiz-adv-x="552" 
d="M276 -106q17 0 28 12t11 34q0 45 -39 107q-39 -62 -39 -107q0 -22 11 -34t28 -12zM276 -199q-68 0 -109 35.5t-41 96.5q0 38 19.5 82t70.5 133l-201 352q-10 18 11 18h86q13 0 20 -12l144 -258l144 258q7 12 20 12h86q21 0 11 -18l-201 -352q51 -89 70.5 -133t19.5 -82
q0 -61 -41 -96.5t-109 -35.5z" />
    <glyph glyph-name="delta" unicode="&#x3b4;" horiz-adv-x="576" 
d="M45 242v34q0 108 49.5 170.5t141.5 75.5l-138 100q-22 16 -22 38v54q0 16 16 16h372q15 0 15 -16v-62q0 -16 -15 -16h-223l209 -158q81 -62 81 -202v-34q0 -123 -63 -186.5t-180 -63.5t-180 63.5t-63 186.5zM161 272v-26q0 -80 29.5 -120t97.5 -40t97.5 40t29.5 120v26
q0 80 -29.5 120t-97.5 40t-97.5 -40t-29.5 -120z" />
    <glyph glyph-name="epsilon" unicode="&#x3b5;" horiz-adv-x="516" 
d="M303 86h36q67 0 126 9q17 3 17 -12v-50q0 -16 -16 -21q-62 -20 -154 -20h-24q-107 0 -164 33t-57 113q0 100 98 127q-93 26 -93 118q0 73 53.5 108t164.5 35h15q82 0 147 -20q16 -5 16 -21v-50q0 -15 -17 -12q-63 9 -126 9h-22q-63 0 -89 -12.5t-26 -41.5q0 -62 103 -62
h87q16 0 16 -16v-63q0 -15 -16 -15h-92q-48 0 -75.5 -19.5t-27.5 -51.5q0 -34 27 -49.5t93 -15.5z" />
    <glyph glyph-name="zeta" unicode="&#x3b6;" horiz-adv-x="479" 
d="M445 620q-153 -116 -217.5 -197.5t-64.5 -179.5q0 -112 197 -150q62 -12 85 -28.5t23 -53.5q0 -31 -23 -71q-50 -85 -80 -121q-11 -12 -28 -12h-71q-11 0 -11 10q0 4 3 10l87 139q7 11 7 19q0 12 -16 15q-289 48 -289 237q0 110 68 205.5t209 193.5h-218q-16 0 -16 16v62
q0 16 16 16h340q16 0 16 -16v-64q0 -17 -17 -30z" />
    <glyph glyph-name="eta" unicode="&#x3b7;" horiz-adv-x="600" 
d="M191 423v-408q0 -15 -16 -15h-85q-15 0 -15 15v440q0 39 29 48q79 23 198 23q121 0 174.5 -48t53.5 -155v-501q0 -15 -15 -15h-85q-16 0 -16 15v494q0 64 -27 90t-95 26q-59 0 -101 -9z" />
    <glyph glyph-name="theta" unicode="&#x3b8;" horiz-adv-x="626" 
d="M313 738q143 0 200.5 -90.5t57.5 -275.5v-14q0 -185 -57.5 -275.5t-200.5 -90.5t-200.5 90.5t-57.5 275.5v14q0 185 57.5 275.5t200.5 90.5zM313 644q-76 0 -109 -55t-33 -177h284q-1 122 -34 177t-108 55zM313 86q75 0 108 54.5t34 177.5h-284q0 -123 33 -177.5
t109 -54.5z" />
    <glyph glyph-name="iota" unicode="&#x3b9;" horiz-adv-x="357" 
d="M82 144v358q0 16 16 16h85q15 0 15 -16v-347q0 -40 17 -55t62 -15q20 0 48 4q16 3 16 -13v-53q0 -14 -16 -18q-46 -13 -99 -13q-144 0 -144 152z" />
    <glyph glyph-name="kappa" unicode="&#x3ba;" horiz-adv-x="552" 
d="M431 411l-121 -138l228 -251q7 -8 5 -15t-12 -7h-111q-12 0 -21 10l-208 242v-237q0 -15 -16 -15h-85q-15 0 -15 15v487q0 16 15 16h85q16 0 16 -16v-210l152 174q53 60 104 60q36 0 60 -11q15 -7 15 -19v-53q0 -14 -13 -11q-16 4 -34 4q-22 0 -44 -25z" />
    <glyph glyph-name="lambda" unicode="&#x3bb;" horiz-adv-x="605" 
d="M299 738q126 0 178.5 -46.5t52.5 -151.5v-524q0 -16 -15 -16h-85q-16 0 -16 16v403q-40 5 -101 5q-67 0 -94.5 -27.5t-27.5 -89.5v-291q0 -16 -16 -16h-85q-15 0 -15 16v300q0 108 50 155t145 47q83 0 144 -24v42q0 57 -28.5 82.5t-104.5 25.5q-78 0 -146 -10
q-16 -3 -16 12v55q0 11 14 16q73 21 166 21z" />
    <glyph glyph-name="uni03BC" unicode="&#x3bc;" horiz-adv-x="605" 
d="M191 502v-302q1 -61 33 -87.5t98 -26.5q52 0 92 10v406q0 16 16 16h85q15 0 15 -16v-440q0 -37 -29 -47q-63 -23 -159 -23q-106 0 -151 33v-202q0 -16 -16 -16h-85q-15 0 -15 16v680q0 15 14 15h87q15 0 15 -16z" />
    <glyph glyph-name="nu" unicode="&#x3bd;" horiz-adv-x="542" 
d="M35 518h86q16 0 19 -13l131 -417q61 83 87 152t26 151q0 51 -12 105q-5 22 16 22h64q19 0 25 -14q23 -53 23 -119q0 -133 -96 -294q-20 -34 -49 -66q-24 -25 -67 -25h-79q-22 0 -30 22l-156 476q-7 20 12 20z" />
    <glyph glyph-name="xi" unicode="&#x3be;" horiz-adv-x="484" 
d="M340 -2q-101 16 -178 53q-117 56 -117 177q0 134 134 186q-115 34 -115 149q0 82 60.5 128.5t160.5 46.5q74 0 127 -17q13 -4 13 -17v-51q0 -17 -18 -14q-42 5 -88 5q-139 0 -139 -84q0 -91 138 -91h50q16 0 16 -16v-63q0 -15 -16 -15h-25q-182 0 -182 -139
q0 -78 93 -113q55 -20 111 -30q62 -12 85 -28.5t23 -53.5q0 -31 -23 -71q-50 -85 -80 -121q-11 -12 -28 -12h-71q-11 0 -11 10q0 4 3 10l87 139q7 11 7 18q0 11 -17 14z" />
    <glyph glyph-name="omicron" unicode="&#x3bf;" horiz-adv-x="576" 
d="M45 242v34q0 123 63 186.5t180 63.5t180 -63.5t63 -186.5v-34q0 -123 -63 -186.5t-180 -63.5t-180 63.5t-63 186.5zM161 272v-26q0 -80 29.5 -120t97.5 -40t97.5 40t29.5 120v26q0 80 -29.5 120t-97.5 40t-97.5 -40t-29.5 -120z" />
    <glyph glyph-name="pi" unicode="&#x3c0;" horiz-adv-x="633" 
d="M38 518h556q16 0 16 -16v-62q0 -16 -16 -16h-114v-270q0 -37 15 -52.5t51 -15.5q29 0 47 3q15 3 15 -12v-48q0 -16 -10 -21q-30 -16 -90 -16q-39 0 -66 11.5t-42 29t-23.5 47.5t-10.5 56.5t-2 66.5v221h-103q-3 -254 -79 -421q-8 -15 -32 -8l-74 24q-14 4 -7 20
q73 156 76 385h-107q-16 0 -16 16v62q0 16 16 16z" />
    <glyph glyph-name="rho" unicode="&#x3c1;" horiz-adv-x="587" 
d="M307 526q235 0 235 -258v-39q0 -109 -59 -173t-160 -64q-78 0 -136 24v-194q0 -15 -15 -15h-86q-15 0 -15 15v457q0 247 236 247zM275 86q77 0 114 35t37 116v24q0 86 -28.5 128.5t-96.5 42.5q-114 0 -114 -141v-200q40 -5 88 -5z" />
    <glyph glyph-name="sigma1" unicode="&#x3c2;" horiz-adv-x="480" 
d="M45 243v35q0 116 63.5 182t191.5 66q87 0 143 -20q16 -5 16 -21v-50q0 -15 -17 -12q-46 9 -121 9q-84 0 -122 -39.5t-38 -120.5v-27q0 -144 167 -159q136 -13 136 -136q0 -63 -35.5 -96.5t-98.5 -33.5q-37 0 -67 10q-16 6 -16 18v44q0 14 14 12q19 -3 43 -3q46 0 46 47
q0 41 -40 45q-128 13 -196.5 79.5t-68.5 170.5z" />
    <glyph glyph-name="sigma" unicode="&#x3c3;" horiz-adv-x="583" 
d="M288 518h269q16 0 16 -16v-62q0 -16 -16 -16h-72q20 -22 33 -65.5t13 -90.5v-26q0 -123 -63 -186.5t-180 -63.5t-180 63.5t-63 186.5v26q0 123 63 186.5t180 63.5zM161 264v-18q0 -80 29.5 -120t97.5 -40t97.5 40t29.5 120v18q0 80 -29.5 120t-97.5 40t-97.5 -40
t-29.5 -120z" />
    <glyph glyph-name="tau" unicode="&#x3c4;" horiz-adv-x="485" 
d="M289 424v-258q0 -43 15.5 -61.5t57.5 -18.5q43 0 70 4q15 2 15 -12v-54q0 -14 -13 -18q-37 -14 -95 -14q-166 0 -166 166v266h-140q-16 0 -16 16v62q0 16 16 16h413q16 0 16 -16v-62q0 -16 -16 -16h-157z" />
    <glyph glyph-name="upsilon" unicode="&#x3c5;" horiz-adv-x="576" 
d="M355 496q-4 9 -0.5 15.5t13.5 6.5h69q15 0 23 -15q69 -129 69 -263q0 -248 -226 -248q-106 0 -162 57.5t-56 166.5v143q0 45 -7 60t-29 15h-19q-16 0 -16 14v48q0 15 15 20q26 10 62 10q110 0 110 -141v-152q0 -78 23.5 -112.5t79.5 -34.5q57 0 83 37t26 118
q0 125 -58 255z" />
    <glyph glyph-name="phi" unicode="&#x3c6;" horiz-adv-x="694" 
d="M45 255q0 67 26.5 139t73.5 125q10 10 23 5l59 -23q15 -6 5 -21q-71 -111 -71 -224q0 -76 27.5 -116t95.5 -52v255q0 88 43 135.5t126 47.5q92 0 144 -67t52 -201q0 -123 -61 -188.5t-188 -76.5v-170q0 -16 -16 -16h-85q-15 0 -15 16v170q-124 12 -181.5 76.5
t-57.5 185.5zM533 258q0 99 -19.5 136.5t-58.5 37.5q-30 0 -42.5 -24.5t-12.5 -76.5v-245q70 9 101.5 48.5t31.5 123.5z" />
    <glyph glyph-name="chi" unicode="&#x3c7;" horiz-adv-x="544" 
d="M271 62l-129 -242q-6 -13 -24 -13h-90q-9 0 -11.5 6t2.5 14l189 354l-169 317q-5 8 -2.5 14t11.5 6h90q18 0 24 -13l109 -205l110 205q7 13 24 13h90q9 0 11.5 -6t-2.5 -14l-169 -317l189 -354q5 -8 2.5 -14t-11.5 -6h-90q-17 0 -24 13z" />
    <glyph glyph-name="psi" unicode="&#x3c8;" horiz-adv-x="704" 
d="M62 266v236q0 16 16 16h85q15 0 15 -16v-232q0 -147 116 -175v407q0 16 16 16h85q15 0 15 -16v-407q116 28 116 175v232q0 16 16 16h85q15 0 15 -16v-236q0 -116 -61.5 -185t-170.5 -84v-174q0 -16 -15 -16h-85q-16 0 -16 16v174q-109 15 -170.5 84t-61.5 185z" />
    <glyph glyph-name="omega" unicode="&#x3c9;" horiz-adv-x="774" 
d="M346 428h82q17 0 17 -18v-144q0 -180 86 -180q80 0 80 173q0 115 -57 239q-4 8 -1 14t13 6h71q14 0 24 -17q28 -47 47 -113.5t19 -129.5q0 -266 -193 -266q-114 0 -147 105q-33 -105 -147 -105q-193 0 -193 266q0 63 19 129.5t47 113.5q10 17 24 17h71q10 0 13 -6t-1 -14
q-57 -124 -57 -239q0 -173 80 -173q86 0 86 180v144q0 18 17 18z" />
    <glyph glyph-name="iotadieresis" unicode="&#x3ca;" horiz-adv-x="357" 
d="M82 144v358q0 16 16 16h85q15 0 15 -16v-347q0 -40 17 -55t62 -15q20 0 48 4q16 3 16 -13v-53q0 -14 -16 -18q-46 -13 -99 -13q-144 0 -144 152zM306 711v-6q0 -43 -15 -81q-7 -17 -24 -17h-67q-15 0 -15 16v88q0 16 15 16h91q15 0 15 -16zM-22 623v6q0 43 15 81
q7 17 24 17h67q15 0 15 -16v-88q0 -16 -15 -16h-91q-15 0 -15 16z" />
    <glyph glyph-name="upsilondieresis" unicode="&#x3cb;" horiz-adv-x="576" 
d="M355 496q-4 9 -0.5 15.5t13.5 6.5h69q15 0 23 -15q69 -129 69 -263q0 -248 -226 -248q-106 0 -162 57.5t-56 166.5v143q0 45 -7 60t-29 15h-19q-16 0 -16 14v48q0 15 15 20q26 10 62 10q110 0 110 -141v-152q0 -78 23.5 -112.5t79.5 -34.5q57 0 83 37t26 118
q0 125 -58 255zM423 711v-6q0 -43 -15 -81q-7 -17 -24 -17h-67q-15 0 -15 16v88q0 16 15 16h91q15 0 15 -16zM95 623v6q0 43 15 81q7 17 24 17h67q15 0 15 -16v-88q0 -16 -15 -16h-91q-15 0 -15 16z" />
    <glyph glyph-name="omicrontonos" unicode="&#x3cc;" horiz-adv-x="576" 
d="M45 242v34q0 123 63 186.5t180 63.5t180 -63.5t63 -186.5v-34q0 -123 -63 -186.5t-180 -63.5t-180 63.5t-63 186.5zM161 272v-26q0 -80 29.5 -120t97.5 -40t97.5 40t29.5 120v26q0 80 -29.5 120t-97.5 40t-97.5 -40t-29.5 -120zM271 580q-10 -7 -20 0l-36 23q-11 7 -1 17
l117 134q10 12 24 3l55 -36q11 -8 0 -19q-70 -76 -139 -122z" />
    <glyph glyph-name="upsilontonos" unicode="&#x3cd;" horiz-adv-x="576" 
d="M355 496q-4 9 -0.5 15.5t13.5 6.5h69q15 0 23 -15q69 -129 69 -263q0 -248 -226 -248q-106 0 -162 57.5t-56 166.5v143q0 45 -7 60t-29 15h-19q-16 0 -16 14v48q0 15 15 20q26 10 62 10q110 0 110 -141v-152q0 -78 23.5 -112.5t79.5 -34.5q57 0 83 37t26 118
q0 125 -58 255zM260 580q-10 -7 -20 0l-36 23q-11 7 -1 17l117 134q10 12 24 3l55 -36q11 -8 0 -19q-70 -76 -139 -122z" />
    <glyph glyph-name="omegatonos" unicode="&#x3ce;" horiz-adv-x="774" 
d="M346 428h82q17 0 17 -18v-144q0 -180 86 -180q80 0 80 173q0 115 -57 239q-4 8 -1 14t13 6h71q14 0 24 -17q28 -47 47 -113.5t19 -129.5q0 -266 -193 -266q-114 0 -147 105q-33 -105 -147 -105q-193 0 -193 266q0 63 19 129.5t47 113.5q10 17 24 17h71q10 0 13 -6t-1 -14
q-57 -124 -57 -239q0 -173 80 -173q86 0 86 180v144q0 18 17 18zM385 580q-10 -7 -20 0l-36 23q-11 7 -1 17l117 134q10 12 24 3l55 -36q11 -8 0 -19q-70 -76 -139 -122z" />
    <glyph glyph-name="uni0400" unicode="&#x400;" horiz-adv-x="577" 
d="M85 133v434q0 82 35.5 113.5t131.5 31.5q132 0 242 -12q15 -2 15 -17v-56q0 -15 -15 -15h-233q-29 0 -41.5 -14.5t-12.5 -44.5v-144h266q16 0 16 -16v-69q0 -15 -16 -15h-266v-162q0 -30 12.5 -44.5t41.5 -14.5h243q15 0 15 -15v-56q0 -15 -15 -17q-101 -12 -252 -12
q-96 0 -131.5 31.5t-35.5 113.5zM335 754q-69 46 -139 122q-11 11 0 19l55 36q14 9 24 -3l117 -134q10 -10 -1 -17l-36 -23q-10 -7 -20 0z" />
    <glyph glyph-name="afii10023" unicode="&#x401;" horiz-adv-x="577" 
d="M85 133v434q0 82 35.5 113.5t131.5 31.5q132 0 242 -12q15 -2 15 -17v-56q0 -15 -15 -15h-233q-29 0 -41.5 -14.5t-12.5 -44.5v-144h266q16 0 16 -16v-69q0 -15 -16 -15h-266v-162q0 -30 12.5 -44.5t41.5 -14.5h243q15 0 15 -15v-56q0 -15 -15 -17q-101 -12 -252 -12
q-96 0 -131.5 31.5t-35.5 113.5zM475 885v-6q0 -43 -15 -81q-7 -17 -24 -17h-67q-15 0 -15 16v88q0 16 15 16h91q15 0 15 -16zM147 797v6q0 43 15 81q7 17 24 17h67q15 0 15 -16v-88q0 -16 -15 -16h-91q-15 0 -15 16z" />
    <glyph glyph-name="afii10051" unicode="&#x402;" horiz-adv-x="759" 
d="M595 203v26q0 60 -32.5 85.5t-104.5 25.5h-22q-55 0 -109 -8v-317q0 -15 -16 -15h-90q-16 0 -16 15v585h-175q-16 0 -16 15v69q0 16 16 16h473q16 0 16 -16v-69q0 -15 -16 -15h-176v-185q68 25 156 25h13q106 0 163.5 -50.5t57.5 -147.5v-41q0 -102 -48 -157.5
t-147 -55.5q-56 0 -99 17q-13 6 -13 19v57q0 14 13 12q40 -5 74 -5q54 0 76 28.5t22 86.5z" />
    <glyph glyph-name="afii10052" unicode="&#x403;" horiz-adv-x="545" 
d="M85 15v669q0 16 15 16h419q16 0 16 -16v-69q0 -15 -16 -15h-312v-585q0 -15 -15 -15h-92q-15 0 -15 15zM295 754q-10 -7 -20 0l-36 23q-11 7 -1 17l117 134q10 12 24 3l55 -36q11 -8 0 -19q-70 -76 -139 -122z" />
    <glyph glyph-name="afii10053" unicode="&#x404;" horiz-adv-x="567" 
d="M370 88q74 0 142 9q15 1 15 -13v-60q0 -11 -13 -15q-63 -21 -166 -21q-291 0 -291 342v39q0 166 68.5 254.5t221.5 88.5q81 0 157 -23q13 -4 13 -15v-58q0 -16 -15 -13q-59 9 -133 9q-95 0 -138.5 -49t-50.5 -154h288q16 0 16 -16v-69q0 -15 -16 -15h-289
q5 -114 49 -167.5t142 -53.5z" />
    <glyph glyph-name="afii10054" unicode="&#x405;" horiz-adv-x="550" 
d="M269 -12q-108 0 -200 21q-14 3 -14 15v60q0 15 17 14q100 -10 184 -10q65 0 94.5 22.5t29.5 68.5q0 38 -17.5 62.5t-57.5 43.5l-136 62q-116 54 -116 185q0 90 53.5 135t166.5 45q91 0 182 -22q14 -3 14 -15v-59q0 -15 -17 -14q-85 10 -161 10q-61 0 -88.5 -19t-27.5 -64
q0 -63 75 -98l134 -60q117 -53 117 -191q0 -94 -54 -143t-178 -49z" />
    <glyph glyph-name="afii10055" unicode="&#x406;" horiz-adv-x="312" 
d="M95 15v669q0 16 15 16h92q15 0 15 -16v-669q0 -15 -15 -15h-92q-15 0 -15 15z" />
    <glyph glyph-name="afii10056" unicode="&#x407;" horiz-adv-x="312" 
d="M95 15v669q0 16 15 16h92q15 0 15 -16v-669q0 -15 -15 -15h-92q-15 0 -15 15zM320 885v-6q0 -43 -15 -81q-7 -17 -24 -17h-67q-15 0 -15 16v88q0 16 15 16h91q15 0 15 -16zM-8 797v6q0 43 15 81q7 17 24 17h67q15 0 15 -16v-88q0 -16 -15 -16h-91q-15 0 -15 16z" />
    <glyph glyph-name="afii10057" unicode="&#x408;" horiz-adv-x="448" 
d="M198 -12q-107 0 -180 23q-13 4 -13 19v55q0 13 15 12q67 -9 139 -9q50 0 66 30.5t16 98.5v468q0 15 14 15h93q15 0 15 -15v-478q0 -109 -37 -164t-128 -55z" />
    <glyph glyph-name="afii10058" unicode="&#x409;" horiz-adv-x="995" 
d="M691 88q77 1 106.5 31t29.5 94q0 68 -31.5 98.5t-113.5 30.5q-48 0 -91 -6v-240q56 -8 100 -8zM29 4q-13 4 -13 19v58q0 13 15 12q45 -5 73 -5q40 0 55 15.5t15 55.5v526q0 15 15 15h387q15 0 15 -16v-248q55 6 112 6q130 0 188.5 -56.5t58.5 -170.5q0 -113 -57.5 -169.5
t-184.5 -57.5q-118 -2 -207 21q-32 8 -32 51v540h-173v-399q0 -120 -33 -166.5t-124 -46.5q-62 0 -110 16z" />
    <glyph glyph-name="afii10059" unicode="&#x40a;" horiz-adv-x="995" 
d="M469 410v275q0 15 15 15h92q15 0 15 -16v-248q55 6 112 6q130 0 188.5 -56.5t58.5 -170.5q0 -113 -57.5 -169.5t-184.5 -57.5q-118 -2 -207 21q-32 8 -32 51v250h-262v-296q0 -14 -15 -14h-93q-14 0 -14 14v671q0 15 14 15h93q15 0 15 -15v-275h262zM691 88
q77 1 106.5 31t29.5 94q0 68 -31.5 98.5t-113.5 30.5q-48 0 -91 -6v-240q56 -8 100 -8z" />
    <glyph glyph-name="afii10060" unicode="&#x40b;" horiz-adv-x="782" 
d="M476 440h12q224 -6 224 -198v-227q0 -15 -15 -15h-92q-15 0 -15 15v214q0 59 -32 85t-102 26h-22q-53 0 -107 -8v-317q0 -15 -16 -15h-90q-16 0 -16 15v585h-175q-16 0 -16 15v69q0 16 16 16h473q16 0 16 -16v-69q0 -15 -16 -15h-176v-185q66 25 149 25z" />
    <glyph glyph-name="afii10061" unicode="&#x40c;" horiz-adv-x="616" 
d="M461 700h106q7 0 10 -5.5t-2 -11.5l-245 -320l273 -346q5 -5 2.5 -11t-9.5 -6h-115q-13 0 -21 9l-253 332v-326q0 -15 -15 -15h-92q-15 0 -15 15v669q0 16 15 16h92q15 0 15 -16v-299l235 306q8 9 19 9zM295 754q-10 -7 -20 0l-36 23q-11 7 -1 17l117 134q10 12 24 3
l55 -36q11 -8 0 -19q-70 -76 -139 -122z" />
    <glyph glyph-name="uni040D" unicode="&#x40d;" horiz-adv-x="701" 
d="M207 686v-507l242 503q9 18 31 18h122q14 0 14 -15v-671q0 -14 -14 -14h-94q-14 0 -14 14v507l-242 -503q-9 -18 -31 -18h-122q-14 0 -14 15v671q0 14 14 14h94q14 0 14 -14zM352 754q-69 46 -139 122q-11 11 0 19l55 36q14 9 24 -3l117 -134q10 -10 -1 -17l-36 -23
q-10 -7 -20 0z" />
    <glyph glyph-name="afii10062" unicode="&#x40e;" horiz-adv-x="658" 
d="M451 293v391q0 16 16 16h90q16 0 16 -16v-501q0 -104 -55.5 -149.5t-191.5 -45.5q-112 0 -184 22q-13 4 -13 18v57q0 15 16 13q73 -10 162 -10q86 0 115 22t29 80v21q-64 -23 -154 -23q-104 0 -158 46t-54 156v294q0 16 16 16h90q16 0 16 -16v-256q0 -79 26.5 -109.5
t105.5 -30.5q72 0 112 5zM329 759q-75 0 -122.5 41t-47.5 108q0 13 14 13h46q14 0 15 -14q11 -69 95 -69t95 69q1 14 15 14h46q14 0 14 -13q0 -67 -47.5 -108t-122.5 -41z" />
    <glyph glyph-name="afii10145" unicode="&#x40f;" horiz-adv-x="720" 
d="M635 684v-669q0 -15 -15 -15h-199v-150q0 -16 -15 -16h-92q-15 0 -15 16v150h-199q-15 0 -15 15v669q0 16 15 16h92q15 0 15 -16v-584h306v584q0 16 15 16h92q15 0 15 -16z" />
    <glyph glyph-name="afii10017" unicode="&#x410;" horiz-adv-x="636" 
d="M252 700h132q21 0 27 -21l196 -661q5 -18 -12 -18h-94q-16 0 -19 12l-39 140h-250l-39 -140q-3 -12 -19 -12h-94q-17 0 -12 18l196 661q6 21 27 21zM318 600l-97 -348h194z" />
    <glyph glyph-name="afii10018" unicode="&#x411;" horiz-adv-x="611" 
d="M487 600h-280v-164q56 6 112 6q130 0 188.5 -56.5t58.5 -170.5q0 -113 -57.5 -169.5t-184.5 -57.5q-118 -2 -207 21q-32 8 -32 51v624q0 16 15 16h387q16 0 16 -16v-69q0 -15 -16 -15zM307 88q77 1 106.5 31t29.5 94q0 68 -31.5 98.5t-113.5 30.5q-48 0 -91 -6v-240
q56 -8 100 -8z" />
    <glyph glyph-name="afii10019" unicode="&#x412;" horiz-adv-x="640" 
d="M117 9q-32 8 -32 51v578q0 44 32 52q86 22 196 22q246 0 246 -197q0 -96 -77 -146q51 -21 78.5 -66t27.5 -105q0 -107 -59 -158.5t-195 -51.5t-217 21zM324 88q78 0 109.5 26.5t31.5 86.5q0 109 -112 109h-146v-213q50 -9 117 -9zM298 612q-50 0 -91 -11v-191h114
q63 0 90.5 24.5t27.5 74.5q0 56 -33 79.5t-108 23.5z" />
    <glyph glyph-name="afii10020" unicode="&#x413;" horiz-adv-x="545" 
d="M85 15v669q0 16 15 16h419q16 0 16 -16v-69q0 -15 -16 -15h-312v-585q0 -15 -15 -15h-92q-15 0 -15 15z" />
    <glyph glyph-name="afii10021" unicode="&#x414;" horiz-adv-x="643" 
d="M318 700h210q16 0 16 -16v-584h55q17 0 17 -17v-168q0 -15 -16 -15h-90q-16 0 -16 15v85h-355v-85q0 -15 -16 -15h-90q-16 0 -16 15v168q0 17 17 17h33q69 132 107 256t53 265q9 79 91 79zM341 575q-29 -242 -139 -475h220v500h-53q-25 0 -28 -25z" />
    <glyph glyph-name="afii10022" unicode="&#x415;" horiz-adv-x="577" 
d="M85 133v434q0 82 35.5 113.5t131.5 31.5q132 0 242 -12q15 -2 15 -17v-56q0 -15 -15 -15h-233q-29 0 -41.5 -14.5t-12.5 -44.5v-144h266q16 0 16 -16v-69q0 -15 -16 -15h-266v-162q0 -30 12.5 -44.5t41.5 -14.5h243q15 0 15 -15v-56q0 -15 -15 -17q-101 -12 -252 -12
q-96 0 -131.5 31.5t-35.5 113.5z" />
    <glyph glyph-name="afii10024" unicode="&#x416;" horiz-adv-x="832" 
d="M461 0h-90q-16 0 -16 15v326l-204 -331q-6 -10 -22 -10h-109q-7 0 -10 5t1 11l228 347l-189 320q-4 6 -1.5 11.5t9.5 5.5h102q13 0 19 -10l176 -305v299q0 16 16 16h90q16 0 16 -16v-299l176 305q6 10 19 10h102q7 0 9.5 -5.5t-1.5 -11.5l-189 -320l228 -347q4 -6 1 -11
t-10 -5h-109q-16 0 -22 10l-204 331v-326q0 -15 -16 -15z" />
    <glyph glyph-name="afii10025" unicode="&#x417;" horiz-adv-x="546" 
d="M236 310h-131q-16 0 -16 16v69q0 15 16 15h121q136 0 136 100q0 102 -136 102q-36 0 -148 -10q-17 -1 -17 14v61q0 13 12 16q71 19 171 19q109 0 174.5 -54t65.5 -144q0 -100 -86 -151q96 -51 96 -165q0 -96 -70.5 -153t-195.5 -57q-103 0 -171 18q-15 4 -15 17v60
q0 17 17 15q78 -10 149 -10q163 0 163 110q0 112 -135 112z" />
    <glyph glyph-name="afii10026" unicode="&#x418;" horiz-adv-x="701" 
d="M207 686v-507l242 503q9 18 31 18h122q14 0 14 -15v-671q0 -14 -14 -14h-94q-14 0 -14 14v507l-242 -503q-9 -18 -31 -18h-122q-14 0 -14 15v671q0 14 14 14h94q14 0 14 -14z" />
    <glyph glyph-name="afii10027" unicode="&#x419;" horiz-adv-x="701" 
d="M207 686v-507l242 503q9 18 31 18h122q14 0 14 -15v-671q0 -14 -14 -14h-94q-14 0 -14 14v507l-242 -503q-9 -18 -31 -18h-122q-14 0 -14 15v671q0 14 14 14h94q14 0 14 -14zM350 759q-75 0 -122.5 41t-47.5 108q0 13 14 13h46q14 0 15 -14q11 -69 95 -69t95 69
q1 14 15 14h46q14 0 14 -13q0 -67 -47.5 -108t-122.5 -41z" />
    <glyph glyph-name="afii10028" unicode="&#x41a;" horiz-adv-x="615" 
d="M461 700h106q7 0 10 -5.5t-2 -11.5l-245 -320l273 -346q5 -5 2.5 -11t-9.5 -6h-115q-13 0 -21 9l-253 332v-326q0 -15 -15 -15h-92q-15 0 -15 15v669q0 16 15 16h92q15 0 15 -16v-299l235 306q8 9 19 9z" />
    <glyph glyph-name="afii10029" unicode="&#x41b;" horiz-adv-x="713" 
d="M628 684v-669q0 -15 -15 -15h-92q-15 0 -15 15v585h-217v-399q0 -120 -33 -166.5t-124 -46.5q-62 0 -110 16q-13 4 -13 19v58q0 13 15 12q45 -5 73 -5q40 0 55 15.5t15 55.5v526q0 15 15 15h431q15 0 15 -16z" />
    <glyph glyph-name="afii10030" unicode="&#x41c;" horiz-adv-x="830" 
d="M447 189h-64q-22 0 -31 19l-145 310v-504q0 -14 -14 -14h-94q-14 0 -14 14v671q0 15 14 15h117q22 0 32 -19l167 -357l167 357q10 19 32 19h117q14 0 14 -15v-671q0 -14 -14 -14h-94q-14 0 -14 14v504l-145 -310q-9 -19 -31 -19z" />
    <glyph glyph-name="afii10031" unicode="&#x41d;" horiz-adv-x="678" 
d="M207 410h264v275q0 15 15 15h93q14 0 14 -15v-671q0 -14 -14 -14h-93q-15 0 -15 14v296h-264v-296q0 -14 -15 -14h-93q-14 0 -14 14v671q0 15 14 15h93q15 0 15 -15v-275z" />
    <glyph glyph-name="afii10032" unicode="&#x41e;" horiz-adv-x="692" 
d="M635 367v-34q0 -345 -289 -345t-289 345v34q0 345 289 345t289 -345zM513 337v26q0 131 -40 190t-127 59t-127 -59t-40 -190v-26q0 -131 40 -190t127 -59t127 59t40 190z" />
    <glyph glyph-name="afii10033" unicode="&#x41f;" horiz-adv-x="720" 
d="M635 684v-669q0 -15 -16 -15h-90q-16 0 -16 15v585h-306v-585q0 -15 -15 -15h-92q-15 0 -15 15v669q0 16 15 16h519q16 0 16 -16z" />
    <glyph glyph-name="afii10034" unicode="&#x420;" horiz-adv-x="612" 
d="M117 690q83 22 196 22q252 0 252 -211v-43q0 -102 -61.5 -156.5t-182.5 -54.5q-57 0 -114 6v-238q0 -15 -16 -15h-91q-15 0 -15 15v624q0 43 32 51zM207 602v-250q47 -5 90 -5q83 0 114.5 28.5t31.5 92.5v23q0 65 -32 93t-114 28q-50 0 -90 -10z" />
    <glyph glyph-name="afii10035" unicode="&#x421;" horiz-adv-x="567" 
d="M370 88q74 0 142 9q15 1 15 -13v-61q0 -11 -13 -15q-78 -20 -166 -20q-291 0 -291 342v39q0 166 68.5 254.5t221.5 88.5q87 0 157 -22q13 -4 13 -15v-59q0 -16 -15 -13q-59 9 -133 9q-104 0 -147 -59.5t-43 -189.5v-27q0 -128 44 -188t147 -60z" />
    <glyph glyph-name="afii10036" unicode="&#x422;" horiz-adv-x="534" 
d="M206 15v585h-176q-16 0 -16 15v69q0 16 16 16h474q16 0 16 -16v-69q0 -15 -16 -15h-176v-585q0 -15 -16 -15h-90q-16 0 -16 15z" />
    <glyph glyph-name="afii10037" unicode="&#x423;" horiz-adv-x="658" 
d="M451 293v391q0 16 16 16h90q16 0 16 -16v-501q0 -104 -55.5 -149.5t-191.5 -45.5q-112 0 -184 22q-13 4 -13 18v57q0 15 16 13q73 -10 162 -10q86 0 115 22t29 80v21q-64 -23 -154 -23q-104 0 -158 46t-54 156v294q0 16 16 16h90q16 0 16 -16v-256q0 -79 26.5 -109.5
t105.5 -30.5q72 0 112 5z" />
    <glyph glyph-name="afii10038" unicode="&#x424;" horiz-adv-x="734" 
d="M412 0h-90q-16 0 -16 15v86q-123 6 -197 67t-74 182t74 182t197 67v85q0 16 16 16h90q16 0 16 -16v-85q123 -6 197 -67t74 -182t-74 -182t-197 -67v-86q0 -15 -16 -15zM306 201v298q-149 -6 -149 -149t149 -149zM428 499v-298q149 6 149 149t-149 149z" />
    <glyph glyph-name="afii10039" unicode="&#x425;" horiz-adv-x="600" 
d="M300 467l136 219q8 14 23 14h96q10 0 13 -6t-2 -14l-199 -321l210 -338q6 -8 3 -14.5t-14 -6.5h-95q-16 0 -23 13l-148 238l-148 -238q-7 -13 -23 -13h-95q-11 0 -14 6.5t3 14.5l210 338l-199 321q-5 8 -2 14t13 6h96q15 0 23 -14z" />
    <glyph glyph-name="afii10040" unicode="&#x426;" horiz-adv-x="755" 
d="M734 85v-183q0 -16 -15 -16h-92q-15 0 -15 16v98h-512q-15 0 -15 15v669q0 16 15 16h92q15 0 15 -16v-584h306v584q0 16 16 16h90q16 0 16 -16v-584h84q15 0 15 -15z" />
    <glyph glyph-name="afii10041" unicode="&#x427;" horiz-adv-x="684" 
d="M477 304v380q0 16 15 16h92q15 0 15 -16v-669q0 -15 -15 -15h-92q-15 0 -15 15v208q-61 -24 -163 -24q-109 0 -169 49.5t-60 165.5v270q0 16 15 16h92q15 0 15 -16v-268q0 -117 144 -117q89 0 126 5z" />
    <glyph glyph-name="afii10042" unicode="&#x428;" horiz-adv-x="864" 
d="M493 684v-584h164v584q0 16 15 16h92q15 0 15 -16v-669q0 -15 -15 -15h-664q-15 0 -15 15v669q0 16 15 16h92q15 0 15 -16v-584h164v584q0 16 15 16h92q15 0 15 -16z" />
    <glyph glyph-name="afii10043" unicode="&#x429;" horiz-adv-x="896" 
d="M493 684v-584h164v584q0 16 15 16h91q14 0 16 -16v-584h82q15 0 15 -15v-183q0 -16 -15 -16h-92q-15 0 -15 16v98h-654q-15 0 -15 15v669q0 16 15 16h92q15 0 15 -16v-584h164v584q0 16 15 16h92q15 0 15 -16z" />
    <glyph glyph-name="afii10044" unicode="&#x42a;" horiz-adv-x="700" 
d="M296 684v-248q56 6 112 6q130 0 188.5 -56.5t58.5 -170.5q0 -113 -57.5 -169.5t-184.5 -57.5q-119 -2 -207 21q-32 8 -32 51v540h-150q-16 0 -16 15v69q0 16 16 16h257q15 0 15 -16zM396 88q77 1 106.5 31t29.5 94q0 68 -31.5 98.5t-113.5 30.5q-47 0 -91 -6v-240
q56 -8 100 -8z" />
    <glyph glyph-name="afii10045" unicode="&#x42b;" horiz-adv-x="864" 
d="M85 60v624q0 16 16 16h91q15 0 15 -16v-248q56 6 112 6q130 0 188.5 -56.5t58.5 -170.5q0 -113 -57.5 -169.5t-184.5 -57.5q-118 -2 -207 21q-32 8 -32 51zM307 88q77 1 106.5 31t29.5 94q0 68 -31.5 98.5t-113.5 30.5q-48 0 -91 -6v-240q56 -8 100 -8zM657 15v669
q0 16 15 16h92q15 0 15 -16v-669q0 -15 -15 -15h-92q-15 0 -15 15z" />
    <glyph glyph-name="afii10046" unicode="&#x42c;" horiz-adv-x="611" 
d="M85 60v624q0 16 16 16h91q15 0 15 -16v-248q56 6 112 6q130 0 188.5 -56.5t58.5 -170.5q0 -113 -57.5 -169.5t-184.5 -57.5q-118 -2 -207 21q-32 8 -32 51zM307 88q77 1 106.5 31t29.5 94q0 68 -31.5 98.5t-113.5 30.5q-48 0 -91 -6v-240q56 -8 100 -8z" />
    <glyph glyph-name="afii10047" unicode="&#x42d;" horiz-adv-x="567" 
d="M197 88q98 0 142 53.5t49 167.5h-289q-16 0 -16 15v69q0 16 16 16h288q-7 105 -50.5 154t-138.5 49q-74 0 -133 -9q-15 -3 -15 13v58q0 11 13 15q76 23 157 23q153 0 221.5 -88.5t68.5 -254.5v-39q0 -342 -291 -342q-103 0 -166 21q-13 4 -13 15v60q0 14 15 13
q68 -9 142 -9z" />
    <glyph glyph-name="afii10048" unicode="&#x42e;" horiz-adv-x="880" 
d="M207 684v-285h91q7 158 68.5 235.5t193.5 77.5q140 0 201.5 -88.5t61.5 -268.5v-10q0 -180 -61.5 -268.5t-201.5 -88.5q-131 0 -193 77.5t-69 233.5h-91v-284q0 -15 -15 -15h-92q-15 0 -15 15v669q0 16 15 16h92q15 0 15 -16zM419 354v-8q0 -136 32.5 -197t108.5 -61
t108.5 61t32.5 197v8q0 136 -32.5 197t-108.5 61t-108.5 -61t-32.5 -197z" />
    <glyph glyph-name="afii10049" unicode="&#x42f;" horiz-adv-x="640" 
d="M77 475v27q0 103 58.5 156.5t188.5 53.5q111 0 199 -22q32 -8 32 -51v-624q0 -15 -15 -15h-92q-15 0 -15 15v254q-48 -4 -109 -4h-17l-128 -249q-8 -16 -30 -16h-92q-7 0 -10.5 5t0.5 12l144 269q-114 45 -114 189zM340 365q52 0 93 4v233q-42 10 -93 10
q-80 0 -110.5 -27.5t-30.5 -87.5v-17q0 -59 30.5 -87t110.5 -28z" />
    <glyph glyph-name="afii10065" unicode="&#x430;" horiz-adv-x="578" 
d="M293 86q58 0 99 9v121q-48 9 -116 9q-65 0 -89.5 -16t-24.5 -54t27.5 -53.5t103.5 -15.5zM260 526q137 0 192.5 -46t55.5 -155v-263q0 -41 -29 -48q-83 -22 -203 -22q-126 0 -178 38.5t-52 124.5q0 80 48.5 121.5t138.5 41.5q89 0 159 -30v21q0 72 -30.5 97.5
t-125.5 25.5q-76 0 -123 -9q-17 -3 -17 12v50q0 16 16 21q56 20 148 20z" />
    <glyph glyph-name="afii10066" unicode="&#x431;" horiz-adv-x="589" 
d="M353 616q-130 -45 -159 -161q58 41 133 41q217 0 217 -252q0 -122 -60 -187t-173 -65q-138 0 -196 84.5t-58 246.5q0 311 275 390q88 25 182 25q16 0 16 -12v-58q0 -16 -20 -18q-80 -6 -157 -34zM310 402q-82 0 -136 -38q-1 -12 -1 -38q0 -131 32 -185.5t106 -54.5
q66 0 91.5 39.5t25.5 118.5q0 78 -26.5 118t-91.5 40z" />
    <glyph glyph-name="afii10067" unicode="&#x432;" horiz-adv-x="592" 
d="M101 9q-26 6 -26 41v417q0 35 29 41q85 18 198 18q224 0 224 -150q0 -69 -55 -100q79 -34 79 -125q0 -159 -229 -159q-146 0 -220 17zM305 86q67 0 98.5 14t31.5 52q0 69 -103 69h-141v-129q51 -6 114 -6zM282 432q-46 0 -91 -6v-111h112q55 0 81 14t26 47q0 30 -30 43
t-98 13z" />
    <glyph glyph-name="afii10068" unicode="&#x433;" horiz-adv-x="446" 
d="M90 518h332q16 0 16 -16v-62q0 -16 -16 -16h-231v-409q0 -15 -16 -15h-85q-15 0 -15 15v487q0 16 15 16z" />
    <glyph glyph-name="afii10069" unicode="&#x434;" horiz-adv-x="601" 
d="M201 444q8 74 95 74h194q14 0 14 -14v-410h51q15 0 15 -14v-166q0 -14 -14 -14h-89q-13 0 -13 14v86h-315v-86q0 -14 -14 -14h-88q-14 0 -14 14v166q0 14 15 14h33q105 177 130 350zM194 94h194v330h-56q-24 0 -28 -24q-31 -166 -110 -306z" />
    <glyph glyph-name="afii10070" unicode="&#x435;" horiz-adv-x="562" 
d="M331 86q72 0 133 9q17 3 17 -12v-50q0 -16 -16 -21q-63 -20 -152 -20q-140 0 -204 65t-64 194v26q0 120 62.5 184.5t182.5 64.5q111 0 169 -56.5t58 -153.5q0 -116 -142 -116h-211q8 -62 49.5 -88t117.5 -26zM161 294h206q34 0 34 30q0 108 -113 108q-123 0 -127 -138z
" />
    <glyph glyph-name="afii10072" unicode="&#x436;" horiz-adv-x="736" 
d="M410 0h-84q-16 0 -16 15v237l-171 -241q-8 -11 -22 -11h-94q-11 0 -13 7t5 15l183 251l-156 224q-14 21 9 21h92q14 0 21 -10l146 -217v211q0 16 16 16h84q16 0 16 -16v-211l146 217q7 10 21 10h92q23 0 9 -21l-156 -224l183 -251q7 -8 5 -15t-13 -7h-94q-14 0 -22 11
l-171 241v-237q0 -15 -16 -15z" />
    <glyph glyph-name="afii10073" unicode="&#x437;" horiz-adv-x="516" 
d="M177 86h36q66 0 93 15.5t27 49.5q0 32 -27.5 51.5t-75.5 19.5h-92q-16 0 -16 15v63q0 16 16 16h87q103 0 103 62q0 29 -26 41.5t-89 12.5h-22q-63 0 -126 -9q-17 -3 -17 12v50q0 16 16 21q65 20 147 20h15q111 0 164.5 -35t53.5 -108q0 -92 -93 -118q98 -27 98 -127
q0 -80 -57 -113t-164 -33h-24q-92 0 -154 20q-16 5 -16 21v50q0 15 17 12q59 -9 126 -9z" />
    <glyph glyph-name="afii10074" unicode="&#x438;" horiz-adv-x="617" 
d="M191 154l206 349q9 15 26 15h104q15 0 15 -15v-487q0 -16 -15 -16h-85q-16 0 -16 16v348l-206 -349q-9 -15 -26 -15h-104q-15 0 -15 15v487q0 16 15 16h85q16 0 16 -16v-348z" />
    <glyph glyph-name="afii10075" unicode="&#x439;" horiz-adv-x="617" 
d="M191 154l206 349q9 15 26 15h104q15 0 15 -15v-487q0 -16 -15 -16h-85q-16 0 -16 16v348l-206 -349q-9 -15 -26 -15h-104q-15 0 -15 15v487q0 16 15 16h85q16 0 16 -16v-348zM308 587q-75 0 -122.5 41t-47.5 108q0 13 14 13h46q14 0 15 -14q11 -69 95 -69t95 69
q1 14 15 14h46q14 0 14 -13q0 -67 -47.5 -108t-122.5 -41z" />
    <glyph glyph-name="afii10076" unicode="&#x43a;" horiz-adv-x="552" 
d="M510 497l-200 -224l228 -251q7 -8 5 -15t-12 -7h-111q-12 0 -21 10l-208 242v-237q0 -15 -16 -15h-85q-15 0 -15 15v487q0 16 15 16h85q16 0 16 -16v-210l193 216q8 10 21 10h97q11 0 13 -7t-5 -14z" />
    <glyph glyph-name="afii10077" unicode="&#x43b;" horiz-adv-x="606" 
d="M24 6q-16 5 -16 21v51q0 14 17 12q36 -4 68 -4q42 0 55.5 17t13.5 55v342q0 18 17 18h335q17 0 17 -18v-485q0 -15 -16 -15h-85q-15 0 -15 15v409h-137v-259q0 -96 -33.5 -134.5t-119.5 -38.5q-56 0 -101 14z" />
    <glyph glyph-name="afii10078" unicode="&#x43c;" horiz-adv-x="718" 
d="M384 161h-50q-11 0 -20 13l-123 189v-348q0 -15 -16 -15h-85q-15 0 -15 15v487q0 16 15 16h90q17 0 25 -13l154 -242l154 242q8 13 25 13h90q15 0 15 -16v-487q0 -15 -15 -15h-85q-16 0 -16 15v348l-123 -189q-9 -13 -20 -13z" />
    <glyph glyph-name="afii10079" unicode="&#x43d;" horiz-adv-x="607" 
d="M416 15v216h-225v-216q0 -15 -16 -15h-85q-15 0 -15 15v487q0 16 15 16h85q16 0 16 -16v-177h225v177q0 16 15 16h85q16 0 16 -16v-487q0 -15 -16 -15h-85q-15 0 -15 15z" />
    <glyph glyph-name="afii10080" unicode="&#x43e;" horiz-adv-x="576" 
d="M45 242v34q0 123 63 186.5t180 63.5t180 -63.5t63 -186.5v-34q0 -123 -63 -186.5t-180 -63.5t-180 63.5t-63 186.5zM161 272v-26q0 -80 29.5 -120t97.5 -40t97.5 40t29.5 120v26q0 80 -29.5 120t-97.5 40t-97.5 -40t-29.5 -120z" />
    <glyph glyph-name="afii10081" unicode="&#x43f;" horiz-adv-x="590" 
d="M90 518h409q16 0 16 -16v-487q0 -15 -16 -15h-85q-15 0 -15 15v409h-208v-409q0 -15 -16 -15h-85q-15 0 -15 15v487q0 16 15 16z" />
    <glyph glyph-name="afii10082" unicode="&#x440;" horiz-adv-x="592" 
d="M327 -8q-81 0 -136 25v-195q0 -15 -15 -15h-87q-14 0 -14 15v634q0 38 29 47q72 23 168 23q139 0 207 -69.5t68 -187.5v-39q0 -107 -59 -172.5t-161 -65.5zM191 423v-332q40 -5 89 -5q77 0 114 35.5t37 115.5v25q0 82 -41 126t-119 44q-45 0 -80 -9z" />
    <glyph glyph-name="afii10083" unicode="&#x441;" horiz-adv-x="506" 
d="M305 -8q-133 0 -196.5 65t-63.5 182v39q0 116 63.5 182t191.5 66q87 0 143 -20q16 -5 16 -21v-50q0 -15 -17 -12q-46 9 -121 9q-84 0 -122 -39.5t-38 -120.5v-27q0 -81 38.5 -120t124.5 -39q70 0 124 9q17 3 17 -12v-50q0 -16 -16 -21q-56 -20 -144 -20z" />
    <glyph glyph-name="afii10084" unicode="&#x442;" horiz-adv-x="511" 
d="M198 424h-166q-16 0 -16 16v62q0 16 16 16h448q15 0 15 -16v-62q0 -16 -15 -16h-166v-409q0 -15 -16 -15h-85q-15 0 -15 15v409z" />
    <glyph glyph-name="afii10085" unicode="&#x443;" horiz-adv-x="605" 
d="M299 -200q-93 0 -166 21q-14 5 -14 16v55q0 15 16 12q68 -10 146 -10q76 0 104.5 25.5t28.5 82.5v22q-61 -24 -144 -24q-95 0 -145 47t-50 155v300q0 16 15 16h85q16 0 16 -16v-291q0 -62 27.5 -89.5t94.5 -27.5q61 0 101 5v403q0 16 16 16h85q15 0 15 -16v-504
q0 -105 -52.5 -151.5t-178.5 -46.5z" />
    <glyph glyph-name="afii10086" unicode="&#x444;" horiz-adv-x="904" 
d="M595 432q-45 0 -85 -5v-331q40 -10 83 -10q72 0 111 44.5t39 125.5v25q0 80 -36 115.5t-112 35.5zM409 730h86q15 0 15 -15v-214q55 25 133 25q101 0 158.5 -65.5t57.5 -172.5v-39q0 -117 -66 -187t-196 -70q-47 0 -87 9v-179q0 -15 -15 -15h-86q-15 0 -15 15v179
q-40 -9 -87 -9q-130 0 -196 70t-66 187v39q0 107 57.5 172.5t158.5 65.5q78 0 133 -25v214q0 15 15 15zM309 432q-76 0 -112 -35.5t-36 -115.5v-25q0 -81 39 -125.5t111 -44.5q43 0 83 10v331q-40 5 -85 5z" />
    <glyph glyph-name="afii10087" unicode="&#x445;" horiz-adv-x="543" 
d="M271 361l106 144q10 13 25 13h93q9 0 11.5 -7t-2.5 -13l-167 -227l186 -252q5 -6 2.5 -12.5t-11.5 -6.5h-93q-16 0 -25 12l-125 169l-124 -169q-9 -12 -25 -12h-93q-9 0 -11.5 6.5t2.5 12.5l185 252l-166 227q-5 6 -2.5 13t11.5 7h93q15 0 25 -13z" />
    <glyph glyph-name="afii10088" unicode="&#x446;" horiz-adv-x="628" 
d="M608 79v-168q0 -15 -14 -15h-81q-15 0 -15 15v89h-408q-15 0 -15 15v487q0 16 15 16h85q16 0 16 -16v-408h208v408q0 16 15 16h85q16 0 16 -16v-408h79q14 0 14 -15z" />
    <glyph glyph-name="afii10089" unicode="&#x447;" horiz-adv-x="595" 
d="M404 272v230q0 16 16 16h85q15 0 15 -16v-487q0 -15 -15 -15h-85q-16 0 -16 15v183q-58 -24 -132 -24q-103 0 -150 47t-47 164v117q0 16 16 16h85q15 0 15 -16v-118q0 -65 24 -91t93 -26q57 0 96 5z" />
    <glyph glyph-name="afii10090" unicode="&#x448;" horiz-adv-x="744" 
d="M191 502v-408h122v408q0 16 16 16h87q15 0 15 -16v-408h122v408q0 16 15 16h85q16 0 16 -16v-487q0 -15 -16 -15h-563q-15 0 -15 15v487q0 16 15 16h85q16 0 16 -16z" />
    <glyph glyph-name="afii10091" unicode="&#x449;" horiz-adv-x="782" 
d="M191 502v-408h122v408q0 16 16 16h87q15 0 15 -16v-408h122v408q0 16 15 16h85q16 0 16 -16v-408h79q14 0 14 -15v-168q0 -15 -14 -15h-81q-15 0 -15 15v89h-562q-15 0 -15 15v487q0 16 15 16h85q16 0 16 -16z" />
    <glyph glyph-name="afii10092" unicode="&#x44a;" horiz-adv-x="640" 
d="M265 502v-161q60 5 100 5q120 0 175 -40t55 -137q0 -96 -54.5 -136.5t-170.5 -40.5q-108 0 -189 20q-32 8 -32 50v362h-127q-16 0 -16 16v62q0 16 16 16h228q15 0 15 -16zM354 86q68 0 96.5 17.5t28.5 63.5q0 50 -29.5 68t-104.5 18q-38 0 -80 -5v-154q42 -8 89 -8z" />
    <glyph glyph-name="afii10093" unicode="&#x44b;" horiz-adv-x="789" 
d="M75 62v440q0 16 16 16h85q15 0 15 -16v-161q60 5 100 5q120 0 175 -40t55 -137q0 -96 -54.5 -136.5t-170.5 -40.5q-108 0 -189 20q-32 8 -32 50zM280 86q68 0 96.5 17.5t28.5 63.5q0 50 -29.5 68t-104.5 18q-38 0 -80 -5v-154q42 -8 89 -8zM598 15v487q0 16 15 16h85
q16 0 16 -16v-487q0 -15 -16 -15h-85q-15 0 -15 15z" />
    <glyph glyph-name="afii10094" unicode="&#x44c;" horiz-adv-x="566" 
d="M75 62v440q0 16 16 16h85q15 0 15 -16v-161q60 5 100 5q120 0 175 -40t55 -137q0 -96 -54.5 -136.5t-170.5 -40.5q-108 0 -189 20q-32 8 -32 50zM280 86q68 0 96.5 17.5t28.5 63.5q0 50 -29.5 68t-104.5 18q-38 0 -80 -5v-154q42 -8 89 -8z" />
    <glyph glyph-name="afii10095" unicode="&#x44d;" horiz-adv-x="506" 
d="M94 306h253q-13 126 -158 126q-75 0 -121 -9q-17 -3 -17 12v50q0 16 16 21q56 20 143 20q128 0 191.5 -66t63.5 -182v-39q0 -117 -63.5 -182t-196.5 -65q-88 0 -144 20q-16 5 -16 21v50q0 15 17 12q54 -9 124 -9q77 0 116 31t46 96h-254q-15 0 -15 15v63q0 15 15 15z" />
    <glyph glyph-name="afii10096" unicode="&#x44e;" horiz-adv-x="754" 
d="M191 502v-197h67q12 221 225 221q226 0 226 -250v-34q0 -250 -226 -250q-211 0 -225 219h-67v-196q0 -15 -16 -15h-85q-15 0 -15 15v487q0 16 15 16h85q16 0 16 -16zM593 246v26q0 84 -22.5 122t-87.5 38t-87.5 -38t-22.5 -122v-26q0 -84 22.5 -122t87.5 -38t87.5 38
t22.5 122z" />
    <glyph glyph-name="afii10097" unicode="&#x44f;" horiz-adv-x="565" 
d="M291 526q102 -2 171 -16q28 -6 28 -38v-461q0 -11 -13 -11h-91q-12 0 -12 11v181q-33 -4 -82 -4q-22 0 -34 1l-96 -170q-11 -19 -34 -19h-84q-18 0 -9 17l115 192q-90 37 -90 153q0 164 231 164zM294 282q47 0 80 4v140q-34 6 -80 6q-66 0 -92 -18t-26 -58
q0 -37 26 -55.5t92 -18.5z" />
    <glyph glyph-name="uni0450" unicode="&#x450;" horiz-adv-x="562" 
d="M331 86q72 0 133 9q17 3 17 -12v-50q0 -16 -16 -21q-63 -20 -152 -20q-140 0 -204 65t-64 194v26q0 120 62.5 184.5t182.5 64.5q111 0 169 -56.5t58 -153.5q0 -116 -142 -116h-211q8 -62 49.5 -88t117.5 -26zM161 294h206q34 0 34 30q0 108 -113 108q-123 0 -127 -138z
M294 580q-69 46 -139 122q-11 11 0 19l55 36q14 9 24 -3l117 -134q10 -10 -1 -17l-36 -23q-10 -7 -20 0z" />
    <glyph glyph-name="afii10071" unicode="&#x451;" horiz-adv-x="562" 
d="M331 86q72 0 133 9q17 3 17 -12v-50q0 -16 -16 -21q-63 -20 -152 -20q-140 0 -204 65t-64 194v26q0 120 62.5 184.5t182.5 64.5q111 0 169 -56.5t58 -153.5q0 -116 -142 -116h-211q8 -62 49.5 -88t117.5 -26zM161 294h206q34 0 34 30q0 108 -113 108q-123 0 -127 -138z
M449 711v-6q0 -43 -15 -81q-7 -17 -24 -17h-67q-15 0 -15 16v88q0 16 15 16h91q15 0 15 -16zM121 623v6q0 43 15 81q7 17 24 17h67q15 0 15 -16v-88q0 -16 -15 -16h-91q-15 0 -15 16z" />
    <glyph glyph-name="afii10099" unicode="&#x452;" horiz-adv-x="609" 
d="M539 323v-343q0 -91 -29.5 -135t-112.5 -44q-52 0 -81 13q-14 6 -14 19v52q0 7 3 10.5t9 2.5q28 -4 46 -4q33 0 48 15t15 50v356q0 63 -27.5 90t-94.5 27q-63 0 -101 -5v-412q0 -15 -16 -15h-85q-15 0 -15 15v575h-58q-16 0 -16 16v41q0 15 16 15h58v52q0 16 15 16h85
q16 0 16 -16v-52h167q15 0 15 -15v-41q0 -16 -15 -16h-167v-89q63 25 144 25q95 0 145 -47t50 -156z" />
    <glyph glyph-name="afii10100" unicode="&#x453;" horiz-adv-x="446" 
d="M90 518h332q16 0 16 -16v-62q0 -16 -16 -16h-231v-409q0 -15 -16 -15h-85q-15 0 -15 15v487q0 16 15 16zM233 580q-10 -7 -20 0l-36 23q-11 7 -1 17l117 134q10 12 24 3l55 -36q11 -8 0 -19q-70 -76 -139 -122z" />
    <glyph glyph-name="afii10101" unicode="&#x454;" horiz-adv-x="506" 
d="M159 306h253q15 0 15 -15v-63q0 -15 -15 -15h-254q7 -65 46 -96t116 -31q70 0 124 9q17 3 17 -12v-50q0 -16 -16 -21q-56 -20 -144 -20q-133 0 -196.5 65t-63.5 182v39q0 116 63.5 182t191.5 66q87 0 143 -20q16 -5 16 -21v-50q0 -15 -17 -12q-47 9 -121 9
q-145 0 -158 -126z" />
    <glyph glyph-name="afii10102" unicode="&#x455;" horiz-adv-x="481" 
d="M224 325l95 -38q117 -46 117 -148q0 -70 -51.5 -108.5t-138.5 -38.5q-101 0 -183 20q-13 3 -13 16v55q0 13 16 12q80 -10 167 -10t87 57q0 39 -58 63l-93 37q-119 47 -119 142q0 72 49 107t137 35q94 0 158 -21q13 -4 13 -16v-54q0 -16 -17 -13q-56 10 -142 10
q-43 0 -62.5 -10.5t-19.5 -39.5q0 -20 13.5 -32.5t44.5 -24.5z" />
    <glyph glyph-name="afii10103" unicode="&#x456;" horiz-adv-x="286" 
d="M85 15v487q0 16 15 16h85q16 0 16 -16v-487q0 -15 -16 -15h-85q-15 0 -15 15zM206 699v-5q0 -43 -15 -81q-7 -19 -27 -19h-64q-15 0 -15 16v89q0 16 15 16h91q15 0 15 -16z" />
    <glyph glyph-name="afii10104" unicode="&#x457;" horiz-adv-x="286" 
d="M85 15v487q0 16 15 16h85q16 0 16 -16v-487q0 -15 -16 -15h-85q-15 0 -15 15zM307 711v-6q0 -43 -15 -81q-7 -17 -24 -17h-67q-15 0 -15 16v88q0 16 15 16h91q15 0 15 -16zM-21 623v6q0 43 15 81q7 17 24 17h67q15 0 15 -16v-88q0 -16 -15 -16h-91q-15 0 -15 16z" />
    <glyph glyph-name="afii10105" unicode="&#x458;" horiz-adv-x="299" 
d="M214 502v-527q0 -40 -5 -68t-19.5 -54t-44 -39.5t-74.5 -13.5q-51 0 -92 14q-16 5 -16 22v49q0 15 14 13q38 -4 58 -4q36 0 49.5 16.5t13.5 54.5v537q0 16 16 16h85q15 0 15 -16zM219 699v-5q0 -43 -15 -81q-7 -19 -27 -19h-64q-15 0 -15 16v89q0 16 15 16h91
q15 0 15 -16z" />
    <glyph glyph-name="afii10106" unicode="&#x459;" horiz-adv-x="846" 
d="M592 85q50 2 71.5 19.5t21.5 62.5q0 49 -22.5 67.5t-79.5 18.5q-30 0 -60 -3v-158q32 -7 69 -7zM407 62v362h-129v-259q0 -96 -33.5 -134.5t-119.5 -38.5q-56 0 -101 14q-16 5 -16 21v51q0 14 17 12q36 -4 68 -4q42 0 55.5 17t13.5 55v342q0 18 17 18h328q16 0 16 -16
v-161q42 5 78 5q101 0 150.5 -43t49.5 -134q0 -177 -195 -177q-99 0 -168 20q-31 9 -31 50z" />
    <glyph glyph-name="afii10107" unicode="&#x45a;" horiz-adv-x="824" 
d="M385 322v180q0 16 15 16h85q16 0 16 -16v-161q42 5 78 5q101 0 150.5 -43t49.5 -134q0 -177 -195 -177q-99 0 -168 20q-31 9 -31 50v167h-194v-214q0 -15 -16 -15h-85q-15 0 -15 15v487q0 16 15 16h85q16 0 16 -16v-180h194zM570 85q50 2 71.5 19.5t21.5 62.5
q0 49 -22.5 67.5t-79.5 18.5q-30 0 -60 -3v-158q32 -7 69 -7z" />
    <glyph glyph-name="afii10108" unicode="&#x45b;" horiz-adv-x="609" 
d="M200 662h167q15 0 15 -15v-41q0 -16 -15 -16h-167v-89q63 25 144 25q95 0 145 -47t50 -156v-308q0 -15 -15 -15h-85q-16 0 -16 15v300q0 63 -27.5 90t-94.5 27q-63 0 -101 -5v-412q0 -15 -16 -15h-85q-15 0 -15 15v575h-58q-16 0 -16 16v41q0 15 16 15h58v52q0 16 15 16
h85q16 0 16 -16v-52z" />
    <glyph glyph-name="afii10109" unicode="&#x45c;" horiz-adv-x="552" 
d="M510 497l-200 -224l228 -251q7 -8 5 -15t-12 -7h-111q-12 0 -21 10l-208 242v-237q0 -15 -16 -15h-85q-15 0 -15 15v487q0 16 15 16h85q16 0 16 -16v-210l193 216q8 10 21 10h97q11 0 13 -7t-5 -14zM268 580q-10 -7 -20 0l-36 23q-11 7 -1 17l117 134q10 12 24 3l55 -36
q11 -8 0 -19q-70 -76 -139 -122z" />
    <glyph glyph-name="uni045D" unicode="&#x45d;" horiz-adv-x="617" 
d="M191 154l206 349q9 15 26 15h104q15 0 15 -15v-487q0 -16 -15 -16h-85q-16 0 -16 16v348l-206 -349q-9 -15 -26 -15h-104q-15 0 -15 15v487q0 16 15 16h85q16 0 16 -16v-348zM325 580q-69 46 -139 122q-11 11 0 19l55 36q14 9 24 -3l117 -134q10 -10 -1 -17l-36 -23
q-10 -7 -20 0z" />
    <glyph glyph-name="afii10110" unicode="&#x45e;" horiz-adv-x="605" 
d="M299 -200q-93 0 -166 21q-14 5 -14 16v55q0 15 16 12q68 -10 146 -10q76 0 104.5 25.5t28.5 82.5v22q-61 -24 -144 -24q-95 0 -145 47t-50 155v300q0 16 15 16h85q16 0 16 -16v-291q0 -62 27.5 -89.5t94.5 -27.5q61 0 101 5v403q0 16 16 16h85q15 0 15 -16v-504
q0 -105 -52.5 -151.5t-178.5 -46.5zM299 587q-75 0 -122.5 41t-47.5 108q0 13 14 13h46q14 0 15 -14q11 -69 95 -69t95 69q1 14 15 14h46q14 0 14 -13q0 -67 -47.5 -108t-122.5 -41z" />
    <glyph glyph-name="afii10193" unicode="&#x45f;" horiz-adv-x="589" 
d="M236 0h-146q-15 0 -15 15v487q0 16 15 16h85q16 0 16 -16v-408h207v408q0 16 15 16h85q16 0 16 -16v-487q0 -15 -16 -15h-146v-88q0 -16 -16 -16h-85q-15 0 -15 16v88z" />
    <glyph glyph-name="afii10050" unicode="&#x490;" horiz-adv-x="547" 
d="M85 15v669q0 16 15 16h313v107q0 16 16 16h90q16 0 16 -16v-192q0 -15 -16 -15h-312v-585q0 -15 -15 -15h-92q-15 0 -15 15z" />
    <glyph glyph-name="afii10098" unicode="&#x491;" horiz-adv-x="457" 
d="M75 15v487q0 16 15 16h239v116q0 16 16 16h85q15 0 15 -16v-194q0 -16 -16 -16h-238v-409q0 -15 -16 -15h-85q-15 0 -15 15z" />
    <glyph glyph-name="Wgrave" unicode="&#x1e80;" horiz-adv-x="918" 
d="M898 680l-153 -659q-4 -21 -27 -21h-131q-22 0 -26 20l-102 527l-102 -527q-4 -20 -26 -20h-131q-23 0 -27 21l-153 659q-5 20 12 20h85q17 0 20 -16l126 -584l114 582q3 18 23 18h118q20 0 23 -18l114 -582l126 584q3 16 20 16h85q17 0 12 -20zM458 754q-69 46 -139 122
q-11 11 0 19l55 36q14 9 24 -3l117 -134q10 -10 -1 -17l-36 -23q-10 -7 -20 0z" />
    <glyph glyph-name="wgrave" unicode="&#x1e81;" horiz-adv-x="782" 
d="M345 518h92q19 0 24 -19l99 -392l87 398q3 13 18 13h83q16 0 12 -18l-119 -478q-5 -22 -29 -22h-105q-23 0 -29 22l-87 362l-87 -362q-6 -22 -29 -22h-105q-24 0 -29 22l-119 478q-4 18 12 18h83q15 0 18 -13l87 -398l99 392q5 19 24 19zM387 580q-69 46 -139 122
q-11 11 0 19l55 36q14 9 24 -3l117 -134q10 -10 -1 -17l-36 -23q-10 -7 -20 0z" />
    <glyph glyph-name="Wacute" unicode="&#x1e82;" horiz-adv-x="918" 
d="M898 680l-153 -659q-4 -21 -27 -21h-131q-22 0 -26 20l-102 527l-102 -527q-4 -20 -26 -20h-131q-23 0 -27 21l-153 659q-5 20 12 20h85q17 0 20 -16l126 -584l114 582q3 18 23 18h118q20 0 23 -18l114 -582l126 584q3 16 20 16h85q17 0 12 -20zM460 754q-10 -7 -20 0
l-36 23q-11 7 -1 17l117 134q10 12 24 3l55 -36q11 -8 0 -19q-70 -76 -139 -122z" />
    <glyph glyph-name="wacute" unicode="&#x1e83;" horiz-adv-x="782" 
d="M345 518h92q19 0 24 -19l99 -392l87 398q3 13 18 13h83q16 0 12 -18l-119 -478q-5 -22 -29 -22h-105q-23 0 -29 22l-87 362l-87 -362q-6 -22 -29 -22h-105q-24 0 -29 22l-119 478q-4 18 12 18h83q15 0 18 -13l87 -398l99 392q5 19 24 19zM395 580q-10 -7 -20 0l-36 23
q-11 7 -1 17l117 134q10 12 24 3l55 -36q11 -8 0 -19q-70 -76 -139 -122z" />
    <glyph glyph-name="Wdieresis" unicode="&#x1e84;" horiz-adv-x="918" 
d="M898 680l-153 -659q-4 -21 -27 -21h-131q-22 0 -26 20l-102 527l-102 -527q-4 -20 -26 -20h-131q-23 0 -27 21l-153 659q-5 20 12 20h85q17 0 20 -16l126 -584l114 582q3 18 23 18h118q20 0 23 -18l114 -582l126 584q3 16 20 16h85q17 0 12 -20zM623 885v-6
q0 -43 -15 -81q-7 -17 -24 -17h-67q-15 0 -15 16v88q0 16 15 16h91q15 0 15 -16zM295 797v6q0 43 15 81q7 17 24 17h67q15 0 15 -16v-88q0 -16 -15 -16h-91q-15 0 -15 16z" />
    <glyph glyph-name="wdieresis" unicode="&#x1e85;" horiz-adv-x="782" 
d="M345 518h92q19 0 24 -19l99 -392l87 398q3 13 18 13h83q16 0 12 -18l-119 -478q-5 -22 -29 -22h-105q-23 0 -29 22l-87 362l-87 -362q-6 -22 -29 -22h-105q-24 0 -29 22l-119 478q-4 18 12 18h83q15 0 18 -13l87 -398l99 392q5 19 24 19zM555 711v-6q0 -43 -15 -81
q-7 -17 -24 -17h-67q-15 0 -15 16v88q0 16 15 16h91q15 0 15 -16zM227 623v6q0 43 15 81q7 17 24 17h67q15 0 15 -16v-88q0 -16 -15 -16h-91q-15 0 -15 16z" />
    <glyph glyph-name="Ygrave" unicode="&#x1ef2;" horiz-adv-x="606" 
d="M583 676l-219 -434v-227q0 -15 -15 -15h-91q-16 0 -16 15v227l-219 434q-5 10 -3 17t12 7h90q15 0 22 -15l159 -323l159 323q7 15 22 15h90q10 0 12 -7t-3 -17zM310 754q-69 46 -139 122q-11 11 0 19l55 36q14 9 24 -3l117 -134q10 -10 -1 -17l-36 -23q-10 -7 -20 0z" />
    <glyph glyph-name="ygrave" unicode="&#x1ef3;" horiz-adv-x="605" 
d="M299 -200q-93 0 -166 21q-14 5 -14 16v55q0 15 16 12q68 -10 146 -10q76 0 104.5 25.5t28.5 82.5v22q-61 -24 -144 -24q-95 0 -145 47t-50 155v300q0 16 15 16h85q16 0 16 -16v-291q0 -62 27.5 -89.5t94.5 -27.5q61 0 101 5v403q0 16 16 16h85q15 0 15 -16v-504
q0 -105 -52.5 -151.5t-178.5 -46.5zM303 580q-69 46 -139 122q-11 11 0 19l55 36q14 9 24 -3l117 -134q10 -10 -1 -17l-36 -23q-10 -7 -20 0z" />
    <glyph glyph-name="uni2010" unicode="&#x2010;" horiz-adv-x="430" 
d="M78 385h274q16 0 16 -16v-77q0 -15 -16 -15h-274q-16 0 -16 15v77q0 16 16 16z" />
    <glyph glyph-name="figuredash" unicode="&#x2012;" horiz-adv-x="580" 
d="M55 383h469q16 0 16 -15v-72q0 -15 -16 -15h-469q-15 0 -15 15v72q0 15 15 15z" />
    <glyph glyph-name="endash" unicode="&#x2013;" horiz-adv-x="500" 
d="M15 383h469q16 0 16 -15v-72q0 -15 -16 -15h-469q-15 0 -15 15v72q0 15 15 15z" />
    <glyph glyph-name="emdash" unicode="&#x2014;" 
d="M15 383h969q16 0 16 -15v-72q0 -15 -16 -15h-969q-15 0 -15 15v72q0 15 15 15z" />
    <glyph glyph-name="afii00208" unicode="&#x2015;" 
d="M115 383h769q16 0 16 -15v-72q0 -15 -16 -15h-769q-15 0 -15 15v72q0 15 15 15z" />
    <glyph glyph-name="uni2016" unicode="&#x2016;" horiz-adv-x="448" 
d="M183 733v-847q0 -16 -16 -16h-58q-16 0 -16 16v847q0 16 16 16h58q16 0 16 -16zM355 733v-847q0 -16 -15 -16h-59q-15 0 -15 16v847q0 16 15 16h59q15 0 15 -16z" />
    <glyph glyph-name="underscoredbl" unicode="&#x2017;" horiz-adv-x="599" 
d="M61 -27h477q15 0 15 -16v-49q0 -15 -15 -15h-477q-15 0 -15 15v49q0 16 15 16zM61 -141h477q15 0 15 -15v-50q0 -15 -15 -15h-477q-15 0 -15 15v50q0 15 15 15z" />
    <glyph glyph-name="quoteleft" unicode="&#x2018;" horiz-adv-x="278" 
d="M182 768l41 -23q9 -5 4 -16q-30 -54 -30 -108q0 -17 4 -37q6 -30 6 -46v-19q0 -15 -15 -15h-101q-15 0 -15 15v25q0 122 87 223q8 8 19 1z" />
    <glyph glyph-name="quoteright" unicode="&#x2019;" horiz-adv-x="278" 
d="M96 508l-41 23q-9 5 -4 16q30 54 30 108q0 17 -4 37q-6 30 -6 46v19q0 15 15 15h101q15 0 15 -15v-25q0 -122 -87 -223q-8 -8 -19 -1z" />
    <glyph glyph-name="quotesinglbase" unicode="&#x201a;" horiz-adv-x="278" 
d="M96 -125l-41 23q-9 5 -4 16q30 54 30 108q0 17 -4 37q-6 30 -6 46v19q0 15 15 15h101q15 0 15 -15v-25q0 -122 -87 -223q-8 -8 -19 -1z" />
    <glyph glyph-name="quotereversed" unicode="&#x201b;" horiz-adv-x="278" 
d="M223 531l-41 -23q-11 -7 -19 1q-87 101 -87 223v25q0 15 15 15h101q15 0 15 -15v-19q0 -16 -6 -46q-4 -20 -4 -37q0 -54 30 -108q5 -11 -4 -16z" />
    <glyph glyph-name="quotedblleft" unicode="&#x201c;" horiz-adv-x="467" 
d="M182 768l41 -23q9 -5 4 -16q-30 -54 -30 -108q0 -17 4 -37q6 -30 6 -46v-19q0 -15 -15 -15h-101q-15 0 -15 15v25q0 122 87 223q8 8 19 1zM371 768l41 -23q9 -5 4 -16q-30 -54 -30 -108q0 -17 4 -37q6 -30 6 -46v-19q0 -15 -15 -15h-101q-15 0 -15 15v25q0 122 87 223
q8 8 19 1z" />
    <glyph glyph-name="quotedblright" unicode="&#x201d;" horiz-adv-x="467" 
d="M96 508l-41 23q-9 5 -4 16q30 54 30 108q0 17 -4 37q-6 30 -6 46v19q0 15 15 15h101q15 0 15 -15v-25q0 -122 -87 -223q-8 -8 -19 -1zM285 508l-41 23q-9 5 -4 16q30 54 30 108q0 17 -4 37q-6 30 -6 46v19q0 15 15 15h101q15 0 15 -15v-25q0 -122 -87 -223q-8 -8 -19 -1z
" />
    <glyph glyph-name="quotedblbase" unicode="&#x201e;" horiz-adv-x="467" 
d="M96 -125l-41 23q-9 5 -4 16q30 54 30 108q0 17 -4 37q-6 30 -6 46v19q0 15 15 15h101q15 0 15 -15v-25q0 -122 -87 -223q-8 -8 -19 -1zM285 -125l-41 23q-9 5 -4 16q30 54 30 108q0 17 -4 37q-6 30 -6 46v19q0 15 15 15h101q15 0 15 -15v-25q0 -122 -87 -223
q-8 -8 -19 -1z" />
    <glyph glyph-name="uni201F" unicode="&#x201f;" horiz-adv-x="467" 
d="M223 531l-41 -23q-11 -7 -19 1q-87 101 -87 223v25q0 15 15 15h101q15 0 15 -15v-19q0 -16 -6 -46q-4 -20 -4 -37q0 -54 30 -108q5 -11 -4 -16zM412 531l-41 -23q-11 -7 -19 1q-87 101 -87 223v25q0 15 15 15h101q15 0 15 -15v-19q0 -16 -6 -46q-4 -20 -4 -37
q0 -54 30 -108q5 -11 -4 -16z" />
    <glyph glyph-name="dagger" unicode="&#x2020;" horiz-adv-x="598" 
d="M91 587h150v147q0 15 15 15h85q16 0 16 -15v-147h150q16 0 16 -15v-64q0 -15 -16 -15h-150v-607q0 -16 -16 -16h-85q-15 0 -15 16v607h-150q-16 0 -16 15v64q0 15 16 15z" />
    <glyph glyph-name="daggerdbl" unicode="&#x2021;" horiz-adv-x="598" 
d="M91 587h150v147q0 15 15 15h85q16 0 16 -15v-147h150q16 0 16 -15v-64q0 -15 -16 -15h-150v-367h150q16 0 16 -15v-64q0 -15 -16 -15h-150v-146q0 -16 -16 -16h-85q-15 0 -15 16v146h-150q-16 0 -16 15v64q0 15 16 15h150v367h-150q-16 0 -16 15v64q0 15 16 15z" />
    <glyph glyph-name="bullet" unicode="&#x2022;" horiz-adv-x="459" 
d="M100 332q0 62 33.5 96t95.5 34t96 -34t34 -96q0 -63 -34 -97t-96 -34t-95.5 34t-33.5 97z" />
    <glyph glyph-name="onedotenleader" unicode="&#x2024;" horiz-adv-x="278" 
d="M187 0h-79q-16 0 -23 20q-14 44 -14 93v11q0 15 15 15h101q15 0 15 -15v-109q0 -15 -15 -15z" />
    <glyph glyph-name="twodotenleader" unicode="&#x2025;" horiz-adv-x="556" 
d="M187 0h-79q-16 0 -23 20q-14 44 -14 93v11q0 15 15 15h101q15 0 15 -15v-109q0 -15 -15 -15zM465 0h-79q-16 0 -23 20q-14 44 -14 93v11q0 15 15 15h101q15 0 15 -15v-109q0 -15 -15 -15z" />
    <glyph glyph-name="ellipsis" unicode="&#x2026;" horiz-adv-x="834" 
d="M187 0h-79q-16 0 -23 20q-14 44 -14 93v11q0 15 15 15h101q15 0 15 -15v-109q0 -15 -15 -15zM743 0h-79q-16 0 -23 20q-14 44 -14 93v11q0 15 15 15h101q15 0 15 -15v-109q0 -15 -15 -15zM465 0h-79q-16 0 -23 20q-14 44 -14 93v11q0 15 15 15h101q15 0 15 -15v-109
q0 -15 -15 -15z" />
    <glyph glyph-name="perthousand" unicode="&#x2030;" horiz-adv-x="998" 
d="M580 681l-378 -668q-8 -13 -24 -13h-61q-19 0 -9 19l378 668q8 13 24 13h61q19 0 9 -19zM27 513v26q0 81 36 125t107 44t107 -44t36 -125v-26q0 -81 -36 -125t-107 -44t-107 44t-36 125zM115 535v-18q0 -46 12 -68t43 -22t43 22t12 68v18q0 46 -12 68t-43 22t-43 -22
t-12 -68zM375 161v26q0 81 36 125t107 44t107 -44t36 -125v-26q0 -81 -36 -125t-107 -44t-107 44t-36 125zM463 183v-18q0 -46 12 -68t43 -22t43 22t12 68v18q0 46 -12 68t-43 22t-43 -22t-12 -68zM685 161v26q0 81 36 125t107 44t107 -44t36 -125v-26q0 -81 -36 -125
t-107 -44t-107 44t-36 125zM773 183v-18q0 -46 12 -68t43 -22t43 22t12 68v18q0 46 -12 68t-43 22t-43 -22t-12 -68z" />
    <glyph glyph-name="minute" unicode="&#x2032;" horiz-adv-x="334" 
d="M145 432q-5 -9 -17 -9h-51q-17 0 -12 16l76 246q4 15 25 15h76q19 0 14 -18q-32 -119 -111 -250z" />
    <glyph glyph-name="second" unicode="&#x2033;" horiz-adv-x="530" 
d="M145 432q-5 -9 -17 -9h-51q-17 0 -12 16l76 246q4 15 25 15h76q19 0 14 -18q-32 -119 -111 -250zM341 432q-5 -9 -17 -9h-51q-17 0 -12 16l76 246q4 15 25 15h76q19 0 14 -18q-32 -119 -111 -250z" />
    <glyph glyph-name="guilsinglleft" unicode="&#x2039;" horiz-adv-x="346" 
d="M285 438l-148 -128l148 -128q8 -8 2 -18l-16 -25q-7 -12 -21 -3q-109 72 -173 136q-10 10 -10 20v36q0 10 10 20q64 64 173 136q14 9 21 -3l16 -25q6 -10 -2 -18z" />
    <glyph glyph-name="guilsinglright" unicode="&#x203a;" horiz-adv-x="346" 
d="M209 310l-148 128q-8 8 -2 18l16 25q7 12 21 3q109 -72 173 -136q10 -10 10 -20v-36q0 -10 -10 -20q-64 -64 -173 -136q-14 -9 -21 3l-16 25q-6 10 2 18z" />
    <glyph glyph-name="exclamdbl" unicode="&#x203c;" horiz-adv-x="477" 
d="M166 185h-59q-15 0 -17 18l-16 318v163q0 16 15 16h95q15 0 15 -16v-163l-16 -318q-1 -18 -17 -18zM73 102v12q0 15 15 15h96q15 0 15 -15v-100q0 -14 -14 -14h-77q-18 0 -23 17q-12 40 -12 85zM371 185h-59q-16 0 -17 18l-16 318v163q0 16 15 16h95q15 0 15 -16v-163
l-16 -318q-2 -18 -17 -18zM278 102v12q0 15 15 15h96q15 0 15 -15v-100q0 -14 -14 -14h-77q-18 0 -23 17q-12 40 -12 85z" />
    <glyph glyph-name="uni203E" unicode="&#x203e;" horiz-adv-x="420" 
d="M71 690h278q15 0 15 -15v-54q0 -15 -15 -15h-278q-15 0 -15 15v54q0 15 15 15z" />
    <glyph glyph-name="fraction" unicode="&#x2044;" horiz-adv-x="453" 
d="M-5 -1l379 705q6 11 18 11h56q17 0 10 -14l-379 -705q-6 -11 -18 -11h-56q-17 0 -10 14z" />
    <glyph glyph-name="zerosuperior" unicode="&#x2070;" horiz-adv-x="404" 
d="M31 469q0 125 36 182t135 57t135 -57t36 -182t-36 -182t-135 -57t-135 57t-36 182zM125 469q0 -93 16 -127t61 -34t61 34t16 127t-16 127t-61 34t-61 -34t-16 -127z" />
    <glyph glyph-name="uni2071" unicode="&#x2071;" horiz-adv-x="404" 
d="M153 247v319q0 11 10 11h73q11 0 11 -11v-319q0 -10 -11 -10h-73q-10 0 -10 10zM251 693v-6q0 -27 -13 -59q-5 -11 -14 -11h-61q-10 0 -10 10v66q0 11 10 11h77q11 0 11 -11z" />
    <glyph glyph-name="foursuperior" unicode="&#x2074;" horiz-adv-x="404" 
d="M235 251v69h-193q-14 0 -14 14v53q0 8 3 17q47 150 113 283q6 13 22 13h63q9 0 11.5 -6t-1.5 -14q-78 -161 -110 -282h106v127q0 14 14 14h67q13 0 13 -14v-127h40q15 0 15 -14v-51q0 -13 -15 -13h-40v-69q0 -14 -13 -14h-67q-14 0 -14 14z" />
    <glyph glyph-name="fivesuperior" unicode="&#x2075;" horiz-adv-x="404" 
d="M63 244q-14 5 -14 17v41q0 16 15 13q46 -8 92 -8q99 0 99 63v12q0 62 -78 62h-93q-26 0 -24 24l15 210q1 22 26 22h228q14 0 14 -14v-51q0 -13 -14 -13h-170l-8 -100h39q78 0 118.5 -35t40.5 -100v-17q0 -66 -44.5 -103.5t-133.5 -37.5q-65 0 -108 15z" />
    <glyph glyph-name="sixsuperior" unicode="&#x2076;" horiz-adv-x="404" 
d="M201 451q-29 0 -63 -3v-73q0 -68 66 -68q71 0 71 74v9q0 31 -16.5 46t-57.5 15zM314 696q17 -5 17 -17v-41q0 -14 -15 -13q-35 5 -85 5q-52 0 -72.5 -24.5t-20.5 -74.5v-15q36 13 84 13q147 0 147 -133v-19q0 -71 -43 -109.5t-119 -38.5q-81 0 -122 38t-41 108v148
q0 85 41 135t128 50q58 0 101 -12z" />
    <glyph glyph-name="sevensuperior" unicode="&#x2077;" horiz-adv-x="404" 
d="M56 700h290q14 0 14 -14v-31q0 -26 -8 -40q-106 -176 -157 -361q-5 -17 -21 -17h-58q-22 0 -16 22q53 187 160 363h-204q-14 0 -14 14v50q0 14 14 14z" />
    <glyph glyph-name="eightsuperior" unicode="&#x2078;" horiz-adv-x="404" 
d="M140 580q0 -44 87 -75q37 24 37 71q0 54 -62 54t-62 -50zM174 444q-50 -17 -50 -80q0 -57 78 -57q42 0 60 14t18 43q0 24 -25.5 43t-80.5 37zM358 577q0 -70 -57 -103q73 -40 73 -112q0 -133 -172 -133t-172 133q0 82 72 117q-56 36 -56 101q0 63 40.5 95.5t115.5 32.5
q156 0 156 -131z" />
    <glyph glyph-name="ninesuperior" unicode="&#x2079;" horiz-adv-x="404" 
d="M203 486q29 0 63 3v73q0 68 -66 68q-71 0 -71 -74v-9q0 -31 16.5 -46t57.5 -15zM90 241q-17 5 -17 17v41q0 15 15 13q35 -5 85 -5q52 0 72.5 24.5t20.5 74.5v15q-36 -13 -84 -13q-147 0 -147 133v19q0 71 43 109.5t119 38.5q81 0 122 -38t41 -108v-148q0 -85 -41 -135
t-128 -50q-58 0 -101 12z" />
    <glyph glyph-name="uni207A" unicode="&#x207a;" horiz-adv-x="404" 
d="M158 507v111q0 14 14 14h59q15 0 15 -14v-111h108q14 0 14 -15v-43q0 -14 -14 -14h-108v-111q0 -14 -15 -14h-59q-14 0 -14 14v111h-108q-14 0 -14 14v43q0 15 14 15h108z" />
    <glyph glyph-name="uni207B" unicode="&#x207b;" horiz-adv-x="404" 
d="M50 507h304q14 0 14 -15v-43q0 -14 -14 -14h-304q-14 0 -14 14v43q0 15 14 15z" />
    <glyph glyph-name="uni207C" unicode="&#x207c;" horiz-adv-x="404" 
d="M50 570h304q14 0 14 -15v-43q0 -14 -14 -14h-304q-14 0 -14 14v43q0 15 14 15zM50 443h304q14 0 14 -15v-43q0 -14 -14 -14h-304q-14 0 -14 14v43q0 15 14 15z" />
    <glyph glyph-name="uni207D" unicode="&#x207d;" horiz-adv-x="404" 
d="M120 468q0 139 53.5 213.5t138.5 74.5q11 0 11 -9v-38q0 -7 -10 -10q-47 -12 -73 -64t-26 -167t26 -167t73 -64q10 -3 10 -10v-38q0 -9 -11 -9q-85 0 -138.5 74.5t-53.5 213.5z" />
    <glyph glyph-name="uni207E" unicode="&#x207e;" horiz-adv-x="404" 
d="M283 468q0 -139 -53.5 -213.5t-138.5 -74.5q-11 0 -11 9v38q0 7 10 10q47 12 73 64t26 167t-26 167t-73 64q-10 3 -10 10v38q0 9 11 9q85 0 138.5 -74.5t53.5 -213.5z" />
    <glyph glyph-name="uni207F" unicode="&#x207f;" horiz-adv-x="404" 
d="M133 493v-243q0 -14 -13 -14h-67q-14 0 -14 14v276q0 30 24 36q60 15 139 15q86 0 124.5 -32.5t38.5 -105.5v-189q0 -14 -13 -14h-67q-14 0 -14 14v178q0 40 -16 55.5t-60 15.5q-29 0 -62 -6z" />
    <glyph glyph-name="zeroinferior" unicode="&#x2080;" horiz-adv-x="404" 
d="M31 106q0 125 36 182t135 57t135 -57t36 -182t-36 -182t-135 -57t-135 57t-36 182zM125 106q0 -93 16 -127t61 -34t61 34t16 127t-16 127t-61 34t-61 -34t-16 -127z" />
    <glyph glyph-name="oneinferior" unicode="&#x2081;" horiz-adv-x="404" 
d="M247 -126h-66q-14 0 -14 14v375h-11q-32 0 -72 -5q-14 -2 -14 13v38q0 13 12 16q66 14 136 14h28q15 0 15 -14v-437q0 -14 -14 -14z" />
    <glyph glyph-name="twoinferior" unicode="&#x2082;" horiz-adv-x="404" 
d="M336 -126h-284q-14 0 -14 12v48q0 50 23 85t78 68q66 40 91 63.5t25 60.5q0 30 -19 43t-65 13q-53 0 -99 -8q-6 -1 -9.5 3t-3.5 11v41q0 13 14 17q51 14 109 14q91 0 129 -33t38 -104q0 -92 -91 -145q-76 -44 -100.5 -65.5t-24.5 -45.5h203q13 0 13 -12v-54
q0 -12 -13 -12z" />
    <glyph glyph-name="threeinferior" unicode="&#x2083;" horiz-adv-x="404" 
d="M50 -51q45 -7 101 -7q102 0 102 67q0 36 -20.5 50.5t-65.5 14.5h-91q-13 0 -13 12v54q0 12 13 12h84q45 0 66 13t21 44t-20.5 44.5t-63.5 13.5q-51 0 -100 -7q-15 -2 -15 13v41q0 13 14 17q45 14 112 14q75 0 121 -33t46 -100q0 -63 -55 -97q61 -34 61 -107
q0 -67 -47 -104.5t-136 -37.5h-14q-56 0 -101 12q-14 4 -14 17v41q0 14 15 13z" />
    <glyph glyph-name="fourinferior" unicode="&#x2084;" horiz-adv-x="404" 
d="M235 -112v69h-193q-14 0 -14 14v53q0 8 3 17q47 150 113 283q6 13 22 13h63q9 0 11.5 -6.5t-1.5 -13.5q-78 -161 -110 -282h106v127q0 14 14 14h67q13 0 13 -14v-127h40q15 0 15 -14v-51q0 -13 -15 -13h-40v-69q0 -14 -13 -14h-67q-14 0 -14 14z" />
    <glyph glyph-name="fiveinferior" unicode="&#x2085;" horiz-adv-x="404" 
d="M63 -119q-14 5 -14 17v41q0 16 15 13q46 -8 92 -8q99 0 99 63v12q0 62 -78 62h-93q-26 0 -24 24l15 210q1 22 26 22h228q14 0 14 -14v-51q0 -13 -14 -13h-170l-8 -100h39q78 0 118.5 -35t40.5 -100v-17q0 -66 -44.5 -103.5t-133.5 -37.5q-65 0 -108 15z" />
    <glyph glyph-name="sixinferior" unicode="&#x2086;" horiz-adv-x="404" 
d="M201 88q-29 0 -63 -3v-73q0 -68 66 -68q71 0 71 74v9q0 31 -16.5 46t-57.5 15zM314 333q17 -5 17 -17v-41q0 -15 -15 -13q-35 5 -85 5q-52 0 -72.5 -24.5t-20.5 -74.5v-15q36 13 84 13q147 0 147 -133v-19q0 -71 -43 -109.5t-119 -38.5q-81 0 -122 38t-41 108v148
q0 85 41 135t128 50q58 0 101 -12z" />
    <glyph glyph-name="seveninferior" unicode="&#x2087;" horiz-adv-x="404" 
d="M56 337h290q14 0 14 -14v-31q0 -26 -8 -40q-106 -176 -157 -361q-5 -17 -21 -17h-58q-22 0 -16 22q53 187 160 363h-204q-14 0 -14 14v50q0 14 14 14z" />
    </font>
</defs>
</svg>
