<?xml version="1.0" encoding="UTF-8" standalone="no"?>
<svg
   xmlns:dc="http://purl.org/dc/elements/1.1/"
   xmlns:cc="http://creativecommons.org/ns#"
   xmlns:rdf="http://www.w3.org/1999/02/22-rdf-syntax-ns#"
   xmlns:svg="http://www.w3.org/2000/svg"
   xmlns="http://www.w3.org/2000/svg"
   viewBox="0 0 215.00003 172.92822"
   height="172.92822"
   width="215.00003"
   version="1.1"
   id="svg3682">
  <metadata
     id="metadata3688">
    <rdf:RDF>
      <cc:Work
         rdf:about="">
        <dc:format>image/svg+xml</dc:format>
        <dc:type
           rdf:resource="http://purl.org/dc/dcmitype/StillImage" />
        <dc:title></dc:title>
      </cc:Work>
    </rdf:RDF>
  </metadata>
  <defs
     id="defs3686" />
  <path
     id="path3692"
     d="m 2,170.7298 c -1.1,-1.1 -2,-2.675 -2,-3.5 0,-0.825 0.9,-2.4 2,-3.5 1.833333,-1.83333 3.333333,-2 18,-2 l 15.999998,0 0.158898,-17.3178 -0.158898,-16.6822 -11.499998,0 c -10.166667,0 -11.731884,-0.23188 -13.5,-2 -2.530753,-2.53075 -2.530753,-4.46925 0,-7 1.767611,-1.76761 3.333333,-2 13.475035,-2 l 11.475033,0 0.27497,-54.434911 0.27496,-54.4349221 2.91495,-3.041966 c 5.38994,-5.62481101 13.35764,-6.414716 19.10478,-1.894014 5.62724,4.426388 5.48027,2.076566 5.48027,87.6187021 0,75.144891 -0.0865,78.955441 -1.82874,80.532121 -1.61057,1.45754 -5.18967,1.65499 -30,1.65499 -26.837925,0 -28.265917,-0.0947 -30.171258,-2 z M 54.605614,90.496409 c 0,0 -0.40588,-64.108797 -0.355202,-72.650136 0.0291,-4.905433 -2.706241,-8.2295821 -3.865619,-8.1281051 -4.508623,0.3946231 -4.652578,-5.067378 -4.92985,53.6127711 l -0.247195,52.314621 0.140285,6.62352 L 22.595359,121.98257 11.5,122.2298 l 8.370676,-0.65164 24.634672,0.61236 c 1.750967,-0.03 0.862095,0.005 0.814758,3.95501 l 0.144015,18.87398 0.251979,12.64885 -0.106938,2.23906 c 0,0 -0.05434,3.67946 1.218799,4.22401 2.701445,1.15544 2.557484,-0.9458 2.557484,-0.9458 l 4.805231,0.0526 z m -8.891896,72.613781 c -0.39254,-0.39255 -0.71372,-34.58158 -0.71372,-75.975631 0,-67.086572 0.1707,-75.432593 1.57143,-76.833325 2.08998,-2.0899771 4.74293,-1.9865391 6.77995,0.264348 1.52243,1.682263 1.63992,8.142165 1.40499,77.249997 l -0.25637,75.414221 -14.682466,4.42841 c -2.13113,0.64277 6.288736,-4.15546 5.896186,-4.54802 z m 8.04279,-74.548171 c 0.16158,-45.773714 -0.10683,-73.623439 -0.72525,-75.249992 -1.04445,-2.747115 -3.81067,-3.4028111 -5.83126,-1.382222 -0.91181,0.911816 -1.2,19.057859 -1.2,75.560364 l -0.158898,74.042561 3.908898,0.007 3.75,-0.31037 z m 58.238932,82.880711 c -4.99829,-1.41931 -12.295992,-6.10521 -15.738832,-10.10598 -2.15175,-2.50047 -2.67109,-2.60695 -12.71481,-2.60695 -9.62506,0 -10.56257,-0.17029 -11.59901,-2.10689 -0.79627,-1.48786 -1.00121,-11.55094 -0.69751,-34.25 0.38931,-29.096821 0.6365,-32.901291 2.60829,-40.143111 8.27623,-30.396204 30.296832,-52.841512 60.451552,-61.617458 5.58556,-1.625567 11.05623,-2.210373 24.45801,-2.614518 19.93048,-0.601024 24.02589,0.147608 30.33084,5.544415 7.51979,6.436661 7.85907,8.066719 7.88407,37.879121 l 0.022,26.19155 6.25,4.71927 c 3.4375,2.5956 7.4875,5.85609 9,7.24554 l 2.75,2.526261 0,27.11291 c 0,19.75449 -0.32568,27.43859 -1.2,28.31291 -0.66,0.66 -2.73437,1.2 -4.60972,1.2 -2.83885,0 -4.35404,0.97055 -9.05,5.79695 -10.74095,11.03929 -23.3002,11.20824 -33.88266,0.45581 -4.98695,-5.06706 -5.54915,-5.35523 -11.53846,-5.91452 l -6.29607,-0.58794 -4.34711,4.1767 c -8.79481,8.45005 -21.25036,11.86127 -32.08054,8.78593 z m 22.24127,-13.37523 c 2.6013,-1.25927 4.84252,-5.47573 7.01968,-7.71915 3.86794,-3.98565 2.38774,-0.90903 9.95404,-1.25264 6.47237,-0.29392 16.86869,-0.38049 18.02444,1.09095 8.04347,10.24047 2.02003,11.45917 17.87807,12.12208 4.20211,0.17566 2.8765,-1.01164 5.29332,-3.32872 2.68587,-2.57502 4.20123,-4.25525 4.27172,-8.20891 0.0779,-4.3697 -2.41003,-8.70277 -0.4527,-8.52648 1.25615,0.11314 9.38227,0.35541 9.40572,-13.3583 l 0.0364,-21.27779 -3.89195,-4.48858 c -11.07162,-8.302161 -9.53319,-6.514631 -15.17373,-9.414431 l 1.00954,-32.91582 c 0.22319,-7.277223 -0.25304,-15.312612 -0.46132,-20.40017 -0.0999,-2.440452 -0.0305,-7.055656 -2.24258,-8.430259 -6.0668,-3.769996 -3.76261,-4.572424 -21.66738,-4.027889 -14.09111,0.42855 -15.56013,-0.843911 -18.66289,-0.04147 -15.79541,4.085037 -27.07704,8.283357 -38.51982,19.52129 -12.191762,11.973498 -21.958242,26.147008 -24.610722,42.682998 -0.57345,3.575 -0.88714,16.865951 -0.8913,32.934101 -0.007,27.86451 -0.2359,24.89295 0.25828,26.59534 1.06384,0.56935 0.27541,8.10615 5.43367,8.10615 9.16381,0 17.152502,-3.26656 20.022312,-0.26681 9.14722,9.5613 16.55624,6.12847 27.96723,0.60451 z m -24.08735,5.16805 c -8.77291,-4.23509 -12.149362,-13.39666 -12.149362,-22.77306 0,-10.09509 5.012422,-17.77099 14.179882,-21.71472 10.39909,-4.47357 23.38228,-0.96731 29.56487,9.0328 2.63068,4.25502 1.75525,6.22827 1.75525,12.44923 0,6.22096 -0.39576,7.79696 -3.02644,12.05198 -6.31521,10.21462 -20.01332,15.9313 -30.3242,10.95377 z m 18.83266,-3.5827 c 2.46511,-1.11816 5.34139,-2.79578 6.39173,-3.72804 2.97973,-2.64472 6.60798,-11.27999 6.59452,-15.69501 -0.0128,-4.20042 -2.89848,-11.63484 -5.77326,-14.87375 -2.57968,-2.90645 -11.23247,-6.60552 -15.47713,-6.61648 -11.29479,-0.0292 -20.717882,9.7452 -20.717882,21.49023 0,15.57104 15.125972,25.7081 28.982022,19.42305 z M 177.5,162.77031 c -1.1,-0.45799 -3.32125,-2.22901 -4.93612,-3.93559 -2.40408,-2.54063 -3.01367,-4.17514 -3.36414,-9.02026 -0.415,-5.73736 -0.30934,-6.04461 3.47337,-10.09988 6.595,-7.07018 15.26517,-6.60057 21.81334,1.18149 2.43056,2.88856 2.67952,3.86247 2.3063,9.02222 -0.44913,6.20911 -1.06229,9.78607 -6.40411,12.56542 -2.96252,1.5414 -9.76303,1.58797 -12.88864,0.2866 z m 11.58755,-3.32053 c 4.51761,-3.04441 6.08671,-6.29331 5.56967,-11.53225 -1.0684,-10.82569 -13.47175,-14.71874 -20.6925,-6.49477 -2.86629,3.26452 -3.14082,4.12258 -2.72004,8.50165 0.95138,9.90118 10.06534,14.76665 17.84287,9.52537 z m -48.48697,-7.82874 c -0.0828,-0.44124 2.56804,-3.44887 2.49202,-7.84887 -0.2231,-12.9136 -2.43559,-18.96444 -12.46869,-23.59419 -2.23744,-1.03247 -11.13522,-2.645 -11.13053,-3.195 0.005,-0.55 13.66601,-11.12818 17.4436,-15.25318 l 6.86835,-7.500001 22.94024,-0.30227 22.94024,-0.30228 8.15709,6.04812 8.1571,6.048121 -0.0703,19.75415 c -0.0426,11.96466 -0.17081,21.1901 -0.69135,19.97874 -0.85943,-2 -6.18253,-1.36441 -8.57947,-1.74789 -1.34523,-0.21521 -2.19793,-0.71041 -2.95213,-3.07871 -0.61123,-1.91935 -2.09244,-1.83608 -4.63603,-3.83646 -2.60408,-2.04795 -15.92841,1.47589 -18.28515,6.56653 -1.91624,4.13918 0.25064,7.50638 -2.46487,7.32838 l -6.96296,6.85289 -5.17887,-7.00706 c -1.69588,-2.29454 -15.49553,1.53018 -15.57829,1.08898 z m 18.8166,-4.14124 c 0.19492,-0.6875 0.89076,-3.21889 1.5463,-5.6253 1.54283,-5.66359 8.96646,-13.2138 14.65254,-14.90238 9.20006,-2.73211 16.8469,-0.8062 23.63398,5.95238 l 4.75,4.73006 0,-15.35772 0,-15.35773 -6.75,-4.96336 -6.75,-4.963361 -22.5,-0.55792 -22.5,-0.55793 -6.25,6.376281 c -3.4375,3.50696 -6.25,6.79434 -6.25,7.30531 0,0.51097 1.35348,1.48966 3.00773,2.17487 4.70698,1.9497 10.93897,8.6458 13.81274,14.84142 2.14975,4.63468 2.62828,7.14437 2.65136,13.90538 l 0.0282,8.25 3.28138,0 c 1.80477,0 3.44087,-0.5625 3.6358,-1.25 z m -79.417182,-12.87005 0,-15.12005 10.77012,-21.999651 18.238342,-18.0272 9.94704,4.76695 c 5.99431,2.87267 -0.61051,3.5576 -7.32827,-3.16011 -6.78422,-6.78423 -2.12727,-12.95665 -2.12727,-6.10753 l 2.46292,6.32134 -15.782702,11.762 c -8.31693,6.19816 -14.59897,25.268341 -15.38559,25.268341 -1.88781,0 -1.26317,-18.959391 0.60939,-28.746071 C 86.800268,61.365659 107.68127,38.419735 136,29.572839 c 6.69908,-2.092822 9.42222,-2.343034 25.5,-2.343034 16.4344,0 18.23456,0.173956 20.69681,2 5.68795,4.218286 5.93266,5.659319 5.60385,33.000004 l -0.14176,31.83262 -9.79119,0.76187 c -8.70819,0.67761 -17.11452,0.12105 -17.6455,-1.26265 -0.34345,-0.895 7.16714,-15.936 9.21315,-24.39373 2.04601,-8.45772 -0.53896,-13.45781 -0.88915,-14.02443 -0.35019,-0.56661 2.9697,1.82996 1.64836,1.82996 -2.68414,0 3.71291,-5.078888 -1.61903,16.60699 -1.75797,7.15 -7.13092,20.15678 -7.66727,20.84428 -0.62876,0.80595 -8.50602,0.36211 -16.40582,0.29661 l -4.70499,5.24364 -8.36567,9.670541 c -5.83724,5.29934 -12.61582,8.09981 -17.57509,9.20964 -10.35972,2.31841 -12.61464,9.51626 -15.360172,19.66269 -0.61872,2.28654 6.446422,14.72029 2.848652,13.76751 l 4.40333,5.65584 -14.174452,0.29967 -10.79233,-0.71504 -0.78173,-7.78602 z m 9.19395,8.1246 c -0.23852,-3.29749 0.095,-8.13499 0.74106,-10.75 2.68529,-10.86831 12.875222,-20.92388 23.564992,-23.25426 4.47528,-0.97561 6.15438,-2.23588 16,-12.008921 l 11,-10.91893 7.94043,-0.28622 7.94043,-0.28622 4.21732,-16.85775 c 2.31952,-9.27175 4.65161,-17.292034 5.18241,-17.822834 1.46781,-1.46781 7.38099,-0.53785 8.56025,1.34626 0.90519,1.44622 -1.74648,15.354644 -6.11693,32.084324 -0.41071,1.57213 0.46946,1.75 8.65946,1.75 l 9.11663,0 0,-24.51468 0,-24.514684 -3.42059,-3.735315 -3.4206,-3.735315 -14.1475,-0.326771 c -16.08116,-0.371435 -26.28581,1.205089 -37.08222,5.728858 -17.04849,7.143433 -32.082692,21.890487 -39.565002,38.809307 -3.10761,7.02685 -6.34794,20.41959 -6.35708,26.27471 l -0.007,4.486101 13.48193,-13.454181 c 8.822532,-8.80437 13.142572,-13.79353 12.500002,-14.4361 -1.36449,-1.36449 -1.22949,-5.93437 0.21807,-7.38193 2.66775,-2.66775 6.25597,-1.30776 12.0813,4.579 5.80764,5.86887 7.13628,9.40342 4.5187,12.021 -1.48413,1.48413 -6.03032,1.56968 -7.45963,0.14037 -0.74617,-0.74617 -6.12875,4.20877 -18.195612,16.750001 l -17.13599,17.80963 -0.004,14.25 -0.004,14.25 3.81381,0 3.81381,0 -0.43367,-5.99545 z"
     style="fill:#000000" />
</svg>
