<?xml version="1.0" encoding="utf-8"?>
<!-- Generator: Adobe Illustrator 20.0.0, SVG Export Plug-In . SVG Version: 6.00 Build 0)  -->
<svg version="1.1" id="Outline_Old_Icons" xmlns="http://www.w3.org/2000/svg" xmlns:xlink="http://www.w3.org/1999/xlink" x="0px"
	 y="0px" width="23px" height="22px" viewBox="0 0 23 22" style="enable-background:new 0 0 23 22;" xml:space="preserve">
<style type="text/css">
	.st0{fill:none;stroke:#000000;stroke-linecap:round;stroke-linejoin:round;stroke-miterlimit:10;}
</style>
<g>
	<path class="st0" d="M11.5,19.5c0-2,1-3,3-3c1.5,0,6,0,6,0v-16c0,0-5.5,0-6,0c-2,0-3,1-3,3c0-2-1-3-3-3c-0.5,0-6,0-6,0v16
		c0,0,4.5,0,6,0C10.5,16.5,11.5,17.5,11.5,19.5z"/>
	<path class="st0" d="M20.5,2.5h2v16c0,0-4.5,0-6,0c-2,0-3.5,1-3.5,3h-3c0-2-1.5-3-3.5-3c-1.5,0-6,0-6,0v-16h2"/>
	<line class="st0" x1="11.5" y1="3.5" x2="11.5" y2="19"/>
</g>
</svg>
