<?xml version="1.0" encoding="utf-8"?>
<!-- Generator: Adobe Illustrator 20.0.0, SVG Export Plug-In . SVG Version: 6.00 Build 0)  -->
<svg version="1.1" id="Outline_Old_Icons" xmlns="http://www.w3.org/2000/svg" xmlns:xlink="http://www.w3.org/1999/xlink" x="0px"
	 y="0px" width="24px" height="24px" viewBox="0 0 24 24" style="enable-background:new 0 0 24 24;" xml:space="preserve">
<style type="text/css">
	.st0{fill:none;stroke:#000000;stroke-linecap:round;stroke-linejoin:round;stroke-miterlimit:10;}
</style>
<g>
	<polygon class="st0" points="18.5,9.5 5.5,9.5 5.5,0.5 12.5,0.5 18.5,6.5 	"/>
	<polyline class="st0" points="12.5,0.5 12.5,6.5 18.5,6.5 	"/>
	<line class="st0" x1="12.5" y1="12.5" x2="12.5" y2="23.5"/>
	<line class="st0" x1="9.5" y1="12.5" x2="9.5" y2="23.5"/>
	<line class="st0" x1="15.5" y1="12.5" x2="15.5" y2="23.5"/>
	<path class="st0" d="M20,21.5c-0.8,0-1.5-0.7-1.5-1.5v-7.5"/>
	<path class="st0" d="M5,21.5c0.8,0,1.5-0.7,1.5-1.5v-7.5"/>
	<line class="st0" x1="5.5" y1="12.5" x2="19.5" y2="12.5"/>
	<path class="st0" d="M4,14.5H2c-0.8,0-1.5-0.7-1.5-1.5v-2c0-0.8,0.7-1.5,1.5-1.5h20c0.8,0,1.5,0.7,1.5,1.5v2c0,0.8-0.7,1.5-1.5,1.5
		h-2"/>
	<g>
		<g>
			<path d="M21.5,12c-0.3,0-0.5,0.2-0.5,0.5s0.2,0.5,0.5,0.5c0.3,0,0.5-0.2,0.5-0.5S21.8,12,21.5,12L21.5,12z"/>
		</g>
	</g>
</g>
</svg>
