<?xml version="1.0" encoding="UTF-8" standalone="no"?>
<svg
   xmlns:dc="http://purl.org/dc/elements/1.1/"
   xmlns:cc="http://creativecommons.org/ns#"
   xmlns:rdf="http://www.w3.org/1999/02/22-rdf-syntax-ns#"
   xmlns:svg="http://www.w3.org/2000/svg"
   xmlns="http://www.w3.org/2000/svg"
   viewBox="0 0 311.03278 196.06235"
   height="196.06235"
   width="311.03278"
   version="1.1"
   id="svg3390">
  <metadata
     id="metadata3396">
    <rdf:RDF>
      <cc:Work
         rdf:about="">
        <dc:format>image/svg+xml</dc:format>
        <dc:type
           rdf:resource="http://purl.org/dc/dcmitype/StillImage" />
        <dc:title></dc:title>
      </cc:Work>
    </rdf:RDF>
  </metadata>
  <defs
     id="defs3394" />
  <g
     transform="translate(-5.9107586,-4.9020929)"
     id="g3400">
    <path
       id="path3404"
       d="M 152.84595,199.17638 C 148.65434,197.03937 11.566482,59.541386 8.2551234,54.152977 5.5175813,49.69831 5.220937,41.431355 7.6288679,36.70034 9.9221045,32.194673 32.736901,9.221768 37.210162,6.9140454 42.438666,4.2166985 50.444375,4.3685425 55.192899,7.2551234 57.223994,8.4898055 81.901204,32.7875 110.03115,61.25 138.16109,89.7125 161.5429,113 161.99073,113 c 0.44783,0 23.68292,-23.373231 51.63354,-51.940512 27.95062,-28.567282 52.46827,-52.8672819 54.48368,-54.0000002 4.7803,-2.6866839 12.64608,-2.7357801 17.79099,-0.1110468 4.71259,2.4041875 27.85907,26.356807 29.73388,30.76944 1.83586,4.320994 1.72819,11.657474 -0.22869,15.581779 -1.87589,3.761901 -141.63439,144.1542 -145.60447,146.26478 -3.80345,2.022 -12.62246,1.82013 -16.95371,-0.38806 z"
       style="fill-opacity:1" />
    <path
       id="path3402"
       d="M 153.5,199.13517 C 148.27522,196.75671 10.317711,57.650623 7.7762237,52.19816 3.4045295,42.819203 6.080719,37.165535 22.644001,20.788774 38.655911,4.9571753 43.458663,2.685713 52.782119,6.5349443 55.353362,7.5964939 72.845814,24.401611 109.5,61.024197 l 53,52.954313 L 214,61.33352 C 267.12659,7.0257839 269.34471,5.043924 277,5.043924 c 6.37591,0 11.08237,3.2690688 24.64584,17.118787 10.09167,10.304654 13.40107,14.342605 14.24442,17.380283 1.50551,5.422711 1.35374,8.313916 -0.66648,12.696441 -2.56008,5.553634 -139.85362,143.918865 -145.53149,146.667475 -5.2913,2.56148 -10.89341,2.64045 -16.19229,0.22826 z"
       style="fill-opacity:1" />
  </g>
</svg>
