<?xml version="1.0" encoding="UTF-8" standalone="no"?>
<svg
   xmlns:dc="http://purl.org/dc/elements/1.1/"
   xmlns:cc="http://creativecommons.org/ns#"
   xmlns:rdf="http://www.w3.org/1999/02/22-rdf-syntax-ns#"
   xmlns:svg="http://www.w3.org/2000/svg"
   xmlns="http://www.w3.org/2000/svg"
   viewBox="0 0 189.63441 153.67384"
   height="153.67384"
   width="189.63441"
   version="1.1"
   id="svg3390">
  <metadata
     id="metadata3396">
    <rdf:RDF>
      <cc:Work
         rdf:about="">
        <dc:format>image/svg+xml</dc:format>
        <dc:type
           rdf:resource="http://purl.org/dc/dcmitype/StillImage" />
        <dc:title></dc:title>
      </cc:Work>
    </rdf:RDF>
  </metadata>
  <defs
     id="defs3394" />
  <g
     transform="translate(-0.40153907,-0.07498257)"
     id="g3400">
    <path
       id="path3404"
       d="M 34.995383,114.35706 C 16.572922,92.551749 1.1269358,74.077463 0.67096846,73.30309 -0.16295773,71.886827 0.13735892,71.503765 13.723912,56.653691 l 5.348875,-5.846309 23.533467,17.656355 C 55.549661,78.174733 66.517775,85.980572 66.979841,85.810046 67.441907,85.639521 90.678319,66.375 118.61631,43 c 27.938,-23.375 51.2723,-42.5 51.85401,-42.5 1.06196,0 19.53197,19.30554 19.52706,20.410416 C 189.99396,21.681314 70.256362,153.41455 69.255991,153.748 68.835118,153.88829 53.417844,136.16237 34.995383,114.35706 Z"
       style="fill-opacity:1" />
    <path
       id="path3402"
       d="M 34.526545,113.07572 C 15.988284,91.11737 0.80182057,72.839588 0.77884932,72.45843 0.71731322,71.437371 18.227918,52 19.209299,52 19.82511,52 53.205584,76.568506 65.588016,86.135399 66.275618,86.666652 84.124693,72.395307 114.08802,47.356905 140.16461,25.566391 163.5673,6.013658 166.094,3.9063861 l 4.594,-3.83140353 9.67398,10.40314043 9.67398,10.403141 -60.07254,66.059368 C 96.923533,123.27328 69.517749,153 69.061684,153 68.605619,153 53.064806,135.03408 34.526545,113.07572 Z"
       style="fill-opacity:1" />
  </g>
</svg>
