<svg width="219.53" height="237.31" version="1.1" viewBox="0 0 219.53307 237.313" xmlns="http://www.w3.org/2000/svg">
  <defs>
    <linearGradient id="gradient" x1="0" y1="0" x2="0" y2="100%">
      <stop offset="0%" stop-color="#374e5d"/>
      <stop offset="100%" stop-color="#161717"/>
    </linearGradient>
  </defs>
  <path fill="url(#gradient)" d="m17.442 236.03c-5.7732-1.7886-13.217-8.258-15.174-13.188-2.6404-6.6505-2.9749-11.463-1.0056-14.467 0.97388-1.4853 18.758-23.802 39.521-49.592l37.75-46.892v-20.658-20.658h-4.7775c-5.9256 0-9.2225-2.1098-9.2225-5.9017 0-6.1682-0.51762-6.0983 45.138-6.0983 31.669 0 41.856 0.29565 43.07 1.25 2.7268 2.1435 3.006 5.2084 0.73704 8.0929-1.8037 2.2931-2.8338 2.6571-7.5175 2.6571h-5.4274v20.645 20.645l11.834 14.605c61.3 75.65 67.166 83.204 67.166 86.489 0 8.5547-6.2167 18.025-14.543 22.153-3.8337 1.901-6.7457 1.968-93.457 2.1506-74.954 0.15782-90.246-0.0427-94.091-1.2339zm190.23-16.745c1.3192-4.5728-1.9162 0.10578-0.17058-6.9439 0.2807-1.1336-1.4846-2.3495-2.8753-3.6986-2.4551-2.3815-3.5743-5.2441-3.7718-5.7588-0.30938-0.80623-12.191-14.423-33.386-41.302l-12.813-16.249-22.428-31.616-0.69072-22.916 2.8492-22.571 6.059 0.4317c3.1819 0.22671-5.1432 0.40974-4.4832-0.25026 1.7144-1.7144 0.40527 1.4667-1.5906 1.4049-10.78-0.33384-13.245-0.17529-35.73-0.17529-39.347 0-17.524-0.27296-19.984-0.23095-4.6989 0.08023-11.965-1.1165-3.1264-0.59849l13.738 0.78176-0.07614 22.77-0.33517 23.978-24.581 30.616-15.257 17.287c-7.5306 8.5327-12.413 15.963-16.808 21.937-4.6127 6.2702-8.6191 10.964-11.54 14.79-11.278 14.773-11.166 15.269-7.0422 20.777 1.7305 2.3113 3.0524 2.6308 3.7094 2.997 0.9426 0.52538 2.7925 1.6311 6.6705 1.8047l6.3814 0.28572 79.519 0.35536c30.691 0.13716 52.131-0.60375 66.431-0.0998 15.637 0.55101 22.548-1.0521 24.338-1.5027zm-188.69 6.8836c-1.6773-0.73057-4.2882-2.8003-5.8021-4.5995-4.9706-5.9072-4.4676-6.8541 19.498-36.707l17.157-30.418 22.62-6.184c24.859-0.30405 50.581 0.1157 53.992 0.80647l35.688 3.0189 3.8114 7.2397c0.94025 1.786 11.714 14.225 23.061 28.25 22.479 27.784 22.257 27.355 17.553 33.961-4.5 6.3196-0.0431 6.043-96.679 6-70.777-0.0315-88.442-0.29728-90.898-1.3675zm181.6-2.8468c1.8391-1.2394 4.2022-3.7231 5.2513-5.5194l1.9075-3.2661-17.853-22.228c-9.8194-12.226-20.007-24.817-22.64-27.981l-4.7864-5.7521-53.214 1e-3 -53.214 1e-3 -21.5 26.625c-11.825 14.644-21.893 27.302-22.373 28.13-1.3056 2.2506 1.8005 7.9236 5.6099 10.246 3.1918 1.9461 5.1827 1.9895 91.365 1.9932l88.102 4e-3 3.3438-2.2534zm-109.8-74.512c-17.784-0.17348-40.287 6.3714-40.287 5.7019 0-0.56419 18.55-14.863 25.287-23.228l12.25-15.208 0.5-23.5 0.5-23.5h20.5l25.249 0.69072 4.3853 23.241-0.53608 26.09 13.372 9.9152c2.1851 1.6202 11.559 23.109 11.559 24.039 0 1.5373-2.9072 0.88745-19.959 0.6273-10.312-0.15734-37.833-4.7227-52.821-4.8689zm62.404-1.9842c-0.25506-0.4125-5.9066-7.4844-12.559-15.715l-12.095-14.965v-22.785-22.785h-19-19v22.632 22.632l-11.321 14.118c-6.2265 7.7648-12.109 14.905-13.071 15.868-1.6672 1.6667 0.37453 1.75 42.88 1.75 24.547 0 44.422-0.3375 44.167-0.75zm-110.23-98.269c-11.163-5.5259-11.044-22.137 0.19734-27.471 7.5494-3.5824 18.005-0.04273 20.992 7.107 3.2226 7.7127 0.59616 16.211-6.2172 20.117-4.8511 2.7812-9.6915 2.8611-14.972 0.2471zm10.615-9.926c2.3738-0.59915 1.7358-3.246-0.25832-7.4117-0.63675-1.3301-5.8706-3.204-7.8999 2.0838-1.3616 3.5478 0.0037 4.2318 2.4525 6.3863 1.2342 1.0859 0.07913 0.3618 5.7058-1.0584zm-7.3841 0.11656c-3.3265-3.6758-1.0225-9.1713 3.845-9.1713 3.017 0 5.5 2.483 5.5 5.5 0 4.956-6.0362 7.3274-9.345 3.6713zm7.3327-2.1483c1.5011-2.8049-2.1413-6.5463-4.9235-5.0573-2.4016 1.2853-3.0378 3.0604-1.8939 5.2844 1.2231 2.3781 5.4994 2.2357 6.8174-0.22708zm50.512 11.624c-6.5808-3.071-11.989-9.1872-13.944-15.769-1.9406-6.5346-1.9406-8.2216 0-14.756 1.8119-6.1014 6.9917-12.305 12.875-15.421 5.7367-3.038 17.4-3.038 23.136 0 7.94 4.2048 14.432 14.46 14.432 22.799 0 1.1753-0.7004 4.4955-1.5564 7.3781-3.0841 10.385-13.505 18.102-24.444 18.102-3.6666 0-7.1667-0.77778-10.5-2.3333zm19.116-10.648c4.6126-1.7745 3.9141-4.8481 6.3237-10.374 1.239-2.8414-0.33799-4.8112-0.90223-6.6118-0.50702-1.618 0.20275-3.1161-2.2439-4.7059-9.3484-6.0745-8.1723-5.9041-11.92-5.8458-6.2686 0.0975-14.931 8.2846-14.841 13.854 0.28803 17.791 18.262 15.73 23.583 13.683zm-16.626 0.75125c-5.5292-3.7632-7.4898-7.2316-7.4898-13.25 0-6.042 1.9487-9.4659 7.592-13.339 2.7997-1.9216 4.3525-2.2633 8.6995-1.9143 9.0682 0.72797 14.709 6.5773 14.709 15.253 0 8.8129-6.6871 15.5-15.5 15.5-3.2323 0-5.7387-0.70403-8.0102-2.25zm17.045-3.5494c4.8473-4.8473 5.9085-9.6103 3.3184-14.894-5.3424-10.898-19.302-10.958-24.948-0.10634-4.4917 8.6328 2.5067 18.779 12.963 18.793 4.3069 0.0058 5.3054-0.43112 8.667-3.7928zm37.888 12.876c-2.3933-2.3933-2.9231-3.7665-2.9231-7.5769 0-6.6038 3.8962-10.5 10.5-10.5 6.3703 0 10.5 3.9287 10.5 9.9888 0 5.1809-1.2546 7.5743-4.98 9.5008-4.7999 2.4821-9.7343 1.9499-13.097-1.4127zm7.4294-9.174c7.5588-3.9088 9.3385 1.213 0.66559 1.213-4.8766 0-0.64304-4.5789-0.64304 0.29768 0 6.885-6.5091 1.8437-0.0225-1.5107z"/>
</svg>
