<?xml version="1.0" encoding="utf-8"?>
<!-- Generator: Adobe Illustrator 21.1.0, SVG Export Plug-In . SVG Version: 6.00 Build 0)  -->
<svg version="1.1" id="Layer_1" xmlns="http://www.w3.org/2000/svg" xmlns:xlink="http://www.w3.org/1999/xlink" x="0px" y="0px"
	 viewBox="0 0 30 30" style="enable-background:new 0 0 30 30;" xml:space="preserve">
<style type="text/css">
	.st0{fill:none;stroke:#000000;stroke-linecap:round;stroke-linejoin:round;stroke-miterlimit:10;}
</style>
<g>
	<line class="st0" x1="10.1" y1="24.1" x2="5.3" y2="19.3"/>
	<line class="st0" x1="5.3" y1="24.1" x2="10.1" y2="19.3"/>
	<line class="st0" x1="7.1" y1="5.3" x2="7.1" y2="11.4"/>
	<line class="st0" x1="10.1" y1="8.3" x2="4.1" y2="8.3"/>
	<line class="st0" x1="18.7" y1="8.3" x2="24.7" y2="8.3"/>
	<line class="st0" x1="18.7" y1="22.9" x2="24.7" y2="22.9"/>
	<line class="st0" x1="18.7" y1="22.9" x2="24.7" y2="22.9"/>
	<line class="st0" x1="18.7" y1="20.5" x2="24.7" y2="20.5"/>
	<line class="st0" x1="14.4" y1="1" x2="14.4" y2="29"/>
	<line class="st0" x1="1" y1="14.4" x2="29" y2="14.4"/>
	<path class="st0" d="M29,25.3c0,2-1.6,3.6-3.6,3.6H4.7c-2,0-3.6-1.6-3.6-3.6V4.7C1,2.6,2.7,1,4.7,1h20.7c2,0,3.6,1.6,3.6,3.6V25.3z
		"/>
</g>
</svg>
