<?xml version="1.0" encoding="UTF-8" standalone="no"?>
<svg
   xmlns:dc="http://purl.org/dc/elements/1.1/"
   xmlns:cc="http://creativecommons.org/ns#"
   xmlns:rdf="http://www.w3.org/1999/02/22-rdf-syntax-ns#"
   xmlns:svg="http://www.w3.org/2000/svg"
   xmlns="http://www.w3.org/2000/svg"
   viewBox="0 0 499.55811 552.11066"
   height="552.11066"
   width="499.55811"
   version="1.1"
   id="svg3457">
  <metadata
     id="metadata3463">
    <rdf:RDF>
      <cc:Work
         rdf:about="">
        <dc:format>image/svg+xml</dc:format>
        <dc:type
           rdf:resource="http://purl.org/dc/dcmitype/StillImage" />
        <dc:title></dc:title>
      </cc:Work>
    </rdf:RDF>
  </metadata>
  <defs
     id="defs3461" />
  <g
     transform="translate(-0.0235133,0.00352969)"
     id="g3467">
    <path
       id="path3471"
       d="M 43,550.41734 C 27.810785,546.41004 12.875862,534.42472 6.2771045,520.94711 -0.41318584,507.28256 0.02956217,524.64136 0.02956217,276 0.02956217,27.358643 -0.41318584,44.717445 6.2771045,31.052888 10.687249,22.045404 22.284056,10.376264 31,6.1757856 44.723106,-0.43779691 29.346934,-3.7793447e-4 247.9601,0.00373806 442.98522,0.00740995 446.55657,0.04196964 449.69553,1.9559146 c 6.33006,3.8596825 6.6266,14.8210644 0.5094,18.8295064 C 447.76224,22.386051 434.36008,22.533229 248.54417,23 57.691752,23.479422 49.303051,23.576389 44.714499,25.356099 38.09287,27.924355 29.697843,35.878924 26.294236,42.809913 23.863723,47.759327 23.5,49.671521 23.5,57.5 c 0,7.828479 0.363723,9.740673 2.794236,14.690087 3.403607,6.930989 11.798634,14.885558 18.420263,17.453814 4.588552,1.77971 12.977253,1.876677 203.829671,2.356099 187.21566,0.470287 199.20252,0.603756 201.70865,2.245958 1.52,0.996015 3.13463,3.358433 3.75904,5.5 0.75044,2.573782 0.99924,20.789572 0.79136,57.938972 l -0.30322,54.18493 -2.92516,3.05262 c -4.90373,5.11739 -12.56011,5.065 -17.25255,-0.11806 C 432.62698,212.93185 432.46516,209.40179 432,164.1458 L 431.5,115.5 238,115 44.5,114.5 l -6,-2.27045 c -3.3,-1.24874 -8.141861,-3.59536 -10.75969,-5.21471 L 22.98062,104.07056 23.24031,303.78528 23.5,503.5 l 2.794236,5.69009 c 3.408517,6.94098 11.810172,14.8954 18.420263,17.43972 4.446618,1.71156 10.025773,1.87841 78.785501,2.35609 55.44224,0.38517 74.53157,0.8189 76.11965,1.72952 C 201.8796,532.0113 205,537.68598 205,540.5 c 0,3.19377 -3.26746,8.58695 -6.08519,10.04405 C 194.73426,552.7059 51.232486,552.58928 43,550.41734 Z m 288.73636,0.49498 C 281.26403,543.52314 237.22228,509.74722 216.86859,462.81944 208.20815,442.8518 204.67325,425.36783 204.67325,402.5 c 0,-22.86783 3.5349,-40.3518 12.19534,-60.31944 18.68623,-43.08327 57.08166,-75.05303 103.11735,-85.86015 15.59491,-3.66099 40.08065,-4.31044 56.51981,-1.49911 60.90513,10.41566 108.74685,57.35452 121.19599,118.9088 2.50652,12.39343 2.50652,45.14637 0,57.5398 -12.38859,61.2549 -60.31629,108.49217 -120.52084,118.78465 -12.09035,2.06695 -34.31921,2.48652 -45.44454,0.85777 z M 377.5,525.89087 c 26.62307,-5.40212 51.93204,-20.54535 69.39713,-41.52269 19.6253,-23.57198 30.04112,-51.95721 30.04112,-81.86818 0,-69.2717 -55.44906,-125.56672 -123.93825,-125.82913 -15.40375,-0.059 -24.45764,1.26556 -38,5.55938 -19.56413,6.20311 -35.56285,16.07589 -50.5041,31.16599 C 240.11411,338.02093 228,367.5972 228,402.5 c 0,21.22761 4.09134,38.942 13.14523,56.91529 6.50458,12.91252 12.64275,21.37387 23.35067,32.18847 21.6153,21.83065 45.55341,33.05444 78.5041,36.808 6.84089,0.77928 24.64848,-0.52191 34.5,-2.52089 z m -31,-55.74493 c -3.52491,-2.16969 -48.65343,-48.6291 -50.34545,-51.8302 -3.94622,-7.46574 4.06343,-17.42813 12.71693,-15.8173 2.93833,0.54696 6.33905,3.36094 17.87852,14.79387 l 14.25,14.11844 0,-44.75504 c 0,-49.95888 -0.0618,-49.47847 6.72807,-52.31545 4.77424,-1.99481 9.21971,-1.04774 12.84677,2.73688 l 2.92516,3.05223 0.5,45.44979 0.5,45.44979 13.95146,-13.97927 c 14.78192,-14.81137 16.87303,-16.08778 23.02825,-14.05638 4.85306,1.60166 7.52029,5.70246 7.52029,11.56228 l 0,4.74684 -24.25,24.69038 c -13.3375,13.57971 -25.66801,25.43667 -27.40113,26.34879 -4.07925,2.14687 -7.13263,2.0918 -10.84887,-0.19565 z M 50.881475,67.496912 C 48.21782,66.049374 45,60.579952 45,57.5 45,54.306233 48.267456,48.913053 51.085185,47.455949 53.520274,46.196716 78.940542,46 239.22783,46 c 204.04251,0 187.90724,-0.507062 191.27788,6.011044 2.74529,5.308805 1.12248,12.034694 -3.7225,15.428252 -2.00023,1.401011 -21.21166,1.556607 -187.75572,1.520666 C 80.522661,68.925756 53.118604,68.712658 50.881475,67.496912 Z"
       style="fill-opacity:1" />
    <path
       id="path3469"
       d="m 380.01504,537.76905 0.015,-11.26905 9.23495,-2.85277 c 37.30861,-11.525 67.58261,-40.79844 81.09372,-78.41356 9.41031,-26.19842 9.41031,-59.26892 0,-85.46734 -9.22567,-25.6844 -26.73312,-48.17766 -49.46151,-63.54727 -7.64223,-5.16791 -21.8456,-11.84311 -31.63221,-14.86629 l -9.2349,-2.85277 -0.015,-11.26905 -0.015,-11.26905 2.75,0.65738 c 53.39597,12.76427 92.33787,48.14724 109.25315,99.26844 5.33884,16.13498 7.26357,28.48654 7.26357,46.61228 0,18.12574 -1.92473,30.4773 -7.26357,46.61228 -16.91528,51.1212 -55.85718,86.50417 -109.25315,99.26844 l -2.75,0.65738 0.015,-11.26905 z m 0.004,-105.85499 -0.0189,-15.58594 6.90277,-6.66406 C 392.43884,404.31944 394.4286,403 396.95243,403 c 4.62758,0 8.55117,2.43414 10.48189,6.50282 2.99258,6.3064 1.71972,8.56086 -13.54871,23.99718 l -13.84773,14 -0.0189,-15.58594 z m 57.36171,-215.82365 c -1.71565,-1.04616 -3.62815,-3.36163 -4.25,-5.14548 C 432.3527,208.7133 432,193.24277 432,161.35078 L 432,115 l -26,0 -26,0 0,-11.5 0,-11.5 32.03212,0 c 35.31302,0 37.53192,0.322473 40.40146,5.871562 C 453.79992,100.51377 454,107.94499 454,156.05034 l 0,55.14966 -3.4,3.4 c -3.98929,3.98929 -8.32052,4.47761 -13.21935,1.49041 z M 380,57.5 380,46 l 20.53212,0 c 22.06321,0 25.70592,0.646362 28.83719,5.116873 2.09597,2.992426 2.09597,9.773828 0,12.766254 C 426.23804,68.353638 422.59533,69 400.53212,69 L 380,69 380,57.5 Z m 0,-46 0,-11.5 32.03212,0 c 35.31302,0 37.53192,0.32247304 40.40146,5.8715623 3.1565,6.1039897 0.89381,13.2580447 -4.96788,15.7072157 C 444.7662,22.706702 437.45377,23 412.03212,23 L 380,23 380,11.5 Z"
       style="fill-opacity:1" />
  </g>
</svg>
