<?xml version="1.0" encoding="UTF-8" standalone="no"?>
<svg
   xmlns:dc="http://purl.org/dc/elements/1.1/"
   xmlns:cc="http://creativecommons.org/ns#"
   xmlns:rdf="http://www.w3.org/1999/02/22-rdf-syntax-ns#"
   xmlns:svg="http://www.w3.org/2000/svg"
   xmlns="http://www.w3.org/2000/svg"
   viewBox="0 0 305.97641 305.87027"
   height="305.87027"
   width="305.97641"
   version="1.1"
   id="svg3390">
  <metadata
     id="metadata3396">
    <rdf:RDF>
      <cc:Work
         rdf:about="">
        <dc:format>image/svg+xml</dc:format>
        <dc:type
           rdf:resource="http://purl.org/dc/dcmitype/StillImage" />
        <dc:title></dc:title>
      </cc:Work>
    </rdf:RDF>
  </metadata>
  <defs
     id="defs3394" />
  <g
     transform="translate(-0.01179022,0)"
     id="g3400">
    <path
       id="path3404"
       d="M 129.5,304.53836 C 95.908955,299.232 66.412624,283.73681 42.475519,258.82214 14.334532,229.53191 0.01179022,193.83879 0.01179022,153 0.01179022,110.64549 14.802127,75.06499 44.933558,44.933558 75.122138,14.744979 110.58422,0 153,0 168.23813,0 177.95447,1.1879769 191.44818,4.7009033 219.73953,12.066216 242.85236,25.689359 263.59614,47.226282 291.5651,76.264655 305.98821,112.25217 305.98821,153 c 0,32.39072 -8.92393,61.07747 -27.36577,87.96962 -6.84719,9.98467 -23.1102,26.76197 -33.50095,34.56035 -20.46555,15.35964 -46.39273,26.03426 -71.44385,29.41452 -10.33972,1.39519 -34.161,1.1762 -44.17764,-0.40613 z M 181,289.51262 C 236.70076,277.20905 277.75527,235.84162 289.68422,180 c 2.56544,-12.00928 2.56544,-41.99072 0,-54 C 277.65602,69.693771 236.30623,28.343984 180,16.31578 c -12.00928,-2.565436 -41.99072,-2.565436 -54,0 C 88.301394,24.369001 57.628436,45.039353 36.848596,76.394463 27.192195,90.965196 20.392123,107.21223 16.505121,125 14.288736,135.14266 13.41843,160.52665 14.923066,171.14342 23.683045,232.95421 69.046794,279.63418 131,290.58831 c 10.19129,1.80195 39.86221,1.16362 50,-1.07569 z M 91.654988,214.17126 C 90.744744,213.16545 90,211.03102 90,209.42808 c 0,-2.47959 3.990203,-6.9067 26.74305,-29.67126 L 143.48611,153 116.74305,126.24318 C 93.301654,102.78971 90,99.105097 90,96.398168 90,92.607109 92.677909,90 96.571921,90 c 2.47959,0 6.906699,3.990203 29.671259,26.74305 L 153,143.48611 179.75682,116.74305 C 203.21029,93.301654 206.8949,90 209.60183,90 213.39289,90 216,92.677909 216,96.571921 c 0,2.47959 -3.9902,6.906699 -26.74305,29.671259 L 162.51389,153 189.25695,179.75682 C 212.69835,203.21029 216,206.8949 216,209.60183 216,213.39289 213.32209,216 209.42808,216 c -2.47959,0 -6.9067,-3.9902 -29.67126,-26.74305 L 153,162.51389 126.24318,189.25695 C 102.78971,212.69835 99.105097,216 96.398168,216 c -1.721799,0 -3.820454,-0.80914 -4.74318,-1.82874 z"
       style="fill-opacity:1" />
    <path
       id="path3402"
       d="M 137.35195,304.97545 C 85.08822,299.46986 38.999849,267.38597 16.003337,220.5 -5.1571359,177.3574 -4.9519764,127.64314 16.564579,84.5 44.320092,28.847041 104.37489,-4.7422872 166.04915,0.89159185 203.07325,4.273704 236.17633,19.834309 261.89046,45.943242 c 58.41267,59.309538 58.41267,154.803978 0,214.113518 -32.57558,33.07573 -78.77614,49.7394 -124.53851,44.91869 z m 31.36596,-13.05027 c 49.83418,-5.55684 93.86443,-38.7109 113.35327,-85.35315 C 303.90287,154.32268 291.96965,94.786658 251.57705,54.433857 230.75932,33.636633 207.15099,21.046222 178.2699,15.338879 c -12.07078,-2.385371 -38.46902,-2.385371 -50.5398,0 C 98.83445,21.049098 75.213019,33.649407 54.439879,54.433857 34.112424,74.77238 21.81299,97.300195 15.889468,125.04333 c -3.198636,14.98099 -3.198636,40.93235 0,55.91334 5.555517,26.01957 17.614891,48.96209 35.75693,68.02627 30.776488,32.34082 73.058442,47.84999 117.071512,42.94224 z M 92.174314,213.68555 c -4.392561,-4.67567 -3.861451,-5.40887 24.551016,-33.8929 L 143.45065,153 116.72533,126.20735 C 88.134541,97.544548 87.516013,96.682212 92.314451,92.174314 96.990118,87.781753 97.72332,88.312863 126.20735,116.72533 L 153,143.45065 179.79265,116.72533 c 28.6628,-28.590789 29.52514,-29.209317 34.03304,-24.410879 4.39256,4.675667 3.86145,5.408869 -24.55102,33.892899 L 162.54935,153 l 26.72532,26.79265 c 28.59079,28.6628 29.20932,29.52514 24.41088,34.03304 -4.67567,4.39256 -5.40887,3.86145 -33.8929,-24.55102 L 153,162.54935 126.20735,189.27467 c -28.662802,28.59079 -29.525138,29.20932 -34.033036,24.41088 z"
       style="fill-opacity:1" />
  </g>
</svg>
