<?xml version="1.0" encoding="UTF-8" standalone="no"?>
<svg
   xmlns:dc="http://purl.org/dc/elements/1.1/"
   xmlns:cc="http://creativecommons.org/ns#"
   xmlns:rdf="http://www.w3.org/1999/02/22-rdf-syntax-ns#"
   xmlns:svg="http://www.w3.org/2000/svg"
   xmlns="http://www.w3.org/2000/svg"
   viewBox="0 0 417 381.29651"
   height="381.29651"
   width="417"
   version="1.1"
   id="svg3594">
  <metadata
     id="metadata3600">
    <rdf:RDF>
      <cc:Work
         rdf:about="">
        <dc:format>image/svg+xml</dc:format>
        <dc:type
           rdf:resource="http://purl.org/dc/dcmitype/StillImage" />
        <dc:title></dc:title>
      </cc:Work>
    </rdf:RDF>
  </metadata>
  <defs
     id="defs3598" />
  <g
     transform="translate(0,0.29650208)"
     id="g3604">
    <path
       id="path3608"
       d="M 201.92308,378.07692 C 200.14886,376.30271 199,374.10218 199,372.47805 199,363.45534 186.92782,352.74823 166.78234,343.90342 132.23809,328.73688 77.25516,319.25279 15.161867,317.75018 5.2130603,317.50942 4.7329042,317.39434 2.4118667,314.69424 L 0,311.88847 0,158.39878 0,4.9090909 2.6027965,2.3062944 5.205593,-0.29650208 29.352796,0.31002379 C 105.81098,2.2304891 176.51202,20.287151 202.91098,44.635845 l 5.56831,5.135844 5.58831,-5.135844 C 240.70452,20.155618 311.2788,2.228709 388.64999,0.28934288 l 23.14999,-0.58027165 2.60001,2.60000987 2.60001,2.6000098 0,153.4896891 0,153.48969 -2.41275,2.80577 c -2.28663,2.6591 -2.9008,2.81879 -11.75,3.05511 -45.45172,1.2138 -82.77208,5.67752 -114.83725,13.73517 -42.79038,10.75279 -70,26.75107 -70,41.1575 0,3.89931 -5.0679,8.35798 -9.5,8.35798 -2.70513,0 -4.41282,-0.75897 -6.57692,-2.92308 z M 199,204.67144 199,69.342889 196.03342,64.864173 C 181.04268,42.232286 110.2526,22.17476 35.25,19.308111 L 19,18.687026 l 0,140.028304 0,140.0283 14.25,0.67879 c 69.54115,3.31255 128.82749,17.03627 159.75,36.97925 3.025,1.95093 5.6125,3.55866 5.75,3.57273 0.1375,0.0141 0.25,-60.87225 0.25,-135.30296 z m -41.91763,79.67572 c -5.01794,-2.18725 -24.83696,-7.75512 -38.44872,-10.80162 C 104.2158,270.31862 78.916123,266.50655 62,265.01217 42.877777,263.32291 41.450044,263.06794 39.158455,260.933 c -4.063855,-3.78606 -4.044694,-10.09779 0.04221,-13.90532 2.863138,-2.66742 9.712294,-2.66395 33.206806,0.0169 36.106709,4.11988 68.870679,11.09 89.745279,19.09219 6.4843,2.48572 7.90101,3.45681 9.2787,6.36006 2.3371,4.92508 0.72372,9.76238 -4.11571,12.33988 -2.83469,1.50976 -5.99331,1.35868 -10.23337,-0.4895 z m -2.63849,-55.46722 c -29.55635,-9.65992 -66.5293,-16.58507 -103.906818,-19.46208 -8.004557,-0.61612 -9.26095,-0.9879 -11.75,-3.47695 -5.024959,-5.02496 -2.676191,-13.9278 4.065088,-15.40844 3.728609,-0.81894 31.455766,1.85741 52.14785,5.03355 26.42558,4.05619 62.65427,13.12725 72.32878,18.10991 5.2757,2.71715 6.87573,11.01904 2.82945,14.68087 -3.85838,3.49179 -6.37488,3.57557 -15.71435,0.52314 z M 156.5,175.37601 C 132.84786,166.6066 94.770802,158.9277 60.5,156.01594 42.384063,154.47675 41.089855,154.2 38.39137,151.28829 c -3.42773,-3.69859 -3.216224,-8.61728 0.531707,-12.36521 3.530539,-3.53054 6.091059,-3.65802 27.855363,-1.38682 33.55362,3.50146 63.09533,9.26465 87.08303,16.98871 13.59021,4.37606 16.89627,6.31821 18.5167,10.87765 1.09839,3.09056 -1.25289,8.48123 -4.4118,10.11477 -3.51805,1.81926 -6.26982,1.78533 -11.46637,-0.14138 z m 1.5,-53.93839 c -1.925,-0.85913 -8.675,-3.09475 -15,-4.96802 -25.36781,-7.5132 -56.591878,-12.85983 -93.429018,-15.99826 -6.891671,-0.587151 -8.298086,-1.044597 -10.75,-3.496512 -4.652787,-4.652787 -3.611357,-11.480509 2.210308,-14.491009 2.676197,-1.383915 4.638975,-1.379462 19.720356,0.04474 40.075634,3.784509 74.516624,10.658186 101.083384,20.174061 8.12752,2.91117 10.56497,5.43846 10.56497,10.95437 0,6.75847 -7.54992,10.83785 -14.4,7.78064 z m 72.88457,210.87372 C 261.0945,315.1164 319.90331,302.46372 383.75,299.42242 L 398,298.74363 398,158.87182 398,19 l -8.5,0 -8.5,0 0,73.565741 c 0,48.543499 -0.35022,74.220129 -1.02964,75.489649 -1.51927,2.83877 -6.65412,5.17298 -9.84024,4.47319 -1.74191,-0.38259 -8.29054,-6.17361 -18.16491,-16.06342 C 343.47265,147.95932 336.07387,141 335.52347,141 c -0.5504,0 -8.08838,7.07727 -16.75108,15.72727 -15.22835,15.20605 -15.8868,15.72728 -19.8675,15.72728 -3.26318,0 -4.61369,-0.57726 -6.51102,-2.78304 L 290,166.88847 l 0,-67.555525 0,-67.555527 -3.75,0.696452 c -2.0625,0.383049 -10.275,2.845472 -18.25,5.472051 -23.83483,7.850038 -40.85555,17.591369 -47.03342,26.918252 L 218,69.342889 l 0,135.426761 0,135.42675 3.25,-2.12554 c 1.7875,-1.16905 6.12305,-3.76083 9.63457,-5.75952 z M 249.5,284.79218 c -4.69081,-2.69017 -6.22734,-7.45717 -3.95032,-12.25562 1.91464,-4.03482 7.23369,-6.41427 26.45032,-11.83242 23.32166,-6.57555 43.06246,-10.29015 72.59253,-13.65961 20.24442,-2.30995 30.17531,-2.54306 32.49413,-0.76273 5.15509,3.95795 4.98717,12.31747 -0.31392,15.62805 -1.14671,0.71614 -7.07719,1.71369 -13.17883,2.2168 -36.74987,3.03016 -76.1786,10.48867 -100.12117,18.93935 -9.09724,3.21092 -10.97857,3.44334 -13.97274,1.72618 z m 0.35973,-54.61523 c -4.59143,-2.2933 -6.34783,-6.16796 -4.85138,-10.70225 0.62959,-1.90767 2.12277,-4.15971 3.31818,-5.00452 6.39607,-4.52019 45.74885,-14.61787 73.67347,-18.90416 20.69208,-3.17614 48.41924,-5.85249 52.14785,-5.03355 6.74128,1.48064 9.09005,10.38348 4.06509,15.40844 -2.48905,2.48905 -3.74545,2.86083 -11.75,3.47695 -15.31452,1.17879 -40.59124,4.44586 -55.08759,7.12021 -19.83693,3.6596 -30.50918,6.45793 -57.01677,14.95015 -0.62778,0.20112 -2.65226,-0.38895 -4.49885,-1.31127 z M 335.5,118 c 3.72085,0 4.67226,0.70156 15.23435,11.23369 L 362,140.46738 l 0,-60.170821 0,-60.170818 -3.25,0.429591 c -1.7875,0.236276 -7.525,0.883268 -12.75,1.437761 -5.225,0.554494 -15.6875,1.96401 -23.25,3.132259 l -13.75,2.12409 0,56.608967 0,56.608971 11.26565,-11.23369 C 330.82774,118.70156 331.77915,118 335.5,118 Z"
       style="fill-opacity:1" />
    <path
       id="path3606"
       d="m 203.79464,379.45142 c -2.54363,-1.38073 -4.77423,-6.29523 -4.78906,-10.55138 -0.01,-2.80607 -5.84782,-9.78804 -11.92536,-14.26207 C 175.21611,345.90411 156.7966,338.25674 132.5,331.97747 99.153562,323.35933 67.627232,319.21844 21.82799,317.441 7.300719,316.87721 4.8902182,316.54638 3.0900955,314.86931 1.953859,313.81074 0.78157735,311.9446 0.4850251,310.72232 0.18847285,309.50005 0.07052537,240.22496 0.2229196,156.77769 L 0.5,5.0553798 2.7290507,2.826417 C 5.7128244,-0.15723911 12.231678,-0.51070191 38.085043,0.909358 112.96256,5.0221908 172.64066,20.604243 200.90248,43.421264 c 7.06335,5.70256 8.12095,6.255287 9.28445,4.852259 3.24922,-3.918147 15.29966,-11.925633 26.04215,-17.304951 35.05068,-17.55168 97.14256,-29.5930474 155.9798,-30.24888441 19.31494,-0.21529655 19.75467,-0.17416186 22,2.05800231 L 416.5,5.0553798 416.77708,156.77769 c 0.15239,83.44727 0.0344,152.72236 -0.26211,153.94463 -0.29655,1.22228 -1.46953,3.08908 -2.60663,4.14845 -1.78909,1.66679 -4.17725,2.00978 -17.73789,2.5475 -72.54604,2.8767 -127.72043,14.22138 -159.56221,32.80839 -8.40421,4.90579 -17.25094,13.38698 -18.16123,17.41083 -2.11141,9.33323 -2.59463,10.38748 -5.4341,11.85583 -3.59711,1.86014 -5.73211,1.85044 -9.21827,-0.0419 z M 199.7775,205.25 C 199.46232,51.067997 200.50175,67.175645 190.27909,58.056682 182.98758,51.552409 164.70387,42.379708 148.5,37.09665 118.70838,27.38349 76.589099,20.625683 32.246531,18.444421 L 17.993062,17.743276 18.246531,158.62164 18.5,299.5 l 16.759863,0.66422 c 65.231227,2.5852 130.382367,17.89303 158.240137,37.17989 2.75,1.90392 5.34987,3.50537 5.7775,3.55878 0.42762,0.0534 0.65262,-60.99039 0.5,-135.65289 z M 154,282.87537 c -23.94162,-8.61245 -61.002905,-15.81489 -97.5,-18.94802 -7.7,-0.66101 -14.825596,-1.6263 -15.834658,-2.14508 -1.009062,-0.51879 -2.477601,-2.48203 -3.26342,-4.36276 -1.243156,-2.97529 -1.238442,-3.87501 0.03629,-6.92587 2.643026,-6.32565 5.22614,-6.47755 40.061789,-2.35578 29.559669,3.49751 55.040949,8.82245 78.484539,16.40125 6.84966,2.21435 12.22653,4.58105 13.65664,6.01116 3.24277,3.24277 3.19922,8.70024 -0.0957,11.99518 -3.03707,3.03708 -7.74226,3.13694 -15.54545,0.32992 z m -3,-55.43471 C 130.15655,220.15784 97.314681,213.62975 66,210.54492 41.077647,208.0898 41.509665,208.17142 38.935896,205.43176 35.798102,202.09174 35.814888,196.8904 38.974314,193.52734 40.989364,191.38242 42.234432,191 47.202755,191 c 9.2453,0 33.673229,2.75451 53.328265,6.01334 32.53159,5.39377 65.56263,14.74767 69.42729,19.66079 2.94404,3.74274 2.62281,7.89859 -0.88139,11.40279 -3.69759,3.6976 -5.89471,3.62027 -18.07692,-0.63626 z m 1.5,-54.06432 c -25.17973,-8.61743 -59.466431,-15.12321 -97,-18.40544 -13.859006,-1.21193 -16.918006,-2.30994 -18.574649,-6.66724 -1.443661,-3.79712 0.562523,-8.98747 4.201133,-10.86907 2.537972,-1.31243 4.699959,-1.37674 15.166708,-0.45114 33.095182,2.92669 64.397348,8.36985 89.165418,15.50504 23.68687,6.82372 26.54139,8.47891 26.54139,15.39 0,3.5684 -3.44469,7.71269 -7,8.42167 -1.43497,0.28616 -6.76013,-0.95943 -12.5,-2.92382 z m -2,-54.97075 C 128.77682,110.92697 95.650062,104.44892 64,101.49021 41.279482,99.36625 39.242834,98.825431 37.405561,94.428218 c -2.966756,-7.100447 1.319098,-12.434288 9.979298,-12.41946 6.183924,0.01059 37.407049,3.42107 50.270667,5.491031 32.595674,5.245166 67.459264,14.972591 72.094474,20.115361 3.13977,3.48358 2.97863,8.38349 -0.38636,11.74849 -3.46898,3.46897 -6.44322,3.31791 -18.86364,-0.95805 z m 72.66272,219.03206 C 252.75231,317.68818 315.60681,302.90548 381.5,300.19841 l 17,-0.69841 0.25346,-140.75 0.25346,-140.75 -5.87846,0 c -3.23315,0 -7.27627,0.279562 -8.9847,0.621248 l -3.10624,0.621248 -0.26876,73.965621 -0.26876,73.965623 -2.80576,2.41313 C 375.8441,171.1781 373.65358,172 371.26276,172 c -3.34475,0 -4.87088,-1.23643 -19.69424,-15.95584 L 335.5,140.08831 319.38209,156.04416 C 304.38855,170.88694 303.00545,172 299.55517,172 c -2.76611,0 -4.45212,-0.74311 -6.63209,-2.92308 L 290,166.15385 l 0,-67.595979 0,-67.595975 -2.75,0.662111 c -24.93821,6.004314 -50.23781,17.164993 -61.14945,26.975501 -9.49762,8.539174 -8.5642,-6.87928 -8.87805,146.650492 -0.15262,74.6625 -0.0794,135.75 0.16272,135.75 0.24212,0 2.84199,-1.60306 5.7775,-3.56235 z m 24.29183,-54.8922 c -3.29495,-3.29494 -3.3385,-8.75241 -0.0957,-11.99518 1.43011,-1.43011 6.80698,-3.79681 13.65664,-6.01116 23.44359,-7.5788 48.92487,-12.90374 78.48454,-16.40125 34.83565,-4.12177 37.41876,-3.96987 40.06179,2.35578 1.27473,3.05086 1.27944,3.95058 0.0363,6.92587 -0.78582,1.88073 -2.25436,3.84397 -3.26342,4.36276 -1.00906,0.51878 -8.13466,1.48407 -15.83466,2.14508 -36.13545,3.10208 -70.79868,9.76408 -96.42515,18.53214 -9.50392,3.25176 -13.43418,3.27209 -16.6203,0.086 z m 0.46853,-54.46853 c -3.5042,-3.5042 -3.82543,-7.66005 -0.88139,-11.40279 3.86466,-4.91312 36.8957,-14.26702 69.42729,-19.66079 C 336.12402,193.75451 360.55194,191 369.79725,191 c 4.96832,0 6.21339,0.38242 8.22844,2.52734 3.15942,3.36306 3.17621,8.5644 0.0384,11.90442 -2.57376,2.73966 -2.14175,2.65804 -27.0641,5.11316 -31.35832,3.08913 -62.41053,9.23856 -85.19617,16.87183 -5.88288,1.97079 -11.655,3.58325 -12.82691,3.58325 -1.17192,0 -3.44614,-1.31538 -5.05383,-2.92308 z M 332.82217,118.5098 c 4.45159,-1.32347 7.68546,0.68805 18.90966,11.76212 L 363,141.38936 363,80.694682 363,20 l -2.25,0.0012 c -5.98721,0.0032 -38.66388,4.318814 -50,6.603469 l -2.75,0.554229 0,57.154232 0,57.15424 11.25,-11.13359 c 6.1875,-6.12348 12.29498,-11.44427 13.57217,-11.82399 z"
       style="fill-opacity:1" />
  </g>
</svg>
