<?xml version="1.0" encoding="UTF-8" standalone="no"?>
<svg
   xmlns:dc="http://purl.org/dc/elements/1.1/"
   xmlns:cc="http://creativecommons.org/ns#"
   xmlns:rdf="http://www.w3.org/1999/02/22-rdf-syntax-ns#"
   xmlns:svg="http://www.w3.org/2000/svg"
   xmlns="http://www.w3.org/2000/svg"
   viewBox="0 0 121.03786 229.93463"
   height="229.93463"
   width="121.03786"
   version="1.1"
   id="svg3512">
  <metadata
     id="metadata3518">
    <rdf:RDF>
      <cc:Work
         rdf:about="">
        <dc:format>image/svg+xml</dc:format>
        <dc:type
           rdf:resource="http://purl.org/dc/dcmitype/StillImage" />
        <dc:title></dc:title>
      </cc:Work>
    </rdf:RDF>
  </metadata>
  <defs
     id="defs3516" />
  <path
     id="path3522"
     d="m 11.037856,228 c -1.0999999,-1.1 -1.9999999,-2.45237 -1.9999999,-3.00526 0,-0.55289 6.2999999,-23.00278 13.9999999,-49.88864 7.7,-26.88586 14,-49.15849 14,-49.49474 C 37.037856,125.27511 29.17323,125 19.560909,125 2.2541751,125 2.0687641,124.97681 0.52353013,122.61848 -0.94944887,120.37043 -0.17235387,116.94154 14.389356,61.436318 25.669857,18.438159 30.299963,2.281511 31.617865,1.317838 33.041662,0.276732 42.27198,0 75.573998,0 c 39.568012,0 42.255412,0.112182 43.808872,1.828741 0.91025,1.005807 1.65499,2.737005 1.65499,3.847107 0,1.110101 -10.05181,17.274668 -22.337354,35.921259 L 76.363161,75.5 96.894836,75.77088 c 22.149254,0.29222 24.143024,0.769982 24.143024,5.785311 0,2.241007 -99.416727,144.687949 -102.729669,147.193809 -2.388528,1.80665 -4.981135,1.5392 -7.270335,-0.75 z m 4.581124,-13.01765 c 2.72905,-3.04039 83.494106,-118.27993 84.235966,-120.21319 0.322674,-0.84088 3.682844,-4.819831 4.502114,-6.012354 -0.55388,-1.23148 10.1638,-2.704478 -7.537164,-2.704478 -11.772953,0 -24.673969,-0.195476 -31.785472,-0.646471 -3.472813,-0.220238 -4.198641,-2.713014 -4.198641,-3.110541 0,-0.77892 13.283365,-22.330177 25.398792,-40.796477 12.115431,-18.466301 15.174765,-23.211189 15.495875,-24.047972 0.3211,-0.836784 3.96093,-5.467805 3.28203,-6.285801 -1.05641,-1.2729 6.23034,-0.831843 -29.506465,-0.831843 -32.603362,0 -36.462578,-0.188931 -37.288151,0.805825 -1.158553,1.39597 -25.382411,96.945162 -25.382411,99.889422 0,3.25765 -0.376538,4.45104 10.166611,4.45104 11.524919,0 26.522545,3.34593 26.522545,4.07332 0,0.59241 -7.236317,27.09394 -14.936317,53.74254 -7.7,26.6486 -2.57693,19.71718 -2.57693,20.41617 0,1.77021 -15.143853,19.40102 -13.202551,19.40102 0.894127,0 -4.30061,3.10729 -3.189831,1.86979 z m 14.034777,-20.39639 c 0.5473,-1.44695 0.396998,-1.71197 -0.615901,-1.08596 -0.927568,0.57327 -1.182828,0.39296 -0.829516,-0.58596 0.280698,-0.77772 5.145272,-17.7169 10.810164,-37.64262 8.50202,-29.90504 1.93345,-30.59533 0.891173,-31.8512 C 38.867884,122.16494 43.747644,116 29.384026,116 16.37699,116 11.854926,115.68393 11.49987,114.75 11.088737,113.66856 37.326082,11.301046 38.209117,10.541307 38.389924,10.385746 53.612856,10.087814 72.037856,9.879235 105.01639,9.505903 105.53677,9.531132 105.46753,11.5 105.42883,12.6 95.380076,28.668759 83.136923,47.208354 66.871725,71.838462 61.040982,81.434487 61.486843,82.839272 c 0.910422,2.868488 5.065888,3.2849 25.273596,2.532628 15.922211,-0.592735 20.638201,-0.108843 21.156141,1.24087 0.3853,1.004068 -14.764904,19.67056 -38.939329,54.02871 C 48.522038,169.71367 31.143316,194.175 30.357867,195 c -1.25794,1.32128 -1.34183,1.27195 -0.70411,-0.41404 z M 66.882014,139.98243 102.8577,88.5 94.197776,87.855887 c -4.76296,-0.354262 -13.915277,-0.691762 -20.338491,-0.75 -12.052849,-0.109281 -14.821429,-0.995263 -14.821429,-4.743057 0,-2.24255 0.679994,-3.347705 23.214522,-37.72921 C 93.739706,27.107111 102.90215,12.530953 102.61335,12.242158 102.32456,11.953364 88.035006,11.668235 70.858801,11.608539 L 39.629334,11.5 26.365345,61.5 c -7.295194,27.5 -13.278277,50.5625 -13.295739,51.25 -0.02419,0.95223 4.017983,1.25 16.96825,1.25 15.666667,0 17.156863,0.15686 19,2 1.1,1.1 1.998272,2.5625 1.996161,3.25 -0.0021,0.6875 -4.649844,17.33523 -10.328295,36.99496 -5.678451,19.65973 -10.206317,35.62682 -10.061925,35.48243 0.144393,-0.14439 16.45159,-23.42962 36.238217,-51.74496 z"
     style="fill:#000000" />
</svg>
