<?xml version="1.0" encoding="UTF-8" standalone="no"?>
<svg
   xmlns:dc="http://purl.org/dc/elements/1.1/"
   xmlns:cc="http://creativecommons.org/ns#"
   xmlns:rdf="http://www.w3.org/1999/02/22-rdf-syntax-ns#"
   xmlns:svg="http://www.w3.org/2000/svg"
   xmlns="http://www.w3.org/2000/svg"
   viewBox="0 0 227.9926 176.86797"
   height="176.86797"
   width="227.9926"
   version="1.1"
   id="svg3776">
  <metadata
     id="metadata3782">
    <rdf:RDF>
      <cc:Work
         rdf:about="">
        <dc:format>image/svg+xml</dc:format>
        <dc:type
           rdf:resource="http://purl.org/dc/dcmitype/StillImage" />
        <dc:title></dc:title>
      </cc:Work>
    </rdf:RDF>
  </metadata>
  <defs
     id="defs3780" />
  <path
     id="path3786"
     d="M 67.197555,175.16665 C 56.752567,171.4388 49.810407,163.21011 47.884027,152.27391 c -5.03711,-28.59615 28.451088,-47.06182 48.673788,-26.83913 6.177065,6.17708 8.438695,12.08103 8.425005,21.99336 -0.028,20.23634 -19.255855,34.35172 -37.785265,27.73851 z m 18.67446,-7.00176 c 10.1553,-3.46025 11.66218,-6.53786 11.0781,-13.18108 -0.26124,-2.97131 1.12648,-7.01544 -0.88102,-11.50639 -10.02841,-22.43433 -30.13525,-27.73013 -38.649606,-4.97346 -8.40907,22.47525 6.320264,37.20214 28.452526,29.66093 z m -23.109682,1.55544 c -8.174568,-4.30952 -11.105131,-14.89167 -10.528661,-23.94502 0.71735,-11.26569 11.464432,-23.49435 22.509363,-23.49435 6.5912,0 11.7737,6.2741 15.99526,11.08219 8.5975,9.79201 11.885565,29.2141 0.55533,35.63152 -4.73786,2.68352 -24.07196,3.07656 -28.531292,0.72566 z m 21.864432,-6.63893 c 8.52416,-5.19778 11.68296,-15.6634 7.39877,-24.51336 -5.49608,-11.35337 -19.50159,-13.64387 -28.115478,-4.59807 -6.47714,6.80191 -7.18015,15.2623 -1.97218,23.73435 4.119078,6.70071 15.928398,9.49942 22.688888,5.37708 z m 84.798165,11.86463 c -6.85697,-2.6382 -13.84529,-9.77453 -16.52552,-16.87556 -3.02743,-8.02089 -2.35878,-18.63208 1.63665,-25.973 C 159.77031,122.48042 168.92387,117 179.7523,117 c 7.41724,0 12.1271,1.55611 17.7959,5.87964 9.9156,7.56253 14.03642,21.80041 9.90749,34.23145 -2.52166,7.59203 -11.1301,16.1186 -18.4757,18.30001 -7.01881,2.08436 -13.31816,1.93455 -19.55506,-0.46507 z m 16.17451,-8.38252 c 7.67256,-2.27851 12.70798,-6.23901 15.00511,-14.14087 5.16043,-17.75123 -6.85632,-25.7126 -24.49376,-27.04284 -10.91564,-0.82327 -10.62654,6.27605 -16.05636,16.07915 -2.6401,4.76647 -2.4458,9.13212 0.97815,15.87799 4.17075,8.21722 -1.10276,5.69926 6.42183,9.21489 5.89545,2.75446 7.73694,3.10255 18.14503,0.0117 z m -18.88543,2.20644 c -12.14039,-6.87629 -12.5921,-30.78997 -2.19155,-40.18624 12.0875,-10.92032 37.42669,-0.69073 39.38374,15.83349 1.87924,15.86731 -23.53172,32.09002 -37.19219,24.35275 z m 21.94241,-6.31309 c 8.80987,-5.16293 11.57168,-17.39243 5.78661,-25.62357 -3.92657,-5.58683 -8.32465,-8.06406 -14.31692,-8.06406 -14.53826,0 -22.76688,16.0463 -14.59219,28.45562 5.04802,7.66298 15.09511,9.93637 23.1225,5.23201 z M 1.5640265,155.42857 C 0.19388655,154.05843 -0.00643245,149.28699 1.5354837e-4,118.17857 0.00445355,98.045959 0.46583655,79.676249 1.0591265,76.019399 c 2.60554,-16.05966 14.6083105,-29.99621 30.4050005,-35.30358 1.66566,-0.55963 12.25347,-1.28713 23.52847,-1.61667 L 75.492595,38.499999 75.755725,20.5 C 75.982125,5.011877 76.253015,2.325564 77.696855,1.25 79.003185,0.276867 95.467235,0 152.02873,0 c 69.11591,0 72.73448,0.08905 74.30887,1.828741 1.5071,1.66532 1.65499,8.139031 1.65499,72.443298 l 0,70.614551 -2.22251,1.55671 c -2.92581,2.04932 -5.09674,1.9664 -7.1225,-0.27204 -1.50489,-1.66288 -1.65499,-7.83027 -1.65499,-68.000001 l 0,-66.171259 -64.97148,0 -64.971475,0 -0.27852,47.081159 c -0.26786,45.279931 -0.35278,47.135431 -2.21965,48.500001 -2.24347,1.63983 -4.42764,1.78675 -6.55887,0.44117 -1.25557,-0.79272 -1.58148,-5.55658 -2,-29.234691 l -0.5,-28.28764 -15.499998,-0.30365 c -23.62521,-0.46282 -30.95719,1.60919 -39.85604,11.2633 -8.24366,8.94332 -8.5899,10.53178 -8.61867,39.540351 l -0.0253,25.5 14.931,0.27777 c 8.92969,0.16612 15.46115,0.71776 16.25,1.37244 1.90963,1.58485 1.61826,6.26899 -0.50974,8.1948 -1.52674,1.38168 -4.25156,1.65499 -16.5,1.65499 l -14.67126,0 0,4 0,4 12.06574,0 c 13.89371,0 15.93426,0.68323 15.93426,5.33518 0,5.42551 -0.80808,5.66482 -19.12857,5.66482 -13.8744605,0 -16.9966805,-0.26811 -18.2999905,-1.57143 z m 16.7674915,-7.74148 c 5.751831,-0.0216 3.017165,3.0116 8.138066,3.5626 -4.1525,-0.005 -7.220238,0.73924 -12.060723,-1.99318 L 7.6509655,147.83381 5.8134015,134.97598 10.492597,136.5 c -0.8487145,2e-5 -1.6573625,-0.227 -1.6250105,-5.21969 0.04455,-6.87531 25.3368685,0.53292 26.2023085,-1.08417 0.693978,-1.29671 -1.032853,7.11194 -2.108413,5.57637 -1.4312,-2.04333 -1.424966,3.52629 -14.039343,-3.05347 L 8.3020335,129.23594 10.183817,100.75 l 0.30878,-27.250001 1.632111,-8.2361 c 1.53544,-7.74827 10.758749,-10.04311 17.792319,-13.50913 4.23541,-2.08714 6.581575,-8.77048 26.050286,-5.94665 l 26.980262,-1.7818 -1.23594,31.29413 c -0.66274,16.78072 0.95635,22.59329 1.59697,23.79031 0.56935,1.063841 -1.8043,2.720771 -0.743,2.720771 1.0613,0 -3.11007,3.96098 -2.54072,2.89714 0.67107,-1.25391 0.78445,-10.359221 0.58575,-48.282381 L 84.992595,9.985825 151.85495,7.883393 218.49259,10.5 l 0.25708,66.718599 c 0.24919,64.671191 3.7992,63.154741 5.66365,64.152561 1.44874,0.77534 -2.74527,4.23751 -1.56319,3.05543 1.3957,-1.3957 -6.59903,-11.50271 -4.94732,-73.045181 0.8163,-30.41515 0.26967,-45.653327 0.30539,-53.716306 0.0262,-5.917155 -0.96959,-6.899587 -2.40426,-7.04947 -3.13887,-0.327927 -128.370855,-1.396044 -129.524905,0.387074 -0.44495,0.687502 -1.82784,1.14526 -1.98317,11.047861 l -0.27528,17.550571 -0.0396,6.17169 c -1.46052,1.05277 -42.819938,-0.53324 -51.059528,5.13574 -6.35396,4.37164 -12.172652,7.29495 -16.970428,13.97535 l -4.132702,6.38014 -1.304143,40.008741 c -0.108955,32.04026 -2.0460185,28.99351 -2.3859445,30.28947 -2.131252,8.12539 7.1055815,6.13643 10.2032885,6.12482 z M 114.99259,146 c -1.1,-1.1 -2,-2.9 -2,-4 0,-1.1 0.9,-2.9 2,-4 1.76495,-1.76495 3.33333,-2 13.34501,-2 12.48685,0 14.65499,0.92792 14.65499,6.27204 0,4.55386 -3.12025,5.72796 -15.22251,5.72796 -9.44416,0 -11.02492,-0.24743 -12.77749,-2 z m 20.78171,-7.30611 c 0.80184,-1.27405 -1.44532,5.63911 -2.24716,4.36506 -0.91731,-1.45754 4.29317,-1.0111 -4.65946,-1.24839 -11.1998,-0.29685 -4.66173,-1.87774 -4.66173,1.61049 0,3.10788 -6.95031,-2.71688 3.89364,-2.96452 8.64702,-0.19748 6.75841,-0.3067 7.67471,-1.76264 z M 20.992597,107 c -1.81346,-1.81346 -1.99948,-3.3291 -1.99442,-16.250001 0.006,-16.3279 0.84706,-20.37363 5.28335,-25.42629 4.95062,-5.63845 7.66232,-6.32371 25.02397,-6.32371 13.62712,0 15.56547,0.20812 17.032108,1.82874 2.19936,2.43026 2.08834,4.73791 -0.34501,7.17126 -1.810558,1.81056 -3.333328,2 -16.076918,2 l -12.953339,1.91009 -4.159019,1.68714 -2.36129,2.58599 -0.449432,14.68315 c -0.440187,14.381111 -0.0936,15.085761 -2.2225,16.576931 -2.93731,2.05737 -4.37057,1.96362 -6.7775,-0.4433 z m 6.687676,-7.284141 c 0.53639,-1.4108 -4.363997,-5.14895 -4.080863,-12.55208 0.15391,-4.02431 -1.062027,-16.70468 5.213044,-21.03681 4.148281,-2.86385 12.828735,-1.2478 21.679941,-0.71121 13.003935,0.78835 4.376751,-2.80695 9.545222,-1.46822 2.952409,0.76472 3.154888,2.9063 -10.337242,2.9063 -17.20761,0 -16.125288,-0.4317 -20.185062,3.80575 -2.471412,2.57958 -2.792454,4.07186 -2.792454,17.75659 0,11.829531 1.222164,7.09831 2.148864,7.47224 2.91104,1.17463 -2.11892,6.266891 -1.19145,3.82744 z"
     style="fill:#000000" />
</svg>
