<?xml version="1.0" encoding="UTF-8" standalone="no"?>
<svg
   xmlns:dc="http://purl.org/dc/elements/1.1/"
   xmlns:cc="http://creativecommons.org/ns#"
   xmlns:rdf="http://www.w3.org/1999/02/22-rdf-syntax-ns#"
   xmlns:svg="http://www.w3.org/2000/svg"
   xmlns="http://www.w3.org/2000/svg"
   viewBox="0 0 205 203.79117"
   height="203.79117"
   width="205"
   version="1.1"
   id="svg3597">
  <metadata
     id="metadata3603">
    <rdf:RDF>
      <cc:Work
         rdf:about="">
        <dc:format>image/svg+xml</dc:format>
        <dc:type
           rdf:resource="http://purl.org/dc/dcmitype/StillImage" />
        <dc:title></dc:title>
      </cc:Work>
    </rdf:RDF>
  </metadata>
  <defs
     id="defs3601" />
  <path
     id="path3607"
     d="M 2,201.79116 C 0.201662,199.99282 0,198.45783 0,186.5677 L 0,173.34425 15.087122,120.8177 c 8.297917,-28.889599 15.976571,-53.976019 17.063675,-55.747599 3.007429,-4.90102 10.421265,-10.94512 15.582812,-12.70384 3.330069,-1.134667 8.489321,-1.5751 18.450801,-1.5751 l 13.82813,0 -2.91096,-4.018466 C 69.26663,35.956859 70.90783,18.883332 80.72625,9.0649057 c 18.44993,-18.449925 50.21858,-7.009464 52.08227,18.7557583 0.50656,7.003217 -1.84929,15.677071 -5.40602,19.903995 l -2.58029,3.066502 14.8389,0.0098 c 13.56624,0.0089 15.28237,0.216253 20.00979,2.41735 6.04859,2.81623 12.26022,8.85521 14.66337,14.25579 0.93419,2.0994 8.21615,26.50475 16.18213,54.234109 L 205,172.1252 l 0,14.26155 c 0,11.63171 -0.28977,14.55133 -1.57143,15.83298 -1.40739,1.40739 -11.89827,1.57143 -100.5,1.57143 -97.595237,0 -98.955525,-0.027 -100.92857,-2 z m 192.96737,-7.23814 c 0.81019,-0.81019 1.09406,2.20245 1.3589,-6.56591 l 0.39725,-13.15194 -14.42746,-48.65971 c -4.6503,-15.68413 -12.69604,-45.891379 -13.5901,-48.334119 -1.98049,-5.41101 -3.45791,-10.56616 -8.60487,-14.02551 -3.318,-2.23008 -6.73128,-4.09976 -20.25999,-4.40215 -8.525,-0.19054 -14.18241,0.3489 -14.6112,-0.0636 -0.24685,-0.23746 -8.93562,1.62657 -10.70728,0.0816 -1.30579,-1.1387 2.4308,-12.976503 3.24437,-14.327581 5.70521,-9.474427 6.47674,-16.461281 4.357,-22.566107 -2.08603,-6.007718 -3.87848,-7.284263 -6.16572,-9.126452 -3.9648,-3.193328 -10.58384,-5.0902993 -16.05238,-4.6759083 -3.28975,0.249288 -16.44065,6.3673193 -17.82439,16.4627963 -0.94726,6.911017 -0.13112,12.395611 3.69179,18.74417 1.90112,3.157123 0.67586,15.475002 0.67586,15.623422 0,0.14842 -8.86207,-0.0809 -16.97457,0.17018 -16.578444,0.51305 -15.024805,-1.43516 -20.509643,1.78253 -2.602155,1.52655 -6.065229,4.32373 -7.224542,6.71855 -1.159313,2.39482 -9.566978,26.36082 -17.626979,53.974959 l -14.089052,48.27012 -0.87394,3.66622 c 0.344221,5.67682 -0.415043,17.71093 0.110523,19.82548 0.366666,0.36667 37.901242,0.98446 92.149583,0.98446 75.38148,0 92.63973,0.5116 93.55684,-0.4055 z M 49.75,195.04579 9,194.76873 9,183.73254 9,172.69635 23.490895,122.10009 C 39.007965,67.920831 39.253641,67.299571 47.256593,62.001811 l 4.094777,-2.71065 49.57431,-0.28822 c 42.90739,-0.24946 50.12265,-0.0791 53.65162,1.26675 4.43987,1.69325 9.79471,6.4064 11.89658,10.47096 0.73126,1.41409 7.91418,25.43477 15.96206,53.379299 l 14.63251,50.80822 -0.28422,10.1815 -0.28423,10.18149 -53,0.0159 c -29.15,0.009 -71.3375,-0.10883 -93.75,-0.26122 z m 145.04211,-10.10758 c 0.28453,-8.13646 -0.0858,-9.67528 -14.2892,-59.37545 -8.01971,-28.062369 -15.19848,-52.203549 -15.95283,-53.647049 -1.97376,-3.77698 -6.47533,-7.77837 -10.76796,-9.5715 -3.18733,-1.33143 -10.6211,-1.55305 -52.09272,-1.55305 l -48.374833,0 -4.407283,2.32677 c -7.849744,4.14418 -8.562242,5.927 -24.34412,60.914049 C 10.388083,173.42064 10,175.02634 10,184.28718 l 0,9.51439 92.25,-0.2552 92.25,-0.25521 z m -83.38081,-37.038 c -7.58055,-4.62257 -9.92272,-11.93163 -9.22785,-28.79676 0.37709,-9.1522 0.84367,-11.63883 2.88322,-15.36577 2.71364,-4.958749 9.14708,-8.946519 14.43333,-8.946519 5.40703,0 11.73884,3.9821 14.25,8.961889 2.66505,5.28496 2.84403,8.30123 0.62428,10.52097 -3.00705,3.00705 -6.61479,1.52808 -9.10578,-3.73286 -2.04945,-4.32841 -2.55853,-4.75 -5.73573,-4.75 -5.56998,0 -7.03277,3.21472 -7.03277,15.45561 0,10.92251 0.65851,14.56004 3.07293,16.97446 2.10598,2.10598 5.74153,1.98492 7.77208,-0.25881 2.5837,-2.85496 2.00148,-4.17126 -1.84501,-4.17126 -2.16667,0 -4.2619,-0.7619 -5.5,-2 -2.26853,-2.26853 -2.43543,-3.31787 -0.96482,-6.06574 0.91006,-1.70045 2.16449,-1.93426 10.37756,-1.93426 11.86675,0 12.4217,0.50011 10.83486,9.76402 -1.23839,7.22965 -3.19739,10.55576 -8.23743,13.98598 -4.25201,2.89389 -12.16143,3.06498 -16.59887,0.35905 z m 14.92124,-11.69302 c 3.18348,-2.9356 -2.38352,-3.77467 -2.38352,-3.77467 -1.61948,-1.10678 -0.80419,0.3598 -0.80419,0.3598 0,0 -1.47233,-0.40163 -2.02316,0.21155 0,0 -2.96985,-2.13282 2.03157,-1.81175 4.39283,0.28201 5.59913,1.52245 5.36365,3.83739 -0.31584,3.10501 -5.85294,6.76165 -8.9378,6.76165 -6.78737,0 -10.3315,-8.97638 -9.22707,-23.36984 0.72577,-9.45864 2.85543,-16.75847 6.98826,-17.23896 5.34313,-0.6212 10.63036,0.16727 12.74538,4.94863 1.59812,3.61281 1.40563,1.67957 2.58829,4.21269 1.2745,2.72987 1.59001,5.3874 -0.94512,0.41812 -2.82409,-5.53568 -6.16802,-7.51997 -12.67265,-7.51997 -6.37265,0 -6.53926,3.55348 -7.86868,9.89988 -0.7535,3.59705 -1.09994,8.63416 -0.25212,16.08483 0.80924,7.11166 2.86216,10.46365 6.64151,12.11519 1.05518,0.4611 -1.11482,0.0678 5.56427,-1.47667 1.84235,-0.42603 1.28267,-1.89778 3.19138,-3.65787 z M 69.03518,146.8569 C 68.40569,145.68069 68,135.69618 68,121.37995 l 0,-23.542679 2.5,-1.63807 c 2.31587,-1.51741 2.68413,-1.51741 5,0 2.17805,1.42712 2.5,2.36515 2.5,7.284009 l 0,5.64595 7.39342,-7.169 c 4.06638,-3.942949 7.79125,-7.168999 8.27749,-7.168999 0.48624,0 1.88421,0.70052 3.10658,1.5567 4.01245,2.81043 2.81344,5.592669 -6.77749,15.726809 -4.95,5.23036 -9,9.90315 -9,10.38397 0,0.48082 4.05,4.90545 9,9.83252 9.13342,9.0911 10.77968,12.32032 7.8,15.3 -2.9022,2.9022 -6.41514,1.35117 -13.17887,-5.81874 L 78,134.75367 l 0,5.81875 c 0,3.2003 -0.54,6.35874 -1.2,7.01874 -1.90147,1.90147 -6.59158,1.45796 -7.76482,-0.73426 z m 6.76051,-7.31574 c 0.19792,-4.51804 4.03964,-10.72246 4.86368,-10.72246 0.67712,0 2.06504,3.64178 5.90029,7.51022 4.72423,4.7651 8.16837,11.05916 7.21508,10.08686 -4.86938,-4.96641 0.38802,-0.76051 -8.71776,-10.62861 -2.69071,-2.91598 -8.213,-3.86168 -9.0701,-6.72677 C 75.25389,126.61017 79,122.03052 79,121.67029 c 0,-0.54151 -4.71081,-6.55822 -3.32205,-10.91447 0.61538,-1.93032 5.87628,-2.32148 7.3962,-3.83436 8.9062,-8.864949 13.60398,-12.691659 12.1875,-9.333029 -0.82763,1.96241 -0.80461,1.94125 -2.47663,3.238249 -1.4354,1.11344 -4.07386,1.39191 -7.0906,4.76133 -7.61721,8.50775 -7.95856,7.45926 -9.69442,-1.29685 -1.11229,-5.610659 -1.81738,-3.47792 -3.06992,-5.908239 -0.26319,-0.51067 1.84675,-0.17788 2.83906,2.678899 1.22485,3.52627 3.29628,11.20806 3.52642,20.59021 0.0539,2.19606 0.15057,3.70995 0.006,5.50233 -0.71208,8.85513 -3.4354,13.36499 -3.11116,13.68923 0.38987,0.38986 -1.74682,4.40375 -1.6197,3.27683 0.27983,-2.48072 0.96533,1.3381 1.22455,-4.57926 z M 86.6536,59.242891 C 83.9036,57.610501 85.375,44.257037 84,42.192111 c -2.15561,-3.237216 -2.5,-4.878337 -2.5,-11.91318 0,-7.267464 0.29865,-8.586408 2.73377,-12.073269 5.45235,-7.80724 14.75251,-11.2819033 23.94765,-8.9471643 17.95173,4.5581263 21.67689,29.5900723 8.73951,41.1795513 -1.52963,1.370272 -0.98308,5.933782 -1.76509,8.011012 -0.96785,2.57086 -5.52502,1.15729 -8.94042,1.30547 -6.45988,0.28027 -15.05894,2.16125 -19.56182,-0.51164 z M 112.63556,47.264583 C 119.89,43.013202 124.08976,33.551928 122.0632,26.025878 119.09336,14.996737 108.21409,8.0407937 98.16585,10.746501 83.87319,14.595115 78.09297,29.72995 86.27744,41.874895 c 5.36141,7.95579 17.68091,10.474876 26.35812,5.389688 z"
     style="fill:#000000" />
</svg>
