<?xml version="1.0" encoding="utf-8"?>
<!-- Generator: Adobe Illustrator 20.0.0, SVG Export Plug-In . SVG Version: 6.00 Build 0)  -->
<svg version="1.1" id="Outline_Old_Icons" xmlns="http://www.w3.org/2000/svg" xmlns:xlink="http://www.w3.org/1999/xlink" x="0px"
	 y="0px" width="24px" height="21px" viewBox="0 0 24 21" style="enable-background:new 0 0 24 21;" xml:space="preserve">
<style type="text/css">
	.st0{fill:none;stroke:#000000;stroke-linecap:round;stroke-linejoin:round;stroke-miterlimit:10;}
</style>
<g>
	<path class="st0" d="M11.5,4.5c1.8-0.1,3.5,0.4,5,1.5"/>
	<path class="st0" d="M23.5,8c0,1.1-0.9,2-2,2"/>
	<path class="st0" d="M12,2c-0.8,0-1.7,0.1-2.5,0.3c-0.6-1.1-1.7-1.8-3-1.8C5.9,0.5,5.3,0.7,4.8,1c0.9,0.5,1.6,1.5,1.7,2.5
		C4.4,4.8,2.9,6.7,2.6,9H0.5v4h2.7c1.4,2.9,4.8,5,8.8,5c5.2,0,9.5-3.6,9.5-8C21.5,5.6,17.2,2,12,2z"/>
	<circle class="st0" cx="6" cy="8.5" r="0.5"/>
	<line class="st0" x1="7.5" y1="17.3" x2="7.5" y2="20.5"/>
	<line class="st0" x1="16.5" y1="17.2" x2="16.5" y2="20.5"/>
</g>
</svg>
