<?xml version="1.0" encoding="utf-8"?>
<!-- Generator: Adobe Illustrator 20.0.0, SVG Export Plug-In . SVG Version: 6.00 Build 0)  -->
<svg version="1.1" id="Outline_Old_Icons" xmlns="http://www.w3.org/2000/svg" xmlns:xlink="http://www.w3.org/1999/xlink" x="0px"
	 y="0px" width="24px" height="23px" viewBox="0 0 24 23" style="enable-background:new 0 0 24 23;" xml:space="preserve">
<style type="text/css">
	.st0{fill:none;stroke:#000000;stroke-linecap:round;stroke-linejoin:round;stroke-miterlimit:10;}
</style>
<g>
	<rect x="2.5" y="11.5" class="st0" width="19" height="11"/>
	<polygon class="st0" points="4.5,20.5 4.5,13.5 9.5,13.5 9.5,16.5 14.5,16.5 14.5,13.5 19.5,13.5 19.5,20.5 	"/>
	<line class="st0" x1="12" y1="13.5" x2="12" y2="14.5"/>
	<path class="st0" d="M20.5,11.5c0-2.2-1.7-2.6-4-2.5C16,7,14.1,6.5,12,6.5C9.9,6.5,8,7,7.5,9c-2.3-0.1-4,0.3-4,2.5"/>
	<line class="st0" x1="0.5" y1="9.5" x2="1.5" y2="9.5"/>
	<line class="st0" x1="4.5" y1="2" x2="5.5" y2="3"/>
	<line class="st0" x1="11.5" y1="0.5" x2="11.5" y2="2"/>
	<line class="st0" x1="19.5" y1="2" x2="18.5" y2="3"/>
	<line class="st0" x1="23.5" y1="9.5" x2="22.5" y2="9.5"/>
</g>
</svg>
