<?xml version="1.0" encoding="UTF-8" standalone="no"?>
<svg
   xmlns:dc="http://purl.org/dc/elements/1.1/"
   xmlns:cc="http://creativecommons.org/ns#"
   xmlns:rdf="http://www.w3.org/1999/02/22-rdf-syntax-ns#"
   xmlns:svg="http://www.w3.org/2000/svg"
   xmlns="http://www.w3.org/2000/svg"
   viewBox="0 0 336.00894 316.40408"
   height="316.40408"
   width="336.00894"
   version="1.1"
   id="svg3390">
  <metadata
     id="metadata3396">
    <rdf:RDF>
      <cc:Work
         rdf:about="">
        <dc:format>image/svg+xml</dc:format>
        <dc:type
           rdf:resource="http://purl.org/dc/dcmitype/StillImage" />
        <dc:title></dc:title>
      </cc:Work>
    </rdf:RDF>
  </metadata>
  <defs
     id="defs3394" />
  <g
     transform="translate(-7.9715215,-4.7261793)"
     id="g3400">
    <path
       id="path3404"
       d="M 21.882471,318.20726 C 15.907447,315.08587 10.628629,308.92471 9.0456074,303.22474 7.6134929,298.06815 7.6134929,60.931853 9.0456074,55.775256 10.628629,50.075289 15.907447,43.914128 21.882471,40.792738 27.211921,38.0086 27.289621,38 47.114192,38 L 67,38 67.021962,27.75 C 67.047846,15.669419 68.928386,10.233454 74.191858,7.0243976 77.108379,5.2462412 79.216524,5.0078136 92,5.0103273 c 12.42591,0.00244 14.90124,0.2674084 17.30507,1.8523729 C 114.68981,10.413137 115.46081,12.55943 116,25.5 l 0.5,12 60.16828,0.257774 60.16828,0.257775 0.33172,-12.493911 L 237.5,13.027727 241.2639,9.2638637 245.02781,5.5 260.2669,5.1832044 C 274.84269,4.880198 275.65821,4.9681194 279.003,7.2031377 284.64043,10.97012 285.99665,14.856661 285.99845,27.25 L 286,38 l 18.63398,0 c 11.24947,0 20.16906,0.459921 22.50758,1.160558 5.48653,1.643804 11.73135,7.370875 14.48474,13.283834 l 2.35416,5.055608 -0.0122,122 c -0.0121,120.58574 -0.0358,122.05217 -2.04918,126.5 -2.7355,6.04311 -6.40969,9.77576 -12.41909,12.61671 l -5,2.36375 -148.63581,0.01 L 27.228383,321 21.882471,318.20726 Z M 324.1504,303.91951 C 329.04122,301.30202 329,302.11277 329,208.53212 L 329,121 195.5,120.7622 c -73.425,-0.1308 -142.1625,-0.2433 -152.75,-0.25 L 23.5,120.5 l -0.261154,88 c -0.191473,64.51985 0.04541,88.74438 0.887817,90.78983 C 26.645522,305.40589 15.865151,305 175.78825,305 c 102.91772,0 146.94232,-0.32062 148.36215,-1.08049 z M 122.3083,276.98108 c -3.29854,-1.31463 -5.65001,-5.48345 -4.86261,-8.6207 0.39616,-1.57843 9.38264,-11.61278 22.17192,-24.75729 L 161.12338,221.5 99.980715,221 c -59.691298,-0.48813 -61.177381,-0.54747 -62.60512,-2.5 -3.555093,-4.86182 -2.093933,-10.51599 3.241804,-12.54463 C 42.111332,205.38737 67.069718,205 102.17151,205 l 59.04132,0 -22.10642,-22.59344 C 120.32375,163.21008 117,159.36622 117,156.84081 c 0,-1.63476 0.4405,-3.79538 0.97889,-4.80137 1.44789,-2.70541 6.07275,-4.03943 9.25419,-2.66934 1.44303,0.62145 15.70591,14.4865 31.6953,30.81123 C 184.55567,206.3461 188,210.23486 188,213.00415 c 0,2.71783 -2.55117,5.7951 -18.91752,22.81867 -25.85482,26.89307 -40.20089,40.87585 -42.58248,41.50414 -1.1,0.2902 -2.98627,0.13455 -4.1917,-0.34588 z m 97.0487,-4.97266 c -2.729,-1.10129 -5.357,-4.82771 -5.357,-7.59607 0,-1.17845 0.93266,-3.32832 2.07258,-4.77749 L 218.14516,257 l 15.75311,0 c 15.17356,0 15.83309,0.0851 17.92742,2.31445 3.96573,4.22133 2.35982,10.52392 -3.22228,12.64624 -3.26685,1.24205 -26.19415,1.27947 -29.24641,0.0477 z m 54.04266,-0.39787 C 268.55898,269.44318 267.27969,262.72031 271,259 c 1.82672,-1.82672 3.33333,-2 17.38922,-2 17.13063,0 19.05043,0.62601 20.20014,6.58685 0.46211,2.39587 0.035,3.73894 -1.90798,6 l -2.50337,2.91315 -13.839,0.24935 c -10.10575,0.18208 -14.67537,-0.12512 -16.93935,-1.1388 z m -57.32708,-53.24541 c -2.7257,-3.46516 -2.61914,-6.61798 0.33999,-10.05938 l 2.41258,-2.80576 15.00521,0 c 14.50389,0 15.09149,0.081 17.58743,2.42431 3.34695,3.14229 3.46378,7.89887 0.26776,10.90138 C 249.51327,220.86644 248.41203,221 233.75813,221 l -15.61297,0 -2.07258,-2.63486 z M 271,219 c -2.62393,-2.62393 -2.65309,-8.34691 -0.0558,-10.94422 2.70906,-2.70906 7.13903,-3.32331 21.00065,-2.91192 10.81502,0.32098 12.21974,0.57609 14.22746,2.58392 2.78647,2.7866 2.97126,8.35109 0.37268,11.22248 C 304.8237,220.85229 303.5482,221 288.84501,221 274.33333,221 272.8317,220.8317 271,219 Z m -54.92742,-51.63486 c -2.72527,-3.46462 -2.6192,-6.6175 0.33844,-10.05938 2.38298,-2.77314 2.56444,-2.80962 15.60684,-3.13735 7.25771,-0.18238 14.28419,-0.0584 15.61442,0.27543 6.23687,1.56536 8.53945,9.1673 4.05327,13.38185 C 249.51327,169.86644 248.41203,170 233.75813,170 l -15.61297,0 -2.07258,-2.63486 z M 271,168 c -2.56455,-2.56455 -2.60788,-8.02773 -0.0883,-11.13922 1.86189,-2.29933 2.31964,-2.36078 17.58658,-2.36078 l 15.67494,0 2.50578,2.91315 c 1.94556,2.26184 2.37268,3.60329 1.91041,6 C 307.43965,169.37399 305.51985,170 288.38922,170 274.33333,170 272.82672,169.82672 271,168 Z M 329,83.967881 C 329,61.614839 328.27346,57.287086 324.1504,55.080491 322.9179,54.420878 315.09443,54 304.06574,54 L 286,54 l 0,8.039838 c 0,10.376061 -2.25501,15.264978 -8.30867,18.013358 -6.0797,2.760205 -26.32614,2.749579 -32.42067,-0.01702 -6.4509,-2.928366 -8.26241,-6.716239 -8.26692,-17.28618 L 237,54 l -60.5,0 -60.5,0 0,8.54966 c 0,9.728802 -1.25248,13.067762 -6.23491,16.621502 C 106.70257,81.355517 105.58945,81.5 91.82333,81.5 78.559643,81.5 76.880796,81.301503 74.385119,79.438211 68.799404,75.267873 67.647208,72.653733 67.191226,63.116479 l -0.425168,-8.892758 -3.633029,-0.600855 c -6.007333,-0.993533 -28.360128,-0.687495 -32.435047,0.444078 -2.554774,0.70944 -4.439823,2.101814 -5.746262,4.244423 -1.767982,2.899557 -1.944583,5.16045 -1.947982,24.938633 L 23,105 l 153,0 153,0 0,-21.032119 z M 101,43.5 101,21 l -9,0 -9,0 0,22.5 0,22.5 9,0 9,0 0,-22.5 z m 169,0 0,-22.5 -9,0 -9,0 0,22.5 0,22.5 9,0 9,0 0,-22.5 z"
       style="fill-opacity:1" />
    <path
       id="path3402"
       d="M 263,313.56513 263,306 l 29.06574,0 c 30.18769,0 31.78531,-0.19842 35.16202,-4.36704 1.60797,-1.98506 1.72931,-8.35611 1.75,-91.88296 L 329,120 l -33,0 -33,0 0,-7.5 0,-7.5 33,0 33,0 0,-22.565741 c 0,-13.564608 -0.41071,-23.33316 -1.02964,-24.48965 C 325.70559,53.712847 322.12636,53 303.14337,53 l -17.95596,0 -0.3437,9.985315 -0.34371,9.985315 -3.73302,3.731037 c -3.47838,3.476537 -4.21166,3.758082 -10.75,4.127531 L 263,81.225693 263,74.112847 263,67 l 4,0 4,0 0,-23.5 0,-23.5 -4,0 -4,0 0,-7.63691 0,-7.6369107 6.49975,0.5217377 c 7.27764,0.5841789 10.67809,2.3557803 13.54425,7.056417 1.62577,2.666338 1.94914,5.059108 1.95226,14.445666 L 285,38 l 17.8185,0 c 20.62886,0 26.10104,1.125633 32.18266,6.62001 2.13509,1.928925 4.92077,5.616029 6.19041,8.193564 L 343.5,57.5 l 0,122 c 0,110.47995 -0.15343,122.33736 -1.6249,125.57273 -2.44835,5.38325 -7.41313,10.52057 -12.66905,13.10934 -4.56254,2.24725 -5.64374,2.32754 -35.45605,2.63306 l -30.75,0.31513 0,-7.56513 z m 10.73641,-42.25707 c -0.96998,-0.25297 -2.46793,-1.82198 -3.32878,-3.48669 -1.26552,-2.44723 -1.34222,-3.56506 -0.40063,-5.83828 1.81826,-4.38965 5.18403,-5.18046 20.48236,-4.81245 12.98808,0.31243 13.7901,0.45072 15.60129,2.69014 2.59707,3.21111 2.39835,6.74113 -0.5452,9.68467 -2.38192,2.38193 -2.8627,2.45112 -16.25,2.33855 -7.5875,-0.0638 -14.58907,-0.32298 -15.55904,-0.57594 z m -0.41523,-51.49679 c -3.46908,-1.67717 -4.79423,-5.99581 -2.94001,-9.58147 1.99714,-3.86205 3.55264,-4.19986 19.41428,-4.21615 12.79161,-0.0131 13.38848,0.0794 15.75,2.4409 1.35,1.35 2.45455,3.62045 2.45455,5.04545 0,1.425 -1.10455,3.69545 -2.45455,5.04545 -2.37649,2.3765 -2.89321,2.4524 -16.25,2.38687 -7.5875,-0.0372 -14.77592,-0.5417 -15.97427,-1.12105 z m 0.98712,-50.78299 c -3.28751,-1.38103 -5.51609,-5.35219 -4.73967,-8.44572 1.23092,-4.90434 3.56343,-5.58256 19.19933,-5.58256 13.87375,0 14.39993,0.077 16.77749,2.45455 2.94355,2.94354 3.14227,6.47356 0.54521,9.68467 -1.82202,2.25281 -2.54235,2.37105 -15.75,2.58527 -7.61236,0.12347 -14.82693,-0.18982 -16.03236,-0.69621 z"
       style="fill-opacity:1" />
  </g>
</svg>
