<svg width="205" height="203.79" version="1.1" viewBox="0 0 205 203.79117" xmlns="http://www.w3.org/2000/svg">
  <defs>
    <linearGradient id="gradient" x1="0" y1="0" x2="0" y2="100%">
      <stop offset="0%" stop-color="#374e5d"/>
      <stop offset="100%" stop-color="#161717"/>
    </linearGradient>
  </defs>
  <path fill="url(#gradient)" d="m2 201.79c-1.7983-1.7983-2-3.3333-2-15.223v-13.223l15.087-52.527c8.2979-28.89 15.977-53.976 17.064-55.748 3.0074-4.901 10.421-10.945 15.583-12.704 3.3301-1.1347 8.4893-1.5751 18.451-1.5751h13.828l-2.911-4.0185c-7.835-10.816-6.1938-27.889 3.6247-37.708 18.45-18.45 50.219-7.0095 52.082 18.756 0.50656 7.0032-1.8493 15.677-5.406 19.904l-2.5803 3.0665 14.839 0.0098c13.566 0.0089 15.282 0.21625 20.01 2.4174 6.0486 2.8162 12.26 8.8552 14.663 14.256 0.93419 2.0994 8.2162 26.505 16.182 54.234l14.484 50.417v14.262c0 11.632-0.28977 14.551-1.5714 15.833-1.4074 1.4074-11.898 1.5714-100.5 1.5714-97.595 0-98.956-0.027-100.93-2zm192.97-7.2381c0.81019-0.81019 1.0941 2.2024 1.3589-6.5659l0.39725-13.152-14.427-48.66c-4.6503-15.684-12.696-45.891-13.59-48.334-1.9805-5.411-3.4579-10.566-8.6049-14.026-3.318-2.2301-6.7313-4.0998-20.26-4.4022-8.525-0.19054-14.182 0.3489-14.611-0.0636-0.24685-0.23746-8.9356 1.6266-10.707 0.0816-1.3058-1.1387 2.4308-12.977 3.2444-14.328 5.7052-9.4744 6.4767-16.461 4.357-22.566-2.086-6.0077-3.8785-7.2843-6.1657-9.1265-3.9648-3.1933-10.584-5.0903-16.052-4.6759-3.2898 0.24929-16.441 6.3673-17.824 16.463-0.94726 6.911-0.13112 12.396 3.6918 18.744 1.9011 3.1571 0.67586 15.475 0.67586 15.623s-8.8621-0.0809-16.975 0.17018c-16.578 0.51305-15.025-1.4352-20.51 1.7825-2.6022 1.5266-6.0652 4.3237-7.2245 6.7186s-9.567 26.361-17.627 53.975l-14.089 48.27-0.87394 3.6662c0.34422 5.6768-0.41504 17.711 0.11052 19.825 0.36667 0.36667 37.901 0.98446 92.15 0.98446 75.381 0 92.64 0.5116 93.557-0.4055zm-145.22 0.49277-40.75-0.27706v-11.036-11.036l14.491-50.596c15.517-54.179 15.763-54.801 23.766-60.098l4.0948-2.7106 49.574-0.28822c42.907-0.24946 50.123-0.0791 53.652 1.2668 4.4399 1.6932 9.7947 6.4064 11.897 10.471 0.73126 1.4141 7.9142 25.435 15.962 53.379l14.633 50.808-0.28422 10.182-0.28423 10.181-53 0.0159c-29.15 9e-3 -71.338-0.10883-93.75-0.26122zm145.04-10.108c0.28453-8.1365-0.0858-9.6753-14.289-59.375-8.0197-28.062-15.198-52.204-15.953-53.647-1.9738-3.777-6.4753-7.7784-10.768-9.5715-3.1873-1.3314-10.621-1.553-52.093-1.553h-48.375l-4.4073 2.3268c-7.8497 4.1442-8.5622 5.927-24.344 60.914-14.175 49.389-14.563 50.994-14.563 60.255v9.5144l92.25-0.2552 92.25-0.25521zm-83.381-37.038c-7.5806-4.6226-9.9227-11.932-9.2278-28.797 0.37709-9.1522 0.84367-11.639 2.8832-15.366 2.7136-4.9587 9.1471-8.9465 14.433-8.9465 5.407 0 11.739 3.9821 14.25 8.9619 2.665 5.285 2.844 8.3012 0.62428 10.521-3.007 3.007-6.6148 1.5281-9.1058-3.7329-2.0494-4.3284-2.5585-4.75-5.7357-4.75-5.57 0-7.0328 3.2147-7.0328 15.456 0 10.923 0.65851 14.56 3.0729 16.974 2.106 2.106 5.7415 1.9849 7.7721-0.25881 2.5837-2.855 2.0015-4.1713-1.845-4.1713-2.1667 0-4.2619-0.7619-5.5-2-2.2685-2.2685-2.4354-3.3179-0.96482-6.0657 0.91006-1.7004 2.1645-1.9343 10.378-1.9343 11.867 0 12.422 0.50011 10.835 9.764-1.2384 7.2296-3.1974 10.556-8.2374 13.986-4.252 2.8939-12.161 3.065-16.599 0.35905zm14.921-11.693c3.1835-2.9356-2.3835-3.7747-2.3835-3.7747-1.6195-1.1068-0.80419 0.3598-0.80419 0.3598s-1.4723-0.40163-2.0232 0.21155c0 0-2.9698-2.1328 2.0316-1.8118 4.3928 0.28201 5.5991 1.5224 5.3636 3.8374-0.31584 3.105-5.8529 6.7616-8.9378 6.7616-6.7874 0-10.332-8.9764-9.2271-23.37 0.72577-9.4586 2.8554-16.758 6.9883-17.239 5.3431-0.6212 10.63 0.16727 12.745 4.9486 1.5981 3.6128 1.4056 1.6796 2.5883 4.2127 1.2745 2.7299 1.59 5.3874-0.94512 0.41812-2.8241-5.5357-6.168-7.52-12.673-7.52-6.3726 0-6.5393 3.5535-7.8687 9.8999-0.7535 3.597-1.0999 8.6342-0.25212 16.085 0.80924 7.1117 2.8622 10.464 6.6415 12.115 1.0552 0.4611-1.1148 0.0678 5.5643-1.4767 1.8424-0.42603 1.2827-1.8978 3.1914-3.6579zm-57.297 10.65c-0.62949-1.1762-1.0352-11.161-1.0352-25.477v-23.543l2.5-1.6381c2.3159-1.5174 2.6841-1.5174 5 0 2.178 1.4271 2.5 2.3652 2.5 7.284v5.646l7.3934-7.169c4.0664-3.9429 7.7912-7.169 8.2775-7.169s1.8842 0.70052 3.1066 1.5567c4.0124 2.8104 2.8134 5.5927-6.7775 15.727-4.95 5.2304-9 9.9032-9 10.384s4.05 4.9054 9 9.8325c9.1334 9.0911 10.78 12.32 7.8 15.3-2.9022 2.9022-6.4151 1.3512-13.179-5.8187l-6.6211-7.0188v5.8188c0 3.2003-0.54 6.3587-1.2 7.0187-1.9015 1.9015-6.5916 1.458-7.7648-0.73426zm6.7605-7.3157c0.19792-4.518 4.0396-10.722 4.8637-10.722 0.67712 0 2.065 3.6418 5.9003 7.5102 4.7242 4.7651 8.1684 11.059 7.2151 10.087-4.8694-4.9664 0.38802-0.76051-8.7178-10.629-2.6907-2.916-8.213-3.8617-9.0701-6.7268-0.73299-2.4502 3.0131-7.0299 3.0131-7.3901 0-0.54151-4.7108-6.5582-3.322-10.914 0.61538-1.9303 5.8763-2.3215 7.3962-3.8344 8.9062-8.8649 13.604-12.692 12.188-9.333-0.82763 1.9624-0.80461 1.9412-2.4766 3.2382-1.4354 1.1134-4.0739 1.3919-7.0906 4.7613-7.6172 8.5078-7.9586 7.4593-9.6944-1.2968-1.1123-5.6107-1.8174-3.4779-3.0699-5.9082-0.26319-0.51067 1.8468-0.17788 2.8391 2.6789 1.2248 3.5263 3.2963 11.208 3.5264 20.59 0.0539 2.1961 0.15057 3.71 6e-3 5.5023-0.71208 8.8551-3.4354 13.365-3.1112 13.689 0.38987 0.38986-1.7468 4.4038-1.6197 3.2768 0.27983-2.4807 0.96533 1.3381 1.2246-4.5793zm10.858-80.298c-2.75-1.6324-1.2786-14.986-2.6536-17.051-2.1556-3.2372-2.5-4.8783-2.5-11.913 0-7.2675 0.29865-8.5864 2.7338-12.073 5.4524-7.8072 14.753-11.282 23.948-8.9472 17.952 4.5581 21.677 29.59 8.7395 41.18-1.5296 1.3703-0.98308 5.9338-1.7651 8.011-0.96785 2.5709-5.525 1.1573-8.9404 1.3055-6.4599 0.28027-15.059 2.1612-19.562-0.51164zm25.982-11.978c7.2544-4.2514 11.454-13.713 9.4276-21.239-2.9698-11.029-13.849-17.985-23.897-15.279-14.293 3.8486-20.073 18.983-11.888 31.128 5.3614 7.9558 17.681 10.475 26.358 5.3897z"/>
</svg>
