<svg width="215" height="172.93" version="1.1" viewBox="0 0 215.00003 172.92822" xmlns="http://www.w3.org/2000/svg">
  <defs>
    <linearGradient id="gradient" x1="0" y1="0" x2="0" y2="100%">
      <stop offset="0%" stop-color="#374e5d"/>
      <stop offset="100%" stop-color="#161717"/>
    </linearGradient>
  </defs>
  <path fill="url(#gradient)" d="m2 170.73c-1.1-1.1-2-2.675-2-3.5s0.9-2.4 2-3.5c1.8333-1.8333 3.3333-2 18-2h16l0.1589-17.318-0.1589-16.682h-11.5c-10.167 0-11.732-0.23188-13.5-2-2.5308-2.5308-2.5308-4.4692 0-7 1.7676-1.7676 3.3333-2 13.475-2h11.475l0.27497-54.435 0.27496-54.435 2.915-3.042c5.3899-5.6248 13.358-6.4147 19.105-1.894 5.6272 4.4264 5.4803 2.0766 5.4803 87.619 0 75.145-0.0865 78.955-1.8287 80.532-1.6106 1.4575-5.1897 1.655-30 1.655-26.838 0-28.266-0.0947-30.171-2zm52.606-80.233s-0.40588-64.109-0.3552-72.65c0.0291-4.9054-2.7062-8.2296-3.8656-8.1281-4.5086 0.39462-4.6526-5.0674-4.9298 53.613l-0.2472 52.315 0.14028 6.6235-22.753-0.28651-11.095 0.24723 8.3707-0.65164 24.635 0.61236c1.751-0.03 0.8621 5e-3 0.81476 3.955l0.14402 18.874 0.25198 12.649-0.10694 2.2391s-0.05434 3.6795 1.2188 4.224c2.7014 1.1554 2.5575-0.9458 2.5575-0.9458l4.8052 0.0526zm-8.8919 72.614c-0.39254-0.39255-0.71372-34.582-0.71372-75.976 0-67.087 0.1707-75.433 1.5714-76.833 2.09-2.09 4.7429-1.9865 6.78 0.26435 1.5224 1.6823 1.6399 8.1422 1.405 77.25l-0.25637 75.414-14.682 4.4284c-2.1311 0.64277 6.2887-4.1555 5.8962-4.548zm8.0428-74.548c0.16158-45.774-0.10683-73.623-0.72525-75.25-1.0444-2.7471-3.8107-3.4028-5.8313-1.3822-0.91181 0.91182-1.2 19.058-1.2 75.56l-0.1589 74.043 3.9089 7e-3 3.75-0.31037zm58.239 82.881c-4.9983-1.4193-12.296-6.1052-15.739-10.106-2.1518-2.5005-2.6711-2.607-12.715-2.607-9.6251 0-10.563-0.17029-11.599-2.1069-0.79627-1.4879-1.0012-11.551-0.69751-34.25 0.38931-29.097 0.6365-32.901 2.6083-40.143 8.2762-30.396 30.297-52.842 60.452-61.617 5.5856-1.6256 11.056-2.2104 24.458-2.6145 19.93-0.60102 24.026 0.14761 30.331 5.5444 7.5198 6.4367 7.8591 8.0667 7.8841 37.879l0.022 26.192 6.25 4.7193c3.4375 2.5956 7.4875 5.8561 9 7.2455l2.75 2.5263v27.113c0 19.754-0.32568 27.439-1.2 28.313-0.66 0.66-2.7344 1.2-4.6097 1.2-2.8388 0-4.354 0.97055-9.05 5.797-10.741 11.039-23.3 11.208-33.883 0.45581-4.987-5.0671-5.5492-5.3552-11.538-5.9145l-6.2961-0.58794-4.3471 4.1767c-8.7948 8.45-21.25 11.861-32.081 8.7859zm22.241-13.375c2.6013-1.2593 4.8425-5.4757 7.0197-7.7192 3.8679-3.9856 2.3877-0.90903 9.954-1.2526 6.4724-0.29392 16.869-0.38049 18.024 1.091 8.0435 10.24 2.02 11.459 17.878 12.122 4.2021 0.17566 2.8765-1.0116 5.2933-3.3287 2.6859-2.575 4.2012-4.2552 4.2717-8.2089 0.0779-4.3697-2.41-8.7028-0.4527-8.5265 1.2562 0.11314 9.3823 0.35541 9.4057-13.358l0.0364-21.278-3.892-4.4886c-11.072-8.3022-9.5332-6.5146-15.174-9.4144l1.0095-32.916c0.22319-7.2772-0.25304-15.313-0.46132-20.4-0.0999-2.4405-0.0305-7.0557-2.2426-8.4303-6.0668-3.77-3.7626-4.5724-21.667-4.0279-14.091 0.42855-15.56-0.84391-18.663-0.04147-15.795 4.085-27.077 8.2834-38.52 19.521-12.192 11.973-21.958 26.147-24.611 42.683-0.57345 3.575-0.88714 16.866-0.8913 32.934-7e-3 27.865-0.2359 24.893 0.25828 26.595 1.0638 0.56935 0.27541 8.1062 5.4337 8.1062 9.1638 0 17.153-3.2666 20.022-0.26681 9.1472 9.5613 16.556 6.1285 27.967 0.60451zm-24.087 5.168c-8.7729-4.2351-12.149-13.397-12.149-22.773 0-10.095 5.0124-17.771 14.18-21.715 10.399-4.4736 23.382-0.96731 29.565 9.0328 2.6307 4.255 1.7552 6.2283 1.7552 12.449s-0.39576 7.797-3.0264 12.052c-6.3152 10.215-20.013 15.931-30.324 10.954zm18.833-3.5827c2.4651-1.1182 5.3414-2.7958 6.3917-3.728 2.9797-2.6447 6.608-11.28 6.5945-15.695-0.0128-4.2004-2.8985-11.635-5.7733-14.874-2.5797-2.9064-11.232-6.6055-15.477-6.6165-11.295-0.0292-20.718 9.7452-20.718 21.49 0 15.571 15.126 25.708 28.982 19.423zm48.518 3.1175c-1.1-0.45799-3.3212-2.229-4.9361-3.9356-2.4041-2.5406-3.0137-4.1751-3.3641-9.0203-0.415-5.7374-0.30934-6.0446 3.4734-10.1 6.595-7.0702 15.265-6.6006 21.813 1.1815 2.4306 2.8886 2.6795 3.8625 2.3063 9.0222-0.44913 6.2091-1.0623 9.7861-6.4041 12.565-2.9625 1.5414-9.763 1.588-12.889 0.2866zm11.588-3.3205c4.5176-3.0444 6.0867-6.2933 5.5697-11.532-1.0684-10.826-13.472-14.719-20.692-6.4948-2.8663 3.2645-3.1408 4.1226-2.72 8.5016 0.95138 9.9012 10.065 14.767 17.843 9.5254zm-48.487-7.8287c-0.0828-0.44124 2.568-3.4489 2.492-7.8489-0.2231-12.914-2.4356-18.964-12.469-23.594-2.2374-1.0325-11.135-2.645-11.131-3.195 5e-3 -0.55 13.666-11.128 17.444-15.253l6.8684-7.5 22.94-0.30227 22.94-0.30228 8.1571 6.0481 8.1571 6.0481-0.0703 19.754c-0.0426 11.965-0.17081 21.19-0.69135 19.979-0.85943-2-6.1825-1.3644-8.5795-1.7479-1.3452-0.21521-2.1979-0.71041-2.9521-3.0787-0.61123-1.9194-2.0924-1.8361-4.636-3.8365-2.6041-2.048-15.928 1.4759-18.285 6.5665-1.9162 4.1392 0.25064 7.5064-2.4649 7.3284l-6.963 6.8529-5.1789-7.0071c-1.6959-2.2945-15.496 1.5302-15.578 1.089zm18.817-4.1412c0.19492-0.6875 0.89076-3.2189 1.5463-5.6253 1.5428-5.6636 8.9665-13.214 14.653-14.902 9.2001-2.7321 16.847-0.8062 23.634 5.9524l4.75 4.7301v-15.358-15.358l-6.75-4.9634-6.75-4.9634-22.5-0.55792-22.5-0.55793-6.25 6.3763c-3.4375 3.507-6.25 6.7943-6.25 7.3053s1.3535 1.4897 3.0077 2.1749c4.707 1.9497 10.939 8.6458 13.813 14.841 2.1498 4.6347 2.6283 7.1444 2.6514 13.905l0.0282 8.25h3.2814c1.8048 0 3.4409-0.5625 3.6358-1.25zm-79.417-12.87v-15.12l10.77-22 18.238-18.027 9.947 4.767c5.9943 2.8727-0.61051 3.5576-7.3283-3.1601-6.7842-6.7842-2.1273-12.957-2.1273-6.1075l2.4629 6.3213-15.783 11.762c-8.3169 6.1982-14.599 25.268-15.386 25.268-1.8878 0-1.2632-18.959 0.60939-28.746 5.3963-28.202 26.277-51.148 54.596-59.995 6.6991-2.0928 9.4222-2.343 25.5-2.343 16.434 0 18.235 0.17396 20.697 2 5.688 4.2183 5.9327 5.6593 5.6038 33l-0.14176 31.833-9.7912 0.76187c-8.7082 0.67761-17.115 0.12105-17.646-1.2626-0.34345-0.895 7.1671-15.936 9.2132-24.394 2.046-8.4577-0.53896-13.458-0.88915-14.024-0.35019-0.56661 2.9697 1.83 1.6484 1.83-2.6841 0 3.7129-5.0789-1.619 16.607-1.758 7.15-7.1309 20.157-7.6673 20.844-0.62876 0.80595-8.506 0.36211-16.406 0.29661l-4.705 5.2436-8.3657 9.6705c-5.8372 5.2993-12.616 8.0998-17.575 9.2096-10.36 2.3184-12.615 9.5163-15.36 19.663-0.61872 2.2865 6.4464 14.72 2.8487 13.768l4.4033 5.6558-14.174 0.29967-10.792-0.71504-0.78173-7.786zm9.194 8.1246c-0.23852-3.2975 0.095-8.135 0.74106-10.75 2.6853-10.868 12.875-20.924 23.565-23.254 4.4753-0.97561 6.1544-2.2359 16-12.009l11-10.919 7.9404-0.28622 7.9404-0.28622 4.2173-16.858c2.3195-9.2718 4.6516-17.292 5.1824-17.823 1.4678-1.4678 7.381-0.53785 8.5602 1.3463 0.90519 1.4462-1.7465 15.355-6.1169 32.084-0.41071 1.5721 0.46946 1.75 8.6595 1.75h9.1166v-24.515-24.515l-3.4206-3.7353-3.4206-3.7353-14.148-0.32677c-16.081-0.37144-26.286 1.2051-37.082 5.7289-17.048 7.1434-32.083 21.89-39.565 38.809-3.1076 7.0268-6.3479 20.42-6.3571 26.275l-7e-3 4.4861 13.482-13.454c8.8225-8.8044 13.143-13.794 12.5-14.436-1.3645-1.3645-1.2295-5.9344 0.21807-7.3819 2.6678-2.6678 6.256-1.3078 12.081 4.579 5.8076 5.8689 7.1363 9.4034 4.5187 12.021-1.4841 1.4841-6.0303 1.5697-7.4596 0.14037-0.74617-0.74617-6.1288 4.2088-18.196 16.75l-17.136 17.81-4e-3 14.25-4e-3 14.25h3.8138 3.8138l-0.43367-5.9954z"/>
</svg>
