<svg xmlns="http://www.w3.org/2000/svg" xmlns:xlink="http://www.w3.org/1999/xlink" viewBox="0 0 219.53307 237.313">
  <defs>
    <linearGradient id="sidebar-gradient-icon" x1="0" y1="0" x2="100%" y2="0">
      <stop offset="0%" stop-color="#b8ec87"/>
      <stop offset="100%" stop-color="#81c443"/>
    </linearGradient>
  </defs>
  <path fill="url(#sidebar-gradient-icon)" d="m 17.442188,236.03233 c -5.773179,-1.78861 -13.2167957,-8.25802 -15.1742107,-13.18824 -2.64038896,-6.65046 -2.97494096,-11.4634 -1.005609,-14.46692 0.973883,-1.48532 18.7581957,-23.80191 39.5206957,-49.59244 l 37.749997,-46.89187 0,-20.657558 0,-20.657565 -4.777488,0 c -5.925612,0 -9.222509,-2.109768 -9.222509,-5.901716 0,-6.168217 -0.517622,-6.098284 45.137616,-6.098284 31.66936,0 41.85623,0.295647 43.07029,1.25 2.72683,2.143529 3.00596,5.208407 0.73704,8.092872 -1.80372,2.293054 -2.83375,2.657128 -7.51752,2.657128 l -5.42742,0 0,20.645175 0,20.645158 11.83437,14.60484 c 61.2999,75.65042 67.16563,83.20374 67.16563,86.48934 0,8.55468 -6.21666,18.02451 -14.54297,22.15331 -3.83374,1.90104 -6.74566,1.96805 -93.45703,2.15063 -74.954249,0.15782 -90.246126,-0.0427 -94.090882,-1.23386 z M 207.675,219.28758 c 1.31923,-4.57281 -1.91618,0.10578 -0.17058,-6.94387 0.2807,-1.13361 -1.48457,-2.34953 -2.8753,-3.69858 -2.45506,-2.3815 -3.5743,-5.24414 -3.7718,-5.75882 -0.30938,-0.80623 -12.19065,-14.42281 -33.38603,-41.30171 l -12.81341,-16.2493 -22.42765,-31.61618 -0.69072,-22.91605 2.84923,-22.570694 6.05902,0.431701 c 3.18193,0.226711 -5.14325,0.409742 -4.48325,-0.250258 1.71444,-1.714437 0.40527,1.466735 -1.59055,1.404928 -10.78009,-0.333844 -13.24461,-0.175288 -35.730274,-0.175288 -39.347427,0 -17.523591,-0.272961 -19.984223,-0.230947 -4.698865,0.08023 -11.965307,-1.11649 -3.1264,-0.598493 l 13.7384,0.781759 -0.07614,22.769678 -0.335171,23.978434 -24.580853,30.61583 -15.256862,17.28718 c -7.530596,8.53273 -12.4126,15.9626 -16.807773,21.93706 -4.612716,6.27017 -8.619146,10.96357 -11.539863,14.78953 -11.2778613,14.77333 -11.1662631,15.26879 -7.042242,20.77693 1.730527,2.31133 3.052366,2.63081 3.70938,2.99702 0.942595,0.52538 2.792545,1.63106 6.670507,1.80468 l 6.381444,0.28572 79.518521,0.35536 c 30.69105,0.13716 52.13053,-0.60375 66.43106,-0.0998 15.6369,0.55101 22.54827,-1.05207 24.33797,-1.50272 z m -188.691513,6.88356 c -1.677267,-0.73057 -4.288212,-2.80034 -5.802099,-4.5995 -4.9705787,-5.90719 -4.4675827,-6.85414 19.498037,-36.70721 l 17.15667,-30.41767 22.62039,-6.18403 c 24.859198,-0.30405 50.581265,0.1157 53.991555,0.80647 l 35.68816,3.01891 3.81141,7.23969 c 0.94025,1.78599 11.71376,14.225 23.06064,28.25 22.47856,27.78403 22.25667,27.35473 17.55268,33.96087 -4.49998,6.31964 -0.0431,6.04305 -96.67899,5.99999 -70.77709,-0.0315 -88.441504,-0.29728 -90.898453,-1.36746 z m 181.597633,-2.8468 c 1.8391,-1.23937 4.20218,-3.72312 5.2513,-5.51945 l 1.90748,-3.26606 -17.85342,-22.22842 c -9.81937,-12.22563 -20.00732,-24.81688 -22.63987,-27.98054 l -4.78645,-5.75213 -53.21355,0.001 -53.213546,10e-4 -21.5,26.62497 c -11.825,14.64373 -21.892788,27.30207 -22.372862,28.12964 -1.305557,2.25057 1.800514,7.92364 5.609947,10.24628 3.191816,1.94606 5.182654,1.9895 91.365041,1.99315 l 88.10211,0.004 3.34382,-2.2534 z M 90.783065,148.81192 c -17.784342,-0.17348 -40.287372,6.37141 -40.287372,5.70193 0,-0.56419 18.54987,-14.86314 25.28737,-23.22774 l 12.250002,-15.20837 0.5,-23.499998 0.5,-23.500005 20.500005,0 25.24871,0.690722 4.38531,23.240984 -0.53608,26.090207 13.37242,9.91522 c 2.18512,1.6202 11.55928,23.10891 11.55928,24.03865 0,1.5373 -2.90719,0.88745 -19.95876,0.6273 -10.3125,-0.15734 -37.83338,-4.7227 -52.820885,-4.8689 z m 62.404285,-1.98418 c -0.25506,-0.4125 -5.90662,-7.48439 -12.55901,-15.71532 l -12.09527,-14.96532 0,-22.784678 0,-22.784685 -19,0 -19.000005,0 0,22.632095 0,22.632088 -11.320904,14.11791 c -6.226488,7.76485 -12.108632,14.90541 -13.071424,15.86791 -1.667179,1.66667 0.374527,1.75 42.879923,1.75 24.54674,0 44.42176,-0.3375 44.16669,-0.75 z M 42.956775,48.558391 C 31.793447,43.032528 31.912772,26.421685 43.154116,21.087318 c 7.549412,-3.58243 18.004757,-0.04273 20.992087,7.106957 3.222555,7.712659 0.596161,16.210836 -6.21724,20.117012 -4.851128,2.78119 -9.691453,2.861075 -14.972188,0.247104 z m 10.615422,-9.925955 c 2.373759,-0.599147 1.735846,-3.246 -0.258319,-7.411677 -0.636746,-1.330118 -5.870601,-3.203971 -7.899947,2.083782 -1.36159,3.547816 0.0037,4.231845 2.452482,6.386286 1.234189,1.085859 0.07913,0.3618 5.705784,-1.058391 z m -7.384145,0.11656 c -3.326509,-3.67575 -1.022539,-9.171259 3.845012,-9.171259 3.016973,0 5.5,2.483027 5.5,5.5 0,4.956043 -6.03623,7.327422 -9.345012,3.671259 z m 7.332747,-2.148341 c 1.501112,-2.804854 -2.141322,-6.546272 -4.9235,-5.057295 -2.401571,1.285281 -3.037766,3.060377 -1.893924,5.284377 1.223117,2.378133 5.499386,2.235695 6.817424,-0.227082 z M 104.03307,48.224888 C 97.452225,45.153856 92.044115,39.037713 90.089505,32.455823 c -1.94056,-6.53456 -1.94056,-8.221612 0,-14.756172 1.81191,-6.101365 6.99171,-12.3053523 12.875355,-15.4211533 5.73672,-3.03799692 17.3997,-3.03799692 23.13642,0 7.94004,4.204808 14.43179,14.4604313 14.43179,22.7992393 0,1.175349 -0.7004,4.495487 -1.55644,7.378086 -3.08407,10.385201 -13.50454,18.102376 -24.44356,18.102376 -3.66664,0 -7.16669,-0.777782 -10.5,-2.333311 z m 19.11588,-10.648399 c 4.61262,-1.774522 3.91407,-4.848097 6.32366,-10.373837 1.23904,-2.84139 -0.33799,-4.811177 -0.90223,-6.611816 -0.50702,-1.618022 0.20275,-3.116091 -2.24391,-4.705911 -9.34836,-6.0744783 -8.17233,-5.9041353 -11.91977,-5.845848 -6.26857,0.0975 -14.931156,8.284612 -14.840987,13.854254 0.288032,17.79131 18.261757,15.730389 23.583237,13.683158 z m -16.62605,0.751248 c -5.52925,-3.763173 -7.489835,-7.231572 -7.489835,-13.25 0,-6.042022 1.948715,-9.465909 7.591955,-13.339073 2.79974,-1.9215703 4.35253,-2.2632523 8.69952,-1.9142883 9.06815,0.7279653 14.70853,6.5772763 14.70853,15.2533613 0,8.812904 -6.6871,15.5 -15.5,15.5 -3.23226,0 -5.73867,-0.704033 -8.01017,-2.25 z m 17.04487,-3.549409 c 4.84727,-4.847263 5.9085,-9.610322 3.31843,-14.893909 -5.34237,-10.8981413 -19.30221,-10.9576453 -24.94814,-0.106342 -4.491655,8.632797 2.50672,18.778917 12.96266,18.793071 4.30687,0.0058 5.30536,-0.431123 8.66705,-3.79282 z m 37.88838,12.876332 c -2.39331,-2.393304 -2.92308,-3.766532 -2.92308,-7.576923 0,-6.603831 3.89617,-10.5 10.5,-10.5 6.37027,0 10.5,3.928676 10.5,9.988818 0,5.180873 -1.25457,7.574345 -4.97998,9.500832 -4.79994,2.482141 -9.73433,1.949883 -13.09694,-1.412727 z m 7.42937,-9.173959 c 7.5588,-3.90881 9.33852,1.213015 0.66559,1.213015 -4.87658,0 -0.64304,-4.578898 -0.64304,0.297681 0,6.885005 -6.50914,1.843651 -0.0225,-1.510696 z" />
</svg>