<svg xmlns="http://www.w3.org/2000/svg" xmlns:xlink="http://www.w3.org/1999/xlink" viewBox="0 0 178.99335 232.44063">
   <defs>
      <linearGradient id="sidebar-gradient-icon" x1="0" y1="0" x2="100%" y2="0">
        <stop offset="0%" stop-color="#b8ec87"/>
        <stop offset="100%" stop-color="#81c443"/>
      </linearGradient>
   </defs>
    
  <g transform="translate(-3.0066487,-4.4199353)">
    <path fill="url(#sidebar-gradient-icon)" d="m 112,235.50112 c -14.787821,-2.98249 -26.262345,-9.52211 -31.465104,-17.93276 -2.936582,-4.74721 -3.046128,-5.35538 -3.381622,-18.77394 -0.308795,-12.35069 -0.527591,-13.81072 -2,-13.34606 -4.736526,1.49474 -20.963853,2.34636 -28.955147,1.51959 C 30.850111,185.38007 19.137032,180.93281 11.316301,173.72391 2.4283101,165.53124 2.9970859,170.87549 3.021962,95.789838 3.0424928,33.819937 3.1626419,29.23933 4.865662,25.5 8.5030644,17.513336 19.529909,10.243689 34,6.292661 43.116541,3.8034085 67.822197,3.7936663 77,6.2757049 91.22252,10.122033 101.21456,16.776085 105.40977,25.194772 L 108,30.392689 l 0,28.364928 0,28.364929 4.75,-0.811273 c 2.6125,-0.4462 11.05,-0.794452 18.75,-0.773894 11.73079,0.03132 15.21156,0.411747 21.47478,2.347058 13.95594,4.312333 23.14028,10.500442 27.09764,18.257513 C 181.90139,109.72703 182,112.53343 182,161 c 0,48.46657 -0.0986,51.27297 -1.92758,54.85805 -4.36699,8.56 -17.69883,16.65017 -32.28026,19.58865 -9.24268,1.8626 -26.6952,1.88914 -35.79216,0.0544 z m 32.15084,-10.93543 c 10.05581,-1.79347 19.01664,-5.90179 23.36096,-10.71043 3.23972,-3.58598 3.4882,-4.32978 3.4882,-10.44147 0,-3.61925 -0.3375,-6.41026 -0.75,-6.20224 -16.6572,8.40007 -23.68715,10.10871 -41.25,10.0259 -14.2021,-0.067 -24.20611,-2.18118 -34.092181,-7.20492 L 89,197.0304 l 0,6.90807 c 0,5.96451 0.351952,7.32635 2.576721,9.97034 3.117264,3.70466 12.913559,8.49221 20.423279,9.98108 3.025,0.59973 6.4,1.26765 7.5,1.48427 4.53388,0.89281 17.49536,0.46772 24.65084,-0.80847 z m 4.6079,-32.4359 c 8.98004,-2.35763 17.08234,-6.86836 19.99126,-11.12958 1.74232,-2.55229 2.25,-4.70753 2.25,-9.55191 l 0,-6.25594 -5.25,2.81944 c -10.94763,5.87927 -18.6832,7.49182 -35.75,7.45241 -17.14048,-0.0396 -23.88775,-1.32111 -34.409722,-6.53551 C 92.33993,167.31791 89.52743,166 89.340278,166 89.153125,166 89,168.89047 89,172.42327 c 0,5.46183 0.38998,6.88674 2.605397,9.51962 6.5796,7.81941 19.543383,11.91801 37.962233,12.00205 8.73006,0.0398 14.03778,-0.46219 19.19111,-1.81515 z M 71.5,174.64922 l 5,-1.15878 0.285117,-9.0632 0.285117,-9.0632 -7.285117,1.27829 C 52.411173,159.69085 34.553767,157.28415 19.75,149.89893 L 14,147.0304 l 0,6.33692 c 0,7.87288 2.330541,11.71073 9.58488,15.78401 8.210485,4.61015 18.221974,6.74457 31.41512,6.69761 6.325,-0.0225 13.75,-0.56239 16.5,-1.19972 z M 150,160.45886 c 8.21029,-2.51072 14.3044,-5.90259 17.84002,-9.92943 C 170.69125,147.28206 171,146.2973 171,140.45081 l 0,-6.4796 -6.10647,3.08254 c -10.48586,5.29324 -19.61313,7.17696 -34.89353,7.20145 -15.05853,0.0241 -24.74419,-1.92335 -35.25,-7.08768 L 89,134.341 l 0,6.75277 c 0,5.78741 0.366224,7.18801 2.561744,9.79724 3.307214,3.9304 13.061436,8.62487 21.938256,10.55836 8.95237,1.94993 28.63072,1.41592 36.5,-0.99051 z M 67,143.95454 c 10.723961,-1.69993 10,-0.90113 10,-11.03375 l 0,-8.94443 -4.25,0.76182 c -2.3375,0.419 -11.225,0.7356 -19.75,0.70356 -14.253995,-0.0536 -16.143099,-0.28068 -23.5,-2.82511 -4.4,-1.52177 -9.403115,-3.63305 -11.118034,-4.69174 C 16.667047,116.8662 14.979547,116 14.631966,116 14.284385,116 14,118.9237 14,122.49712 c 0,6.01651 0.258034,6.78273 3.488202,10.35814 C 25.84762,142.10814 47.718349,147.01099 67,143.95454 Z m 81.51988,-12.95963 C 161.89506,127.57412 171,120.84752 171,114.38691 c 0,-3.36748 -5.33361,-8.91378 -11.44936,-11.90594 C 151.98018,98.777093 144.89136,97.097657 134,96.427684 111.65663,95.053249 89,104.18804 89,114.57096 c 0,6.83565 9.895272,14.006 23.37453,16.93775 9.64863,2.09858 26.88928,1.85351 36.14535,-0.5138 z M 71.389043,111.85074 c 5.196985,-1.04371 5.904979,-1.50675 7.708157,-5.04127 2.383529,-4.6721 8.373402,-10.670894 13.309152,-13.328971 C 95.404902,91.865673 96,91.00326 96,88.272596 96,86.472668 95.825523,85 95.612274,85 c -0.213249,0 -3.250749,1.334819 -6.75,2.966264 C 78.028902,93.017074 70.945207,94.416973 56,94.460596 40.159645,94.506831 30.911829,92.702706 20.729873,87.579867 L 14,84.193872 l 0,6.255181 c 0,4.843601 0.507748,6.99897 2.25,9.551157 2.841204,4.16202 10.95126,8.75193 19.57519,11.07862 7.883243,2.12687 26.775244,2.53691 35.563853,0.77191 z m 3.479994,-32.248899 c 7.833061,-2.1645 15.672994,-6.268864 18.585059,-9.729656 C 95.644284,67.269293 96,65.881348 96,59.938473 l 0,-6.908076 -5.75,2.901665 C 73.508871,64.380261 49.113067,65.823753 29.361956,59.534788 25.03788,58.157956 20.026624,56.124379 18.22583,55.015729 16.425037,53.907078 14.737537,53 14.47583,53 c -1.265212,0 -0.330533,12.437383 1.119102,14.89142 3.045755,5.156053 14.701317,11.113404 25.533824,13.050762 7.208527,1.289222 27.081117,0.499778 33.740281,-1.340341 z M 72.302595,50.37448 C 86.4539,47.178436 96,40.380837 96,33.5 96,18.21248 54.570094,9.4197078 29.75875,19.441454 11.394986,26.858908 9.0218029,37.251327 23.848914,45.321252 c 11.726995,6.38263 32.824987,8.582938 48.453681,5.053228 z" />
    <path fill="url(#sidebar-gradient-icon)" d="m 139,231.12781 0,-4.87219 4.25,-0.65554 c 7.07061,-1.0906 16.37078,-4.54275 20.71374,-7.68878 6.05953,-4.38949 8.02808,-8.22765 8.03252,-15.6613 0.002,-3.4375 -0.33376,-6.24832 -0.74626,-6.24626 -0.4125,0.002 -2.15459,0.86022 -3.87131,1.90704 -4.84253,2.95286 -16.90494,7.01607 -22.93117,7.72433 L 139,206.27536 l 0,-5.61863 c 0,-5.32581 0.14332,-5.64806 2.75,-6.18349 14.19023,-2.91473 23.56692,-7.23211 27.60372,-12.7098 2.0509,-2.78295 3.50004,-13.0962 2.28506,-16.26237 -0.5102,-1.32956 -1.14785,-1.19621 -4.36809,0.91352 -4.38977,2.87594 -16.68137,7.07734 -23.52069,8.03963 l -4.75,0.66833 0,-5.83322 0,-5.83322 6.55665,-1.24379 c 8.73947,-1.65786 18.15061,-6.11383 22.42581,-10.61813 3.23964,-3.41325 3.50916,-4.19789 3.86545,-11.25345 0.21065,-4.17141 -0.006,-7.41706 -0.48246,-7.21256 -0.476,0.2045 -3.83014,1.82256 -7.45365,3.59568 -6.72132,3.28901 -17.17355,6.23478 -22.21659,6.26136 -2.71771,0.0143 -2.79533,-0.13012 -2.5,-4.65238 l 0.30479,-4.66715 6.48338,-1.31765 c 12.29964,-2.4997 21.5361,-7.70829 24.4104,-13.76544 1.46753,-3.0926 1.49824,-3.90527 0.25956,-6.86985 -2.78648,-6.66898 -12.29548,-12.164534 -25.56584,-14.775317 L 139,95.73979 l 0,-4.931168 0,-4.931168 4.75,0.668324 c 6.55234,0.921912 18.64818,5.017226 23.88737,8.087594 6.68912,3.920083 12.05645,10.616388 13.3826,16.696168 0.77659,3.5603 1.02694,20.11837 0.80392,53.17046 -0.36457,54.02853 0.12305,50.60712 -8.32197,58.39146 -5.5215,5.08955 -12.33642,8.38076 -23.00156,11.10845 C 139.06452,236.9247 139,236.90859 139,231.12781 Z" />
  </g>
 </svg>