<svg width="227.99" height="176.87" version="1.1" viewBox="0 0 227.9926 176.86797" xmlns="http://www.w3.org/2000/svg">
  <defs>
    <linearGradient id="gradient" x1="0" y1="0" x2="0" y2="100%">
      <stop offset="0%" stop-color="#374e5d"/>
      <stop offset="100%" stop-color="#161717"/>
    </linearGradient>
  </defs>
  <path fill="url(#gradient)" d="m67.198 175.17c-10.445-3.7278-17.387-11.957-19.314-22.893-5.0371-28.596 28.451-47.062 48.674-26.839 6.1771 6.1771 8.4387 12.081 8.425 21.993-0.028 20.236-19.256 34.352-37.785 27.739zm18.674-7.0018c10.155-3.4602 11.662-6.5379 11.078-13.181-0.26124-2.9713 1.1265-7.0154-0.88102-11.506-10.028-22.434-30.135-27.73-38.65-4.9735-8.4091 22.475 6.3203 37.202 28.453 29.661zm-23.11 1.5554c-8.1746-4.3095-11.105-14.892-10.529-23.945 0.71735-11.266 11.464-23.494 22.509-23.494 6.5912 0 11.774 6.2741 15.995 11.082 8.5975 9.792 11.886 29.214 0.55533 35.632-4.7379 2.6835-24.072 3.0766-28.531 0.72566zm21.864-6.6389c8.5242-5.1978 11.683-15.663 7.3988-24.513-5.4961-11.353-19.502-13.644-28.115-4.5981-6.4771 6.8019-7.1802 15.262-1.9722 23.734 4.1191 6.7007 15.928 9.4994 22.689 5.3771zm84.798 11.865c-6.857-2.6382-13.845-9.7745-16.526-16.876-3.0274-8.0209-2.3588-18.632 1.6366-25.973 5.2342-9.617 14.388-15.097 25.216-15.097 7.4172 0 12.127 1.5561 17.796 5.8796 9.9156 7.5625 14.036 21.8 9.9075 34.231-2.5217 7.592-11.13 16.119-18.476 18.3-7.0188 2.0844-13.318 1.9346-19.555-0.46507zm16.175-8.3825c7.6726-2.2785 12.708-6.239 15.005-14.141 5.1604-17.751-6.8563-25.713-24.494-27.043-10.916-0.82327-10.627 6.276-16.056 16.079-2.6401 4.7665-2.4458 9.1321 0.97815 15.878 4.1708 8.2172-1.1028 5.6993 6.4218 9.2149 5.8954 2.7545 7.7369 3.1026 18.145 0.0117zm-18.885 2.2064c-12.14-6.8763-12.592-30.79-2.1916-40.186 12.088-10.92 37.427-0.69073 39.384 15.833 1.8792 15.867-23.532 32.09-37.192 24.353zm21.942-6.3131c8.8099-5.1629 11.572-17.392 5.7866-25.624-3.9266-5.5868-8.3246-8.0641-14.317-8.0641-14.538 0-22.767 16.046-14.592 28.456 5.048 7.663 15.095 9.9364 23.122 5.232zm-187.09-7.0283c-1.3701-1.3701-1.5705-6.1416-1.5639-37.25 0.0043-20.133 0.46568-38.502 1.059-42.159 2.6055-16.06 14.608-29.996 30.405-35.304 1.6657-0.55963 12.253-1.2871 23.528-1.6167l20.5-0.59915 0.26313-18c0.2264-15.488 0.49729-18.174 1.9411-19.25 1.3063-0.97313 17.77-1.25 74.332-1.25 69.116 0 72.734 0.08905 74.309 1.8287 1.5071 1.6653 1.655 8.139 1.655 72.443v70.615l-2.2225 1.5567c-2.9258 2.0493-5.0967 1.9664-7.1225-0.27204-1.5049-1.6629-1.655-7.8303-1.655-68v-66.171h-64.971-64.971l-0.27852 47.081c-0.26786 45.28-0.35278 47.135-2.2196 48.5-2.2435 1.6398-4.4276 1.7868-6.5589 0.44117-1.2556-0.79272-1.5815-5.5566-2-29.235l-0.5-28.288-15.5-0.30365c-23.625-0.46282-30.957 1.6092-39.856 11.263-8.2437 8.9433-8.5899 10.532-8.6187 39.54l-0.0253 25.5 14.931 0.27777c8.9297 0.16612 15.461 0.71776 16.25 1.3724 1.9096 1.5848 1.6183 6.269-0.50974 8.1948-1.5267 1.3817-4.2516 1.655-16.5 1.655h-14.671v4 4h12.066c13.894 0 15.934 0.68323 15.934 5.3352 0 5.4255-0.80808 5.6648-19.129 5.6648-13.874 0-16.997-0.26811-18.3-1.5714zm16.767-7.7415c5.7518-0.0216 3.0172 3.0116 8.1381 3.5626-4.1525-5e-3 -7.2202 0.73924-12.061-1.9932l-6.7579-1.4227-1.8376-12.858 4.6792 1.524c-0.84871 2e-5 -1.6574-0.227-1.625-5.2197 0.04455-6.8753 25.337 0.53292 26.202-1.0842 0.69398-1.2967-1.0329 7.1119-2.1084 5.5764-1.4312-2.0433-1.425 3.5263-14.039-3.0535l-10.62-3.4831 1.8818-28.486 0.30878-27.25 1.6321-8.2361c1.5354-7.7483 10.759-10.043 17.792-13.509 4.2354-2.0871 6.5816-8.7705 26.05-5.9466l26.98-1.7818-1.2359 31.294c-0.66274 16.781 0.95635 22.593 1.597 23.79 0.56935 1.0638-1.8043 2.7208-0.743 2.7208s-3.1101 3.961-2.5407 2.8971c0.67107-1.2539 0.78445-10.359 0.58575-48.282l4.382-46.46 66.862-2.1024 66.638 2.6166 0.25708 66.719c0.24919 64.671 3.7992 63.155 5.6636 64.153 1.4487 0.77534-2.7453 4.2375-1.5632 3.0554 1.3957-1.3957-6.599-11.503-4.9473-73.045 0.8163-30.415 0.26967-45.653 0.30539-53.716 0.0262-5.9172-0.96959-6.8996-2.4043-7.0495-3.1389-0.32793-128.37-1.396-129.52 0.38707-0.44495 0.6875-1.8278 1.1453-1.9832 11.048l-0.27528 17.551-0.0396 6.1717c-1.4605 1.0528-42.82-0.53324-51.06 5.1357-6.354 4.3716-12.173 7.295-16.97 13.975l-4.1327 6.3801-1.3041 40.009c-0.10896 32.04-2.046 28.994-2.3859 30.289-2.1313 8.1254 7.1056 6.1364 10.203 6.1248zm96.661-1.6871c-1.1-1.1-2-2.9-2-4s0.9-2.9 2-4c1.765-1.765 3.3333-2 13.345-2 12.487 0 14.655 0.92792 14.655 6.272 0 4.5539-3.1202 5.728-15.223 5.728-9.4442 0-11.025-0.24743-12.777-2zm20.782-7.3061c0.80184-1.274-1.4453 5.6391-2.2472 4.3651-0.91731-1.4575 4.2932-1.0111-4.6595-1.2484-11.2-0.29685-4.6617-1.8777-4.6617 1.6105 0 3.1079-6.9503-2.7169 3.8936-2.9645 8.647-0.19748 6.7584-0.3067 7.6747-1.7626zm-114.78-31.694c-1.8135-1.8135-1.9995-3.3291-1.9944-16.25 6e-3 -16.328 0.84706-20.374 5.2834-25.426 4.9506-5.6384 7.6623-6.3237 25.024-6.3237 13.627 0 15.565 0.20812 17.032 1.8287 2.1994 2.4303 2.0883 4.7379-0.34501 7.1713-1.8106 1.8106-3.3333 2-16.077 2l-12.953 1.9101-4.159 1.6871-2.3613 2.586-0.44943 14.683c-0.44019 14.381-0.0936 15.086-2.2225 16.577-2.9373 2.0574-4.3706 1.9636-6.7775-0.4433zm6.6877-7.2841c0.53639-1.4108-4.364-5.149-4.0809-12.552 0.15391-4.0243-1.062-16.705 5.213-21.037 4.1483-2.8638 12.829-1.2478 21.68-0.71121 13.004 0.78835 4.3768-2.807 9.5452-1.4682 2.9524 0.76472 3.1549 2.9063-10.337 2.9063-17.208 0-16.125-0.4317-20.185 3.8058-2.4714 2.5796-2.7925 4.0719-2.7925 17.757 0 11.83 1.2222 7.0983 2.1489 7.4722 2.911 1.1746-2.1189 6.2669-1.1914 3.8274z"/>
</svg>
