<?xml version="1.0" encoding="UTF-8" standalone="no"?>
<svg
   xmlns:dc="http://purl.org/dc/elements/1.1/"
   xmlns:cc="http://creativecommons.org/ns#"
   xmlns:rdf="http://www.w3.org/1999/02/22-rdf-syntax-ns#"
   xmlns:svg="http://www.w3.org/2000/svg"
   xmlns="http://www.w3.org/2000/svg"
   version="1.1"
   id="svg2"
   viewBox="0 0 27 28.750881"
   height="8.1141376mm"
   width="7.6199999mm">
  <defs
     id="defs4" />
  <metadata
     id="metadata7">
    <rdf:RDF>
      <cc:Work
         rdf:about="">
        <dc:format>image/svg+xml</dc:format>
        <dc:type
           rdf:resource="http://purl.org/dc/dcmitype/StillImage" />
        <dc:title></dc:title>
      </cc:Work>
    </rdf:RDF>
  </metadata>
  <g
     transform="translate(-623.88543,-814.75684)"
     id="layer1">
    <g
       transform="translate(-54.043161,-17.425131)"
       id="g3401">
      <path
         id="path3405"
         d="m 691.42001,859.28297 c -7.46016,-3.38908 -13.49142,-12.30667 -13.49142,-19.94791 0,-7.86695 8.19078,-10.01753 9.59735,-2.51989 0.41801,2.22818 0.0735,4.15652 -0.6369,5.294 -0.42758,0.68466 -1.46271,1.27664 -1.43233,1.97198 0.0685,1.56733 2.35906,3.62322 5.27613,6.3988 1.87527,1.78431 3.22375,2.43171 3.64507,1.75 1.82477,-2.95254 10.55068,0.20655 10.55068,3.81972 0,4.83672 -6.53563,6.40104 -13.50858,3.2333 z m 10.59839,-1.74323 c 1.13401,-1.3664 1.0485,-1.81748 -0.56869,-3 -2.22582,-1.62757 -5.14017,-1.8172 -6.02112,-0.39179 -0.33992,0.55 -1.02582,1 -1.52422,1 -1.52954,0 -7.99598,-6.13838 -9.47075,-8.99027 -1.21163,-2.34304 -1.19149,-2.8947 0.15482,-4.24101 1.78845,-1.78845 0.98841,-7.76872 -1.03931,-7.76872 -3.86824,0 -4.70481,6.06321 -1.72468,12.5 4.19201,9.05431 16.29934,15.58451 20.19395,10.89179 z"
         style="fill-opacity:1" />
      <path
         id="path3403"
         d="m 699.46331,860.19643 c 2.73349,-1.108 4.79071,-3.71291 3.97482,-5.03304 -0.36445,-0.5897 -2.09069,-1.72977 -3.83609,-2.5335 -2.38741,-1.09937 -2.55422,-1.31415 -0.67345,-0.86713 1.375,0.32681 3.37638,1.43606 4.44752,2.46499 1.92771,1.85176 1.92339,1.89648 -0.42431,4.3955 -1.30451,1.38858 -3.0809,2.35413 -3.94752,2.31926 -1.11028,-0.0447 -0.9747,-0.16494 0.45903,-0.74608 z m -4.72222,-0.73159 c 0.72187,-0.28887 1.58437,-0.25335 1.91667,0.0789 0.33229,0.33229 -0.25834,0.56864 -1.3125,0.52522 -1.16495,-0.048 -1.4019,-0.28494 -0.60417,-0.60417 z m -4.30542,-1.30544 c -0.35034,-0.56686 0.0511,-0.7345 0.94098,-0.39301 1.73242,0.66479 2.04939,1.38156 0.61096,1.38156 -0.51754,0 -1.21592,-0.44485 -1.55194,-0.98855 z m -5.19896,-4.26145 c -3.5749,-3.76707 -6.3456,-8.86585 -6.22217,-11.45034 0.0572,-1.19681 0.34601,-0.94264 0.86228,0.75874 1.25982,4.15179 3.09614,7.23493 6.36793,10.6916 1.6919,1.7875 2.85117,3.25 2.57617,3.25 -0.275,0 -1.88789,-1.4625 -3.58421,-3.25 z m 2.81924,-4.22766 c -4.52874,-4.9131 -4.85756,-5.935 -2.62736,-8.1652 0.825,-0.825 1.5,-1.04441 1.5,-0.48759 0,0.55683 -0.45,1.29053 -1,1.63045 -1.67881,1.03756 -1.15402,2.32376 2.67936,6.56685 2.47322,2.73755 4.27664,3.91641 5.50138,3.59614 1.00211,-0.26206 1.56984,-0.0684 1.26162,0.43027 -1.13951,1.84377 -3.29287,0.79258 -7.315,-3.57092 z m -9.99118,-11.09803 c -0.1763,-2.68725 4.02951,-6.68169 6.1703,-5.8602 1.71945,0.65982 3.27583,4.18691 2.28483,5.17792 -0.32522,0.32522 -0.59131,-0.1036 -0.59131,-0.95292 0,-0.84932 -0.68344,-2.11143 -1.51876,-2.80468 -1.24144,-1.0303 -1.87032,-0.94229 -3.44413,0.48199 -1.05896,0.95834 -2.11424,2.70795 -2.34506,3.88801 -0.40908,2.09136 -0.42313,2.09312 -0.55587,0.0699 z"
         style="fill-opacity:1" />
    </g>
  </g>
</svg>
