<?xml version="1.0" encoding="UTF-8" standalone="no"?>
<svg
   xmlns:dc="http://purl.org/dc/elements/1.1/"
   xmlns:cc="http://creativecommons.org/ns#"
   xmlns:rdf="http://www.w3.org/1999/02/22-rdf-syntax-ns#"
   xmlns:svg="http://www.w3.org/2000/svg"
   xmlns="http://www.w3.org/2000/svg"
   viewBox="0 0 192.90651 347.99838"
   height="347.99838"
   width="192.90651"
   version="1.1"
   id="svg3390">
  <metadata
     id="metadata3396">
    <rdf:RDF>
      <cc:Work
         rdf:about="">
        <dc:format>image/svg+xml</dc:format>
        <dc:type
           rdf:resource="http://purl.org/dc/dcmitype/StillImage" />
        <dc:title></dc:title>
      </cc:Work>
    </rdf:RDF>
  </metadata>
  <defs
     id="defs3394" />
  <g
     transform="translate(-11.052171,-5.9607119)"
     id="g3400">
    <path
       id="path3404"
       d="M 181.17775,352.64071 C 177.83356,350.78531 15.053929,191.08739 12.850293,187.5 c -2.396919,-3.90205 -2.397605,-11.09614 -0.0014,-15 C 15.039732,168.93062 177.86565,9.1979186 181.19924,7.3477856 c 3.59177,-1.9934211 11.78841,-1.6526934 15.5599,0.6468124 5.33008,3.249788 7.41366,7.532968 6.97603,14.340524 l -0.3751,5.835121 -26.93004,26.710122 C 161.61851,69.570932 127,103.73263 99.5,130.79524 L 49.5,180 l 50,49.20476 c 27.5,27.06261 62.11851,61.22431 76.93003,75.91487 l 26.93004,26.71013 0.3751,5.83512 c 0.43763,6.80755 -1.64595,11.09073 -6.97603,14.34052 -3.78032,2.30489 -11.97025,2.63883 -15.58139,0.63531 z"
       style="fill-opacity:1" />
    <path
       id="path3402"
       d="M 182.3987,352.57165 C 180.69298,351.82912 141.89107,314.47166 96.172234,269.55507 5.5467338,180.51982 9.5774662,184.9966 11.985887,176.05241 12.904684,172.64026 24.372918,160.98047 96.537373,90.088677 186.09431,2.1111219 182.99432,4.8383462 191.60413,6.4535571 c 5.04453,0.9463603 10.99097,6.8712049 11.93231,11.8889889 1.56148,8.323394 3.00815,6.729941 -78.53809,86.506764 C 83.199256,145.74143 49,179.55924 49,180 c 0,0.44076 34.199256,34.25857 75.99835,75.15069 61.60697,60.2702 76.30531,75.14594 77.61938,78.55617 4.72371,12.25883 -8.03923,24.16692 -20.21903,18.86479 z"
       style="fill-opacity:1" />
  </g>
</svg>
