<svg id="Layer_1" xmlns="http://www.w3.org/2000/svg" width="96.5" height="15.4" viewBox="0 0 96.5 15.4"><style>.st0,.st1,.st2{fill:#fff}</style><path class="st0" d="M20 5.1h.9l2 4.8 2-4.8h.7v5.4h-.5V5.6l-2 4.9h-.5l-2-4.9v4.9H20zm9.4 3.2c0-.7-.3-1.4-1-1.4s-1.2.7-1.2 1.4h2.2zm.2 2.1c-.3.1-.8.2-1.2.2-1.3 0-1.8-.9-1.8-2.1 0-1.2.7-2.1 1.7-2.1 1.1 0 1.6.9 1.6 2v.2h-2.7c0 .8.5 1.5 1.3 1.5.4 0 .9-.1 1.1-.3v.6zm1.2-3.8h.5v4h-.5v-4zm.5-1.1h-.5v-.7h.5v.7zm1 4.5c.3.1.7.2 1 .2.5 0 .9-.3.9-.7 0-.9-1.9-.8-1.9-2 0-.8.6-1.1 1.3-1.1.2 0 .6 0 1 .2V7c-.3-.1-.6-.2-.9-.2-.5 0-.9.2-.9.7 0 .7 2 .6 2 2 0 .8-.8 1.1-1.4 1.1-.4 0-.8 0-1.1-.2V10zm5-3h-.9v2.6c0 .4.1.7.5.7.2 0 .3 0 .5-.1v.4c-.1 0-.4.1-.6.1-.9 0-.9-.6-.9-1.3V7h-.8v-.4h.8v-1l.5-.2v1.1h.9V7zm3.3 1.3c0-.7-.3-1.4-1-1.4s-1.2.7-1.2 1.4h2.2zm.3 2.1c-.3.1-.8.2-1.2.2-1.3 0-1.8-.9-1.8-2.1 0-1.2.7-2.1 1.7-2.1 1.1 0 1.6.9 1.6 2v.2h-2.7c0 .8.5 1.5 1.3 1.5.4 0 .9-.1 1.1-.3v.6zm1.2-3v-.9h.5v.8c.2-.4.5-.9 1-.9h.3V7h-.4c-.8 0-1 .9-1 1.6v2H42V7.4zm4.6-1.8l-1.2 3h2.4l-1.2-3zm-.3-.5h.6l2.2 5.5h-.6L48 9.1h-2.7l-.6 1.5h-.5l2.2-5.5zm3.5-.4h.5v3.5l1.8-1.6h.6l-1.9 1.7 2.2 2.2h-.7l-2-2v2h-.5zm6.2 3.8H56c-.9 0-1.9.1-1.9 1 0 .5.4.7.8.7 1.2 0 1.2-1 1.2-1.4v-.3zm0 1.4c-.2.5-.8.7-1.3.7-1.1 0-1.3-.8-1.3-1.1 0-1.3 1.4-1.4 2.5-1.4h.1v-.2c0-.7-.2-1-.9-1-.4 0-.8.1-1.2.3v-.5c.3-.1.8-.3 1.2-.3 1 0 1.4.4 1.4 1.5v2.6h-.5v-.6zm3.1.3c.9 0 1.2-.9 1.2-1.7 0-.7-.3-1.7-1.2-1.7-.9 0-1.2.9-1.2 1.7s.3 1.7 1.2 1.7m1.7.3h-.5v-.6c-.3.5-.7.7-1.2.7-1.1 0-1.6-.9-1.6-2.1 0-1.2.5-2.1 1.6-2.1.8 0 1.2.6 1.2.8V4.7h.5v5.8zm3.6-2.2c0-.7-.3-1.4-1-1.4s-1.2.7-1.2 1.4h2.2zm.2 2.1c-.3.1-.8.2-1.2.2-1.3 0-1.8-.9-1.8-2.1 0-1.2.7-2.1 1.7-2.1 1.1 0 1.6.9 1.6 2v.2h-2.7c0 .8.5 1.5 1.3 1.5.4 0 .9-.1 1.1-.3v.6zm6.1.1V7.9c0-.6-.2-1-.8-1-.5 0-1.1.5-1.1 1.5v2.2h-.5V7.9c0-.6-.2-1-.8-1-.5 0-1.1.5-1.1 1.5v2.2H66V6.7h.5v.7c.2-.3.4-.8 1.2-.8.4 0 .9.1 1.1.8.2-.5.6-.8 1.3-.8.8 0 1.3.6 1.3 1.3v2.7h-.6zm1.7-3.9h.5v4h-.5v-4zm.5-1.1h-.5v-.7h.5v.7zm3.6 2.8c0-.7-.3-1.4-1-1.4s-1.2.7-1.2 1.4h2.2zm.3 2.1c-.3.1-.8.2-1.2.2-1.3 0-1.8-.9-1.8-2.1 0-1.2.7-2.1 1.7-2.1 1.1 0 1.6.9 1.6 2v.2h-2.7c0 .8.5 1.5 1.3 1.5.4 0 .9-.1 1.1-.3v.6zm7.2-2.3h-1.3v-.5h1.8v2.7c-.6.2-1.1.3-1.7.3-1.7 0-2.7-1.1-2.7-2.8 0-1.7 1.1-2.8 2.7-2.8.4 0 1.1.1 1.5.3l-.1.5c-.4-.2-.9-.3-1.4-.3-1.4 0-2.2 1-2.2 2.4s.8 2.4 2.2 2.4c.3 0 .9 0 1.2-.2v-2zm1.8-.7v-.9h.5v.8c.2-.4.5-.9 1-.9h.3V7h-.4c-.8 0-1 .9-1 1.6v2h-.5V7.4zm4.9 1.1h-.1c-.9 0-1.9.1-1.9 1 0 .5.4.7.8.7 1.2 0 1.2-1 1.2-1.4v-.3zm0 1.4c-.2.5-.8.7-1.3.7-1.1 0-1.3-.8-1.3-1.1 0-1.3 1.4-1.4 2.5-1.4h.1v-.2c0-.7-.2-1-.9-1-.4 0-.8.1-1.2.3v-.5c.3-.1.8-.3 1.2-.3 1 0 1.4.4 1.4 1.5v2.6h-.5v-.6zm2-2.9H92v-.4h.8v-.3c0-.8 0-1.7 1.1-1.7.2 0 .4 0 .5.1v.4c-.3-.1-.4-.1-.5-.1-.7 0-.6.7-.6 1.2v.3h.9V7h-.9v3.6h-.5V7zm2.7-1.7h.2c.1 0 .2 0 .2-.1 0-.2-.1-.2-.2-.2h-.2v.3zm-.1-.4h.4c.1 0 .2.1.2.2s-.1.3-.2.3l.3.4h-.2l-.3-.4h-.1v.4h-.1v-.9zm.3 1.1c.4 0 .6-.3.6-.7 0-.4-.3-.7-.6-.7-.4.1-.7.4-.7.7 0 .4.3.7.7.7m0-1.4c.4 0 .8.4.8.8s-.4.8-.8.8-.8-.4-.8-.8c0-.5.3-.8.8-.8"/><path class="st1" d="M4.5 15.1c-.2 0-.4-.1-.6-.3-.2-.1-.4-.3-.5-.5-.1-.1-.3-.3-.4-.6-.1-.3-.3-.5-.4-.8-.1-.2-.1-.3-.2-.5s-.1-.3-.1-.5-.1-.4-.1-.5c0-.2-.1-.4-.1-.6 0-.2 0-.4-.1-.6V7.9c0-.2 0-.4.1-.6 0-.2.1-.4.1-.6 0-.2.1-.4.1-.5 0-.2.1-.4.1-.5.1-.2.1-.3.2-.5s.2-.4.2-.5c.1-.2.2-.3.2-.5-.2.1-.4.3-.6.4-.2.1-.4.2-.5.4-.2.1-.4.2-.5.4-.1.1-.3.2-.4.4-.1.1-.2.2-.3.4-.1.1-.2.3-.3.4 0 .1-.1.3-.2.4 0 .2 0 .3-.1.5 0 .2-.1.5-.1.8v.8c0 .3 0 .5.1.8 0 .3.1.5.1.8.1.3.1.5.2.7.1.2.2.5.3.7.1.2.2.5.4.7.1.2.3.4.5.6l.6.6c.2.2.4.3.7.5.2.1.5.3.8.4.2.1.5.2.8.2M8.3 2.2v-.5c0-.2-.1-.3-.1-.4C8 .9 7.9.7 7.8.6 7.6.4 7.4.3 7.2.3h-.8c-.2.1-.4.2-.7.3-.2.1-.5.2-.7.3-.2.1-.5.2-.7.3-.2.2-.4.3-.6.4-.2.2-.5.3-.6.5-.2.2-.4.4-.6.5-.2.2-.3.4-.5.6-.2.2-.3.4-.5.6-.1.2-.2.4-.4.7s-.2.4-.3.7c-.1.2-.2.4-.3.7-.1.2-.2.5-.2.8 0-.2.1-.3.2-.5 0-.2.1-.3.2-.5s.2-.3.3-.5c.1-.2.3-.3.4-.5.2-.1.4-.2.6-.4.2-.1.4-.3.6-.4.2-.1.4-.3.7-.4.3-.1.5-.3.8-.4.2-.1.3-.1.5-.2.1 0 .3-.1.4-.2.2-.1.3-.1.5-.1s.3-.1.5-.1.4-.1.5-.1c.2 0 .4-.1.6-.1.2 0 .4 0 .6-.1h.6m6.6 2.9c0 .2-.1.3-.2.5s-.3.3-.5.4c-.2.1-.4.3-.7.4-.1.1-.3.1-.4.2-.2.1-.3.1-.5.2s-.3.1-.5.2-.4.1-.6.2c-.2.1-.4.1-.6.2-.2.1-.4.1-.7.2-.2-.1-.4-.1-.6 0-.2 0-.5.1-.7.1 0-.2.1-.5.1-.7 0-.2.1-.5.1-.7 0-.2.1-.5.1-.7 0-.2.1-.4.1-.6 0-.2 0-.4.1-.6V2.9c0-.3 0-.5-.1-.8 0-.2-.1-.4-.1-.6 0-.2-.1-.4-.1-.5C9 .8 8.9.7 8.8.6 8.6.4 8.4.2 8.2.2c-.3-.1-.6-.1-.9 0 .3-.1.5-.1.8-.2h.8c.3 0 .5 0 .8.1.3 0 .5.1.8.1.3.1.5.1.7.2.2.1.5.2.7.3.2.1.5.2.7.4.2.1.4.3.6.5l.6.6c.2.2.3.4.5.7.1.2.3.5.4.8.1.1.1.3.2.4 0 .2.1.3.1.5s0 .4-.1.5"/><path class="st2" d="M2.6 9.6v.5c0 .2 0 .4.1.5 0 .2.1.4.1.5 0 .2.1.3.1.5 0 .3.1.4.1.6 0 .2.1.3.1.5.1.3.2.6.3.8.1.3.3.5.4.7.1.2.3.4.5.6.2.2.3.3.5.4.2.1.4.2.6.2.2 0 .4.1.5.1h1.2c.2 0 .4 0 .6-.1.2 0 .4-.1.6-.1.2 0 .4-.1.6-.2.2-.1.4-.1.6-.2l.6-.3.6-.3c.2-.1.4-.3.6-.4.2-.1.4-.3.6-.4.2-.2.4-.3.5-.5l.5-.5c.2-.2.3-.4.5-.6.1-.2.3-.4.4-.6.1-.2.2-.4.4-.6l.3-.6.3-.6c.1-.2.1-.4.2-.6.1-.2.1-.4.1-.6 0-.2.1-.4.1-.6V6.5c0-.2 0-.4-.1-.6v.7c-.1 0-.2.2-.3.4l-.6.6c-.1.1-.3.2-.4.3-.2.1-.3.2-.5.2s-.4.2-.6.2c-.2.1-.4.1-.7.2-.2.1-.5.1-.7.2-.2.1-.5.1-.8.2-.3 0-.6.1-.9.2-.3 0-.5.1-.8.1-.3.1-.5.1-.8.2-.3 0-.5.1-.8.1-.2 0-.5 0-.7.1-.2 0-.5 0-.7.1H3.5c-.3 0-.6-.1-.9-.1"/></svg>