<?xml version="1.0" encoding="utf-8"?>
<!-- Generator: Adobe Illustrator 20.0.0, SVG Export Plug-In . SVG Version: 6.00 Build 0)  -->
<svg version="1.1" id="Layer_1" xmlns="http://www.w3.org/2000/svg" xmlns:xlink="http://www.w3.org/1999/xlink" x="0px" y="0px"
	 width="96.5px" height="15.4px" viewBox="0 0 96.5 15.4" style="enable-background:new 0 0 96.5 15.4;" xml:space="preserve">
<style type="text/css">
	.st0{fill:#ffffff;}
	.st1{fill:#ffffff;}
	.st2{fill:#ffffff;}
</style>
<polygon class="st0" points="20,5.1 20.9,5.1 22.9,9.9 24.9,5.1 25.6,5.1 25.6,10.5 25.1,10.5 25.1,5.6 25.1,5.6 23.1,10.5 
	22.6,10.5 20.6,5.6 20.6,5.6 20.6,10.5 20,10.5 "/>
<path class="st0" d="M29.4,8.3c0-0.7-0.3-1.4-1-1.4c-0.7,0-1.2,0.7-1.2,1.4H29.4z M29.6,10.4c-0.3,0.1-0.8,0.2-1.2,0.2
	c-1.3,0-1.8-0.9-1.8-2.1c0-1.2,0.7-2.1,1.7-2.1c1.1,0,1.6,0.9,1.6,2v0.2h-2.7c0,0.8,0.5,1.5,1.3,1.5c0.4,0,0.9-0.1,1.1-0.3V10.4z"/>
<path class="st0" d="M30.8,6.6h0.5v4h-0.5V6.6z M31.3,5.5h-0.5V4.8h0.5V5.5z"/>
<path class="st0" d="M32.3,10c0.3,0.1,0.7,0.2,1,0.2c0.5,0,0.9-0.3,0.9-0.7c0-0.9-1.9-0.8-1.9-2c0-0.8,0.6-1.1,1.3-1.1
	c0.2,0,0.6,0,1,0.2l0,0.4c-0.3-0.1-0.6-0.2-0.9-0.2c-0.5,0-0.9,0.2-0.9,0.7c0,0.7,2,0.6,2,2c0,0.8-0.8,1.1-1.4,1.1
	c-0.4,0-0.8,0-1.1-0.2L32.3,10z"/>
<path class="st0" d="M37.3,7h-0.9v2.6c0,0.4,0.1,0.7,0.5,0.7c0.2,0,0.3,0,0.5-0.1l0,0.4c-0.1,0-0.4,0.1-0.6,0.1
	c-0.9,0-0.9-0.6-0.9-1.3V7h-0.8V6.6h0.8v-1l0.5-0.2v1.1h0.9V7z"/>
<path class="st0" d="M40.6,8.3c0-0.7-0.3-1.4-1-1.4c-0.7,0-1.2,0.7-1.2,1.4H40.6z M40.9,10.4c-0.3,0.1-0.8,0.2-1.2,0.2
	c-1.3,0-1.8-0.9-1.8-2.1c0-1.2,0.7-2.1,1.7-2.1c1.1,0,1.6,0.9,1.6,2v0.2h-2.7c0,0.8,0.5,1.5,1.3,1.5c0.4,0,0.9-0.1,1.1-0.3V10.4z"/>
<path class="st0" d="M42.1,7.4c0-0.4,0-0.6,0-0.9h0.5v0.8h0c0.2-0.4,0.5-0.9,1-0.9c0.1,0,0.3,0,0.3,0V7c-0.1,0-0.2,0-0.4,0
	c-0.8,0-1,0.9-1,1.6v2h-0.5V7.4z"/>
<path class="st0" d="M46.7,5.6l-1.2,3h2.4L46.7,5.6z M46.4,5.1H47l2.2,5.5h-0.6l-0.6-1.5h-2.7l-0.6,1.5h-0.5L46.4,5.1z"/>
<polygon class="st0" points="49.9,4.7 50.4,4.7 50.4,8.2 52.2,6.6 52.8,6.6 50.9,8.3 53.1,10.5 52.4,10.5 50.4,8.5 50.4,10.5 
	49.9,10.5 "/>
<path class="st0" d="M56.1,8.5h-0.1c-0.9,0-1.9,0.1-1.9,1c0,0.5,0.4,0.7,0.8,0.7c1.2,0,1.2-1,1.2-1.4V8.5z M56.1,9.9L56.1,9.9
	c-0.2,0.5-0.8,0.7-1.3,0.7c-1.1,0-1.3-0.8-1.3-1.1c0-1.3,1.4-1.4,2.5-1.4h0.1V7.9c0-0.7-0.2-1-0.9-1c-0.4,0-0.8,0.1-1.2,0.3V6.7
	c0.3-0.1,0.8-0.3,1.2-0.3c1,0,1.4,0.4,1.4,1.5v1.8c0,0.3,0,0.6,0,0.8h-0.5V9.9z"/>
<path class="st0" d="M59.2,10.2c0.9,0,1.2-0.9,1.2-1.7c0-0.7-0.3-1.7-1.2-1.7c-0.9,0-1.2,0.9-1.2,1.7S58.3,10.2,59.2,10.2
	 M60.9,10.5h-0.5V9.9h0c-0.3,0.5-0.7,0.7-1.2,0.7c-1.1,0-1.6-0.9-1.6-2.1c0-1.2,0.5-2.1,1.6-2.1c0.8,0,1.2,0.6,1.2,0.8h0V4.7h0.5
	V10.5z"/>
<path class="st0" d="M64.5,8.3c0-0.7-0.3-1.4-1-1.4c-0.7,0-1.2,0.7-1.2,1.4H64.5z M64.7,10.4c-0.3,0.1-0.8,0.2-1.2,0.2
	c-1.3,0-1.8-0.9-1.8-2.1c0-1.2,0.7-2.1,1.7-2.1c1.1,0,1.6,0.9,1.6,2v0.2h-2.7c0,0.8,0.5,1.5,1.3,1.5c0.4,0,0.9-0.1,1.1-0.3V10.4z"/>
<path class="st0" d="M70.8,10.5V7.9c0-0.6-0.2-1-0.8-1c-0.5,0-1.1,0.5-1.1,1.5v2.2h-0.5V7.9c0-0.6-0.2-1-0.8-1
	c-0.5,0-1.1,0.5-1.1,1.5v2.2H66v-3c0-0.3,0-0.6,0-0.9h0.5v0.7l0,0c0.2-0.3,0.4-0.8,1.2-0.8c0.4,0,0.9,0.1,1.1,0.8h0
	c0.2-0.5,0.6-0.8,1.3-0.8c0.8,0,1.3,0.6,1.3,1.3v2.7H70.8z"/>
<path class="st0" d="M72.5,6.6H73v4h-0.5V6.6z M73,5.5h-0.5V4.8H73V5.5z"/>
<path class="st0" d="M76.6,8.3c0-0.7-0.3-1.4-1-1.4c-0.7,0-1.2,0.7-1.2,1.4H76.6z M76.9,10.4c-0.3,0.1-0.8,0.2-1.2,0.2
	c-1.3,0-1.8-0.9-1.8-2.1c0-1.2,0.7-2.1,1.7-2.1c1.1,0,1.6,0.9,1.6,2v0.2h-2.7c0,0.8,0.5,1.5,1.3,1.5c0.4,0,0.9-0.1,1.1-0.3V10.4z"/>
<path class="st0" d="M84.1,8.1h-1.3V7.6h1.8v2.7c-0.6,0.2-1.1,0.3-1.7,0.3c-1.7,0-2.7-1.1-2.7-2.8c0-1.7,1.1-2.8,2.7-2.8
	c0.4,0,1.1,0.1,1.5,0.3l-0.1,0.5c-0.4-0.2-0.9-0.3-1.4-0.3c-1.4,0-2.2,1-2.2,2.4c0,1.4,0.8,2.4,2.2,2.4c0.3,0,0.9,0,1.2-0.2V8.1z"/>
<path class="st0" d="M85.9,7.4c0-0.4,0-0.6,0-0.9h0.5v0.8h0c0.2-0.4,0.5-0.9,1-0.9c0.1,0,0.3,0,0.3,0V7c-0.1,0-0.2,0-0.4,0
	c-0.8,0-1,0.9-1,1.6v2h-0.5V7.4z"/>
<path class="st0" d="M90.8,8.5h-0.1c-0.9,0-1.9,0.1-1.9,1c0,0.5,0.4,0.7,0.8,0.7c1.2,0,1.2-1,1.2-1.4V8.5z M90.8,9.9L90.8,9.9
	c-0.2,0.5-0.8,0.7-1.3,0.7c-1.1,0-1.3-0.8-1.3-1.1c0-1.3,1.4-1.4,2.5-1.4h0.1V7.9c0-0.7-0.2-1-0.9-1c-0.4,0-0.8,0.1-1.2,0.3V6.7
	c0.3-0.1,0.8-0.3,1.2-0.3c1,0,1.4,0.4,1.4,1.5v1.8c0,0.3,0,0.6,0,0.8h-0.5V9.9z"/>
<path class="st0" d="M92.8,7H92V6.6h0.8V6.3c0-0.8,0-1.7,1.1-1.7c0.2,0,0.4,0,0.5,0.1l0,0.4C94.1,5,94,5,93.9,5
	c-0.7,0-0.6,0.7-0.6,1.2v0.3h0.9V7h-0.9v3.6h-0.5V7z"/>
<path class="st0" d="M95.5,5.3h0.2c0.1,0,0.2,0,0.2-0.1C95.9,5,95.8,5,95.7,5h-0.2V5.3z M95.4,4.9h0.4C95.9,4.9,96,5,96,5.1
	c0,0.1-0.1,0.3-0.2,0.3l0.3,0.4h-0.2l-0.3-0.4h-0.1v0.4h-0.1V4.9z M95.7,6c0.4,0,0.6-0.3,0.6-0.7c0-0.4-0.3-0.7-0.6-0.7
	C95.3,4.7,95,5,95,5.3C95,5.7,95.3,6,95.7,6 M95.7,4.6c0.4,0,0.8,0.4,0.8,0.8c0,0.4-0.4,0.8-0.8,0.8c-0.4,0-0.8-0.4-0.8-0.8
	C94.9,4.9,95.2,4.6,95.7,4.6"/>
<path class="st1" d="M4.5,15.1c-0.2,0-0.4-0.1-0.6-0.3c-0.2-0.1-0.4-0.3-0.5-0.5C3.3,14.2,3.1,14,3,13.7c-0.1-0.3-0.3-0.5-0.4-0.8
	c-0.1-0.2-0.1-0.3-0.2-0.5c-0.1-0.2-0.1-0.3-0.1-0.5c0-0.2-0.1-0.4-0.1-0.5c0-0.2-0.1-0.4-0.1-0.6c0-0.2,0-0.4-0.1-0.6
	c0-0.2,0-0.4,0-0.6c0-0.2,0-0.4,0-0.6c0-0.2,0-0.4,0-0.6C2,8.3,2,8.1,2,7.9c0-0.2,0-0.4,0.1-0.6c0-0.2,0.1-0.4,0.1-0.6
	c0-0.2,0.1-0.4,0.1-0.5c0-0.2,0.1-0.4,0.1-0.5c0.1-0.2,0.1-0.3,0.2-0.5C2.7,5,2.8,4.8,2.8,4.7C2.9,4.5,3,4.4,3,4.2
	C2.8,4.3,2.6,4.5,2.4,4.6C2.2,4.7,2,4.8,1.9,5C1.7,5.1,1.5,5.2,1.4,5.4C1.3,5.5,1.1,5.6,1,5.8C0.9,5.9,0.8,6,0.7,6.2
	C0.6,6.3,0.5,6.5,0.4,6.6C0.4,6.7,0.3,6.9,0.2,7C0.2,7.2,0.2,7.3,0.1,7.5C0.1,7.7,0,8,0,8.3c0,0.3,0,0.5,0,0.8c0,0.3,0,0.5,0.1,0.8
	c0,0.3,0.1,0.5,0.1,0.8c0.1,0.3,0.1,0.5,0.2,0.7c0.1,0.2,0.2,0.5,0.3,0.7c0.1,0.2,0.2,0.5,0.4,0.7c0.1,0.2,0.3,0.4,0.5,0.6
	C1.8,13.6,2,13.8,2.2,14c0.2,0.2,0.4,0.3,0.7,0.5c0.2,0.1,0.5,0.3,0.8,0.4C3.9,15,4.2,15.1,4.5,15.1 M8.3,2.2c0-0.2,0-0.4,0-0.5
	c0-0.2-0.1-0.3-0.1-0.4C8,0.9,7.9,0.7,7.8,0.6C7.6,0.4,7.4,0.3,7.2,0.3c-0.2,0-0.5,0-0.8,0C6.2,0.4,6,0.5,5.7,0.6
	C5.5,0.7,5.2,0.8,5,0.9C4.8,1,4.5,1.1,4.3,1.2C4.1,1.4,3.9,1.5,3.7,1.6C3.5,1.8,3.2,1.9,3.1,2.1C2.9,2.3,2.7,2.5,2.5,2.6
	C2.3,2.8,2.2,3,2,3.2C1.8,3.4,1.7,3.6,1.5,3.8C1.4,4,1.3,4.2,1.1,4.5S0.9,4.9,0.8,5.2C0.7,5.4,0.6,5.6,0.5,5.9
	C0.4,6.1,0.3,6.4,0.3,6.7c0-0.2,0.1-0.3,0.2-0.5C0.5,6,0.6,5.9,0.7,5.7C0.8,5.5,0.9,5.4,1,5.2c0.1-0.2,0.3-0.3,0.4-0.5
	C1.6,4.6,1.8,4.5,2,4.3C2.2,4.2,2.4,4,2.6,3.9C2.8,3.8,3,3.6,3.3,3.5c0.3-0.1,0.5-0.3,0.8-0.4C4.3,3,4.4,3,4.6,2.9
	C4.7,2.9,4.9,2.8,5,2.7c0.2-0.1,0.3-0.1,0.5-0.1c0.2,0,0.3-0.1,0.5-0.1c0.2,0,0.4-0.1,0.5-0.1c0.2,0,0.4-0.1,0.6-0.1
	c0.2,0,0.4,0,0.6-0.1C7.9,2.2,8.1,2.2,8.3,2.2 M14.9,5.1c0,0.2-0.1,0.3-0.2,0.5c-0.1,0.2-0.3,0.3-0.5,0.4c-0.2,0.1-0.4,0.3-0.7,0.4
	c-0.1,0.1-0.3,0.1-0.4,0.2c-0.2,0.1-0.3,0.1-0.5,0.2c-0.2,0.1-0.3,0.1-0.5,0.2c-0.2,0.1-0.4,0.1-0.6,0.2c-0.2,0.1-0.4,0.1-0.6,0.2
	c-0.2,0.1-0.4,0.1-0.7,0.2C10,7.5,9.8,7.5,9.6,7.6c-0.2,0-0.5,0.1-0.7,0.1C8.9,7.5,9,7.2,9,7c0-0.2,0.1-0.5,0.1-0.7
	c0-0.2,0.1-0.5,0.1-0.7c0-0.2,0.1-0.4,0.1-0.6c0-0.2,0-0.4,0.1-0.6c0-0.2,0-0.4,0-0.5c0-0.2,0-0.3,0-0.5c0-0.2,0-0.3,0-0.5
	c0-0.3,0-0.5-0.1-0.8c0-0.2-0.1-0.4-0.1-0.6C9.2,1.3,9.1,1.1,9.1,1C9,0.8,8.9,0.7,8.8,0.6C8.6,0.4,8.4,0.2,8.2,0.2
	c-0.3-0.1-0.6-0.1-0.9,0C7.6,0.1,7.8,0.1,8.1,0c0.3,0,0.5,0,0.8,0c0.3,0,0.5,0,0.8,0.1c0.3,0,0.5,0.1,0.8,0.1
	c0.3,0.1,0.5,0.1,0.7,0.2c0.2,0.1,0.5,0.2,0.7,0.3c0.2,0.1,0.5,0.2,0.7,0.4c0.2,0.1,0.4,0.3,0.6,0.5c0.2,0.2,0.4,0.4,0.6,0.6
	c0.2,0.2,0.3,0.4,0.5,0.7c0.1,0.2,0.3,0.5,0.4,0.8c0.1,0.1,0.1,0.3,0.2,0.4c0,0.2,0.1,0.3,0.1,0.5C15,4.8,15,5,14.9,5.1"/>
<path class="st2" d="M2.6,9.6c0,0.2,0,0.4,0,0.5c0,0.2,0,0.4,0.1,0.5c0,0.2,0.1,0.4,0.1,0.5c0,0.2,0.1,0.3,0.1,0.5
	C2.9,11.9,3,12,3,12.2c0,0.2,0.1,0.3,0.1,0.5c0.1,0.3,0.2,0.6,0.3,0.8c0.1,0.3,0.3,0.5,0.4,0.7c0.1,0.2,0.3,0.4,0.5,0.6
	c0.2,0.2,0.3,0.3,0.5,0.4c0.2,0.1,0.4,0.2,0.6,0.2c0.2,0,0.4,0.1,0.5,0.1c0.2,0,0.4,0,0.6,0c0.2,0,0.4,0,0.6,0c0.2,0,0.4,0,0.6-0.1
	c0.2,0,0.4-0.1,0.6-0.1c0.2,0,0.4-0.1,0.6-0.2c0.2-0.1,0.4-0.1,0.6-0.2c0.2-0.1,0.4-0.2,0.6-0.3c0.2-0.1,0.4-0.2,0.6-0.3
	c0.2-0.1,0.4-0.3,0.6-0.4c0.2-0.1,0.4-0.3,0.6-0.4c0.2-0.2,0.4-0.3,0.5-0.5c0.2-0.2,0.3-0.3,0.5-0.5c0.2-0.2,0.3-0.4,0.5-0.6
	c0.1-0.2,0.3-0.4,0.4-0.6c0.1-0.2,0.2-0.4,0.4-0.6c0.1-0.2,0.2-0.4,0.3-0.6c0.1-0.2,0.2-0.4,0.3-0.6c0.1-0.2,0.1-0.4,0.2-0.6
	c0.1-0.2,0.1-0.4,0.1-0.6c0-0.2,0.1-0.4,0.1-0.6c0-0.2,0-0.4,0-0.6c0-0.2,0-0.4,0-0.6c0-0.2,0-0.4-0.1-0.6c0,0.2,0,0.5,0,0.7
	C15,6.6,14.9,6.8,14.8,7c-0.2,0.2-0.4,0.4-0.6,0.6c-0.1,0.1-0.3,0.2-0.4,0.3c-0.2,0.1-0.3,0.2-0.5,0.2s-0.4,0.2-0.6,0.2
	c-0.2,0.1-0.4,0.1-0.7,0.2c-0.2,0.1-0.5,0.1-0.7,0.2c-0.2,0.1-0.5,0.1-0.8,0.2C10.2,8.9,9.9,9,9.6,9.1C9.3,9.1,9.1,9.2,8.8,9.2
	C8.5,9.3,8.3,9.3,8,9.4c-0.3,0-0.5,0.1-0.8,0.1C7,9.5,6.7,9.5,6.5,9.6c-0.2,0-0.5,0-0.7,0.1c-0.2,0-0.4,0-0.7,0c-0.2,0-0.4,0-0.6,0
	c-0.2,0-0.4,0-0.5,0c-0.2,0-0.3,0-0.5,0C3.2,9.7,2.9,9.6,2.6,9.6"/>
</svg>
