<?xml version="1.0" encoding="utf-8"?><svg xmlns="http://www.w3.org/2000/svg" xmlns:xlink="http://www.w3.org/1999/xlink">
  <defs>
    <linearGradient id="social-link-gradient" x1="0" y1="0" x2="100%" y2="0">
      <stop offset="0%" stop-color="#76d222"/>
      <stop offset="100%" stop-color="#519623"/>
    </linearGradient>
            
    <linearGradient id="sidebar-gradient-icon" x1="0" y1="0" x2="100%" y2="0">
      <stop offset="0%" stop-color="#b8ec87"/>
      <stop offset="100%" stop-color="#81c443"/>
    </linearGradient>
  </defs>
  
  <style>
    #icon-facebook, #icon-twitter, #icon-pint {
      fill: url(#social-link-gradient);
    }
  </style>
        
  <symbol id="icon-facebook" viewBox="0 0 9 9">
    <path fill="url(#social-link-gradient)" d="M9,1.7v5.6c0,0.5-0.2,0.9-0.5,1.2C8.2,8.8,7.8,9,7.3,9H1.7C1.2,9,0.8,8.8,0.5,8.5C0.2,8.2,0,7.8,0,7.3V1.7c0-0.5,0.2-0.9,0.5-1.2C0.8,0.2,1.2,0,1.7,0h5.6c0.5,0,0.9,0.2,1.2,0.5C8.8,0.8,9,1.2,9,1.7z M7.7,4.6l0.1-1.3H6.6V2.7c0-0.2,0-0.3,0.1-0.4c0.1-0.1,0.2-0.1,0.4-0.1h0.6V0.9h-1c-0.6,0-1,0.1-1.3,0.4C5.2,1.6,5.1,2,5.1,2.6v0.8H4.3v1.3h0.8v3.7h1.5V4.6H7.7z"/>
  </symbol>
  
  <symbol id="icon-twitter" viewBox="0 0 9 9">
    <path fill="url(#social-link-gradient)" d="M9,1.7v5.6c0,0.5-0.2,0.9-0.5,1.2C8.2,8.8,7.8,9,7.3,9H1.7C1.2,9,0.8,8.8,0.5,8.5C0.2,8.2,0,7.8,0,7.3V1.7c0-0.5,0.2-0.9,0.5-1.2C0.8,0.2,1.2,0,1.7,0h5.6c0.5,0,0.9,0.2,1.2,0.5C8.8,0.8,9,1.2,9,1.7z M6.9,3.5c0.2-0.2,0.5-0.4,0.6-0.6C7.3,2.9,7,3,6.8,3c0.3-0.2,0.4-0.4,0.5-0.7C7.1,2.5,6.8,2.6,6.6,2.6C6.3,2.4,6,2.2,5.7,2.2C5.3,2.2,5,2.4,4.8,2.6C4.5,2.9,4.4,3.1,4.4,3.5c0,0.1,0,0.2,0,0.3c-0.5,0-1-0.2-1.4-0.4S2.2,2.9,1.9,2.5C1.8,2.7,1.7,2.9,1.7,3.1c0,0.4,0.2,0.8,0.5,1C2.1,4.1,1.9,4.1,1.7,4v0c0,0.3,0.1,0.6,0.3,0.8s0.4,0.4,0.7,0.4c-0.1,0-0.2,0-0.3,0c-0.1,0-0.1,0-0.2,0c0.1,0.2,0.2,0.4,0.4,0.6C2.8,6,3.1,6.1,3.3,6.1c-0.5,0.4-1,0.5-1.5,0.5c-0.1,0-0.2,0-0.3,0c0.6,0.4,1.2,0.6,1.9,0.6c0.4,0,0.8-0.1,1.2-0.2c0.4-0.1,0.7-0.3,1-0.6c0.3-0.2,0.5-0.5,0.7-0.8c0.2-0.3,0.3-0.6,0.4-0.9c0.1-0.3,0.1-0.7,0.1-1C6.9,3.6,6.9,3.5,6.9,3.5L6.9,3.5z" />
  </symbol>
  
  <symbol id="icon-pint" viewBox="0 0 9 9">
    <path fill="url(#social-link-gradient)" d="M7.3,0c0.5,0,0.9,0.2,1.2,0.5C8.8,0.8,9,1.2,9,1.7v5.6c0,0.5-0.2,0.9-0.5,1.2C8.2,8.8,7.8,9,7.3,9H3.1c0.3-0.5,0.5-0.9,0.6-1.2c0-0.1,0.1-0.5,0.3-1.2c0.1,0.2,0.2,0.3,0.4,0.4C4.6,7,4.9,7.1,5.1,7.1c0.7,0,1.3-0.3,1.7-0.9C7.3,5.7,7.5,4.9,7.5,4c0-0.3-0.1-0.6-0.2-1C7.2,2.8,7,2.5,6.7,2.3C6.5,2,6.2,1.9,5.8,1.7C5.5,1.6,5.1,1.5,4.7,1.5c-0.4,0-0.8,0.1-1.1,0.2C3.2,1.8,2.9,1.9,2.6,2.1C2.4,2.3,2.2,2.5,2,2.8C1.8,3,1.7,3.2,1.6,3.5C1.5,3.8,1.5,4,1.5,4.3c0,0.4,0.1,0.8,0.2,1.1C1.9,5.6,2.1,5.9,2.4,6c0.1,0,0.1,0,0.1,0c0,0,0.1-0.1,0.1-0.1c0-0.2,0.1-0.3,0.1-0.4c0-0.1,0-0.2-0.1-0.2C2.5,5,2.4,4.7,2.4,4.4c0-0.6,0.2-1.1,0.6-1.5c0.4-0.4,0.9-0.6,1.6-0.6c0.6,0,1,0.2,1.4,0.5C6.2,3.1,6.4,3.5,6.4,4c0,0.7-0.1,1.2-0.4,1.7C5.8,6.1,5.4,6.3,5,6.3c-0.2,0-0.4-0.1-0.6-0.3C4.3,5.9,4.2,5.7,4.3,5.5c0-0.1,0.1-0.3,0.2-0.5c0.1-0.2,0.1-0.4,0.2-0.6c0-0.2,0.1-0.3,0.1-0.4c0-0.2-0.1-0.4-0.2-0.5C4.4,3.3,4.3,3.2,4.1,3.2c-0.2,0-0.4,0.1-0.6,0.3C3.3,3.8,3.2,4.1,3.2,4.4c0,0.3,0,0.5,0.1,0.7L2.8,7.5C2.7,7.9,2.7,8.4,2.8,9H1.7C1.2,9,0.8,8.8,0.5,8.5C0.2,8.2,0,7.8,0,7.3V1.7c0-0.5,0.2-0.9,0.5-1.2S1.2,0,1.7,0H7.3z" />
  </symbol>
  
  <symbol id="icon-flask" viewBox="0 0 219.53307 237.313">
    <path fill="url(#sidebar-gradient-icon)" d="m 17.442188,236.03233 c -5.773179,-1.78861 -13.2167957,-8.25802 -15.1742107,-13.18824 -2.64038896,-6.65046 -2.97494096,-11.4634 -1.005609,-14.46692 0.973883,-1.48532 18.7581957,-23.80191 39.5206957,-49.59244 l 37.749997,-46.89187 0,-20.657558 0,-20.657565 -4.777488,0 c -5.925612,0 -9.222509,-2.109768 -9.222509,-5.901716 0,-6.168217 -0.517622,-6.098284 45.137616,-6.098284 31.66936,0 41.85623,0.295647 43.07029,1.25 2.72683,2.143529 3.00596,5.208407 0.73704,8.092872 -1.80372,2.293054 -2.83375,2.657128 -7.51752,2.657128 l -5.42742,0 0,20.645175 0,20.645158 11.83437,14.60484 c 61.2999,75.65042 67.16563,83.20374 67.16563,86.48934 0,8.55468 -6.21666,18.02451 -14.54297,22.15331 -3.83374,1.90104 -6.74566,1.96805 -93.45703,2.15063 -74.954249,0.15782 -90.246126,-0.0427 -94.090882,-1.23386 z M 207.675,219.28758 c 1.31923,-4.57281 -1.91618,0.10578 -0.17058,-6.94387 0.2807,-1.13361 -1.48457,-2.34953 -2.8753,-3.69858 -2.45506,-2.3815 -3.5743,-5.24414 -3.7718,-5.75882 -0.30938,-0.80623 -12.19065,-14.42281 -33.38603,-41.30171 l -12.81341,-16.2493 -22.42765,-31.61618 -0.69072,-22.91605 2.84923,-22.570694 6.05902,0.431701 c 3.18193,0.226711 -5.14325,0.409742 -4.48325,-0.250258 1.71444,-1.714437 0.40527,1.466735 -1.59055,1.404928 -10.78009,-0.333844 -13.24461,-0.175288 -35.730274,-0.175288 -39.347427,0 -17.523591,-0.272961 -19.984223,-0.230947 -4.698865,0.08023 -11.965307,-1.11649 -3.1264,-0.598493 l 13.7384,0.781759 -0.07614,22.769678 -0.335171,23.978434 -24.580853,30.61583 -15.256862,17.28718 c -7.530596,8.53273 -12.4126,15.9626 -16.807773,21.93706 -4.612716,6.27017 -8.619146,10.96357 -11.539863,14.78953 -11.2778613,14.77333 -11.1662631,15.26879 -7.042242,20.77693 1.730527,2.31133 3.052366,2.63081 3.70938,2.99702 0.942595,0.52538 2.792545,1.63106 6.670507,1.80468 l 6.381444,0.28572 79.518521,0.35536 c 30.69105,0.13716 52.13053,-0.60375 66.43106,-0.0998 15.6369,0.55101 22.54827,-1.05207 24.33797,-1.50272 z m -188.691513,6.88356 c -1.677267,-0.73057 -4.288212,-2.80034 -5.802099,-4.5995 -4.9705787,-5.90719 -4.4675827,-6.85414 19.498037,-36.70721 l 17.15667,-30.41767 22.62039,-6.18403 c 24.859198,-0.30405 50.581265,0.1157 53.991555,0.80647 l 35.68816,3.01891 3.81141,7.23969 c 0.94025,1.78599 11.71376,14.225 23.06064,28.25 22.47856,27.78403 22.25667,27.35473 17.55268,33.96087 -4.49998,6.31964 -0.0431,6.04305 -96.67899,5.99999 -70.77709,-0.0315 -88.441504,-0.29728 -90.898453,-1.36746 z m 181.597633,-2.8468 c 1.8391,-1.23937 4.20218,-3.72312 5.2513,-5.51945 l 1.90748,-3.26606 -17.85342,-22.22842 c -9.81937,-12.22563 -20.00732,-24.81688 -22.63987,-27.98054 l -4.78645,-5.75213 -53.21355,0.001 -53.213546,10e-4 -21.5,26.62497 c -11.825,14.64373 -21.892788,27.30207 -22.372862,28.12964 -1.305557,2.25057 1.800514,7.92364 5.609947,10.24628 3.191816,1.94606 5.182654,1.9895 91.365041,1.99315 l 88.10211,0.004 3.34382,-2.2534 z M 90.783065,148.81192 c -17.784342,-0.17348 -40.287372,6.37141 -40.287372,5.70193 0,-0.56419 18.54987,-14.86314 25.28737,-23.22774 l 12.250002,-15.20837 0.5,-23.499998 0.5,-23.500005 20.500005,0 25.24871,0.690722 4.38531,23.240984 -0.53608,26.090207 13.37242,9.91522 c 2.18512,1.6202 11.55928,23.10891 11.55928,24.03865 0,1.5373 -2.90719,0.88745 -19.95876,0.6273 -10.3125,-0.15734 -37.83338,-4.7227 -52.820885,-4.8689 z m 62.404285,-1.98418 c -0.25506,-0.4125 -5.90662,-7.48439 -12.55901,-15.71532 l -12.09527,-14.96532 0,-22.784678 0,-22.784685 -19,0 -19.000005,0 0,22.632095 0,22.632088 -11.320904,14.11791 c -6.226488,7.76485 -12.108632,14.90541 -13.071424,15.86791 -1.667179,1.66667 0.374527,1.75 42.879923,1.75 24.54674,0 44.42176,-0.3375 44.16669,-0.75 z M 42.956775,48.558391 C 31.793447,43.032528 31.912772,26.421685 43.154116,21.087318 c 7.549412,-3.58243 18.004757,-0.04273 20.992087,7.106957 3.222555,7.712659 0.596161,16.210836 -6.21724,20.117012 -4.851128,2.78119 -9.691453,2.861075 -14.972188,0.247104 z m 10.615422,-9.925955 c 2.373759,-0.599147 1.735846,-3.246 -0.258319,-7.411677 -0.636746,-1.330118 -5.870601,-3.203971 -7.899947,2.083782 -1.36159,3.547816 0.0037,4.231845 2.452482,6.386286 1.234189,1.085859 0.07913,0.3618 5.705784,-1.058391 z m -7.384145,0.11656 c -3.326509,-3.67575 -1.022539,-9.171259 3.845012,-9.171259 3.016973,0 5.5,2.483027 5.5,5.5 0,4.956043 -6.03623,7.327422 -9.345012,3.671259 z m 7.332747,-2.148341 c 1.501112,-2.804854 -2.141322,-6.546272 -4.9235,-5.057295 -2.401571,1.285281 -3.037766,3.060377 -1.893924,5.284377 1.223117,2.378133 5.499386,2.235695 6.817424,-0.227082 z M 104.03307,48.224888 C 97.452225,45.153856 92.044115,39.037713 90.089505,32.455823 c -1.94056,-6.53456 -1.94056,-8.221612 0,-14.756172 1.81191,-6.101365 6.99171,-12.3053523 12.875355,-15.4211533 5.73672,-3.03799692 17.3997,-3.03799692 23.13642,0 7.94004,4.204808 14.43179,14.4604313 14.43179,22.7992393 0,1.175349 -0.7004,4.495487 -1.55644,7.378086 -3.08407,10.385201 -13.50454,18.102376 -24.44356,18.102376 -3.66664,0 -7.16669,-0.777782 -10.5,-2.333311 z m 19.11588,-10.648399 c 4.61262,-1.774522 3.91407,-4.848097 6.32366,-10.373837 1.23904,-2.84139 -0.33799,-4.811177 -0.90223,-6.611816 -0.50702,-1.618022 0.20275,-3.116091 -2.24391,-4.705911 -9.34836,-6.0744783 -8.17233,-5.9041353 -11.91977,-5.845848 -6.26857,0.0975 -14.931156,8.284612 -14.840987,13.854254 0.288032,17.79131 18.261757,15.730389 23.583237,13.683158 z m -16.62605,0.751248 c -5.52925,-3.763173 -7.489835,-7.231572 -7.489835,-13.25 0,-6.042022 1.948715,-9.465909 7.591955,-13.339073 2.79974,-1.9215703 4.35253,-2.2632523 8.69952,-1.9142883 9.06815,0.7279653 14.70853,6.5772763 14.70853,15.2533613 0,8.812904 -6.6871,15.5 -15.5,15.5 -3.23226,0 -5.73867,-0.704033 -8.01017,-2.25 z m 17.04487,-3.549409 c 4.84727,-4.847263 5.9085,-9.610322 3.31843,-14.893909 -5.34237,-10.8981413 -19.30221,-10.9576453 -24.94814,-0.106342 -4.491655,8.632797 2.50672,18.778917 12.96266,18.793071 4.30687,0.0058 5.30536,-0.431123 8.66705,-3.79282 z m 37.88838,12.876332 c -2.39331,-2.393304 -2.92308,-3.766532 -2.92308,-7.576923 0,-6.603831 3.89617,-10.5 10.5,-10.5 6.37027,0 10.5,3.928676 10.5,9.988818 0,5.180873 -1.25457,7.574345 -4.97998,9.500832 -4.79994,2.482141 -9.73433,1.949883 -13.09694,-1.412727 z m 7.42937,-9.173959 c 7.5588,-3.90881 9.33852,1.213015 0.66559,1.213015 -4.87658,0 -0.64304,-4.578898 -0.64304,0.297681 0,6.885005 -6.50914,1.843651 -0.0225,-1.510696 z" />
  </symbol>
  
  <symbol id="icon-calendar" viewBox="0 0 336.00894 316.40408">
    <g transform="translate(-7.9715215,-4.7261793)">
      <path fill="url(#sidebar-gradient-icon)" d="M 21.882471,318.20726 C 15.907447,315.08587 10.628629,308.92471 9.0456074,303.22474 7.6134929,298.06815 7.6134929,60.931853 9.0456074,55.775256 10.628629,50.075289 15.907447,43.914128 21.882471,40.792738 27.211921,38.0086 27.289621,38 47.114192,38 L 67,38 67.021962,27.75 C 67.047846,15.669419 68.928386,10.233454 74.191858,7.0243976 77.108379,5.2462412 79.216524,5.0078136 92,5.0103273 c 12.42591,0.00244 14.90124,0.2674084 17.30507,1.8523729 C 114.68981,10.413137 115.46081,12.55943 116,25.5 l 0.5,12 60.16828,0.257774 60.16828,0.257775 0.33172,-12.493911 L 237.5,13.027727 241.2639,9.2638637 245.02781,5.5 260.2669,5.1832044 C 274.84269,4.880198 275.65821,4.9681194 279.003,7.2031377 284.64043,10.97012 285.99665,14.856661 285.99845,27.25 L 286,38 l 18.63398,0 c 11.24947,0 20.16906,0.459921 22.50758,1.160558 5.48653,1.643804 11.73135,7.370875 14.48474,13.283834 l 2.35416,5.055608 -0.0122,122 c -0.0121,120.58574 -0.0358,122.05217 -2.04918,126.5 -2.7355,6.04311 -6.40969,9.77576 -12.41909,12.61671 l -5,2.36375 -148.63581,0.01 L 27.228383,321 21.882471,318.20726 Z M 324.1504,303.91951 C 329.04122,301.30202 329,302.11277 329,208.53212 L 329,121 195.5,120.7622 c -73.425,-0.1308 -142.1625,-0.2433 -152.75,-0.25 L 23.5,120.5 l -0.261154,88 c -0.191473,64.51985 0.04541,88.74438 0.887817,90.78983 C 26.645522,305.40589 15.865151,305 175.78825,305 c 102.91772,0 146.94232,-0.32062 148.36215,-1.08049 z M 122.3083,276.98108 c -3.29854,-1.31463 -5.65001,-5.48345 -4.86261,-8.6207 0.39616,-1.57843 9.38264,-11.61278 22.17192,-24.75729 L 161.12338,221.5 99.980715,221 c -59.691298,-0.48813 -61.177381,-0.54747 -62.60512,-2.5 -3.555093,-4.86182 -2.093933,-10.51599 3.241804,-12.54463 C 42.111332,205.38737 67.069718,205 102.17151,205 l 59.04132,0 -22.10642,-22.59344 C 120.32375,163.21008 117,159.36622 117,156.84081 c 0,-1.63476 0.4405,-3.79538 0.97889,-4.80137 1.44789,-2.70541 6.07275,-4.03943 9.25419,-2.66934 1.44303,0.62145 15.70591,14.4865 31.6953,30.81123 C 184.55567,206.3461 188,210.23486 188,213.00415 c 0,2.71783 -2.55117,5.7951 -18.91752,22.81867 -25.85482,26.89307 -40.20089,40.87585 -42.58248,41.50414 -1.1,0.2902 -2.98627,0.13455 -4.1917,-0.34588 z m 97.0487,-4.97266 c -2.729,-1.10129 -5.357,-4.82771 -5.357,-7.59607 0,-1.17845 0.93266,-3.32832 2.07258,-4.77749 L 218.14516,257 l 15.75311,0 c 15.17356,0 15.83309,0.0851 17.92742,2.31445 3.96573,4.22133 2.35982,10.52392 -3.22228,12.64624 -3.26685,1.24205 -26.19415,1.27947 -29.24641,0.0477 z m 54.04266,-0.39787 C 268.55898,269.44318 267.27969,262.72031 271,259 c 1.82672,-1.82672 3.33333,-2 17.38922,-2 17.13063,0 19.05043,0.62601 20.20014,6.58685 0.46211,2.39587 0.035,3.73894 -1.90798,6 l -2.50337,2.91315 -13.839,0.24935 c -10.10575,0.18208 -14.67537,-0.12512 -16.93935,-1.1388 z m -57.32708,-53.24541 c -2.7257,-3.46516 -2.61914,-6.61798 0.33999,-10.05938 l 2.41258,-2.80576 15.00521,0 c 14.50389,0 15.09149,0.081 17.58743,2.42431 3.34695,3.14229 3.46378,7.89887 0.26776,10.90138 C 249.51327,220.86644 248.41203,221 233.75813,221 l -15.61297,0 -2.07258,-2.63486 z M 271,219 c -2.62393,-2.62393 -2.65309,-8.34691 -0.0558,-10.94422 2.70906,-2.70906 7.13903,-3.32331 21.00065,-2.91192 10.81502,0.32098 12.21974,0.57609 14.22746,2.58392 2.78647,2.7866 2.97126,8.35109 0.37268,11.22248 C 304.8237,220.85229 303.5482,221 288.84501,221 274.33333,221 272.8317,220.8317 271,219 Z m -54.92742,-51.63486 c -2.72527,-3.46462 -2.6192,-6.6175 0.33844,-10.05938 2.38298,-2.77314 2.56444,-2.80962 15.60684,-3.13735 7.25771,-0.18238 14.28419,-0.0584 15.61442,0.27543 6.23687,1.56536 8.53945,9.1673 4.05327,13.38185 C 249.51327,169.86644 248.41203,170 233.75813,170 l -15.61297,0 -2.07258,-2.63486 z M 271,168 c -2.56455,-2.56455 -2.60788,-8.02773 -0.0883,-11.13922 1.86189,-2.29933 2.31964,-2.36078 17.58658,-2.36078 l 15.67494,0 2.50578,2.91315 c 1.94556,2.26184 2.37268,3.60329 1.91041,6 C 307.43965,169.37399 305.51985,170 288.38922,170 274.33333,170 272.82672,169.82672 271,168 Z M 329,83.967881 C 329,61.614839 328.27346,57.287086 324.1504,55.080491 322.9179,54.420878 315.09443,54 304.06574,54 L 286,54 l 0,8.039838 c 0,10.376061 -2.25501,15.264978 -8.30867,18.013358 -6.0797,2.760205 -26.32614,2.749579 -32.42067,-0.01702 -6.4509,-2.928366 -8.26241,-6.716239 -8.26692,-17.28618 L 237,54 l -60.5,0 -60.5,0 0,8.54966 c 0,9.728802 -1.25248,13.067762 -6.23491,16.621502 C 106.70257,81.355517 105.58945,81.5 91.82333,81.5 78.559643,81.5 76.880796,81.301503 74.385119,79.438211 68.799404,75.267873 67.647208,72.653733 67.191226,63.116479 l -0.425168,-8.892758 -3.633029,-0.600855 c -6.007333,-0.993533 -28.360128,-0.687495 -32.435047,0.444078 -2.554774,0.70944 -4.439823,2.101814 -5.746262,4.244423 -1.767982,2.899557 -1.944583,5.16045 -1.947982,24.938633 L 23,105 l 153,0 153,0 0,-21.032119 z M 101,43.5 101,21 l -9,0 -9,0 0,22.5 0,22.5 9,0 9,0 0,-22.5 z m 169,0 0,-22.5 -9,0 -9,0 0,22.5 0,22.5 9,0 9,0 0,-22.5 z" />
      <path fill="url(#sidebar-gradient-icon)" d="M 263,313.56513 263,306 l 29.06574,0 c 30.18769,0 31.78531,-0.19842 35.16202,-4.36704 1.60797,-1.98506 1.72931,-8.35611 1.75,-91.88296 L 329,120 l -33,0 -33,0 0,-7.5 0,-7.5 33,0 33,0 0,-22.565741 c 0,-13.564608 -0.41071,-23.33316 -1.02964,-24.48965 C 325.70559,53.712847 322.12636,53 303.14337,53 l -17.95596,0 -0.3437,9.985315 -0.34371,9.985315 -3.73302,3.731037 c -3.47838,3.476537 -4.21166,3.758082 -10.75,4.127531 L 263,81.225693 263,74.112847 263,67 l 4,0 4,0 0,-23.5 0,-23.5 -4,0 -4,0 0,-7.63691 0,-7.6369107 6.49975,0.5217377 c 7.27764,0.5841789 10.67809,2.3557803 13.54425,7.056417 1.62577,2.666338 1.94914,5.059108 1.95226,14.445666 L 285,38 l 17.8185,0 c 20.62886,0 26.10104,1.125633 32.18266,6.62001 2.13509,1.928925 4.92077,5.616029 6.19041,8.193564 L 343.5,57.5 l 0,122 c 0,110.47995 -0.15343,122.33736 -1.6249,125.57273 -2.44835,5.38325 -7.41313,10.52057 -12.66905,13.10934 -4.56254,2.24725 -5.64374,2.32754 -35.45605,2.63306 l -30.75,0.31513 0,-7.56513 z m 10.73641,-42.25707 c -0.96998,-0.25297 -2.46793,-1.82198 -3.32878,-3.48669 -1.26552,-2.44723 -1.34222,-3.56506 -0.40063,-5.83828 1.81826,-4.38965 5.18403,-5.18046 20.48236,-4.81245 12.98808,0.31243 13.7901,0.45072 15.60129,2.69014 2.59707,3.21111 2.39835,6.74113 -0.5452,9.68467 -2.38192,2.38193 -2.8627,2.45112 -16.25,2.33855 -7.5875,-0.0638 -14.58907,-0.32298 -15.55904,-0.57594 z m -0.41523,-51.49679 c -3.46908,-1.67717 -4.79423,-5.99581 -2.94001,-9.58147 1.99714,-3.86205 3.55264,-4.19986 19.41428,-4.21615 12.79161,-0.0131 13.38848,0.0794 15.75,2.4409 1.35,1.35 2.45455,3.62045 2.45455,5.04545 0,1.425 -1.10455,3.69545 -2.45455,5.04545 -2.37649,2.3765 -2.89321,2.4524 -16.25,2.38687 -7.5875,-0.0372 -14.77592,-0.5417 -15.97427,-1.12105 z m 0.98712,-50.78299 c -3.28751,-1.38103 -5.51609,-5.35219 -4.73967,-8.44572 1.23092,-4.90434 3.56343,-5.58256 19.19933,-5.58256 13.87375,0 14.39993,0.077 16.77749,2.45455 2.94355,2.94354 3.14227,6.47356 0.54521,9.68467 -1.82202,2.25281 -2.54235,2.37105 -15.75,2.58527 -7.61236,0.12347 -14.82693,-0.18982 -16.03236,-0.69621 z" />
    </g>
  </symbol>
  
  <symbol id="icon-coins" viewBox="0 0 178.99335 232.44063">
    <g transform="translate(-3.0066487,-4.4199353)">
      <path fill="url(#sidebar-gradient-icon)" d="m 112,235.50112 c -14.787821,-2.98249 -26.262345,-9.52211 -31.465104,-17.93276 -2.936582,-4.74721 -3.046128,-5.35538 -3.381622,-18.77394 -0.308795,-12.35069 -0.527591,-13.81072 -2,-13.34606 -4.736526,1.49474 -20.963853,2.34636 -28.955147,1.51959 C 30.850111,185.38007 19.137032,180.93281 11.316301,173.72391 2.4283101,165.53124 2.9970859,170.87549 3.021962,95.789838 3.0424928,33.819937 3.1626419,29.23933 4.865662,25.5 8.5030644,17.513336 19.529909,10.243689 34,6.292661 43.116541,3.8034085 67.822197,3.7936663 77,6.2757049 91.22252,10.122033 101.21456,16.776085 105.40977,25.194772 L 108,30.392689 l 0,28.364928 0,28.364929 4.75,-0.811273 c 2.6125,-0.4462 11.05,-0.794452 18.75,-0.773894 11.73079,0.03132 15.21156,0.411747 21.47478,2.347058 13.95594,4.312333 23.14028,10.500442 27.09764,18.257513 C 181.90139,109.72703 182,112.53343 182,161 c 0,48.46657 -0.0986,51.27297 -1.92758,54.85805 -4.36699,8.56 -17.69883,16.65017 -32.28026,19.58865 -9.24268,1.8626 -26.6952,1.88914 -35.79216,0.0544 z m 32.15084,-10.93543 c 10.05581,-1.79347 19.01664,-5.90179 23.36096,-10.71043 3.23972,-3.58598 3.4882,-4.32978 3.4882,-10.44147 0,-3.61925 -0.3375,-6.41026 -0.75,-6.20224 -16.6572,8.40007 -23.68715,10.10871 -41.25,10.0259 -14.2021,-0.067 -24.20611,-2.18118 -34.092181,-7.20492 L 89,197.0304 l 0,6.90807 c 0,5.96451 0.351952,7.32635 2.576721,9.97034 3.117264,3.70466 12.913559,8.49221 20.423279,9.98108 3.025,0.59973 6.4,1.26765 7.5,1.48427 4.53388,0.89281 17.49536,0.46772 24.65084,-0.80847 z m 4.6079,-32.4359 c 8.98004,-2.35763 17.08234,-6.86836 19.99126,-11.12958 1.74232,-2.55229 2.25,-4.70753 2.25,-9.55191 l 0,-6.25594 -5.25,2.81944 c -10.94763,5.87927 -18.6832,7.49182 -35.75,7.45241 -17.14048,-0.0396 -23.88775,-1.32111 -34.409722,-6.53551 C 92.33993,167.31791 89.52743,166 89.340278,166 89.153125,166 89,168.89047 89,172.42327 c 0,5.46183 0.38998,6.88674 2.605397,9.51962 6.5796,7.81941 19.543383,11.91801 37.962233,12.00205 8.73006,0.0398 14.03778,-0.46219 19.19111,-1.81515 z M 71.5,174.64922 l 5,-1.15878 0.285117,-9.0632 0.285117,-9.0632 -7.285117,1.27829 C 52.411173,159.69085 34.553767,157.28415 19.75,149.89893 L 14,147.0304 l 0,6.33692 c 0,7.87288 2.330541,11.71073 9.58488,15.78401 8.210485,4.61015 18.221974,6.74457 31.41512,6.69761 6.325,-0.0225 13.75,-0.56239 16.5,-1.19972 z M 150,160.45886 c 8.21029,-2.51072 14.3044,-5.90259 17.84002,-9.92943 C 170.69125,147.28206 171,146.2973 171,140.45081 l 0,-6.4796 -6.10647,3.08254 c -10.48586,5.29324 -19.61313,7.17696 -34.89353,7.20145 -15.05853,0.0241 -24.74419,-1.92335 -35.25,-7.08768 L 89,134.341 l 0,6.75277 c 0,5.78741 0.366224,7.18801 2.561744,9.79724 3.307214,3.9304 13.061436,8.62487 21.938256,10.55836 8.95237,1.94993 28.63072,1.41592 36.5,-0.99051 z M 67,143.95454 c 10.723961,-1.69993 10,-0.90113 10,-11.03375 l 0,-8.94443 -4.25,0.76182 c -2.3375,0.419 -11.225,0.7356 -19.75,0.70356 -14.253995,-0.0536 -16.143099,-0.28068 -23.5,-2.82511 -4.4,-1.52177 -9.403115,-3.63305 -11.118034,-4.69174 C 16.667047,116.8662 14.979547,116 14.631966,116 14.284385,116 14,118.9237 14,122.49712 c 0,6.01651 0.258034,6.78273 3.488202,10.35814 C 25.84762,142.10814 47.718349,147.01099 67,143.95454 Z m 81.51988,-12.95963 C 161.89506,127.57412 171,120.84752 171,114.38691 c 0,-3.36748 -5.33361,-8.91378 -11.44936,-11.90594 C 151.98018,98.777093 144.89136,97.097657 134,96.427684 111.65663,95.053249 89,104.18804 89,114.57096 c 0,6.83565 9.895272,14.006 23.37453,16.93775 9.64863,2.09858 26.88928,1.85351 36.14535,-0.5138 z M 71.389043,111.85074 c 5.196985,-1.04371 5.904979,-1.50675 7.708157,-5.04127 2.383529,-4.6721 8.373402,-10.670894 13.309152,-13.328971 C 95.404902,91.865673 96,91.00326 96,88.272596 96,86.472668 95.825523,85 95.612274,85 c -0.213249,0 -3.250749,1.334819 -6.75,2.966264 C 78.028902,93.017074 70.945207,94.416973 56,94.460596 40.159645,94.506831 30.911829,92.702706 20.729873,87.579867 L 14,84.193872 l 0,6.255181 c 0,4.843601 0.507748,6.99897 2.25,9.551157 2.841204,4.16202 10.95126,8.75193 19.57519,11.07862 7.883243,2.12687 26.775244,2.53691 35.563853,0.77191 z m 3.479994,-32.248899 c 7.833061,-2.1645 15.672994,-6.268864 18.585059,-9.729656 C 95.644284,67.269293 96,65.881348 96,59.938473 l 0,-6.908076 -5.75,2.901665 C 73.508871,64.380261 49.113067,65.823753 29.361956,59.534788 25.03788,58.157956 20.026624,56.124379 18.22583,55.015729 16.425037,53.907078 14.737537,53 14.47583,53 c -1.265212,0 -0.330533,12.437383 1.119102,14.89142 3.045755,5.156053 14.701317,11.113404 25.533824,13.050762 7.208527,1.289222 27.081117,0.499778 33.740281,-1.340341 z M 72.302595,50.37448 C 86.4539,47.178436 96,40.380837 96,33.5 96,18.21248 54.570094,9.4197078 29.75875,19.441454 11.394986,26.858908 9.0218029,37.251327 23.848914,45.321252 c 11.726995,6.38263 32.824987,8.582938 48.453681,5.053228 z" />
      <path fill="url(#sidebar-gradient-icon)" d="m 139,231.12781 0,-4.87219 4.25,-0.65554 c 7.07061,-1.0906 16.37078,-4.54275 20.71374,-7.68878 6.05953,-4.38949 8.02808,-8.22765 8.03252,-15.6613 0.002,-3.4375 -0.33376,-6.24832 -0.74626,-6.24626 -0.4125,0.002 -2.15459,0.86022 -3.87131,1.90704 -4.84253,2.95286 -16.90494,7.01607 -22.93117,7.72433 L 139,206.27536 l 0,-5.61863 c 0,-5.32581 0.14332,-5.64806 2.75,-6.18349 14.19023,-2.91473 23.56692,-7.23211 27.60372,-12.7098 2.0509,-2.78295 3.50004,-13.0962 2.28506,-16.26237 -0.5102,-1.32956 -1.14785,-1.19621 -4.36809,0.91352 -4.38977,2.87594 -16.68137,7.07734 -23.52069,8.03963 l -4.75,0.66833 0,-5.83322 0,-5.83322 6.55665,-1.24379 c 8.73947,-1.65786 18.15061,-6.11383 22.42581,-10.61813 3.23964,-3.41325 3.50916,-4.19789 3.86545,-11.25345 0.21065,-4.17141 -0.006,-7.41706 -0.48246,-7.21256 -0.476,0.2045 -3.83014,1.82256 -7.45365,3.59568 -6.72132,3.28901 -17.17355,6.23478 -22.21659,6.26136 -2.71771,0.0143 -2.79533,-0.13012 -2.5,-4.65238 l 0.30479,-4.66715 6.48338,-1.31765 c 12.29964,-2.4997 21.5361,-7.70829 24.4104,-13.76544 1.46753,-3.0926 1.49824,-3.90527 0.25956,-6.86985 -2.78648,-6.66898 -12.29548,-12.164534 -25.56584,-14.775317 L 139,95.73979 l 0,-4.931168 0,-4.931168 4.75,0.668324 c 6.55234,0.921912 18.64818,5.017226 23.88737,8.087594 6.68912,3.920083 12.05645,10.616388 13.3826,16.696168 0.77659,3.5603 1.02694,20.11837 0.80392,53.17046 -0.36457,54.02853 0.12305,50.60712 -8.32197,58.39146 -5.5215,5.08955 -12.33642,8.38076 -23.00156,11.10845 C 139.06452,236.9247 139,236.90859 139,231.12781 Z" />
    </g>
  </symbol>
</svg>